<?xml version="1.0" encoding="utf-8"?>
<!-- Generator: Adobe Illustrator 16.0.0, SVG Export Plug-In . SVG Version: 6.00 Build 0)  -->
<!DOCTYPE svg PUBLIC "-//W3C//DTD SVG 1.1//EN" "http://www.w3.org/Graphics/SVG/1.1/DTD/svg11.dtd">
<svg version="1.1" id="Layer_1" xmlns="http://www.w3.org/2000/svg" xmlns:xlink="http://www.w3.org/1999/xlink" x="0px" y="0px"
	 width="1440px" height="100px" viewBox="0 0 1440 100" enable-background="new 0 0 1440 100" xml:space="preserve">
<g>
	<g>
		<path fill="#FFFFFF" d="M1442,99.072c-17.163,0-17.163-14.289-34.325-14.289c-17.164,0-17.164,14.289-34.325,14.289
			c-17.162,0-17.162-14.289-34.321-14.289c-17.164,0-17.164,14.289-34.324,14.289s-17.161-14.289-34.323-14.289
			c-17.16,0-17.163,14.289-34.324,14.289s-17.161-14.289-34.323-14.289s-17.163,14.289-34.325,14.289s-17.162-14.289-34.325-14.289
			c-17.162,0-17.162,14.289-34.325,14.289h-0.197c-17.16,0-17.16-14.289-34.322-14.289c-17.16,0-17.16,14.289-34.322,14.289
			s-17.162-14.289-34.322-14.289c-17.163,0-17.163,14.289-34.323,14.289c-17.162,0-17.162-14.289-34.323-14.289
			c-17.162,0-17.162,14.289-34.323,14.289c-17.163,0-17.164-14.289-34.325-14.289s-17.165,14.289-34.33,14.289
			c-17.161,0-17.161-14.289-34.321-14.289c-17.162,0-17.162,14.289-34.323,14.289s-17.162-14.289-34.322-14.289
			c-17.163,0-17.163,14.289-34.324,14.289c-17.161,0-17.161-14.289-34.323-14.289s-17.162,14.289-34.323,14.289
			c-17.164,0-17.164-14.289-34.326-14.289s-17.163,14.289-34.326,14.289h-0.196c-17.162,0-17.162-14.289-34.322-14.289
			c-17.164,0-17.164,14.289-34.326,14.289c-17.161,0-17.162-14.289-34.323-14.289c-17.162,0-17.162,14.289-34.324,14.289
			s-17.162-14.289-34.322-14.289c-17.162,0-17.162,14.289-34.324,14.289c-17.163,0-17.163-14.289-34.326-14.289
			c-17.163,0-17.163,14.289-34.326,14.289c-17.162,0-17.162-14.289-34.322-14.289c-17.162,0-17.162,14.289-34.323,14.289
			c-17.162,0-17.163-14.289-34.324-14.289c-17.161,0-17.161,14.289-34.324,14.289c-17.162,0-17.162-14.289-34.322-14.289
			c-17.163,0-17.163,14.289-34.325,14.289c-17.163,0-17.163-14.289-34.326-14.289C17.163,84.783,17.163,99.072,0,99.072V-5.158h1442
			V99.072z"/>
	</g>
</g>
</svg>
