<?xml version="1.0" encoding="UTF-8"?>
<!-- Generator: Adobe Illustrator 16.0.0, SVG Export Plug-In . SVG Version: 6.00 Build 0)  -->
<!DOCTYPE svg PUBLIC "-//W3C//DTD SVG 1.1//EN" "http://www.w3.org/Graphics/SVG/1.1/DTD/svg11.dtd">
<svg version="1.1" id="Layer_1" xmlns="http://www.w3.org/2000/svg" xmlns:xlink="http://www.w3.org/1999/xlink" x="0px" y="0px" width="24px" height="24px" viewBox="0 0 24 24" enable-background="new 0 0 24 24" xml:space="preserve">
<g>
	<g>
		<g>
			<path fill="#1D1D1B" d="M18.459,16.588c-0.084,0-0.168-0.03-0.234-0.093l-3.943-3.7c-0.137-0.129-0.145-0.346-0.016-0.484     c0.131-0.139,0.346-0.145,0.484-0.015l3.945,3.7c0.137,0.128,0.145,0.346,0.014,0.483C18.643,16.552,18.551,16.588,18.459,16.588     z"/>
			<path fill="#1D1D1B" d="M18.459,17.083c-0.215,0-0.42-0.082-0.576-0.231l-3.939-3.696c-0.162-0.15-0.256-0.359-0.264-0.584     c-0.008-0.224,0.072-0.438,0.229-0.601c0.148-0.16,0.357-0.255,0.58-0.262c0.182-0.017,0.438,0.071,0.602,0.227l3.943,3.7     c0.162,0.15,0.256,0.359,0.264,0.584c0.006,0.223-0.074,0.434-0.225,0.597C18.904,16.99,18.689,17.083,18.459,17.083z      M14.412,12.657L14.41,12.66h0.004L14.412,12.657z"/>
		</g>
		<g>
			<path fill="#1D1D1B" d="M5.296,16.588c-0.091,0-0.183-0.036-0.25-0.108c-0.129-0.138-0.123-0.355,0.015-0.483l3.945-3.7     c0.138-0.129,0.355-0.123,0.484,0.015c0.129,0.138,0.123,0.355-0.015,0.484l-3.945,3.7C5.465,16.558,5.38,16.588,5.296,16.588z"/>
			<path fill="#1D1D1B" d="M5.297,17.083c-0.227,0-0.449-0.095-0.607-0.262c-0.319-0.342-0.302-0.872,0.033-1.186l3.945-3.7     c0.166-0.155,0.382-0.222,0.604-0.227c0.224,0.008,0.431,0.103,0.583,0.267c0.149,0.158,0.23,0.372,0.222,0.596     c-0.007,0.225-0.101,0.434-0.265,0.585l-3.944,3.698C5.716,17.001,5.512,17.083,5.297,17.083z M5.19,16.136     c-0.001,0-0.001,0.001-0.002,0.001L5.19,16.136z M9.134,12.432v0.004l0.003-0.001L9.134,12.432z"/>
		</g>
	</g>
	<g>
		<path fill="#1D1D1B" d="M20.791,20.028H2.965c-0.944,0-1.713-0.769-1.713-1.715V6.631c0-0.945,0.769-1.713,1.713-1.713h17.826    c0.945,0,1.715,0.768,1.715,1.713v11.683C22.506,19.26,21.736,20.028,20.791,20.028z M2.965,5.603    c-0.567,0-1.028,0.461-1.028,1.028v11.683c0,0.567,0.461,1.028,1.028,1.028h17.826c0.568,0,1.029-0.461,1.029-1.028V6.631    c0-0.567-0.461-1.028-1.029-1.028H2.965z"/>
		<path fill="#1D1D1B" d="M20.791,20.521H2.965c-1.218,0-2.209-0.99-2.209-2.208V6.631c0-1.218,0.991-2.207,2.209-2.207h17.826    C22.01,4.424,23,5.413,23,6.631v11.683C23,19.531,22.01,20.521,20.791,20.521z M2.965,6.097c-0.294,0-0.535,0.24-0.535,0.534    v11.683c0,0.295,0.241,0.534,0.535,0.534h17.826c0.295,0,0.535-0.239,0.535-0.534V6.631c0-0.294-0.24-0.534-0.535-0.534H2.965z"/>
	</g>
	<g>
		<path fill="#1D1D1B" d="M11.878,14.194c-0.456,0-0.912-0.151-1.258-0.453l-8.8-7.678C1.678,5.94,1.663,5.724,1.787,5.58    c0.125-0.143,0.341-0.155,0.484-0.033l8.8,7.677c0.438,0.381,1.178,0.381,1.616,0l8.789-7.664c0.141-0.124,0.357-0.11,0.484,0.033    c0.123,0.143,0.109,0.359-0.033,0.483l-8.789,7.664C12.79,14.043,12.334,14.194,11.878,14.194z"/>
		<path fill="#1D1D1B" d="M11.879,14.688c-0.596,0-1.158-0.204-1.585-0.575L1.495,6.437c-0.168-0.145-0.269-0.35-0.285-0.573    C1.194,5.64,1.266,5.423,1.414,5.255c0.302-0.342,0.831-0.382,1.179-0.083l8.803,7.679c0.251,0.221,0.714,0.221,0.964,0    l8.789-7.664c0.35-0.299,0.877-0.265,1.182,0.08c0.305,0.349,0.27,0.878-0.08,1.183l-8.789,7.664    C13.035,14.484,12.473,14.688,11.879,14.688z"/>
	</g>
</g>
</svg>