<?xml version="1.0" encoding="utf-8"?>
<!-- Generator: Adobe Illustrator 16.0.0, SVG Export Plug-In . SVG Version: 6.00 Build 0)  -->
<!DOCTYPE svg PUBLIC "-//W3C//DTD SVG 1.1//EN" "http://www.w3.org/Graphics/SVG/1.1/DTD/svg11.dtd">
<svg version="1.1" id="Layer_1" xmlns="http://www.w3.org/2000/svg" xmlns:xlink="http://www.w3.org/1999/xlink" x="0px" y="0px"
	 width="1920px" height="197px" viewBox="0 0 1920 197" enable-background="new 0 0 1920 197" xml:space="preserve">
<g>
	<g>
		<path fill="#EFEFEF" d="M1920,196.378c-22.854,0-22.854-19.026-45.705-19.026c-22.853,0-22.853,19.026-45.703,19.026
			s-22.851-19.026-45.699-19.026c-22.851,0-22.851,19.026-45.701,19.026c-22.85,0-22.851-19.026-45.702-19.026
			c-22.851,0-22.851,19.026-45.7,19.026c-22.849,0-22.85-19.026-45.7-19.026c-22.852,0-22.852,19.026-45.701,19.026
			c-22.854,0-22.854-19.026-45.704-19.026c-22.854,0-22.854,19.026-45.704,19.026h-0.263c-22.852,0-22.852-19.026-45.7-19.026
			c-22.851,0-22.851,19.026-45.7,19.026c-22.852,0-22.852-19.026-45.701-19.026c-22.851,0-22.851,19.026-45.701,19.026
			s-22.851-19.026-45.699-19.026c-22.853,0-22.853,19.026-45.703,19.026c-22.852,0-22.853-19.026-45.704-19.026
			c-22.851,0-22.851,19.026-45.704,19.026c-22.85,0-22.85-19.026-45.699-19.026c-22.851,0-22.851,19.026-45.7,19.026
			c-22.851,0-22.851-19.026-45.7-19.026c-22.851,0-22.852,19.026-45.701,19.026s-22.852-19.026-45.701-19.026
			s-22.851,19.026-45.701,19.026c-22.853,0-22.853-19.026-45.705-19.026c-22.852,0-22.852,19.026-45.703,19.026h-0.264
			c-22.85,0-22.85-19.026-45.699-19.026c-22.851,0-22.851,19.026-45.7,19.026c-22.852,0-22.852-19.026-45.701-19.026
			c-22.851,0-22.851,19.026-45.701,19.026c-22.85,0-22.85-19.026-45.7-19.026c-22.852,0-22.852,19.026-45.702,19.026
			c-22.852,0-22.852-19.026-45.704-19.026s-22.853,19.026-45.703,19.026s-22.851-19.026-45.7-19.026
			c-22.851,0-22.851,19.026-45.701,19.026c-22.85,0-22.851-19.026-45.701-19.026s-22.851,19.026-45.701,19.026
			s-22.851-19.026-45.7-19.026c-22.852,0-22.852,19.026-45.702,19.026c-22.853,0-22.853-19.026-45.704-19.026
			c-22.853,0-22.853,19.026-45.704,19.026V-0.597h1920v196.975H1920z"/>
	</g>
</g>
</svg>
