<?xml version="1.0" encoding="utf-8"?>
<!-- Generator: Adobe Illustrator 16.0.0, SVG Export Plug-In . SVG Version: 6.00 Build 0)  -->
<!DOCTYPE svg PUBLIC "-//W3C//DTD SVG 1.1//EN" "http://www.w3.org/Graphics/SVG/1.1/DTD/svg11.dtd">
<svg version="1.1" id="Layer_1" xmlns="http://www.w3.org/2000/svg" xmlns:xlink="http://www.w3.org/1999/xlink" x="0px" y="0px"
	 width="60px" height="60px" viewBox="0 0 60 60" enable-background="new 0 0 60 60" xml:space="preserve">
<g>
	<g>
		
			<path fill="none" stroke="#2C2C2C" stroke-width="1.5" stroke-linecap="round" stroke-linejoin="round" stroke-miterlimit="10" d="
			M41.609,48.344c1.983-1.063,3.253-5.482,2.95-12.854c-0.069-1.672-1.259-9.83-1.813-11.25c4.512,11.571,5.258,24.239,5.538,27.413
			c0.05,0.568,0.336,1.096,0.784,1.445c0.387,0.303,0.874,0.457,1.362,0.436c0.333,1.328,0.485,2.703,0.452,4.092
			c-0.009,0.338,0.248,0.623,0.586,0.652c0.328,0.027,0.654,0.039,0.979,0.039c1.549-0.002,3.057-0.32,4.496-0.949
			c0.31-0.137,0.46-0.49,0.343-0.807c-0.473-1.281-0.771-2.607-0.891-3.951c0.919-0.225,1.574-1.068,1.549-2.029l0,0
			c-0.014-0.484-0.03-0.973-0.05-1.449c-0.51-12.457-3.26-24.583-8.175-36.041l-1.073-2.5c-0.064-0.153-0.188-0.274-0.342-0.338
			L35.623,5.349"/>
		
			<path fill="none" stroke="#2C2C2C" stroke-width="1.5" stroke-linecap="round" stroke-linejoin="round" stroke-miterlimit="10" d="
			M24.281,5.37l-12.233,4.948c-0.153,0.064-0.275,0.186-0.34,0.34l-1.064,2.504C5.771,24.637,3.064,36.771,2.6,49.23
			c-0.017,0.482-0.032,0.969-0.043,1.451c-0.022,0.961,0.636,1.801,1.556,2.021c-0.115,1.346-0.409,2.674-0.876,3.955
			c-0.116,0.318,0.036,0.67,0.346,0.805c1.44,0.625,2.95,0.938,4.499,0.934c0.324,0,0.651-0.014,0.979-0.043
			c0.337-0.029,0.593-0.316,0.583-0.654c-0.04-1.389,0.107-2.764,0.437-4.094c0.029,0.002,0.058,0.004,0.086,0.004
			c0.459-0.002,0.912-0.156,1.275-0.443c0.447-0.352,0.73-0.879,0.778-1.447c0.268-3.176,0.776-15.137,5.244-26.959
			c-0.539,1.426-1.516,9.112-1.578,10.784c-0.275,7.371,0.815,11.787,2.803,12.844"/>
		
			<rect x="18.354" y="31.062" transform="matrix(0.9324 0.3615 -0.3615 0.9324 14.5949 -4.5435)" fill="none" stroke="#2C2C2C" stroke-width="1.5" stroke-linecap="round" stroke-linejoin="round" stroke-miterlimit="10" width="2.172" height="11.343"/>
		
			<rect x="40.331" y="31.022" transform="matrix(-0.9312 0.3644 -0.3644 -0.9312 93.3554 55.7718)" fill="none" stroke="#2C2C2C" stroke-width="1.5" stroke-linecap="round" stroke-linejoin="round" stroke-miterlimit="10" width="2.171" height="11.343"/>
		
			<line fill="none" stroke="#2C2C2C" stroke-width="1.5" stroke-linecap="round" stroke-linejoin="round" stroke-miterlimit="10" x1="12.003" y1="10.355" x2="17.464" y2="24.759"/>
		
			<line fill="none" stroke="#2C2C2C" stroke-width="1.5" stroke-linecap="round" stroke-linejoin="round" stroke-miterlimit="10" x1="42.746" y1="24.24" x2="48.629" y2="10.524"/>
		
			<ellipse transform="matrix(1 -0.0018 0.0018 1 -0.0118 0.0555)" fill="none" stroke="#2C2C2C" stroke-width="1.5" stroke-linecap="round" stroke-linejoin="round" stroke-miterlimit="10" cx="30.072" cy="6.423" rx="5.553" ry="5.081"/>
		
			<line fill="none" stroke="#2C2C2C" stroke-width="1.5" stroke-linecap="round" stroke-linejoin="round" stroke-miterlimit="10" x1="25.478" y1="3.571" x2="28.545" y2="11.034"/>
		
			<polyline fill="none" stroke="#2C2C2C" stroke-width="1.5" stroke-linecap="round" stroke-linejoin="round" stroke-miterlimit="10" points="
			34.676,3.933 34.267,4.96 31.854,11.028 		"/>
		
			<line fill="none" stroke="#2C2C2C" stroke-width="1.5" stroke-linecap="round" stroke-linejoin="round" stroke-miterlimit="10" x1="4.046" y1="52.666" x2="9.955" y2="53.602"/>
		
			<line fill="none" stroke="#2C2C2C" stroke-width="1.5" stroke-linecap="round" stroke-linejoin="round" stroke-miterlimit="10" x1="50.361" y1="53.527" x2="56.74" y2="52.57"/>
		
			<line fill="none" stroke="#2C2C2C" stroke-width="1.5" stroke-linecap="round" stroke-linejoin="round" stroke-miterlimit="10" x1="29.963" y1="11.503" x2="30.041" y2="53.801"/>
		
			<circle fill="none" stroke="#2C2C2C" stroke-width="1.5" stroke-linecap="round" stroke-linejoin="round" stroke-miterlimit="10" cx="23.006" cy="18.959" r="3.308"/>
		<g>
			
				<circle fill="none" stroke="#2C2C2C" stroke-width="1.5" stroke-linecap="round" stroke-linejoin="round" stroke-miterlimit="10" cx="32.329" cy="13.153" r="0.591"/>
			
				<circle fill="none" stroke="#2C2C2C" stroke-width="1.5" stroke-linecap="round" stroke-linejoin="round" stroke-miterlimit="10" cx="32.345" cy="21.423" r="0.591"/>
			
				<circle fill="none" stroke="#2C2C2C" stroke-width="1.5" stroke-linecap="round" stroke-linejoin="round" stroke-miterlimit="10" cx="32.36" cy="29.694" r="0.59"/>
			
				<circle fill="none" stroke="#2C2C2C" stroke-width="1.5" stroke-linecap="round" stroke-linejoin="round" stroke-miterlimit="10" cx="32.374" cy="37.964" r="0.591"/>
			
				<circle fill="none" stroke="#2C2C2C" stroke-width="1.5" stroke-linecap="round" stroke-linejoin="round" stroke-miterlimit="10" cx="32.39" cy="46.235" r="0.591"/>
		</g>
		
			<path fill="none" stroke="#2C2C2C" stroke-width="1.5" stroke-linecap="round" stroke-linejoin="round" stroke-miterlimit="10" d="
			M30.041,53.801c-9.925,0.018-12.291-1.828-12.291-1.828l0.702-3.705c0,0,4.021,1.766,11.582,1.768"/>
		
			<path fill="none" stroke="#2C2C2C" stroke-width="1.5" stroke-linecap="round" stroke-linejoin="round" stroke-miterlimit="10" d="
			M30.041,53.801c9.924-0.018,12.284-1.873,12.284-1.873l-0.715-3.701c0,0-4.015,1.779-11.576,1.809"/>
	</g>
</g>
</svg>
