<?xml version="1.0" encoding="utf-8"?>
<!-- Generator: Adobe Illustrator 16.0.0, SVG Export Plug-In . SVG Version: 6.00 Build 0)  -->
<!DOCTYPE svg PUBLIC "-//W3C//DTD SVG 1.1//EN" "http://www.w3.org/Graphics/SVG/1.1/DTD/svg11.dtd">
<svg version="1.1" id="Layer_1" xmlns="http://www.w3.org/2000/svg" xmlns:xlink="http://www.w3.org/1999/xlink" x="0px" y="0px"
	 width="60px" height="60px" viewBox="0 0 60 60" enable-background="new 0 0 60 60" xml:space="preserve">
<g>
	<g>
		
			<path fill="none" stroke="#2C2C2C" stroke-width="1.5" stroke-linecap="round" stroke-linejoin="round" stroke-miterlimit="10" d="
			M28.757,7.567C16.911,8.131,7.563,17.996,7.599,29.855c0.011,3.612,0.883,7.022,2.421,10.034L7.659,51.354
			c-0.127,0.619,0.432,1.162,1.048,1.016l11.233-2.66c2.886,1.438,6.127,2.268,9.558,2.32c12.107,0.186,22.203-9.428,22.58-21.532
			C52.482,17.523,41.775,6.947,28.757,7.567L28.757,7.567z M42.16,42.104c-3.289,3.289-7.664,5.102-12.316,5.102
			c-2.724,0-5.333-0.611-7.752-1.816l-1.564-0.779l-6.887,1.631l1.45-7.037l-0.771-1.51c-1.257-2.461-1.894-5.121-1.894-7.907
			c0-4.654,1.812-9.027,5.102-12.317c3.26-3.261,7.706-5.102,12.317-5.102c4.651,0,9.026,1.812,12.315,5.102
			c3.291,3.29,5.102,7.663,5.102,12.315C47.262,34.396,45.42,38.842,42.16,42.104L42.16,42.104z M42.16,42.104"/>
	</g>
	<path fill="none" stroke="#2C2C2C" stroke-width="1.5" stroke-linecap="round" stroke-linejoin="round" stroke-miterlimit="10" d="
		M39.785,34.244l-3.967-1.141c-0.521-0.148-1.084-0.002-1.465,0.387l-0.969,0.988c-0.41,0.416-1.031,0.551-1.572,0.332
		c-1.877-0.76-5.825-4.272-6.833-6.027c-0.292-0.507-0.243-1.14,0.114-1.603l0.847-1.096c0.332-0.43,0.402-1.006,0.182-1.503
		l-1.669-3.775c-0.4-0.904-1.555-1.168-2.31-0.529c-1.107,0.938-2.421,2.36-2.581,3.938c-0.282,2.78,0.911,6.285,5.419,10.492
		c5.208,4.863,9.38,5.504,12.095,4.846c1.541-0.371,2.771-1.867,3.549-3.092C41.154,35.625,40.736,34.516,39.785,34.244
		L39.785,34.244z M39.785,34.244"/>
</g>
</svg>
