<?xml version="1.0" encoding="utf-8"?>
<!-- Generator: Adobe Illustrator 16.0.0, SVG Export Plug-In . SVG Version: 6.00 Build 0)  -->
<!DOCTYPE svg PUBLIC "-//W3C//DTD SVG 1.1//EN" "http://www.w3.org/Graphics/SVG/1.1/DTD/svg11.dtd">
<svg version="1.1" id="Layer_1" xmlns="http://www.w3.org/2000/svg" xmlns:xlink="http://www.w3.org/1999/xlink" x="0px" y="0px"
	 width="60px" height="60px" viewBox="0 0 60 60" enable-background="new 0 0 60 60" xml:space="preserve">
<g>
	<g>
		<g>
			
				<path fill="none" stroke="#2C2C2C" stroke-width="1.5" stroke-linecap="round" stroke-linejoin="round" stroke-miterlimit="10" d="
				M18.754,52.448c0.918-0.918,0.918-2.405,0-3.323s-2.405-0.918-3.323,0l-2.012-2.012c0.918-0.917,0.918-2.405,0-3.322
				c-0.917-0.918-2.405-0.918-3.323,0l-2.011-2.012c0.918-0.918,0.918-2.405,0-3.323c-0.918-0.917-2.405-0.917-3.323,0L2.825,36.52
				L31.115,8.23c0.986-0.986,2.585-0.986,3.571,0l14.292,14.293c0.987,0.986,0.987,2.586,0,3.572L20.689,54.385L18.754,52.448z"/>
		</g>
		
			<line fill="none" stroke="#2C2C2C" stroke-width="1.5" stroke-linecap="round" stroke-linejoin="round" stroke-miterlimit="10" x1="8.516" y1="34.449" x2="10.802" y2="36.735"/>
		
			<line fill="none" stroke="#2C2C2C" stroke-width="1.5" stroke-linecap="round" stroke-linejoin="round" stroke-miterlimit="10" x1="12.325" y1="38.259" x2="14.61" y2="40.545"/>
		
			<line fill="none" stroke="#2C2C2C" stroke-width="1.5" stroke-linecap="round" stroke-linejoin="round" stroke-miterlimit="10" x1="16.135" y1="42.068" x2="18.42" y2="44.354"/>
		
			<line fill="none" stroke="#2C2C2C" stroke-width="1.5" stroke-linecap="round" stroke-linejoin="round" stroke-miterlimit="10" x1="19.944" y1="45.878" x2="22.229" y2="48.164"/>
	</g>
	<g>
		<g>
			
				<path fill="none" stroke="#2C2C2C" stroke-width="1.5" stroke-linecap="round" stroke-linejoin="round" stroke-miterlimit="10" d="
				M41.298,14.842l4.048-1.81c1.273-0.569,2.768,0.001,3.337,1.274l8.252,18.451c0.569,1.273-0.002,2.768-1.275,3.337L25.954,49.379
				"/>
		</g>
	</g>
</g>
</svg>
