<?xml version="1.0" encoding="utf-8"?>
<!-- Generator: Adobe Illustrator 16.0.0, SVG Export Plug-In . SVG Version: 6.00 Build 0)  -->
<!DOCTYPE svg PUBLIC "-//W3C//DTD SVG 1.1//EN" "http://www.w3.org/Graphics/SVG/1.1/DTD/svg11.dtd">
<svg version="1.1" id="Layer_1" xmlns="http://www.w3.org/2000/svg" xmlns:xlink="http://www.w3.org/1999/xlink" x="0px" y="0px"
	 width="60px" height="60px" viewBox="0 0 60 60" enable-background="new 0 0 60 60" xml:space="preserve">
<g>
	<g>
		
			<path fill-rule="evenodd" clip-rule="evenodd" fill="none" stroke="#2C2C2C" stroke-width="1.5" stroke-linecap="round" stroke-linejoin="round" stroke-miterlimit="10" d="
			M28.108,31.324v10.17c0,0.146,0.118,0.266,0.265,0.266h3.776c0.146,0,0.266-0.119,0.266-0.266V31.16h2.738
			c0.137,0,0.252-0.105,0.264-0.244l0.264-3.113c0.013-0.155-0.109-0.287-0.265-0.287h-3.001v-2.21c0-0.518,0.42-0.938,0.938-0.938
			h2.109c0.146,0,0.266-0.118,0.266-0.265V20.99c0-0.146-0.119-0.265-0.266-0.265h-3.564c-2.093,0-3.789,1.696-3.789,3.788v3.003
			h-1.889c-0.146,0-0.265,0.118-0.265,0.265v3.114c0,0.146,0.119,0.265,0.265,0.265h1.889V31.324z"/>
	</g>
	<g>
		
			<path fill="none" stroke="#2C2C2C" stroke-width="1.5" stroke-linecap="round" stroke-linejoin="round" stroke-miterlimit="10" d="
			M30.184,49.018c-10.113,0-18.341-8.229-18.341-18.338c0-10.113,8.228-18.341,18.341-18.341c10.111,0,18.337,8.228,18.337,18.341
			C48.521,40.789,40.295,49.018,30.184,49.018z"/>
	</g>
	<g>
		
			<path fill="none" stroke="#2C2C2C" stroke-width="1.5" stroke-linecap="round" stroke-linejoin="round" stroke-miterlimit="10" d="
			M30.184,52.689c-12.138,0-22.012-9.875-22.012-22.01c0-12.138,9.875-22.012,22.012-22.012c12.135,0,22.009,9.874,22.009,22.012
			C52.193,42.814,42.319,52.689,30.184,52.689z"/>
	</g>
</g>
</svg>
