<?xml version="1.0" encoding="utf-8"?>
<!-- Generator: Adobe Illustrator 16.0.0, SVG Export Plug-In . SVG Version: 6.00 Build 0)  -->
<!DOCTYPE svg PUBLIC "-//W3C//DTD SVG 1.1//EN" "http://www.w3.org/Graphics/SVG/1.1/DTD/svg11.dtd">
<svg version="1.1" id="Layer_1" xmlns="http://www.w3.org/2000/svg" xmlns:xlink="http://www.w3.org/1999/xlink" x="0px" y="0px"
	 width="24px" height="24px" viewBox="0 0 24 24" enable-background="new 0 0 24 24" xml:space="preserve">
<g>
	<g>
		<path fill-rule="evenodd" clip-rule="evenodd" fill="#1D1D1B" d="M12.217,1.631c-5.695,0-10.328,4.633-10.328,10.327
			c0,2.004,0.569,3.928,1.649,5.599L1.97,21.012c-0.145,0.318-0.092,0.692,0.135,0.958c0.174,0.204,0.426,0.316,0.686,0.316
			c0.08,0,0.16-0.01,0.239-0.031l4.323-1.187c1.493,0.799,3.166,1.218,4.865,1.218c5.695,0,10.328-4.633,10.328-10.328
			C22.545,6.264,17.912,1.631,12.217,1.631z M12.217,20.483c-1.508,0-2.993-0.402-4.292-1.161c-0.14-0.081-0.297-0.123-0.455-0.123
			c-0.08,0-0.16,0.011-0.239,0.032l-2.824,0.774l0.983-2.166c0.133-0.295,0.1-0.639-0.09-0.901c-1.052-1.458-1.608-3.18-1.608-4.98
			c0-4.699,3.824-8.523,8.524-8.523s8.525,3.824,8.525,8.523C20.742,16.659,16.918,20.483,12.217,20.483z"/>
	</g>
	<g>
		<path fill-rule="evenodd" clip-rule="evenodd" fill="#1D1D1B" d="M16.188,13.506c-0.432-0.26-0.994-0.548-1.504-0.34
			c-0.391,0.16-0.641,0.772-0.895,1.085c-0.129,0.16-0.285,0.186-0.484,0.104c-1.467-0.584-2.592-1.564-3.402-2.914
			c-0.137-0.209-0.112-0.375,0.053-0.57c0.245-0.288,0.552-0.615,0.618-1.003c0.066-0.388-0.116-0.842-0.276-1.188
			C10.092,8.24,9.863,7.61,9.421,7.36C9.014,7.131,8.479,7.259,8.116,7.554C7.491,8.063,7.189,8.861,7.198,9.652
			c0.002,0.225,0.03,0.449,0.083,0.666c0.126,0.522,0.367,1.009,0.639,1.472c0.205,0.349,0.427,0.688,0.667,1.014
			c0.785,1.066,1.761,1.993,2.892,2.686c0.565,0.346,1.174,0.649,1.803,0.857c0.707,0.233,1.336,0.477,2.1,0.331
			c0.799-0.151,1.586-0.646,1.904-1.416c0.094-0.228,0.141-0.481,0.088-0.722C17.264,14.042,16.59,13.746,16.188,13.506z"/>
	</g>
</g>
</svg>
