<?xml version="1.0" encoding="utf-8"?>
<!-- Generator: Adobe Illustrator 16.0.0, SVG Export Plug-In . SVG Version: 6.00 Build 0)  -->
<!DOCTYPE svg PUBLIC "-//W3C//DTD SVG 1.1//EN" "http://www.w3.org/Graphics/SVG/1.1/DTD/svg11.dtd">
<svg version="1.1" id="Layer_1" xmlns="http://www.w3.org/2000/svg" xmlns:xlink="http://www.w3.org/1999/xlink" x="0px" y="0px"
	 width="421px" height="219px" viewBox="0 0 421 219" enable-background="new 0 0 421 219" xml:space="preserve">
<rect x="-12" y="-1902.614" fill="none" width="480" height="3148.614"/>
<rect x="-12" y="-1902.614" fill="none" width="480" height="3148.614"/>
<rect x="-12" y="-1902.614" fill="none" width="480" height="3148.614"/>
<rect x="-12" y="-1902.614" fill="none" width="480" height="3148.614"/>
<rect x="-12" y="-1902.614" fill="none" width="480" height="3148.614"/>
<rect x="-12" y="-1902.614" fill="none" width="480" height="3148.614"/>
<rect x="-12" y="-1902.614" fill="none" width="480" height="3148.614"/>
<rect x="-12" y="-1902.614" fill="none" width="480" height="3148.614"/>
<rect x="-12" y="-1902.614" fill="none" width="480" height="3148.614"/>
<rect x="-12" y="-1902.614" fill="none" width="480" height="3148.614"/>
<g>
	<defs>
		<rect id="SVGID_1_" x="-12" y="-1902.614" width="480" height="3148.614"/>
	</defs>
	<clipPath id="SVGID_2_">
		<use xlink:href="#SVGID_1_"  overflow="visible"/>
	</clipPath>
	
		<path clip-path="url(#SVGID_2_)" fill="none" stroke="#01EDBB" stroke-width="11.543" stroke-linecap="round" stroke-linejoin="round" stroke-miterlimit="10" d="
		M109.254,48.033h239.707c25.232,0,45.688,20.455,45.688,45.688c0,25.231-20.455,45.687-45.688,45.687H46.844
		c-18.639,0-33.746,15.108-33.746,33.745v31.877h397.39"/>
	
		<path clip-path="url(#SVGID_2_)" fill="none" stroke="#1E1E1E" stroke-width="1.443" stroke-linecap="round" stroke-linejoin="round" stroke-miterlimit="10" stroke-dasharray="1.924,3.848" d="
		M27.016,145.845c-8.436,6.134-13.918,16.081-13.918,27.31v31.877h212.876"/>
	
		<path clip-path="url(#SVGID_2_)" fill="none" stroke="#1E1E1E" stroke-width="1.443" stroke-linecap="round" stroke-linejoin="round" stroke-miterlimit="10" stroke-dasharray="1.924,3.848" d="
		M365.477,51.109c17.069,6.62,29.172,23.202,29.172,42.611c0,18.746-11.291,34.856-27.443,41.899"/>
	
		<line clip-path="url(#SVGID_2_)" fill="none" stroke="#1E1E1E" stroke-width="1.443" stroke-linecap="round" stroke-linejoin="round" stroke-miterlimit="10" stroke-dasharray="1.924,3.848" x1="109.254" y1="48.033" x2="161.385" y2="48.033"/>
</g>
<g>
	<path fill="#1E1E1E" d="M46.65,134.153c-0.145,0-0.266-0.054-0.363-0.162s-0.146-0.265-0.146-0.472v-2.735
		c0-0.205,0.056-0.354,0.17-0.447c0.113-0.093,0.231-0.14,0.355-0.14h3.168c0.113,0,0.231,0.049,0.355,0.146
		c0.123,0.099,0.185,0.245,0.185,0.44v2.735c0,0.165-0.044,0.313-0.132,0.44c-0.087,0.129-0.223,0.193-0.408,0.193H46.65z
		 M46.896,153.749c-0.391,0-0.586-0.217-0.586-0.649v-15.917c0-0.433,0.195-0.649,0.586-0.649h2.721
		c0.391,0,0.587,0.217,0.587,0.649V153.1c0,0.433-0.196,0.649-0.587,0.649H46.896z"/>
	<path fill="#1E1E1E" d="M53.374,150.287c-0.401,0-0.608-0.217-0.618-0.649v-22.206c0-0.434,0.205-0.649,0.618-0.649h2.813
		c0.03,0,0.103,0.011,0.216,0.031h0.031c0.01,0.01,0.021,0.015,0.031,0.015c0.216,0.093,0.375,0.263,0.479,0.511l4.791,13.073
		l0.417,1.793l-0.077-1.639l-0.186-13.135c-0.01-0.176,0.039-0.327,0.146-0.456c0.108-0.129,0.256-0.193,0.441-0.193h2.858
		c0.381,0,0.571,0.206,0.571,0.618v22.253c0,0.423-0.211,0.634-0.633,0.634h-2.875c-0.392,0-0.648-0.18-0.772-0.541l-4.667-12.533
		l-0.433-1.561l0.108,1.639l0.139,12.347c0.021,0.433-0.176,0.649-0.587,0.649H53.374z"/>
	<path fill="#1E1E1E" d="M74.268,150.674c-1.771,0-3.261-0.536-4.466-1.607c-1.257-1.112-1.88-2.534-1.87-4.266v-12.518
		c0-1.792,0.623-3.229,1.87-4.312c1.194-1.04,2.679-1.565,4.45-1.576c1.803,0,3.302,0.525,4.497,1.576
		c1.247,1.082,1.87,2.52,1.87,4.312v12.518c0,1.793-0.623,3.225-1.87,4.297C77.554,150.148,76.061,150.674,74.268,150.674z
		 M74.268,146.64c0.629,0,1.148-0.211,1.561-0.633c0.381-0.382,0.572-0.86,0.572-1.438v-12.054c0-0.557-0.201-1.046-0.604-1.469
		c-0.442-0.422-0.952-0.628-1.529-0.617c-0.598,0-1.103,0.206-1.514,0.617c-0.402,0.402-0.604,0.892-0.604,1.469v12.054
		c0,0.566,0.19,1.046,0.572,1.438C73.124,146.429,73.639,146.64,74.268,146.64z"/>
	<path fill="#1E1E1E" d="M86.588,150.287c-0.351,0-0.572-0.19-0.664-0.572l-5.115-22.283c-0.042-0.196-0.016-0.354,0.076-0.472
		c0.094-0.118,0.222-0.178,0.387-0.178h3.091c0.401,0,0.634,0.186,0.695,0.557l2.767,15.36l0.139,1.793l0.123-1.793l2.768-15.36
		c0.051-0.371,0.283-0.557,0.695-0.557h3.09c0.176,0,0.31,0.057,0.402,0.17c0.092,0.113,0.113,0.273,0.062,0.479l-5.1,22.283
		c-0.103,0.382-0.33,0.572-0.681,0.572H86.588z"/>
	<path fill="#1E1E1E" d="M96.789,150.287c-0.402,0-0.609-0.217-0.619-0.649v-22.206c0-0.434,0.206-0.649,0.619-0.649h9.395
		c0.33,0,0.495,0.201,0.495,0.603v2.828c0,0.392-0.165,0.587-0.495,0.587h-5.779v5.579h4.482c0.359,0,0.545,0.201,0.556,0.603v2.813
		c0,0.402-0.186,0.603-0.556,0.603h-4.482v5.873h5.842c0.34,0,0.51,0.19,0.51,0.571v2.859c0,0.392-0.17,0.587-0.51,0.587H96.789z"/>
	<path fill="#1E1E1E" d="M108.951,150.287c-0.402,0-0.608-0.217-0.618-0.649v-22.206c0-0.434,0.206-0.649,0.618-0.649h5.872
		c1.823,0.021,3.302,0.541,4.435,1.561c1.176,1.062,1.762,2.54,1.762,4.436v11.481c0,1.876-0.586,3.359-1.762,4.451
		c-1.123,1.03-2.596,1.556-4.419,1.576H108.951z M112.566,146.27h2.195c0.618,0,1.112-0.201,1.483-0.604
		c0.37-0.401,0.556-0.911,0.556-1.529v-11.173c0-0.701-0.18-1.236-0.54-1.607s-0.86-0.557-1.499-0.557h-2.195V146.27z"/>
	<path fill="#1E1E1E" d="M121.604,150.287c-0.33,0-0.443-0.217-0.34-0.649l4.991-22.284c0.103-0.381,0.329-0.571,0.681-0.571h2.92
		c0.351,0,0.577,0.19,0.68,0.571l4.992,22.284c0.103,0.433-0.01,0.649-0.34,0.649h-3.292c-0.423,0-0.659-0.186-0.711-0.557
		l-0.556-3.368h-4.482l-0.541,3.368c-0.051,0.371-0.288,0.557-0.711,0.557H121.604z M126.78,142.591h3.214l-1.421-8.638l-0.17-2.241
		l-0.186,2.241L126.78,142.591z"/>
	<path fill="#1E1E1E" d="M136.981,150.287c-0.401,0-0.608-0.217-0.618-0.649v-22.206c0-0.434,0.205-0.649,0.618-0.649h5.872
		c1.824,0.021,3.302,0.541,4.436,1.561c1.174,1.062,1.762,2.54,1.762,4.436v11.481c0,1.876-0.588,3.359-1.762,4.451
		c-1.123,1.03-2.597,1.556-4.42,1.576H136.981z M140.598,146.27h2.194c0.618,0,1.112-0.201,1.483-0.604
		c0.371-0.401,0.557-0.911,0.557-1.529v-11.173c0-0.701-0.181-1.236-0.541-1.607c-0.361-0.371-0.86-0.557-1.499-0.557h-2.194V146.27
		z"/>
	<path fill="#1E1E1E" d="M151.726,150.287c-0.401,0-0.608-0.217-0.618-0.649v-22.206c0-0.434,0.205-0.649,0.618-0.649h9.396
		c0.33,0,0.494,0.201,0.494,0.603v2.828c0,0.392-0.164,0.587-0.494,0.587h-5.779v5.579h4.481c0.36,0,0.546,0.201,0.556,0.603v2.813
		c0,0.402-0.186,0.603-0.556,0.603h-4.481v5.873h5.842c0.34,0,0.51,0.19,0.51,0.571v2.859c0,0.392-0.17,0.587-0.51,0.587H151.726z"
		/>
	<path fill="#1E1E1E" d="M169.111,150.674c-1.968,0-3.523-0.618-4.667-1.854c-1.051-1.123-1.581-2.54-1.592-4.25v-0.896
		c0-0.299,0.038-0.507,0.116-0.626c0.077-0.118,0.234-0.178,0.471-0.178h2.998c0.237,0,0.395,0.049,0.472,0.147
		c0.077,0.098,0.116,0.28,0.116,0.548v0.773c0,0.803,0.247,1.4,0.741,1.792c0.401,0.33,0.87,0.495,1.407,0.495
		c0.566,0,1.061-0.19,1.482-0.572c0.434-0.392,0.649-0.891,0.649-1.499c0-0.804-0.222-1.499-0.665-2.086
		c-0.381-0.495-1.143-1.195-2.287-2.102c-0.164-0.134-0.494-0.396-0.988-0.788s-0.827-0.657-0.997-0.796
		c-0.17-0.14-0.417-0.348-0.741-0.626c-0.325-0.278-0.59-0.518-0.797-0.719c-0.205-0.201-0.396-0.415-0.571-0.642
		c-0.938-1.133-1.406-2.57-1.406-4.312c0-1.37,0.355-2.55,1.066-3.539c0.597-0.834,1.406-1.483,2.427-1.947
		c0.865-0.391,1.746-0.592,2.643-0.603c1.803,0,3.281,0.567,4.435,1.7c1.144,1.123,1.716,2.617,1.716,4.481v0.989
		c0,0.268-0.042,0.44-0.124,0.518c-0.083,0.077-0.269,0.116-0.557,0.116h-2.905c-0.217,0-0.36-0.044-0.433-0.132
		c-0.072-0.087-0.108-0.255-0.108-0.502v-0.974c0-0.618-0.17-1.128-0.51-1.53c-0.36-0.433-0.834-0.644-1.422-0.633
		c-0.516,0-0.958,0.164-1.328,0.494c-0.443,0.381-0.66,0.938-0.649,1.669c0,0.752,0.222,1.411,0.664,1.978
		c0.329,0.423,0.933,0.959,1.808,1.607c0.094,0.063,0.269,0.196,0.525,0.402c0.258,0.206,0.438,0.345,0.541,0.417
		c0.104,0.072,0.269,0.195,0.495,0.371c0.227,0.175,0.396,0.309,0.51,0.401s0.265,0.219,0.456,0.379
		c0.19,0.16,0.346,0.294,0.463,0.401c0.119,0.108,0.256,0.237,0.41,0.387s0.296,0.294,0.426,0.433
		c0.128,0.139,0.254,0.281,0.378,0.425c1.164,1.412,1.746,3.081,1.746,5.007c0,1.628-0.587,2.993-1.762,4.096
		C172.526,150.081,170.977,150.674,169.111,150.674z"/>
	<path fill="#1E1E1E" d="M184.412,150.287c-0.402,0-0.609-0.217-0.619-0.649v-22.206c0-0.434,0.206-0.649,0.619-0.649h9.395
		c0.33,0,0.495,0.201,0.495,0.603v2.828c0,0.392-0.165,0.587-0.495,0.587h-5.779v5.579h4.482c0.359,0,0.545,0.201,0.556,0.603v2.813
		c0,0.402-0.186,0.603-0.556,0.603h-4.482v5.873h5.842c0.34,0,0.51,0.19,0.51,0.571v2.859c0,0.392-0.17,0.587-0.51,0.587H184.412z"
		/>
	<path fill="#1E1E1E" d="M196.574,150.287c-0.402,0-0.608-0.217-0.618-0.649v-22.206c0-0.434,0.206-0.649,0.618-0.649h2.813
		c0.031,0,0.103,0.011,0.217,0.031h0.03c0.011,0.01,0.021,0.015,0.03,0.015c0.217,0.093,0.377,0.263,0.479,0.511l4.791,13.073
		l0.417,1.793l-0.077-1.639l-0.186-13.135c-0.011-0.176,0.038-0.327,0.147-0.456c0.107-0.129,0.254-0.193,0.439-0.193h2.859
		c0.381,0,0.572,0.206,0.572,0.618v22.253c0,0.423-0.212,0.634-0.635,0.634H205.6c-0.393,0-0.65-0.18-0.773-0.541l-4.667-12.533
		l-0.433-1.561l0.108,1.639l0.139,12.347c0.021,0.433-0.175,0.649-0.587,0.649H196.574z"/>
	<path fill="#1E1E1E" d="M218.674,150.287c-0.401,0-0.607-0.217-0.617-0.649v-22.206c0-0.434,0.205-0.649,0.617-0.649h3.014
		c0.402,0,0.603,0.216,0.603,0.649v22.206c0,0.433-0.2,0.649-0.603,0.649H218.674z"/>
	<path fill="#1E1E1E" d="M225.305,150.287c-0.402,0-0.608-0.217-0.618-0.649v-22.206c0-0.434,0.206-0.649,0.618-0.649h2.813
		c0.031,0,0.103,0.011,0.216,0.031h0.031c0.01,0.01,0.021,0.015,0.031,0.015c0.216,0.093,0.376,0.263,0.479,0.511l4.791,13.073
		l0.417,1.793l-0.077-1.639l-0.186-13.135c-0.011-0.176,0.039-0.327,0.146-0.456c0.108-0.129,0.256-0.193,0.44-0.193h2.859
		c0.381,0,0.571,0.206,0.571,0.618v22.253c0,0.423-0.211,0.634-0.633,0.634h-2.875c-0.392,0-0.648-0.18-0.772-0.541l-4.667-12.533
		l-0.433-1.561l0.108,1.639l0.139,12.347c0.021,0.433-0.175,0.649-0.587,0.649H225.305z"/>
	<path fill="#1E1E1E" d="M246.074,150.674c-1.968,0-3.523-0.618-4.667-1.854c-1.051-1.123-1.581-2.54-1.591-4.25v-0.896
		c0-0.299,0.038-0.507,0.115-0.626c0.077-0.118,0.234-0.178,0.472-0.178h2.998c0.236,0,0.394,0.049,0.471,0.147
		c0.078,0.098,0.116,0.28,0.116,0.548v0.773c0,0.803,0.247,1.4,0.742,1.792c0.401,0.33,0.87,0.495,1.406,0.495
		c0.566,0,1.061-0.19,1.483-0.572c0.433-0.392,0.649-0.891,0.649-1.499c0-0.804-0.222-1.499-0.665-2.086
		c-0.381-0.495-1.144-1.195-2.287-2.102c-0.165-0.134-0.494-0.396-0.989-0.788c-0.494-0.392-0.826-0.657-0.996-0.796
		c-0.17-0.14-0.418-0.348-0.742-0.626s-0.59-0.518-0.796-0.719s-0.396-0.415-0.571-0.642c-0.938-1.133-1.406-2.57-1.406-4.312
		c0-1.37,0.355-2.55,1.065-3.539c0.598-0.834,1.406-1.483,2.427-1.947c0.865-0.391,1.746-0.592,2.643-0.603
		c1.803,0,3.281,0.567,4.435,1.7c1.145,1.123,1.716,2.617,1.716,4.481v0.989c0,0.268-0.041,0.44-0.124,0.518
		c-0.082,0.077-0.268,0.116-0.556,0.116h-2.905c-0.217,0-0.361-0.044-0.433-0.132c-0.072-0.087-0.108-0.255-0.108-0.502v-0.974
		c0-0.618-0.17-1.128-0.51-1.53c-0.361-0.433-0.835-0.644-1.422-0.633c-0.516,0-0.958,0.164-1.329,0.494
		c-0.443,0.381-0.659,0.938-0.649,1.669c0,0.752,0.222,1.411,0.665,1.978c0.329,0.423,0.932,0.959,1.808,1.607
		c0.093,0.063,0.268,0.196,0.525,0.402s0.438,0.345,0.541,0.417s0.268,0.195,0.494,0.371c0.227,0.175,0.396,0.309,0.511,0.401
		c0.113,0.093,0.265,0.219,0.456,0.379c0.19,0.16,0.345,0.294,0.463,0.401c0.118,0.108,0.255,0.237,0.41,0.387
		c0.154,0.149,0.296,0.294,0.425,0.433s0.255,0.281,0.378,0.425c1.164,1.412,1.747,3.081,1.747,5.007
		c0,1.628-0.588,2.993-1.762,4.096C249.49,150.081,247.939,150.674,246.074,150.674z"/>
	<path fill="#1E1E1E" d="M257.311,150.287c-0.33,0-0.495-0.201-0.495-0.603V130.8h-3.431c-0.33,0-0.494-0.195-0.494-0.587V127.4
		c0-0.423,0.164-0.628,0.494-0.618h11.064c0.145,0,0.266,0.054,0.363,0.162s0.147,0.255,0.147,0.44v2.828
		c0,0.392-0.17,0.587-0.511,0.587h-3.415v18.885c0,0.401-0.165,0.603-0.494,0.603H257.311z"/>
	<path fill="#1E1E1E" d="M263.477,150.287c-0.329,0-0.442-0.217-0.34-0.649l4.991-22.284c0.104-0.381,0.33-0.571,0.68-0.571h2.921
		c0.351,0,0.577,0.19,0.681,0.571l4.991,22.284c0.103,0.433-0.011,0.649-0.34,0.649h-3.292c-0.423,0-0.659-0.186-0.711-0.557
		l-0.556-3.368h-4.482l-0.54,3.368c-0.052,0.371-0.289,0.557-0.711,0.557H263.477z M268.653,142.591h3.215l-1.422-8.638l-0.17-2.241
		l-0.186,2.241L268.653,142.591z"/>
	<path fill="#1E1E1E" d="M283.988,150.674c-1.767,0-3.253-0.521-4.458-1.562c-1.268-1.061-1.896-2.498-1.886-4.312v-12.518
		c0-1.792,0.623-3.229,1.87-4.312c1.194-1.04,2.684-1.565,4.466-1.576c1.483,0,2.73,0.355,3.74,1.066
		c0.834,0.608,1.462,1.401,1.885,2.38c0.34,0.804,0.51,1.648,0.51,2.534v1.53c0,0.268-0.038,0.453-0.115,0.557
		c-0.077,0.103-0.225,0.154-0.44,0.154h-3.091c-0.206,0-0.348-0.049-0.425-0.146c-0.077-0.099-0.116-0.266-0.116-0.503v-1.483
		c0-0.535-0.181-1.015-0.541-1.438c-0.381-0.422-0.865-0.628-1.452-0.617c-0.557,0-1.041,0.19-1.453,0.571
		c-0.423,0.381-0.629,0.86-0.618,1.438v12.131c0,0.598,0.217,1.097,0.649,1.499c0.422,0.381,0.911,0.571,1.468,0.571
		c0.566,0,1.051-0.198,1.453-0.595c0.401-0.396,0.603-0.862,0.603-1.398v-2.828h-1.422c-0.34,0-0.51-0.201-0.51-0.603v-2.488
		c0-0.401,0.17-0.603,0.51-0.603h4.976c0.402,0,0.604,0.211,0.604,0.634v6.042c0,1.783-0.604,3.215-1.809,4.297
		C287.221,150.148,285.755,150.674,283.988,150.674z"/>
	<path fill="#1E1E1E" d="M292.759,150.287c-0.402,0-0.608-0.211-0.618-0.634v-22.222c0-0.434,0.206-0.649,0.618-0.649h5.733
		c1.771,0,3.261,0.593,4.466,1.777c1.185,1.185,1.777,2.632,1.777,4.342v2.905c0,2.092-0.768,3.72-2.303,4.884l2.534,8.947
		c0.041,0.165,0.025,0.314-0.046,0.448c-0.072,0.135-0.186,0.201-0.34,0.201h-3.323c-0.175,0-0.301-0.036-0.378-0.108
		c-0.078-0.071-0.132-0.216-0.163-0.433l-1.854-7.695c-0.051,0.01-0.139,0.015-0.263,0.015h-0.263h-1.962v7.588
		c0,0.423-0.196,0.634-0.588,0.634H292.759z M296.375,138.032h2.117c0.628,0,1.12-0.193,1.476-0.579
		c0.355-0.387,0.533-0.889,0.533-1.507v-3.06c0-0.629-0.186-1.134-0.557-1.515s-0.86-0.572-1.468-0.572h-2.102V138.032z"/>
	<path fill="#1E1E1E" d="M305.637,150.287c-0.329,0-0.442-0.217-0.34-0.649l4.991-22.284c0.104-0.381,0.33-0.571,0.68-0.571h2.921
		c0.351,0,0.577,0.19,0.681,0.571l4.991,22.284c0.103,0.433-0.011,0.649-0.34,0.649h-3.292c-0.423,0-0.659-0.186-0.711-0.557
		l-0.556-3.368h-4.482l-0.54,3.368c-0.052,0.371-0.289,0.557-0.711,0.557H305.637z M310.813,142.591h3.215l-1.422-8.638l-0.17-2.241
		l-0.186,2.241L310.813,142.591z"/>
	<path fill="#1E1E1E" d="M320.875,150.287c-0.319,0-0.479-0.217-0.479-0.649v-22.253c0.03-0.401,0.195-0.603,0.494-0.603h3.833
		c0.175,0,0.288,0.038,0.34,0.116c0.051,0.077,0.113,0.229,0.186,0.455l3.368,12.225l0.171,1.236l0.185-1.236l3.4-12.225
		c0.093-0.309,0.186-0.483,0.278-0.525c0.051-0.03,0.134-0.046,0.247-0.046h3.816c0.299,0,0.464,0.201,0.495,0.603v22.253
		c0,0.433-0.16,0.649-0.479,0.649h-2.998c-0.34,0-0.505-0.217-0.494-0.649l0.046-13.306l0.108-1.189l-0.016,0.124l-3.121,11.033
		c-0.062,0.227-0.126,0.382-0.193,0.464c-0.067,0.083-0.183,0.124-0.348,0.124h-1.823c-0.165,0-0.278-0.041-0.34-0.124
		c-0.063-0.082-0.129-0.237-0.201-0.464l-3.106-11.033l-0.031-0.124l0.108,1.189l0.047,13.306c0,0.433-0.165,0.649-0.495,0.649
		H320.875z"/>
	<path fill="#1E1E1E" d="M340.193,150.287c-0.123,0-0.242-0.044-0.354-0.132c-0.114-0.087-0.171-0.233-0.171-0.44v-2.75
		c0-0.206,0.049-0.363,0.147-0.472c0.098-0.108,0.219-0.162,0.363-0.162h3.168c0.36,0,0.541,0.211,0.541,0.634v2.735
		c0,0.195-0.06,0.343-0.178,0.44c-0.119,0.098-0.235,0.146-0.348,0.146H340.193z M340.426,143.936c-0.402,0-0.603-0.211-0.603-0.634
		v-15.917c0-0.442,0.2-0.659,0.603-0.649h2.704c0.392,0,0.593,0.217,0.603,0.649v15.917c0,0.433-0.2,0.645-0.603,0.634H340.426z"/>
</g>
<path fill="none" stroke="#1E1E1E" stroke-width="1.443" stroke-linecap="round" stroke-linejoin="round" stroke-miterlimit="10" d="
	M52.195,81.098c3.466,0,3.466,4.703,6.933,4.703c3.466,0,3.466-4.703,6.933-4.703s3.467,4.703,6.934,4.703
	c3.466,0,3.466-4.703,6.932-4.703c3.467,0,3.467,4.703,6.934,4.703c3.468,0,3.468-4.703,6.935-4.703
	c3.468,0,3.468,4.703,6.937,4.703c3.468,0,3.468-4.703,6.935-4.703"/>
<path fill="none" stroke="#1E1E1E" stroke-width="1.443" stroke-linecap="round" stroke-linejoin="round" stroke-miterlimit="10" d="
	M58.341,93.663c3.466,0,3.466,4.703,6.933,4.703s3.467-4.703,6.932-4.703c3.468,0,3.468,4.703,6.935,4.703
	c3.466,0,3.466-4.703,6.933-4.703s3.467,4.703,6.934,4.703s3.467-4.703,6.936-4.703c3.467,0,3.467,4.703,6.935,4.703
	s3.468-4.703,6.935-4.703"/>
<polyline fill="none" stroke="#1E1E1E" stroke-width="1.443" stroke-linecap="round" stroke-linejoin="round" stroke-miterlimit="10" points="
	210.938,36.756 225.974,48.033 210.938,59.31 "/>
<polyline fill="none" stroke="#1E1E1E" stroke-width="1.443" stroke-linecap="round" stroke-linejoin="round" stroke-miterlimit="10" points="
	200.497,36.756 215.533,48.033 200.497,59.31 "/>
<polyline fill="none" stroke="#1E1E1E" stroke-width="1.443" stroke-linecap="round" stroke-linejoin="round" stroke-miterlimit="10" points="
	190.056,36.756 205.092,48.033 190.056,59.31 "/>
<polyline fill="none" stroke="#1E1E1E" stroke-width="1.443" stroke-linecap="round" stroke-linejoin="round" stroke-miterlimit="10" points="
	179.614,36.756 194.65,48.033 179.614,59.31 "/>
<polyline fill="none" stroke="#1E1E1E" stroke-width="1.443" stroke-linecap="round" stroke-linejoin="round" stroke-miterlimit="10" points="
	275.693,193.754 290.728,205.03 275.693,216.307 "/>
<polyline fill="none" stroke="#1E1E1E" stroke-width="1.443" stroke-linecap="round" stroke-linejoin="round" stroke-miterlimit="10" points="
	265.252,193.754 280.286,205.03 265.252,216.307 "/>
<polyline fill="none" stroke="#1E1E1E" stroke-width="1.443" stroke-linecap="round" stroke-linejoin="round" stroke-miterlimit="10" points="
	254.81,193.754 269.846,205.03 254.81,216.307 "/>
<polyline fill="none" stroke="#1E1E1E" stroke-width="1.443" stroke-linecap="round" stroke-linejoin="round" stroke-miterlimit="10" points="
	244.368,193.754 259.404,205.03 244.368,216.307 "/>
<path fill="#FFFFFF" d="M328.211,89.731h-35.992c-13.625,0-24.671-11.045-24.671-24.67V29.069c0-13.625,11.046-24.671,24.671-24.671
	h35.992c13.625,0,24.671,11.046,24.671,24.671v35.992C352.882,78.687,341.836,89.731,328.211,89.731"/>
<path fill="none" stroke="#1E1E1E" stroke-width="1.443" stroke-miterlimit="10" d="M328.211,89.731h-35.992
	c-13.625,0-24.671-11.045-24.671-24.67V29.069c0-13.625,11.046-24.671,24.671-24.671h35.992c13.625,0,24.671,11.046,24.671,24.671
	v35.992C352.882,78.687,341.836,89.731,328.211,89.731z"/>
<path fill="#F6DE03" d="M324.934,82.721h-29.437c-11.563,0-20.938-9.374-20.938-20.937V32.347c0-11.563,9.374-20.937,20.938-20.937
	h29.437c11.563,0,20.938,9.373,20.938,20.937v29.438C345.871,73.347,336.497,82.721,324.934,82.721"/>
<path fill="none" stroke="#1E1E1E" stroke-width="1.443" stroke-miterlimit="10" d="M324.934,82.721h-29.437
	c-11.563,0-20.938-9.374-20.938-20.937V32.347c0-11.563,9.374-20.937,20.938-20.937h29.437c11.563,0,20.938,9.373,20.938,20.937
	v29.438C345.871,73.347,336.497,82.721,324.934,82.721z"/>
<path fill="#5724B9" d="M332.284,47.065c0,12.188-9.881,22.068-22.069,22.068c-12.188,0-22.068-9.88-22.068-22.068
	s9.881-22.069,22.068-22.069C322.403,24.996,332.284,34.877,332.284,47.065"/>
<circle fill="none" stroke="#1E1E1E" stroke-width="1.443" stroke-linecap="round" stroke-linejoin="round" stroke-miterlimit="10" cx="310.215" cy="47.065" r="22.069"/>
<path fill="#FFFFFF" d="M325.302,47.065c0,8.332-6.755,15.087-15.087,15.087s-15.086-6.755-15.086-15.087
	s6.754-15.087,15.086-15.087S325.302,38.733,325.302,47.065"/>
<circle fill="none" stroke="#1E1E1E" stroke-width="1.443" stroke-linecap="round" stroke-linejoin="round" stroke-miterlimit="10" cx="310.215" cy="47.065" r="15.086"/>
<path fill="#1E1E1E" d="M333.29,22.831c0,1.646-1.333,2.979-2.979,2.979c-1.645,0-2.979-1.334-2.979-2.979s1.334-2.979,2.979-2.979
	C331.957,19.853,333.29,21.186,333.29,22.831"/>
<rect x="-12" y="-1902.614" fill="none" width="480" height="3148.614"/>
<rect x="-12" y="-1902.614" fill="none" width="480" height="3148.614"/>
<rect x="-12" y="-1902.614" fill="none" width="480" height="3148.614"/>
<rect x="-12" y="-1902.614" fill="none" width="480" height="3148.614"/>
<rect x="-12" y="-1902.614" fill="none" width="480" height="3148.614"/>
<g>
	<defs>
		<rect id="SVGID_3_" x="-12" y="-1902.614" width="480" height="3148.614"/>
	</defs>
	<clipPath id="SVGID_4_">
		<use xlink:href="#SVGID_3_"  overflow="visible"/>
	</clipPath>
</g>
<rect x="-12" y="-1902.61" fill="none" width="480" height="3148.61"/>
</svg>
