<?xml version="1.0" encoding="utf-8"?>
<!-- Generator: Adobe Illustrator 16.0.0, SVG Export Plug-In . SVG Version: 6.00 Build 0)  -->
<!DOCTYPE svg PUBLIC "-//W3C//DTD SVG 1.1//EN" "http://www.w3.org/Graphics/SVG/1.1/DTD/svg11.dtd">
<svg version="1.1" id="Layer_1" xmlns="http://www.w3.org/2000/svg" xmlns:xlink="http://www.w3.org/1999/xlink" x="0px" y="0px"
	 width="1126.553px" height="404.658px" viewBox="0 0 1126.553 404.658" enable-background="new 0 0 1126.553 404.658"
	 xml:space="preserve">
<path fill="none" stroke="#01EEBC" stroke-width="13.504" stroke-linecap="round" stroke-linejoin="round" stroke-miterlimit="10" d="
	M94.671,36.792h189.377c45.366,0,82.143,36.777,82.143,82.143s-36.777,82.143-82.143,82.143H49.734
	c-21.803,0-39.478,17.674-39.478,39.479v31.09h241.659c13.83,0,25.042,11.213,25.042,25.043s-11.212,25.041-25.042,25.041h-84.206
	c-9.821,0-17.782,7.961-17.782,17.783c0,9.82,7.961,17.78,17.782,17.78h885.45"/>
<g>
	<path fill="#1E1E1E" d="M96.112,159.329c-0.6,0-0.9-0.407-0.9-1.22v-41.824c0.058-0.755,0.368-1.133,0.93-1.133h7.203
		c0.329,0,0.542,0.073,0.639,0.218c0.097,0.146,0.213,0.431,0.349,0.857l6.332,22.974l0.319,2.323l0.349-2.323l6.39-22.974
		c0.174-0.581,0.349-0.91,0.523-0.987c0.097-0.058,0.251-0.087,0.465-0.087h7.174c0.561,0,0.871,0.378,0.929,1.133v41.824
		c0,0.813-0.3,1.22-0.9,1.22h-5.634c-0.639,0-0.949-0.407-0.93-1.22l0.087-25.007l0.203-2.236l-0.029,0.232l-5.867,20.738
		c-0.116,0.426-0.237,0.716-0.363,0.871c-0.126,0.155-0.344,0.232-0.654,0.232h-3.427c-0.31,0-0.522-0.077-0.639-0.232
		c-0.116-0.155-0.243-0.445-0.378-0.871l-5.838-20.738l-0.058-0.232l0.204,2.236l0.087,25.007c0,0.813-0.31,1.22-0.929,1.22H96.112z
		"/>
	<path fill="#1E1E1E" d="M142.905,160.055c-3.234,0-6.032-1.075-8.394-3.224c-2.362-2.149-3.543-4.753-3.543-7.813v-32.646
		c0-0.349,0.082-0.639,0.247-0.872s0.373-0.349,0.625-0.349h6.128c0.619,0,0.929,0.407,0.929,1.22v32.181
		c0,1.104,0.368,2.014,1.104,2.73c0.755,0.813,1.723,1.215,2.904,1.206c1.181-0.01,2.149-0.411,2.904-1.206
		c0.716-0.716,1.084-1.626,1.104-2.73v-32.152c0-0.349,0.092-0.644,0.276-0.886s0.431-0.363,0.741-0.363h5.838
		c0.329,0,0.59,0.126,0.784,0.378c0.193,0.251,0.291,0.542,0.291,0.871v32.617c0,3.079-1.172,5.683-3.514,7.813
		C148.984,158.98,146.177,160.055,142.905,160.055z"/>
	<path fill="#1E1E1E" d="M170.179,160.055c-3.35,0-6.147-0.987-8.394-2.962c-2.362-2.052-3.534-4.753-3.514-8.104v-23.497
		c0-3.175,1.104-5.809,3.311-7.9c2.207-2.11,5.073-3.166,8.597-3.166c3.737,0,6.651,1.172,8.743,3.515
		c1.859,2.11,2.788,4.686,2.788,7.726v3.05c0,0.522-0.073,0.881-0.218,1.074c-0.146,0.194-0.421,0.291-0.828,0.291h-5.78
		c-0.388,0-0.654-0.092-0.799-0.276c-0.146-0.184-0.208-0.508-0.189-0.973v-2.904c0-1.006-0.339-1.907-1.017-2.701
		c-0.716-0.832-1.646-1.239-2.788-1.22c-1.162,0-2.101,0.383-2.817,1.147c-0.716,0.765-1.075,1.66-1.075,2.687v22.684
		c0,1.065,0.358,1.985,1.075,2.759c0.755,0.813,1.723,1.215,2.904,1.206s2.121-0.411,2.817-1.206
		c0.678-0.793,1.026-1.713,1.046-2.759v-3.776c0-0.484,0.067-0.813,0.203-0.988c0.135-0.174,0.396-0.261,0.784-0.261h5.78
		c0.387,0,0.658,0.078,0.813,0.232c0.154,0.155,0.232,0.465,0.232,0.929v4.328c0,3.369-1.132,6.07-3.398,8.104
		C176.269,159.068,173.51,160.055,170.179,160.055z"/>
	<path fill="#1E1E1E" d="M186.358,159.329c-0.736,0-1.114-0.407-1.133-1.22v-41.736c0-0.813,0.378-1.22,1.133-1.22h5.693
		c0.755,0,1.132,0.407,1.132,1.22v16.526h8.365v-16.526c0-0.349,0.102-0.639,0.305-0.872s0.489-0.349,0.857-0.349h5.722
		c0.716,0,1.075,0.388,1.075,1.162v41.823c0,0.794-0.397,1.191-1.191,1.191h-5.605c-0.755,0-1.143-0.396-1.162-1.191V140.45h-8.365
		v17.659c0,0.813-0.377,1.22-1.132,1.22H186.358z"/>
	<path fill="#1E1E1E" d="M211.716,159.329c-0.619,0-0.832-0.407-0.639-1.22l9.381-41.882c0.193-0.716,0.62-1.075,1.278-1.075h5.489
		c0.658,0,1.084,0.359,1.278,1.075l9.381,41.882c0.193,0.813-0.02,1.22-0.639,1.22h-6.187c-0.794,0-1.239-0.349-1.336-1.045
		l-1.045-6.332h-8.423l-1.017,6.332c-0.097,0.697-0.542,1.045-1.336,1.045H211.716z M221.446,144.865h6.041l-2.672-16.236
		l-0.32-4.211l-0.348,4.211L221.446,144.865z"/>
</g>
<g>
	<path fill="#1E1E1E" d="M624.482,350.672c-0.155,0-0.285-0.056-0.391-0.167c-0.105-0.11-0.158-0.267-0.158-0.466v-2.129
		c0-0.398,0.178-0.599,0.532-0.599h2.479c0.133,0,0.255,0.056,0.366,0.167c0.11,0.11,0.166,0.26,0.166,0.449v2.096
		c0,0.432-0.188,0.648-0.565,0.648H624.482z M624.799,372.676c-0.389,0-0.582-0.211-0.582-0.632v-17.963
		c0-0.421,0.193-0.632,0.582-0.632h1.83c0.376,0,0.565,0.211,0.565,0.632v17.963c0,0.421-0.189,0.632-0.565,0.632H624.799z"/>
	<path fill="#1E1E1E" d="M636.177,369.332c-1.829,0-3.318-0.584-4.466-1.754s-1.721-2.658-1.721-4.466v-0.932
		c0-0.255,0.038-0.443,0.116-0.565c0.077-0.121,0.227-0.183,0.449-0.183h2.046c0.199,0,0.341,0.053,0.424,0.157
		c0.083,0.105,0.125,0.27,0.125,0.491v0.864c0,1.121,0.359,1.986,1.081,2.596c0.576,0.488,1.247,0.731,2.012,0.731
		c0.843,0,1.58-0.288,2.213-0.864c0.632-0.588,0.941-1.32,0.931-2.196c0-1.12-0.288-2.073-0.864-2.86
		c-0.411-0.543-1.431-1.491-3.061-2.844c-0.056-0.045-0.214-0.17-0.474-0.375c-0.261-0.205-0.425-0.332-0.491-0.383
		c-0.066-0.049-0.208-0.163-0.424-0.34c-0.217-0.178-0.366-0.3-0.449-0.367c-0.083-0.066-0.216-0.177-0.399-0.332
		c-0.183-0.155-0.315-0.274-0.399-0.357c-0.083-0.084-0.196-0.191-0.341-0.324c-0.144-0.133-0.264-0.25-0.357-0.35
		s-0.199-0.211-0.315-0.332c-0.117-0.123-0.22-0.238-0.309-0.35c-1.009-1.23-1.513-2.705-1.513-4.424
		c0-1.541,0.382-2.828,1.147-3.859c0.643-0.865,1.485-1.508,2.528-1.93c0.864-0.354,1.68-0.531,2.444-0.531
		c1.797,0,3.266,0.588,4.407,1.763c1.12,1.164,1.681,2.639,1.681,4.424v1.114c0,0.232-0.042,0.395-0.125,0.482
		c-0.083,0.089-0.247,0.133-0.491,0.133h-1.995c-0.2,0-0.336-0.044-0.408-0.133c-0.072-0.088-0.107-0.244-0.107-0.465v-1.115
		c0-0.854-0.256-1.58-0.766-2.179c-0.555-0.644-1.27-0.964-2.146-0.964c-0.721,0-1.358,0.232-1.912,0.697
		c-0.71,0.6-1.064,1.476-1.064,2.629c0,1.042,0.349,1.962,1.048,2.761c0.354,0.41,1.086,1.059,2.195,1.946
		c0.842,0.697,1.668,1.363,2.478,1.995c1.597,1.298,2.673,2.667,3.227,4.108c0.311,0.832,0.461,1.808,0.449,2.928
		c0,1.607-0.588,2.993-1.763,4.158C639.564,368.734,638.018,369.332,636.177,369.332z"/>
	<path fill="#1E1E1E" d="M645.558,368.95c-0.389,0-0.582-0.216-0.582-0.648v-24.017c0-0.422,0.193-0.633,0.582-0.633h9.381
		c0.332,0,0.499,0.194,0.499,0.582v1.896c0,0.377-0.167,0.565-0.499,0.565h-6.77v7.817h5.372c0.155,0,0.285,0.047,0.391,0.141
		c0.105,0.095,0.158,0.236,0.158,0.425v1.896c0,0.377-0.183,0.566-0.549,0.566h-5.372v8.365h6.77c0.343,0,0.516,0.184,0.516,0.549
		v1.93c0,0.377-0.173,0.565-0.516,0.565H645.558z"/>
	<path fill="#1E1E1E" d="M663.268,369.332c-1.719,0-3.177-0.537-4.374-1.613c-1.254-1.119-1.88-2.566-1.88-4.34v-14.138
		c0-1.752,0.615-3.193,1.846-4.325c1.198-1.098,2.673-1.651,4.425-1.662c1.996,0,3.554,0.682,4.674,2.045
		c0.931,1.164,1.396,2.495,1.396,3.992v1.447c0,0.277-0.039,0.465-0.116,0.564c-0.078,0.101-0.222,0.15-0.433,0.15h-2.079
		c-0.199,0-0.341-0.05-0.424-0.15c-0.083-0.1-0.125-0.271-0.125-0.516v-1.413c0-0.831-0.271-1.547-0.814-2.146
		c-0.555-0.609-1.259-0.914-2.112-0.914c-0.843,0-1.559,0.293-2.146,0.881c-0.599,0.576-0.898,1.286-0.898,2.129v13.921
		c0,0.854,0.316,1.586,0.948,2.196c0.587,0.564,1.291,0.848,2.112,0.848c0.831,0,1.544-0.297,2.137-0.89
		c0.594-0.593,0.89-1.294,0.89-2.104v-4.074h-2.062c-0.366,0-0.549-0.184-0.549-0.549v-1.68c0-0.389,0.183-0.582,0.549-0.582h4.623
		c0.389,0,0.588,0.21,0.599,0.631v6.338c0,1.763-0.599,3.204-1.796,4.324C666.494,368.789,665.03,369.332,663.268,369.332z"/>
	<path fill="#1E1E1E" d="M678.254,369.332c-1.719,0-3.193-0.582-4.424-1.746c-1.231-1.142-1.841-2.545-1.83-4.207v-19.094
		c0-0.178,0.05-0.328,0.15-0.449c0.1-0.122,0.21-0.184,0.332-0.184h2.212c0.333,0,0.499,0.211,0.499,0.633v18.927
		c0,0.865,0.294,1.586,0.882,2.162c0.588,0.61,1.319,0.915,2.195,0.915c0.865,0,1.603-0.305,2.212-0.915
		c0.577-0.599,0.871-1.319,0.882-2.162v-18.894c0-0.455,0.177-0.677,0.532-0.666h2.112c0.366,0,0.549,0.223,0.549,0.666v19.061
		c0,1.652-0.615,3.055-1.846,4.207C681.47,368.75,679.983,369.332,678.254,369.332z"/>
	<path fill="#1E1E1E" d="M688.252,368.95c-0.389,0-0.582-0.216-0.582-0.648v-24.017c0-0.422,0.193-0.633,0.582-0.633h2.029
		c0.377,0,0.57,0.211,0.582,0.633v24.017c0,0.433-0.194,0.648-0.582,0.648H688.252z M688.551,341.274
		c-0.166,0-0.296-0.075-0.391-0.225c-0.094-0.149-0.097-0.341-0.008-0.574l1.779-3.941c0.077-0.211,0.161-0.353,0.25-0.425
		c0.088-0.071,0.232-0.107,0.432-0.107h1.58c0.155,0,0.27,0.08,0.342,0.241c0.071,0.161,0.063,0.341-0.025,0.54l-2.079,3.976
		c-0.166,0.344-0.399,0.516-0.698,0.516H688.551z"/>
	<path fill="#1E1E1E" d="M694.806,368.95c-0.389,0-0.582-0.216-0.582-0.648v-24.017c0-0.422,0.193-0.633,0.582-0.633h1.979
		c0.31,0.078,0.516,0.25,0.615,0.516l6.52,16.815l0.416,1.63l-0.083-1.53l-0.116-16.798c-0.012-0.189,0.033-0.342,0.133-0.458
		s0.249-0.175,0.449-0.175h1.912c0.377,0,0.565,0.211,0.565,0.633v24.033c0,0.422-0.205,0.632-0.615,0.632h-1.929
		c-0.355,0-0.588-0.167-0.699-0.499l-6.503-16.6l-0.35-1.213l0.083,1.33l0.101,16.333c0,0.433-0.194,0.648-0.582,0.648H694.806z"/>
	<path fill="#1E1E1E" d="M716.361,369.332c-1.764,0-3.232-0.554-4.408-1.662c-1.23-1.131-1.846-2.563-1.846-4.291v-14.138
		c0-1.752,0.615-3.193,1.846-4.325c1.198-1.098,2.676-1.648,4.433-1.654c1.758-0.006,3.235,0.541,4.433,1.639
		c1.23,1.164,1.847,2.611,1.847,4.341v14.138c0,1.752-0.616,3.193-1.847,4.324C719.621,368.789,718.135,369.332,716.361,369.332z
		 M716.361,366.289c0.876,0,1.624-0.305,2.245-0.915c0.576-0.576,0.865-1.286,0.865-2.129v-13.871c0-0.831-0.294-1.552-0.882-2.162
		c-0.632-0.599-1.369-0.897-2.212-0.897c-0.865,0-1.597,0.299-2.195,0.897c-0.588,0.61-0.882,1.331-0.882,2.162v13.871
		c0,0.843,0.288,1.553,0.865,2.129C714.753,365.984,715.485,366.289,716.361,366.289z"/>
	<path fill="#1E1E1E" d="M731.115,369.332c-1.829,0-3.318-0.584-4.466-1.754s-1.721-2.658-1.721-4.466v-0.932
		c0-0.255,0.038-0.443,0.116-0.565c0.077-0.121,0.227-0.183,0.449-0.183h2.046c0.199,0,0.341,0.053,0.424,0.157
		c0.083,0.105,0.125,0.27,0.125,0.491v0.864c0,1.121,0.359,1.986,1.081,2.596c0.576,0.488,1.247,0.731,2.012,0.731
		c0.843,0,1.58-0.288,2.213-0.864c0.632-0.588,0.941-1.32,0.931-2.196c0-1.12-0.288-2.073-0.864-2.86
		c-0.411-0.543-1.431-1.491-3.061-2.844c-0.056-0.045-0.214-0.17-0.474-0.375c-0.261-0.205-0.425-0.332-0.491-0.383
		c-0.066-0.049-0.208-0.163-0.424-0.34c-0.217-0.178-0.366-0.3-0.449-0.367c-0.083-0.066-0.216-0.177-0.399-0.332
		c-0.183-0.155-0.315-0.274-0.399-0.357c-0.083-0.084-0.196-0.191-0.341-0.324c-0.144-0.133-0.264-0.25-0.357-0.35
		s-0.199-0.211-0.315-0.332c-0.117-0.123-0.22-0.238-0.309-0.35c-1.009-1.23-1.513-2.705-1.513-4.424
		c0-1.541,0.382-2.828,1.147-3.859c0.643-0.865,1.485-1.508,2.528-1.93c0.864-0.354,1.68-0.531,2.444-0.531
		c1.797,0,3.266,0.588,4.407,1.763c1.12,1.164,1.681,2.639,1.681,4.424v1.114c0,0.232-0.042,0.395-0.125,0.482
		c-0.083,0.089-0.247,0.133-0.491,0.133h-1.995c-0.2,0-0.336-0.044-0.408-0.133c-0.072-0.088-0.107-0.244-0.107-0.465v-1.115
		c0-0.854-0.256-1.58-0.766-2.179c-0.555-0.644-1.27-0.964-2.146-0.964c-0.721,0-1.358,0.232-1.912,0.697
		c-0.71,0.6-1.064,1.476-1.064,2.629c0,1.042,0.349,1.962,1.048,2.761c0.354,0.41,1.086,1.059,2.195,1.946
		c0.842,0.697,1.668,1.363,2.478,1.995c1.597,1.298,2.673,2.667,3.227,4.108c0.311,0.832,0.461,1.808,0.449,2.928
		c0,1.607-0.588,2.993-1.763,4.158C734.503,368.734,732.956,369.332,731.115,369.332z"/>
	<path fill="#1E1E1E" d="M746.901,368.95c-0.389,0-0.582-0.216-0.582-0.648v-24.017c0-0.422,0.193-0.633,0.582-0.633h9.381
		c0.332,0,0.499,0.194,0.499,0.582v1.896c0,0.377-0.167,0.565-0.499,0.565h-6.77v7.817h5.372c0.155,0,0.285,0.047,0.391,0.141
		c0.105,0.095,0.158,0.236,0.158,0.425v1.896c0,0.377-0.183,0.566-0.549,0.566h-5.372v8.365h6.77c0.343,0,0.516,0.184,0.516,0.549
		v1.93c0,0.377-0.173,0.565-0.516,0.565H746.901z"/>
	<path fill="#1E1E1E" d="M759.608,368.95c-0.389,0-0.582-0.216-0.582-0.648v-24.017c0-0.422,0.193-0.633,0.582-0.633h1.979
		c0.31,0.078,0.516,0.25,0.615,0.516l6.52,16.815l0.416,1.63l-0.083-1.53l-0.116-16.798c-0.012-0.189,0.033-0.342,0.133-0.458
		s0.249-0.175,0.449-0.175h1.912c0.377,0,0.565,0.211,0.565,0.633v24.033c0,0.422-0.205,0.632-0.615,0.632h-1.929
		c-0.355,0-0.588-0.167-0.699-0.499l-6.503-16.6l-0.35-1.213l0.083,1.33l0.101,16.333c0,0.433-0.194,0.648-0.582,0.648H759.608z"/>
	<path fill="#1E1E1E" d="M782.397,368.95c-0.389,0-0.582-0.216-0.582-0.648v-24.017c0-0.422,0.193-0.633,0.582-0.633h2.029
		c0.377,0,0.57,0.211,0.582,0.633v24.017c0,0.433-0.194,0.648-0.582,0.648H782.397z"/>
	<path fill="#1E1E1E" d="M788.951,368.95c-0.389,0-0.582-0.216-0.582-0.648v-24.017c0-0.422,0.193-0.633,0.582-0.633h1.979
		c0.31,0.078,0.516,0.25,0.615,0.516l6.52,16.815l0.416,1.63l-0.083-1.53l-0.116-16.798c-0.012-0.189,0.033-0.342,0.133-0.458
		s0.249-0.175,0.449-0.175h1.912c0.377,0,0.565,0.211,0.565,0.633v24.033c0,0.422-0.205,0.632-0.615,0.632h-1.929
		c-0.355,0-0.588-0.167-0.699-0.499l-6.503-16.6l-0.35-1.213l0.083,1.33l0.101,16.333c0,0.433-0.194,0.648-0.582,0.648H788.951z"/>
	<path fill="#1E1E1E" d="M810.274,369.332c-1.829,0-3.318-0.584-4.466-1.754s-1.721-2.658-1.721-4.466v-0.932
		c0-0.255,0.038-0.443,0.116-0.565c0.077-0.121,0.227-0.183,0.449-0.183h2.046c0.199,0,0.341,0.053,0.424,0.157
		c0.083,0.105,0.125,0.27,0.125,0.491v0.864c0,1.121,0.359,1.986,1.081,2.596c0.576,0.488,1.247,0.731,2.012,0.731
		c0.843,0,1.58-0.288,2.213-0.864c0.632-0.588,0.941-1.32,0.931-2.196c0-1.12-0.288-2.073-0.864-2.86
		c-0.411-0.543-1.431-1.491-3.061-2.844c-0.056-0.045-0.214-0.17-0.474-0.375c-0.261-0.205-0.425-0.332-0.491-0.383
		c-0.066-0.049-0.208-0.163-0.424-0.34c-0.217-0.178-0.366-0.3-0.449-0.367c-0.083-0.066-0.216-0.177-0.399-0.332
		c-0.183-0.155-0.315-0.274-0.399-0.357c-0.083-0.084-0.196-0.191-0.341-0.324c-0.144-0.133-0.264-0.25-0.357-0.35
		s-0.199-0.211-0.315-0.332c-0.117-0.123-0.22-0.238-0.309-0.35c-1.009-1.23-1.513-2.705-1.513-4.424
		c0-1.541,0.382-2.828,1.147-3.859c0.643-0.865,1.485-1.508,2.528-1.93c0.864-0.354,1.68-0.531,2.444-0.531
		c1.797,0,3.266,0.588,4.407,1.763c1.12,1.164,1.681,2.639,1.681,4.424v1.114c0,0.232-0.042,0.395-0.125,0.482
		c-0.083,0.089-0.247,0.133-0.491,0.133h-1.995c-0.2,0-0.336-0.044-0.408-0.133c-0.072-0.088-0.107-0.244-0.107-0.465v-1.115
		c0-0.854-0.256-1.58-0.766-2.179c-0.555-0.644-1.27-0.964-2.146-0.964c-0.721,0-1.358,0.232-1.912,0.697
		c-0.71,0.6-1.064,1.476-1.064,2.629c0,1.042,0.349,1.962,1.048,2.761c0.354,0.41,1.086,1.059,2.195,1.946
		c0.842,0.697,1.668,1.363,2.478,1.995c1.597,1.298,2.673,2.667,3.227,4.108c0.311,0.832,0.461,1.808,0.449,2.928
		c0,1.607-0.588,2.993-1.763,4.158C813.662,368.734,812.115,369.332,810.274,369.332z"/>
	<path fill="#1E1E1E" d="M822.085,368.95c-0.145,0-0.267-0.053-0.366-0.158c-0.1-0.104-0.149-0.252-0.149-0.44v-21.655h-3.843
		c-0.332,0-0.499-0.188-0.499-0.565v-1.879c0-0.189,0.048-0.336,0.142-0.441s0.214-0.158,0.357-0.158h10.928
		c0.333,0,0.493,0.194,0.482,0.582v1.896c0,0.377-0.161,0.565-0.482,0.565h-3.875v21.655c0,0.188-0.048,0.336-0.142,0.44
		c-0.095,0.105-0.214,0.158-0.357,0.158H822.085z"/>
	<path fill="#1E1E1E" d="M827.827,368.95c-0.366,0-0.505-0.216-0.416-0.648l5.455-24.117c0.078-0.354,0.283-0.532,0.616-0.532h2.012
		c0.311,0,0.516,0.178,0.616,0.532l5.438,24.117c0.1,0.433-0.033,0.648-0.399,0.648h-2.245c-0.355,0-0.561-0.172-0.615-0.516
		l-0.898-4.64h-5.821l-0.898,4.64c-0.056,0.344-0.266,0.516-0.632,0.516H827.827z M832.135,360.9h4.707l-2.212-11.393l-0.15-1.863
		l-0.149,1.863L832.135,360.9z"/>
	<path fill="#1E1E1E" d="M848.53,369.332c-1.719,0-3.177-0.537-4.374-1.613c-1.254-1.119-1.88-2.566-1.88-4.34v-14.138
		c0-1.752,0.615-3.193,1.846-4.325c1.198-1.098,2.673-1.651,4.425-1.662c1.996,0,3.554,0.682,4.674,2.045
		c0.931,1.164,1.396,2.495,1.396,3.992v1.447c0,0.277-0.039,0.465-0.116,0.564c-0.078,0.101-0.222,0.15-0.433,0.15h-2.079
		c-0.199,0-0.341-0.05-0.424-0.15c-0.083-0.1-0.125-0.271-0.125-0.516v-1.413c0-0.831-0.271-1.547-0.814-2.146
		c-0.555-0.609-1.259-0.914-2.112-0.914c-0.843,0-1.559,0.293-2.146,0.881c-0.599,0.576-0.898,1.286-0.898,2.129v13.921
		c0,0.854,0.316,1.586,0.948,2.196c0.587,0.564,1.291,0.848,2.112,0.848c0.831,0,1.544-0.297,2.137-0.89
		c0.594-0.593,0.89-1.294,0.89-2.104v-4.074h-2.062c-0.366,0-0.549-0.184-0.549-0.549v-1.68c0-0.389,0.183-0.582,0.549-0.582h4.623
		c0.389,0,0.588,0.21,0.599,0.631v6.338c0,1.763-0.599,3.204-1.796,4.324C851.757,368.789,850.293,369.332,848.53,369.332z"/>
	<path fill="#1E1E1E" d="M858.128,368.95c-0.389,0-0.582-0.205-0.582-0.615v-24.05c0-0.422,0.193-0.633,0.582-0.633h5.655
		c1.829,0,3.331,0.6,4.507,1.797c1.142,1.186,1.713,2.672,1.713,4.457v3.177c0,1.187-0.235,2.229-0.706,3.127
		c-0.472,0.897-1.129,1.624-1.972,2.179l2.911,9.913c0.055,0.166,0.038,0.315-0.05,0.448c-0.089,0.134-0.206,0.2-0.35,0.2h-2.262
		c-0.3,0-0.482-0.167-0.549-0.499l-2.412-9.064c-0.299,0.045-0.632,0.066-0.998,0.066h-2.877v8.882c0,0.41-0.194,0.615-0.582,0.615
		H858.128z M860.739,356.41h3.061c0.931,0,1.68-0.311,2.245-0.932c0.51-0.576,0.759-1.342,0.748-2.296v-3.276
		c0-0.942-0.271-1.713-0.814-2.313c-0.532-0.587-1.265-0.887-2.195-0.897h-3.044V356.41z"/>
	<path fill="#1E1E1E" d="M871.389,368.95c-0.366,0-0.505-0.216-0.416-0.648l5.455-24.117c0.078-0.354,0.283-0.532,0.616-0.532h2.012
		c0.311,0,0.516,0.178,0.616,0.532l5.438,24.117c0.1,0.433-0.033,0.648-0.399,0.648h-2.245c-0.355,0-0.561-0.172-0.615-0.516
		l-0.898-4.64h-5.821l-0.898,4.64c-0.056,0.344-0.266,0.516-0.632,0.516H871.389z M875.696,360.9h4.707l-2.212-11.393l-0.15-1.863
		l-0.149,1.863L875.696,360.9z"/>
	<path fill="#1E1E1E" d="M886.991,368.95c-0.311,0-0.461-0.216-0.449-0.648v-24.083c0.021-0.377,0.183-0.566,0.482-0.566h2.595
		c0.155,0,0.271,0.042,0.349,0.125c0.078,0.083,0.139,0.219,0.184,0.407l4.391,15.103l0.149,1.081l0.184-1.081l4.391-15.103
		c0.044-0.188,0.108-0.324,0.191-0.407s0.196-0.125,0.341-0.125h2.595c0.31,0,0.477,0.189,0.499,0.566v24.083
		c0,0.433-0.155,0.648-0.466,0.648h-2.063c-0.333,0-0.499-0.216-0.499-0.648l0.033-16.799l0.05-0.931l-0.033,0.232l-4.025,13.721
		c-0.077,0.367-0.26,0.549-0.549,0.549h-1.247c-0.288,0-0.472-0.182-0.549-0.549l-4.025-13.721l-0.05-0.232l0.066,0.931
		l0.034,16.799c0,0.433-0.167,0.648-0.499,0.648H886.991z"/>
	<path fill="#1E1E1E" d="M906.652,368.95c-0.355,0-0.532-0.2-0.532-0.599v-2.129c0-0.199,0.05-0.357,0.149-0.475
		c0.1-0.116,0.227-0.174,0.383-0.174h2.428c0.377,0,0.565,0.222,0.565,0.665v2.096c0,0.199-0.056,0.353-0.166,0.457
		c-0.111,0.105-0.233,0.158-0.366,0.158H906.652z M906.984,362.813c-0.388,0-0.582-0.21-0.582-0.632v-17.962
		c0-0.422,0.194-0.633,0.582-0.633h1.83c0.376,0,0.565,0.211,0.565,0.633v17.962c0,0.422-0.189,0.632-0.565,0.632H906.984z"/>
</g>
<g>
	<path fill="#5724BA" d="M123.429,286.289c-9.063,0-16.601-2.41-22.612-7.229c-6.323-5.039-9.483-11.759-9.483-20.158v-49.535
		c0-8.664,3.16-15.472,9.483-20.424c5.968-4.642,13.483-6.963,22.546-6.963c9.151,0,16.666,2.321,22.546,6.963
		c6.366,4.996,9.549,11.803,9.549,20.424v49.535c0,8.62-3.183,15.428-9.549,20.424C140.028,283.968,132.535,286.289,123.429,286.289
		z M123.429,261.355c1.547,0,2.696-0.408,3.448-1.227c0.751-0.818,1.127-1.779,1.127-2.885v-46.219c0-1.017-0.409-1.957-1.227-2.818
		c-0.819-0.862-1.935-1.293-3.349-1.293c-1.415,0-2.542,0.42-3.382,1.26c-0.84,0.84-1.26,1.79-1.26,2.852v46.219
		c0,1.105,0.375,2.066,1.127,2.885C120.666,260.947,121.837,261.355,123.429,261.355z"/>
	<path fill="#5724BA" d="M166.001,284.564c-2.079,0-3.117-0.994-3.117-2.984v-94.825c0-2.033,1.038-3.05,3.117-3.05h19.827
		c0.53,0,0.95,0.066,1.26,0.199c1.459,0.31,2.454,1.26,2.984,2.851l12.931,39.456l2.188,9.747l-0.464-8.687l-1.393-40.517
		c-0.045-0.839,0.221-1.558,0.795-2.155c0.574-0.597,1.348-0.896,2.321-0.896h20.026c1.989,0,2.984,0.973,2.984,2.918v94.958
		c0,1.99-1.15,2.984-3.448,2.984h-20.026c-2.299,0-3.758-0.994-4.376-2.984l-11.737-34.945l-2.719-9.416l0.729,9.482l1.127,34.879
		c0.088,1.99-0.973,2.984-3.183,2.984H166.001z"/>
	<path fill="#5724BA" d="M241.463,284.564c-2.079,0-3.117-0.994-3.117-2.984v-94.825c0-2.033,1.038-3.05,3.117-3.05h29.575
		c9.284,0,16.732,2.211,22.347,6.631c6.101,4.863,9.151,11.782,9.151,20.756v46.086c0,8.886-3.028,15.782-9.084,20.689
		c-5.527,4.465-12.865,6.697-22.016,6.697H241.463z M265.8,259.697h5.636c1.017-0.088,1.878-0.441,2.586-1.061
		c0.707-0.619,1.061-1.414,1.061-2.387v-43.965c0-1.414-0.354-2.432-1.061-3.051c-0.575-0.441-1.438-0.663-2.586-0.663H265.8
		V259.697z"/>
	<path fill="#5724BA" d="M304.5,284.564c-1.415,0-1.879-0.994-1.393-2.984l22.015-94.825c0.486-2.033,1.702-3.05,3.647-3.05h20.623
		c1.945,0,3.205,1.018,3.78,3.05l22.016,94.825c0.53,1.99,0.043,2.984-1.459,2.984h-23.143c-2.255,0-3.559-0.994-3.913-2.984
		l-0.928-8.09h-13.329l-0.862,8.09c-0.265,1.99-1.548,2.984-3.846,2.984H304.5z M335.136,250.215h7.891l-2.785-24.668l-1.127-12.93
		l-1.061,12.93L335.136,250.215z"/>
</g>
<line fill="none" stroke="#1E1E1E" stroke-width="1.688" stroke-linecap="round" stroke-linejoin="round" stroke-miterlimit="10" stroke-dasharray="2.251,4.501" x1="100.217" y1="62.803" x2="228.154" y2="62.803"/>
<line fill="none" stroke="#1E1E1E" stroke-width="1.688" stroke-linecap="round" stroke-linejoin="round" stroke-miterlimit="10" stroke-dasharray="2.251,4.501" x1="286.507" y1="337.764" x2="607.755" y2="337.764"/>
<path fill="none" stroke="#1E1E1E" stroke-width="1.688" stroke-linecap="round" stroke-linejoin="round" stroke-miterlimit="10" d="
	M44.472,329.7c4.055,0,4.055,5.502,8.11,5.502c4.056,0,4.056-5.502,8.111-5.502c4.056,0,4.056,5.502,8.112,5.502
	c4.054,0,4.054-5.502,8.109-5.502c4.056,0,4.056,5.502,8.112,5.502c4.056,0,4.056-5.502,8.113-5.502
	c4.056,0,4.056,5.502,8.113,5.502c4.057,0,4.057-5.502,8.114-5.502"/>
<path fill="none" stroke="#1E1E1E" stroke-width="1.688" stroke-linecap="round" stroke-linejoin="round" stroke-miterlimit="10" d="
	M51.662,344.4c4.055,0,4.055,5.502,8.11,5.502c4.056,0,4.056-5.502,8.111-5.502c4.056,0,4.056,5.502,8.112,5.502
	c4.054,0,4.054-5.502,8.109-5.502c4.056,0,4.056,5.502,8.112,5.502c4.056,0,4.056-5.502,8.113-5.502
	c4.056,0,4.056,5.502,8.113,5.502c4.057,0,4.057-5.502,8.114-5.502"/>
<polyline fill="none" stroke="#1E1E1E" stroke-width="1.688" stroke-linecap="round" stroke-linejoin="round" stroke-miterlimit="10" points="
	996.776,345.74 1014.366,358.932 996.776,372.125 "/>
<polyline fill="none" stroke="#1E1E1E" stroke-width="1.688" stroke-linecap="round" stroke-linejoin="round" stroke-miterlimit="10" points="
	984.562,345.74 1002.151,358.932 984.562,372.125 "/>
<polyline fill="none" stroke="#1E1E1E" stroke-width="1.688" stroke-linecap="round" stroke-linejoin="round" stroke-miterlimit="10" points="
	972.346,345.74 989.936,358.932 972.346,372.125 "/>
<polyline fill="none" stroke="#1E1E1E" stroke-width="1.688" stroke-linecap="round" stroke-linejoin="round" stroke-miterlimit="10" points="
	960.131,345.74 977.721,358.932 960.131,372.125 "/>
<path fill="#FFFFFF" d="M339.125,104.356H297.02c-15.94,0-28.862-12.922-28.862-28.862V33.389c0-15.94,12.922-28.862,28.862-28.862
	h42.106c15.94,0,28.862,12.922,28.862,28.862v42.106C367.987,91.435,355.065,104.356,339.125,104.356"/>
<path fill="none" stroke="#1E1E1E" stroke-width="1.688" stroke-miterlimit="10" d="M339.125,104.356H297.02
	c-15.94,0-28.862-12.922-28.862-28.862V33.389c0-15.94,12.922-28.862,28.862-28.862h42.106c15.94,0,28.862,12.922,28.862,28.862
	v42.106C367.987,91.435,355.065,104.356,339.125,104.356z"/>
<path fill="#F7DF03" d="M335.292,96.154h-34.438c-13.528,0-24.494-10.966-24.494-24.493V37.223
	c0-13.527,10.966-24.493,24.494-24.493h34.438c13.527,0,24.493,10.966,24.493,24.493v34.438
	C359.785,85.188,348.819,96.154,335.292,96.154"/>
<path fill="none" stroke="#1E1E1E" stroke-width="1.688" stroke-miterlimit="10" d="M335.292,96.154h-34.438
	c-13.528,0-24.494-10.966-24.494-24.493V37.223c0-13.527,10.966-24.493,24.494-24.493h34.438c13.527,0,24.493,10.966,24.493,24.493
	v34.438C359.785,85.188,348.819,96.154,335.292,96.154z"/>
<path fill="#5724BA" d="M343.891,54.441c0,14.259-11.559,25.818-25.818,25.818c-14.259,0-25.818-11.56-25.818-25.818
	s11.559-25.818,25.818-25.818C332.332,28.624,343.891,40.183,343.891,54.441"/>
<circle fill="none" stroke="#1E1E1E" stroke-width="1.688" stroke-linecap="round" stroke-linejoin="round" stroke-miterlimit="10" cx="318.073" cy="54.441" r="25.818"/>
<path fill="#FFFFFF" d="M335.722,54.441c0,9.748-7.902,17.65-17.649,17.65c-9.748,0-17.65-7.902-17.65-17.65
	s7.902-17.649,17.65-17.649C327.82,36.792,335.722,44.693,335.722,54.441"/>
<circle fill="none" stroke="#1E1E1E" stroke-width="1.688" stroke-linecap="round" stroke-linejoin="round" stroke-miterlimit="10" cx="318.073" cy="54.441" r="17.649"/>
<path fill="#1E1E1E" d="M345.067,26.09c0,1.924-1.56,3.485-3.485,3.485c-1.924,0-3.485-1.561-3.485-3.485
	c0-1.925,1.561-3.485,3.485-3.485C343.507,22.605,345.067,24.166,345.067,26.09"/>
</svg>
