<?xml version="1.0" encoding="utf-8"?>
<!-- Generator: Adobe Illustrator 16.0.0, SVG Export Plug-In . SVG Version: 6.00 Build 0)  -->
<!DOCTYPE svg PUBLIC "-//W3C//DTD SVG 1.1//EN" "http://www.w3.org/Graphics/SVG/1.1/DTD/svg11.dtd">
<svg version="1.1" id="Layer_1" xmlns="http://www.w3.org/2000/svg" xmlns:xlink="http://www.w3.org/1999/xlink" x="0px" y="0px"
	 width="210px" height="202.294px" viewBox="0 0 210 202.294" enable-background="new 0 0 210 202.294" xml:space="preserve">
<g>
	<circle fill="#E6E6E6" cx="47.747" cy="47.931" r="46.747"/>
	<circle fill="#E6E6E6" cx="161.604" cy="47.931" r="46.747"/>
	<circle fill="#E6E6E6" cx="47.747" cy="153.375" r="46.747"/>
	<circle fill="#E6E6E6" cx="161.604" cy="153.375" r="46.747"/>
</g>
<g>
	<g>
		<path fill="#F7DF03" d="M131.878,76.055V65.193h6.032V32.607h-6.032V21.745h18.095l12.063,26.379L174.1,21.745h17.232v10.862
			h-6.031v32.586h6.031v10.862h-23.264V65.193h6.031V49.676l-11.891,26.689l-12.236-26.689v15.518h5.859v10.862H131.878z"/>
		<path d="M162.209,76.833c-0.184,0-0.35-0.106-0.426-0.272l-11.344-24.745v12.911h5.393c0.258,0,0.467,0.209,0.467,0.467v10.862
			c0,0.258-0.209,0.467-0.467,0.467h-23.954c-0.259,0-0.467-0.209-0.467-0.467V65.193c0-0.258,0.208-0.467,0.467-0.467h5.565V33.074
			h-5.565c-0.259,0-0.467-0.209-0.467-0.467V21.745c0-0.258,0.208-0.467,0.467-0.467h18.095c0.184,0,0.35,0.106,0.426,0.273
			l11.637,25.45l11.639-25.45c0.076-0.167,0.242-0.273,0.426-0.273h17.232c0.258,0,0.467,0.209,0.467,0.467v10.862
			c0,0.258-0.209,0.467-0.467,0.467h-5.564v31.652h5.564c0.258,0,0.467,0.209,0.467,0.467v10.862c0,0.258-0.209,0.467-0.467,0.467
			h-23.264c-0.258,0-0.469-0.209-0.469-0.467V65.41l-4.965,11.146c-0.074,0.167-0.24,0.276-0.424,0.277
			C162.209,76.833,162.209,76.833,162.209,76.833z M168.535,75.588h22.33V65.66h-5.564c-0.258,0-0.467-0.209-0.467-0.467V32.607
			c0-0.258,0.209-0.467,0.467-0.467h5.564v-9.928h-16.467l-11.938,26.106c-0.076,0.166-0.242,0.272-0.426,0.272
			c-0.182,0-0.348-0.106-0.424-0.272l-11.938-26.106h-17.328v9.928h5.564c0.258,0,0.467,0.209,0.467,0.467v32.586
			c0,0.258-0.209,0.467-0.467,0.467h-5.564v9.928h23.02V65.66h-5.393c-0.258,0-0.467-0.209-0.467-0.467V49.676
			c0-0.219,0.152-0.409,0.367-0.456c0.217-0.046,0.434,0.062,0.523,0.262l11.805,25.75l11.471-25.745
			c0.09-0.202,0.309-0.314,0.523-0.267c0.217,0.046,0.371,0.236,0.371,0.457v15.518c0,0.258-0.209,0.467-0.467,0.467h-5.564V75.588z
			 M173.633,51.872l-5.744,12.889c0.055-0.022,0.115-0.035,0.18-0.035h5.564V51.872z"/>
	</g>
</g>
<g>
	<g>
		<path d="M17.165,76.055V65.193h6.032V32.607h-6.032V21.745h18.095l12.063,26.379l12.063-26.379h17.233v10.862h-6.032v32.586h6.032
			v10.862H53.354V65.193h6.031V49.676L47.495,76.365L35.259,49.676v15.518h5.859v10.862H17.165z"/>
		<path d="M47.495,76.833c-0.183,0-0.349-0.106-0.424-0.272L35.727,51.815v12.911h5.392c0.258,0,0.467,0.209,0.467,0.467v10.862
			c0,0.258-0.209,0.467-0.467,0.467H17.165c-0.258,0-0.467-0.209-0.467-0.467V65.193c0-0.258,0.209-0.467,0.467-0.467h5.565V33.074
			h-5.565c-0.258,0-0.467-0.209-0.467-0.467V21.745c0-0.258,0.209-0.467,0.467-0.467h18.095c0.183,0,0.349,0.106,0.424,0.273
			l11.639,25.45l11.639-25.45c0.076-0.167,0.242-0.273,0.424-0.273h17.233c0.258,0,0.467,0.209,0.467,0.467v10.862
			c0,0.258-0.209,0.467-0.467,0.467h-5.565v31.652h5.565c0.258,0,0.467,0.209,0.467,0.467v10.862c0,0.258-0.209,0.467-0.467,0.467
			H53.354c-0.258,0-0.467-0.209-0.467-0.467V65.409l-4.965,11.146c-0.075,0.167-0.241,0.276-0.424,0.277
			C47.497,76.833,47.496,76.833,47.495,76.833z M53.821,75.588h22.331V65.66h-5.564c-0.258,0-0.467-0.209-0.467-0.467V32.607
			c0-0.258,0.208-0.467,0.467-0.467h5.564v-9.928H59.686L47.747,48.319c-0.076,0.166-0.242,0.272-0.424,0.272
			s-0.349-0.106-0.425-0.272L34.959,22.212H17.632v9.928h5.564c0.258,0,0.467,0.209,0.467,0.467v32.586
			c0,0.258-0.209,0.467-0.467,0.467h-5.564v9.928h23.02V65.66h-5.392c-0.258,0-0.467-0.209-0.467-0.467V49.676
			c0-0.219,0.153-0.409,0.367-0.456c0.216-0.046,0.433,0.062,0.524,0.262l11.805,25.75l11.47-25.745
			c0.089-0.202,0.309-0.314,0.523-0.267c0.216,0.046,0.37,0.236,0.37,0.457v15.518c0,0.258-0.209,0.467-0.467,0.467h-5.564V75.588z
			 M58.918,51.872l-5.743,12.89c0.055-0.023,0.115-0.035,0.178-0.035h5.564V51.872z"/>
	</g>
</g>
<g>
	<g>
		<g>
			<path fill="#5724BA" d="M19.02,181.154v-10.863h6.032v-32.586H19.02v-10.861h18.095l12.063,26.379l12.063-26.379h17.233v10.861
				h-6.032v32.586h6.032v10.863H55.209v-10.863h6.032v-15.518L49.35,181.463l-12.235-26.689v15.518h5.859v10.863H19.02z"/>
			<path fill="#5724BA" d="M49.35,181.93c-0.183,0-0.348-0.105-0.424-0.271l-11.344-24.744v12.91h5.392
				c0.258,0,0.468,0.209,0.468,0.467v10.863c0,0.258-0.209,0.467-0.468,0.467H19.02c-0.258,0-0.467-0.209-0.467-0.467v-10.863
				c0-0.258,0.209-0.467,0.467-0.467h5.565v-31.652H19.02c-0.258,0-0.467-0.209-0.467-0.467v-10.861
				c0-0.258,0.209-0.468,0.467-0.468h18.095c0.183,0,0.349,0.106,0.425,0.272L49.178,152.1l11.639-25.451
				c0.076-0.166,0.242-0.272,0.424-0.272h17.233c0.258,0,0.467,0.21,0.467,0.468v10.861c0,0.258-0.209,0.467-0.467,0.467h-5.565
				v31.652h5.565c0.258,0,0.467,0.209,0.467,0.467v10.863c0,0.258-0.209,0.467-0.467,0.467H55.209c-0.258,0-0.467-0.209-0.467-0.467
				v-10.646l-4.966,11.146c-0.075,0.168-0.241,0.275-0.424,0.275C49.352,181.93,49.351,181.93,49.35,181.93z M55.676,180.686h22.331
				v-9.928h-5.564c-0.258,0-0.467-0.209-0.467-0.467v-32.586c0-0.258,0.209-0.467,0.467-0.467h5.564v-9.928H61.541l-11.938,26.105
				c-0.076,0.167-0.242,0.273-0.425,0.273c-0.183,0-0.349-0.106-0.424-0.273l-11.938-26.105H19.487v9.928h5.564
				c0.258,0,0.467,0.209,0.467,0.467v32.586c0,0.258-0.209,0.467-0.467,0.467h-5.564v9.928h23.02v-9.928h-5.392
				c-0.258,0-0.467-0.209-0.467-0.467v-15.518c0-0.219,0.153-0.409,0.367-0.455c0.215-0.047,0.433,0.062,0.524,0.262l11.805,25.75
				l11.47-25.746c0.089-0.201,0.309-0.314,0.523-0.267c0.216,0.046,0.37,0.236,0.37,0.456v15.518c0,0.258-0.209,0.467-0.467,0.467
				h-5.564V180.686z M60.774,156.971l-5.743,12.889c0.055-0.021,0.115-0.035,0.178-0.035h5.564V156.971z"/>
		</g>
	</g>
	<g>
		<g>
			<path fill="#FFFFFF" d="M77.053,179.986h-0.934c-0.129,0-0.233-0.105-0.233-0.234s0.104-0.232,0.233-0.232h0.934
				c0.129,0,0.233,0.104,0.233,0.232S77.182,179.986,77.053,179.986z M74.718,179.986h-0.934c-0.129,0-0.233-0.105-0.233-0.234
				s0.104-0.232,0.233-0.232h0.934c0.129,0,0.233,0.104,0.233,0.232S74.847,179.986,74.718,179.986z M72.383,179.986h-0.934
				c-0.129,0-0.233-0.105-0.233-0.234s0.104-0.232,0.233-0.232h0.934c0.129,0,0.233,0.104,0.233,0.232
				S72.512,179.986,72.383,179.986z M70.048,179.986h-0.934c-0.129,0-0.233-0.105-0.233-0.234s0.104-0.232,0.233-0.232h0.934
				c0.129,0,0.233,0.104,0.233,0.232S70.177,179.986,70.048,179.986z M67.713,179.986h-0.934c-0.129,0-0.233-0.105-0.233-0.234
				s0.104-0.232,0.233-0.232h0.934c0.129,0,0.233,0.104,0.233,0.232S67.842,179.986,67.713,179.986z M65.378,179.986h-0.934
				c-0.129,0-0.233-0.105-0.233-0.234s0.104-0.232,0.233-0.232h0.934c0.129,0,0.233,0.104,0.233,0.232
				S65.507,179.986,65.378,179.986z M63.043,179.986h-0.934c-0.129,0-0.233-0.105-0.233-0.234s0.104-0.232,0.233-0.232h0.934
				c0.129,0,0.233,0.104,0.233,0.232S63.172,179.986,63.043,179.986z M60.708,179.986h-0.934c-0.129,0-0.233-0.105-0.233-0.234
				s0.104-0.232,0.233-0.232h0.934c0.129,0,0.233,0.104,0.233,0.232S60.837,179.986,60.708,179.986z M58.373,179.986h-0.934
				c-0.129,0-0.233-0.105-0.233-0.234s0.104-0.232,0.233-0.232h0.934c0.129,0,0.233,0.104,0.233,0.232
				S58.502,179.986,58.373,179.986z M41.063,179.986h-0.934c-0.129,0-0.233-0.105-0.233-0.234s0.104-0.232,0.233-0.232h0.934
				c0.129,0,0.233,0.104,0.233,0.232S41.192,179.986,41.063,179.986z M38.728,179.986h-0.934c-0.129,0-0.233-0.105-0.233-0.234
				s0.104-0.232,0.233-0.232h0.934c0.129,0,0.233,0.104,0.233,0.232S38.857,179.986,38.728,179.986z M36.393,179.986h-0.934
				c-0.129,0-0.233-0.105-0.233-0.234s0.104-0.232,0.233-0.232h0.934c0.129,0,0.233,0.104,0.233,0.232
				S36.522,179.986,36.393,179.986z M34.058,179.986h-0.934c-0.129,0-0.233-0.105-0.233-0.234s0.104-0.232,0.233-0.232h0.934
				c0.129,0,0.233,0.104,0.233,0.232S34.187,179.986,34.058,179.986z M31.723,179.986h-0.934c-0.129,0-0.233-0.105-0.233-0.234
				s0.104-0.232,0.233-0.232h0.934c0.129,0,0.233,0.104,0.233,0.232S31.852,179.986,31.723,179.986z M29.388,179.986h-0.934
				c-0.129,0-0.233-0.105-0.233-0.234s0.104-0.232,0.233-0.232h0.934c0.129,0,0.233,0.104,0.233,0.232
				S29.517,179.986,29.388,179.986z M27.053,179.986h-0.934c-0.129,0-0.233-0.105-0.233-0.234s0.104-0.232,0.233-0.232h0.934
				c0.129,0,0.233,0.104,0.233,0.232S27.182,179.986,27.053,179.986z M24.718,179.986h-0.934c-0.129,0-0.233-0.105-0.233-0.234
				s0.104-0.232,0.233-0.232h0.934c0.129,0,0.233,0.104,0.233,0.232S24.847,179.986,24.718,179.986z M22.383,179.986h-0.934
				c-0.129,0-0.233-0.105-0.233-0.234s0.104-0.232,0.233-0.232h0.934c0.129,0,0.233,0.104,0.233,0.232
				S22.512,179.986,22.383,179.986z M20.421,179.986c-0.129,0-0.234-0.105-0.234-0.234v-0.934c0-0.129,0.104-0.234,0.234-0.234
				c0.128,0,0.233,0.105,0.233,0.234v0.934C20.655,179.881,20.55,179.986,20.421,179.986z M56.61,179.414
				c-0.129,0-0.233-0.105-0.233-0.234v-0.934c0-0.129,0.104-0.234,0.233-0.234s0.233,0.105,0.233,0.234v0.934
				C56.844,179.309,56.739,179.414,56.61,179.414z M41.573,179.096c-0.129,0-0.233-0.105-0.233-0.234v-0.934
				c0-0.129,0.104-0.234,0.233-0.234c0.129,0,0.234,0.105,0.234,0.234v0.934C41.807,178.99,41.702,179.096,41.573,179.096z
				 M77.073,178.605c-0.129,0-0.233-0.105-0.233-0.234v-0.934c0-0.129,0.104-0.232,0.233-0.232c0.129,0,0.234,0.104,0.234,0.232
				v0.934C77.307,178.5,77.202,178.605,77.073,178.605z M49.143,178.416c-0.09,0-0.176-0.053-0.214-0.141l-0.371-0.857
				c-0.051-0.119,0.003-0.256,0.122-0.307c0.118-0.051,0.255,0.002,0.307,0.121l0.371,0.857c0.051,0.117-0.003,0.256-0.122,0.307
				C49.205,178.41,49.174,178.416,49.143,178.416z M49.691,178.086c-0.03,0-0.061-0.006-0.091-0.018
				c-0.119-0.051-0.175-0.188-0.125-0.307l0.363-0.861c0.05-0.117,0.187-0.174,0.306-0.123c0.119,0.049,0.174,0.186,0.124,0.305
				l-0.363,0.861C49.869,178.033,49.782,178.086,49.691,178.086z M20.421,177.65c-0.129,0-0.234-0.104-0.234-0.232v-0.934
				c0-0.131,0.104-0.234,0.234-0.234c0.128,0,0.233,0.104,0.233,0.234v0.934C20.655,177.547,20.55,177.65,20.421,177.65z
				 M56.61,177.078c-0.129,0-0.233-0.104-0.233-0.232v-0.936c0-0.129,0.104-0.232,0.233-0.232s0.233,0.104,0.233,0.232v0.936
				C56.844,176.975,56.739,177.078,56.61,177.078z M41.573,176.76c-0.129,0-0.233-0.104-0.233-0.232v-0.936
				c0-0.129,0.104-0.232,0.233-0.232c0.129,0,0.234,0.104,0.234,0.232v0.936C41.807,176.656,41.702,176.76,41.573,176.76z
				 M48.215,176.273c-0.09,0-0.176-0.053-0.214-0.141l-0.371-0.857c-0.051-0.119,0.003-0.256,0.122-0.309
				c0.118-0.051,0.256,0.004,0.307,0.123l0.371,0.857c0.051,0.117-0.003,0.256-0.121,0.307
				C48.277,176.266,48.246,176.273,48.215,176.273z M77.073,176.27c-0.129,0-0.233-0.104-0.233-0.232v-0.934
				c0-0.129,0.104-0.234,0.233-0.234c0.129,0,0.234,0.105,0.234,0.234v0.934C77.307,176.166,77.202,176.27,77.073,176.27z
				 M50.598,175.934c-0.03,0-0.061-0.006-0.09-0.018c-0.119-0.051-0.175-0.188-0.125-0.307l0.363-0.859
				c0.05-0.119,0.187-0.174,0.306-0.125c0.119,0.051,0.175,0.188,0.125,0.307l-0.363,0.859
				C50.776,175.881,50.689,175.934,50.598,175.934z M20.421,175.316c-0.129,0-0.234-0.105-0.234-0.234v-0.934
				c0-0.129,0.104-0.234,0.234-0.234c0.128,0,0.233,0.105,0.233,0.234v0.934C20.655,175.211,20.55,175.316,20.421,175.316z
				 M56.61,174.744c-0.129,0-0.233-0.105-0.233-0.234v-0.934c0-0.129,0.104-0.234,0.233-0.234s0.233,0.105,0.233,0.234v0.934
				C56.844,174.639,56.739,174.744,56.61,174.744z M41.573,174.426c-0.129,0-0.233-0.105-0.233-0.234v-0.934
				c0-0.129,0.104-0.234,0.233-0.234c0.129,0,0.234,0.105,0.234,0.234v0.934C41.807,174.32,41.702,174.426,41.573,174.426z
				 M47.288,174.129c-0.09,0-0.176-0.053-0.214-0.141l-0.371-0.855c-0.051-0.119,0.003-0.256,0.122-0.309
				c0.118-0.051,0.256,0.004,0.307,0.123l0.371,0.855c0.051,0.119-0.003,0.256-0.122,0.309
				C47.35,174.123,47.319,174.129,47.288,174.129z M77.073,173.936c-0.129,0-0.233-0.105-0.233-0.234v-0.934
				c0-0.129,0.104-0.232,0.233-0.232c0.129,0,0.234,0.104,0.234,0.232v0.934C77.307,173.83,77.202,173.936,77.073,173.936z
				 M51.505,173.783c-0.03,0-0.061-0.006-0.091-0.02c-0.119-0.049-0.175-0.186-0.125-0.305l0.363-0.861
				c0.05-0.119,0.187-0.174,0.306-0.125c0.119,0.051,0.175,0.188,0.125,0.307l-0.363,0.861
				C51.683,173.729,51.596,173.783,51.505,173.783z M20.421,172.98c-0.129,0-0.234-0.104-0.234-0.232v-0.934
				c0-0.131,0.104-0.234,0.234-0.234c0.128,0,0.233,0.104,0.233,0.234v0.934C20.655,172.877,20.55,172.98,20.421,172.98z
				 M56.61,172.408c-0.129,0-0.233-0.104-0.233-0.232v-0.482c0-0.131,0.104-0.234,0.233-0.234h0.452
				c0.129,0,0.233,0.104,0.233,0.234c0,0.129-0.104,0.232-0.233,0.232h-0.218v0.25C56.844,172.305,56.739,172.408,56.61,172.408z
				 M41.573,172.09c-0.104,0-0.193-0.068-0.223-0.164h-0.546c-0.129,0-0.233-0.104-0.233-0.232c0-0.131,0.104-0.234,0.233-0.234
				h0.77c0.129,0,0.234,0.104,0.234,0.234v0.164C41.807,171.986,41.702,172.09,41.573,172.09z M46.36,171.986
				c-0.09,0-0.176-0.053-0.214-0.141l-0.371-0.857c-0.051-0.117,0.003-0.256,0.122-0.307c0.118-0.051,0.255,0.004,0.307,0.121
				l0.371,0.857c0.051,0.119-0.003,0.256-0.122,0.309C46.422,171.98,46.391,171.986,46.36,171.986z M76.748,171.926h-0.934
				c-0.129,0-0.233-0.104-0.233-0.232c0-0.131,0.104-0.234,0.233-0.234h0.934c0.129,0,0.233,0.104,0.233,0.234
				C76.981,171.822,76.876,171.926,76.748,171.926z M74.413,171.926h-0.934c-0.129,0-0.233-0.104-0.233-0.232
				c0-0.131,0.104-0.234,0.233-0.234h0.934c0.129,0,0.233,0.104,0.233,0.234C74.646,171.822,74.542,171.926,74.413,171.926z
				 M72.078,171.926h-0.934c-0.129,0-0.233-0.104-0.233-0.232c0-0.131,0.104-0.234,0.233-0.234h0.934
				c0.129,0,0.233,0.104,0.233,0.234C72.311,171.822,72.207,171.926,72.078,171.926z M61.731,171.926h-0.934
				c-0.129,0-0.234-0.104-0.234-0.232c0-0.131,0.104-0.234,0.234-0.234h0.934c0.129,0,0.233,0.104,0.233,0.234
				C61.965,171.822,61.86,171.926,61.731,171.926z M59.396,171.926h-0.934c-0.129,0-0.234-0.104-0.234-0.232
				c0-0.131,0.105-0.234,0.234-0.234h0.934c0.129,0,0.234,0.104,0.234,0.234C59.63,171.822,59.525,171.926,59.396,171.926z
				 M39.402,171.926h-0.934c-0.129,0-0.233-0.104-0.233-0.232c0-0.131,0.104-0.234,0.233-0.234h0.934
				c0.129,0,0.233,0.104,0.233,0.234C39.636,171.822,39.531,171.926,39.402,171.926z M37.067,171.926h-0.887
				c-0.129,0-0.233-0.104-0.233-0.232v-0.049c0-0.182,0.24-0.289,0.375-0.186h0.746c0.129,0,0.233,0.104,0.233,0.234
				C37.301,171.822,37.196,171.926,37.067,171.926z M26.453,171.926h-0.082c-0.129,0-0.234-0.104-0.234-0.232
				c0-0.072,0.032-0.135,0.082-0.178v-0.676c0-0.129,0.104-0.232,0.233-0.232s0.233,0.104,0.233,0.232v0.854
				C26.686,171.822,26.582,171.926,26.453,171.926z M24.97,171.926h-0.934c-0.129,0-0.234-0.104-0.234-0.232
				c0-0.131,0.104-0.234,0.234-0.234h0.934c0.128,0,0.233,0.104,0.233,0.234C25.204,171.822,25.099,171.926,24.97,171.926z
				 M22.635,171.926h-0.934c-0.129,0-0.234-0.104-0.234-0.232c0-0.131,0.104-0.234,0.234-0.234h0.934
				c0.129,0,0.234,0.104,0.234,0.234C22.869,171.822,22.764,171.926,22.635,171.926z M52.412,171.631
				c-0.03,0-0.061-0.006-0.091-0.018c-0.119-0.051-0.174-0.188-0.125-0.307l0.363-0.861c0.05-0.117,0.187-0.174,0.306-0.123
				c0.119,0.049,0.174,0.188,0.124,0.305l-0.362,0.861C52.59,171.578,52.503,171.631,52.412,171.631z M62.175,170.969
				c-0.129,0-0.233-0.105-0.233-0.234v-0.934c0-0.129,0.104-0.234,0.233-0.234s0.233,0.105,0.233,0.234v0.934
				C62.408,170.863,62.304,170.969,62.175,170.969z M71.042,170.627c-0.129,0-0.233-0.105-0.233-0.234v-0.934
				c0-0.129,0.104-0.232,0.233-0.232s0.233,0.104,0.233,0.232v0.934C71.275,170.521,71.17,170.627,71.042,170.627z M36.181,170.479
				c-0.129,0-0.233-0.105-0.233-0.234v-0.934c0-0.129,0.104-0.234,0.233-0.234c0.129,0,0.234,0.105,0.234,0.234v0.934
				C36.415,170.373,36.31,170.479,36.181,170.479z M45.433,169.844c-0.09,0-0.176-0.053-0.214-0.141l-0.371-0.857
				c-0.051-0.117,0.003-0.256,0.122-0.307s0.256,0.004,0.307,0.121l0.371,0.857c0.051,0.119-0.003,0.256-0.122,0.307
				C45.495,169.838,45.464,169.844,45.433,169.844z M26.453,169.674c-0.129,0-0.233-0.105-0.233-0.234v-0.934
				c0-0.129,0.104-0.234,0.233-0.234s0.233,0.105,0.233,0.234v0.934C26.686,169.568,26.582,169.674,26.453,169.674z M53.319,169.479
				c-0.03,0-0.061-0.006-0.09-0.018c-0.119-0.051-0.175-0.188-0.125-0.307l0.363-0.859c0.05-0.119,0.187-0.174,0.306-0.125
				c0.119,0.051,0.175,0.188,0.125,0.307l-0.363,0.859C53.497,169.426,53.41,169.479,53.319,169.479z M62.175,168.633
				c-0.129,0-0.233-0.104-0.233-0.232v-0.934c0-0.131,0.104-0.234,0.233-0.234s0.233,0.104,0.233,0.234v0.934
				C62.408,168.529,62.304,168.633,62.175,168.633z M71.042,168.291c-0.129,0-0.233-0.104-0.233-0.232v-0.934
				c0-0.129,0.104-0.234,0.233-0.234s0.233,0.105,0.233,0.234v0.934C71.275,168.188,71.17,168.291,71.042,168.291z M36.181,168.143
				c-0.129,0-0.233-0.104-0.233-0.234v-0.934c0-0.129,0.104-0.232,0.233-0.232c0.129,0,0.234,0.104,0.234,0.232v0.934
				C36.415,168.039,36.31,168.143,36.181,168.143z M44.505,167.701c-0.09,0-0.176-0.053-0.214-0.141l-0.371-0.857
				c-0.051-0.117,0.003-0.256,0.121-0.307s0.256,0.004,0.307,0.121l0.371,0.857c0.051,0.119-0.003,0.256-0.122,0.307
				C44.568,167.695,44.536,167.701,44.505,167.701z M26.453,167.338c-0.129,0-0.233-0.104-0.233-0.234v-0.934
				c0-0.129,0.104-0.232,0.233-0.232s0.233,0.104,0.233,0.232v0.934C26.686,167.234,26.582,167.338,26.453,167.338z M54.226,167.328
				c-0.03,0-0.061-0.006-0.091-0.018c-0.119-0.051-0.174-0.188-0.125-0.307l0.363-0.861c0.05-0.119,0.187-0.174,0.306-0.125
				c0.119,0.051,0.174,0.188,0.125,0.307l-0.363,0.861C54.404,167.273,54.317,167.328,54.226,167.328z M62.175,166.299
				c-0.129,0-0.233-0.105-0.233-0.234v-0.934c0-0.129,0.104-0.234,0.233-0.234s0.233,0.105,0.233,0.234v0.934
				C62.408,166.193,62.304,166.299,62.175,166.299z M71.042,165.957c-0.129,0-0.233-0.104-0.233-0.234v-0.934
				c0-0.129,0.104-0.232,0.233-0.232s0.233,0.104,0.233,0.232v0.934C71.275,165.854,71.17,165.957,71.042,165.957z M36.181,165.809
				c-0.129,0-0.233-0.105-0.233-0.234v-0.934c0-0.129,0.104-0.234,0.233-0.234c0.129,0,0.234,0.105,0.234,0.234v0.934
				C36.415,165.703,36.31,165.809,36.181,165.809z M43.578,165.559c-0.09,0-0.176-0.053-0.214-0.141l-0.371-0.857
				c-0.051-0.119,0.003-0.256,0.122-0.307s0.256,0.002,0.307,0.121l0.371,0.857c0.051,0.117-0.003,0.256-0.122,0.307
				C43.64,165.553,43.608,165.559,43.578,165.559z M55.133,165.176c-0.03,0-0.061-0.006-0.09-0.018
				c-0.119-0.051-0.175-0.188-0.125-0.307l0.363-0.859c0.05-0.119,0.187-0.174,0.306-0.125c0.119,0.051,0.175,0.188,0.125,0.307
				l-0.363,0.859C55.311,165.123,55.224,165.176,55.133,165.176z M26.453,165.004c-0.129,0-0.233-0.105-0.233-0.234v-0.934
				c0-0.129,0.104-0.234,0.233-0.234s0.233,0.105,0.233,0.234v0.934C26.686,164.898,26.582,165.004,26.453,165.004z M62.175,163.963
				c-0.129,0-0.233-0.104-0.233-0.232v-0.936c0-0.129,0.104-0.232,0.233-0.232s0.233,0.104,0.233,0.232v0.936
				C62.408,163.859,62.304,163.963,62.175,163.963z M71.042,163.621c-0.129,0-0.233-0.104-0.233-0.232v-0.934
				c0-0.129,0.104-0.234,0.233-0.234s0.233,0.105,0.233,0.234v0.934C71.275,163.518,71.17,163.621,71.042,163.621z M36.181,163.473
				c-0.129,0-0.233-0.104-0.233-0.234v-0.934c0-0.129,0.104-0.232,0.233-0.232c0.129,0,0.234,0.104,0.234,0.232v0.934
				C36.415,163.369,36.31,163.473,36.181,163.473z M42.65,163.416c-0.09,0-0.177-0.053-0.215-0.141l-0.371-0.857
				c-0.051-0.119,0.003-0.256,0.122-0.307c0.118-0.051,0.256,0.002,0.307,0.121l0.371,0.857c0.051,0.117-0.003,0.256-0.122,0.307
				C42.712,163.41,42.681,163.416,42.65,163.416z M56.04,163.025c-0.03,0-0.061-0.006-0.091-0.02
				c-0.119-0.049-0.174-0.188-0.125-0.305l0.363-0.861c0.05-0.119,0.187-0.174,0.306-0.125c0.119,0.051,0.175,0.188,0.125,0.307
				l-0.363,0.861C56.217,162.971,56.131,163.025,56.04,163.025z M26.453,162.668c-0.129,0-0.233-0.104-0.233-0.234V161.5
				c0-0.129,0.104-0.232,0.233-0.232s0.233,0.104,0.233,0.232v0.934C26.686,162.564,26.582,162.668,26.453,162.668z M62.175,161.629
				c-0.129,0-0.233-0.105-0.233-0.234v-0.934c0-0.129,0.104-0.234,0.233-0.234s0.233,0.105,0.233,0.234v0.934
				C62.408,161.523,62.304,161.629,62.175,161.629z M71.042,161.287c-0.129,0-0.233-0.104-0.233-0.234v-0.934
				c0-0.129,0.104-0.232,0.233-0.232s0.233,0.104,0.233,0.232v0.934C71.275,161.184,71.17,161.287,71.042,161.287z M41.723,161.273
				c-0.09,0-0.176-0.053-0.214-0.141l-0.371-0.857c-0.051-0.119,0.003-0.256,0.122-0.309c0.118-0.049,0.256,0.004,0.307,0.123
				l0.371,0.857c0.051,0.117-0.003,0.256-0.122,0.307C41.785,161.266,41.754,161.273,41.723,161.273z M36.181,161.139
				c-0.129,0-0.233-0.105-0.233-0.234v-0.934c0-0.129,0.104-0.234,0.233-0.234c0.129,0,0.234,0.105,0.234,0.234v0.934
				C36.415,161.033,36.31,161.139,36.181,161.139z M56.947,160.873c-0.03,0-0.061-0.006-0.091-0.018
				c-0.119-0.051-0.174-0.188-0.125-0.307l0.363-0.861c0.05-0.117,0.187-0.174,0.306-0.123c0.119,0.049,0.174,0.186,0.125,0.305
				l-0.363,0.861C57.125,160.82,57.038,160.873,56.947,160.873z M26.453,160.334c-0.129,0-0.233-0.105-0.233-0.234v-0.934
				c0-0.129,0.104-0.234,0.233-0.234s0.233,0.105,0.233,0.234v0.934C26.686,160.229,26.582,160.334,26.453,160.334z M62.175,159.293
				c-0.129,0-0.233-0.104-0.233-0.232v-0.936c0-0.129,0.104-0.232,0.233-0.232s0.233,0.104,0.233,0.232v0.936
				C62.408,159.189,62.304,159.293,62.175,159.293z M40.795,159.131c-0.09,0-0.177-0.053-0.214-0.143l-0.371-0.855
				c-0.051-0.119,0.003-0.256,0.122-0.309c0.118-0.049,0.255,0.004,0.307,0.123l0.371,0.855c0.051,0.119-0.003,0.256-0.122,0.309
				C40.857,159.123,40.826,159.131,40.795,159.131z M71.042,158.953c-0.129,0-0.233-0.105-0.233-0.234v-0.934
				c0-0.129,0.104-0.234,0.233-0.234s0.233,0.105,0.233,0.234v0.934C71.275,158.848,71.17,158.953,71.042,158.953z M36.181,158.803
				c-0.129,0-0.233-0.104-0.233-0.234v-0.934c0-0.129,0.104-0.232,0.233-0.232c0.129,0,0.234,0.104,0.234,0.232v0.934
				C36.415,158.699,36.31,158.803,36.181,158.803z M57.854,158.721c-0.03,0-0.061-0.006-0.09-0.018
				c-0.119-0.051-0.175-0.188-0.125-0.307l0.363-0.859c0.05-0.119,0.187-0.174,0.306-0.125c0.119,0.051,0.175,0.188,0.125,0.307
				l-0.363,0.859C58.031,158.668,57.945,158.721,57.854,158.721z M26.453,157.998c-0.129,0-0.233-0.104-0.233-0.234v-0.934
				c0-0.129,0.104-0.232,0.233-0.232s0.233,0.104,0.233,0.232v0.934C26.686,157.895,26.582,157.998,26.453,157.998z M39.868,156.986
				c-0.09,0-0.176-0.053-0.215-0.141l-0.371-0.856c-0.051-0.118,0.003-0.256,0.122-0.308c0.119-0.051,0.256,0.004,0.307,0.122
				l0.371,0.856c0.051,0.119-0.003,0.256-0.122,0.309C39.93,156.98,39.898,156.986,39.868,156.986z M62.175,156.959
				c-0.129,0-0.233-0.105-0.233-0.234v-0.934c0-0.129,0.104-0.234,0.233-0.234s0.233,0.105,0.233,0.234v0.934
				C62.408,156.854,62.304,156.959,62.175,156.959z M71.042,156.617c-0.129,0-0.233-0.104-0.233-0.234v-0.934
				c0-0.129,0.104-0.233,0.233-0.233s0.233,0.104,0.233,0.233v0.934C71.275,156.514,71.17,156.617,71.042,156.617z M58.761,156.57
				c-0.03,0-0.061-0.006-0.091-0.02c-0.119-0.049-0.174-0.188-0.125-0.306l0.363-0.86c0.05-0.119,0.187-0.174,0.306-0.125
				c0.119,0.051,0.174,0.188,0.125,0.307l-0.363,0.861C58.938,156.516,58.852,156.57,58.761,156.57z M36.181,156.469
				c-0.129,0-0.233-0.105-0.233-0.234V155.3c0-0.129,0.104-0.233,0.233-0.233c0.129,0,0.234,0.104,0.234,0.233v0.935
				C36.415,156.363,36.31,156.469,36.181,156.469z M49.178,155.791c-0.092,0-0.175-0.055-0.213-0.138l-0.172-0.384
				c-0.053-0.118,0-0.256,0.117-0.309c0.09-0.041,0.193-0.02,0.259,0.046l0.006-0.014c0.053-0.118,0.191-0.169,0.309-0.117
				c0.118,0.054,0.17,0.191,0.117,0.31l-0.21,0.468C49.353,155.736,49.27,155.791,49.178,155.791z M26.453,155.663
				c-0.129,0-0.233-0.104-0.233-0.233v-0.935c0-0.129,0.104-0.233,0.233-0.233s0.233,0.104,0.233,0.233v0.935
				C26.686,155.559,26.582,155.663,26.453,155.663z M38.94,154.844c-0.09,0-0.176-0.053-0.214-0.141l-0.371-0.857
				c-0.051-0.117,0.003-0.256,0.121-0.307c0.119-0.051,0.256,0.004,0.307,0.121l0.371,0.857c0.051,0.119-0.003,0.256-0.122,0.307
				C39.002,154.838,38.971,154.844,38.94,154.844z M62.175,154.623c-0.129,0-0.233-0.104-0.233-0.233v-0.935
				c0-0.129,0.104-0.232,0.233-0.232s0.233,0.104,0.233,0.232v0.935C62.408,154.52,62.304,154.623,62.175,154.623z M59.667,154.418
				c-0.03,0-0.061-0.006-0.09-0.019c-0.119-0.05-0.175-0.187-0.125-0.306l0.363-0.861c0.05-0.118,0.187-0.174,0.306-0.124
				c0.119,0.05,0.175,0.188,0.125,0.306l-0.363,0.861C59.845,154.364,59.759,154.418,59.667,154.418z M71.042,154.281
				c-0.129,0-0.233-0.104-0.233-0.232v-0.935c0-0.129,0.104-0.233,0.233-0.233s0.233,0.104,0.233,0.233v0.935
				C71.275,154.178,71.17,154.281,71.042,154.281z M36.181,154.133c-0.129,0-0.233-0.104-0.233-0.234v-0.934
				c0-0.129,0.104-0.233,0.233-0.233c0.129,0,0.234,0.104,0.234,0.233v0.934C36.415,154.028,36.31,154.133,36.181,154.133z
				 M48.431,154.129c-0.089,0-0.174-0.051-0.213-0.138l-0.383-0.852c-0.053-0.118,0-0.257,0.117-0.31
				c0.118-0.052,0.256,0,0.309,0.117l0.383,0.853c0.053,0.118,0,0.256-0.117,0.309C48.496,154.123,48.463,154.129,48.431,154.129z
				 M49.962,154.045c-0.032,0-0.065-0.007-0.096-0.021c-0.118-0.054-0.17-0.191-0.117-0.309l0.383-0.853
				c0.053-0.117,0.191-0.17,0.309-0.117c0.118,0.053,0.17,0.191,0.117,0.309l-0.383,0.853
				C50.136,153.994,50.051,154.045,49.962,154.045z M26.453,153.328c-0.129,0-0.233-0.104-0.233-0.234v-0.934
				c0-0.129,0.104-0.233,0.233-0.233s0.233,0.104,0.233,0.233v0.934C26.686,153.224,26.582,153.328,26.453,153.328z M38.013,152.701
				c-0.09,0-0.176-0.053-0.214-0.141l-0.371-0.857c-0.051-0.118,0.003-0.256,0.122-0.307s0.256,0.003,0.307,0.121l0.371,0.857
				c0.051,0.118-0.003,0.256-0.122,0.307C38.075,152.695,38.043,152.701,38.013,152.701z M62.175,152.289
				c-0.129,0-0.233-0.105-0.233-0.234v-0.934c0-0.129,0.104-0.234,0.233-0.234s0.233,0.105,0.233,0.234v0.934
				C62.408,152.184,62.304,152.289,62.175,152.289z M60.574,152.266c-0.03,0-0.061-0.006-0.09-0.018
				c-0.119-0.051-0.175-0.188-0.125-0.307l0.363-0.859c0.05-0.119,0.187-0.174,0.306-0.125c0.119,0.05,0.175,0.188,0.125,0.306
				l-0.363,0.86C60.752,152.213,60.666,152.266,60.574,152.266z M47.474,151.999c-0.089,0-0.174-0.052-0.213-0.138l-0.383-0.852
				c-0.053-0.118,0-0.256,0.117-0.309s0.256-0.001,0.309,0.117l0.383,0.852c0.053,0.117,0,0.256-0.117,0.309
				C47.539,151.992,47.506,151.999,47.474,151.999z M71.042,151.947c-0.129,0-0.233-0.104-0.233-0.234v-0.934
				c0-0.129,0.104-0.233,0.233-0.233s0.233,0.104,0.233,0.233v0.934C71.275,151.843,71.17,151.947,71.042,151.947z M50.919,151.915
				c-0.032,0-0.065-0.007-0.096-0.021c-0.118-0.053-0.17-0.191-0.117-0.309l0.383-0.853c0.053-0.117,0.191-0.169,0.309-0.117
				c0.118,0.054,0.17,0.191,0.117,0.31l-0.383,0.852C51.093,151.863,51.008,151.915,50.919,151.915z M36.181,151.798
				c-0.129,0-0.233-0.104-0.233-0.233v-0.935c0-0.129,0.104-0.233,0.233-0.233c0.129,0,0.234,0.104,0.234,0.233v0.935
				C36.415,151.693,36.31,151.798,36.181,151.798z M26.453,150.993c-0.129,0-0.233-0.104-0.233-0.233v-0.935
				c0-0.129,0.104-0.233,0.233-0.233s0.233,0.104,0.233,0.233v0.935C26.686,150.889,26.582,150.993,26.453,150.993z M37.085,150.559
				c-0.09,0-0.176-0.053-0.214-0.141l-0.371-0.857c-0.052-0.118,0.003-0.256,0.121-0.307c0.119-0.051,0.256,0.003,0.307,0.121
				l0.371,0.857c0.051,0.118-0.003,0.256-0.122,0.307C37.147,150.553,37.116,150.559,37.085,150.559z M61.481,150.115
				c-0.03,0-0.061-0.007-0.091-0.019c-0.119-0.051-0.174-0.188-0.124-0.306l0.363-0.861c0.05-0.119,0.187-0.174,0.306-0.125
				c0.002,0.002,0.004,0.003,0.006,0.004v-0.022c0-0.13,0.104-0.233,0.233-0.233s0.233,0.104,0.233,0.233v0.934
				c0,0.129-0.104,0.233-0.233,0.233s-0.233-0.104-0.233-0.233v-0.329l-0.245,0.581C61.659,150.061,61.572,150.115,61.481,150.115z
				 M46.517,149.869c-0.089,0-0.174-0.051-0.213-0.137l-0.383-0.853c-0.053-0.118,0-0.256,0.117-0.31
				c0.117-0.052,0.256,0,0.309,0.117l0.383,0.853c0.053,0.118,0,0.256-0.117,0.309C46.582,149.863,46.549,149.869,46.517,149.869z
				 M51.876,149.785c-0.032,0-0.064-0.007-0.096-0.021c-0.118-0.053-0.17-0.191-0.117-0.309l0.383-0.853
				c0.053-0.117,0.191-0.17,0.309-0.117c0.118,0.053,0.17,0.191,0.117,0.309l-0.383,0.853
				C52.05,149.734,51.965,149.785,51.876,149.785z M71.042,149.612c-0.129,0-0.233-0.104-0.233-0.233v-0.935
				c0-0.129,0.104-0.233,0.233-0.233s0.233,0.104,0.233,0.233v0.935C71.275,149.508,71.17,149.612,71.042,149.612z M36.181,149.463
				c-0.129,0-0.233-0.104-0.233-0.234v-0.934c0-0.129,0.104-0.233,0.233-0.233c0.129,0,0.234,0.104,0.234,0.233v0.934
				C36.415,149.358,36.31,149.463,36.181,149.463z M26.453,148.658c-0.129,0-0.233-0.104-0.233-0.234v-0.934
				c0-0.129,0.104-0.233,0.233-0.233s0.233,0.104,0.233,0.233v0.934C26.686,148.554,26.582,148.658,26.453,148.658z M45.56,147.739
				c-0.089,0-0.174-0.051-0.213-0.138l-0.383-0.852c-0.053-0.117,0-0.256,0.117-0.309s0.256-0.001,0.309,0.117l0.383,0.852
				c0.053,0.117,0,0.256-0.117,0.309C45.625,147.732,45.592,147.739,45.56,147.739z M52.833,147.655
				c-0.032,0-0.065-0.007-0.096-0.021c-0.118-0.053-0.17-0.191-0.117-0.309l0.383-0.852c0.053-0.117,0.191-0.17,0.309-0.117
				c0.118,0.053,0.17,0.19,0.117,0.309l-0.383,0.852C53.007,147.604,52.922,147.655,52.833,147.655z M71.042,147.277
				c-0.129,0-0.233-0.104-0.233-0.234v-0.934c0-0.129,0.104-0.233,0.233-0.233s0.233,0.104,0.233,0.233v0.934
				C71.275,147.173,71.17,147.277,71.042,147.277z M26.453,146.323c-0.129,0-0.233-0.104-0.233-0.233v-0.934
				c0-0.13,0.104-0.234,0.233-0.234s0.233,0.104,0.233,0.234v0.934C26.686,146.219,26.582,146.323,26.453,146.323z M44.604,145.609
				c-0.089,0-0.175-0.051-0.213-0.137l-0.383-0.853c-0.053-0.118,0-0.256,0.117-0.309s0.256-0.001,0.309,0.117l0.383,0.853
				c0.053,0.117,0,0.255-0.117,0.309C44.668,145.604,44.635,145.609,44.604,145.609z M53.791,145.525
				c-0.032,0-0.064-0.007-0.096-0.021c-0.118-0.053-0.17-0.191-0.117-0.309l0.383-0.853c0.052-0.117,0.191-0.169,0.309-0.117
				c0.118,0.053,0.17,0.191,0.117,0.309l-0.383,0.853C53.964,145.475,53.879,145.525,53.791,145.525z M71.042,144.942
				c-0.129,0-0.233-0.104-0.233-0.233v-0.935c0-0.129,0.104-0.233,0.233-0.233s0.233,0.104,0.233,0.233v0.935
				C71.275,144.838,71.17,144.942,71.042,144.942z M26.453,143.988c-0.129,0-0.233-0.104-0.233-0.233v-0.935
				c0-0.129,0.104-0.233,0.233-0.233s0.233,0.104,0.233,0.233v0.935C26.686,143.884,26.582,143.988,26.453,143.988z M43.646,143.48
				c-0.089,0-0.175-0.052-0.213-0.139l-0.383-0.852c-0.053-0.117,0-0.256,0.117-0.309s0.256-0.001,0.309,0.117l0.383,0.852
				c0.053,0.118,0,0.256-0.117,0.309C43.711,143.473,43.678,143.48,43.646,143.48z M54.748,143.396
				c-0.032,0-0.064-0.007-0.096-0.021c-0.118-0.053-0.17-0.191-0.117-0.309l0.383-0.852c0.053-0.117,0.191-0.17,0.309-0.117
				c0.118,0.053,0.17,0.19,0.117,0.309l-0.383,0.852C54.921,143.344,54.836,143.396,54.748,143.396z M71.042,142.607
				c-0.129,0-0.233-0.104-0.233-0.234v-0.934c0-0.129,0.104-0.233,0.233-0.233s0.233,0.104,0.233,0.233v0.934
				C71.275,142.503,71.17,142.607,71.042,142.607z M26.453,141.653c-0.129,0-0.233-0.104-0.233-0.233v-0.934
				c0-0.13,0.104-0.234,0.233-0.234s0.233,0.104,0.233,0.234v0.934C26.686,141.549,26.582,141.653,26.453,141.653z M42.689,141.35
				c-0.089,0-0.175-0.051-0.213-0.137l-0.383-0.853c-0.053-0.117,0-0.256,0.117-0.309c0.118-0.052,0.256,0,0.309,0.117l0.383,0.853
				c0.053,0.117,0,0.256-0.117,0.309C42.754,141.344,42.721,141.35,42.689,141.35z M55.705,141.266c-0.032,0-0.065-0.006-0.096-0.02
				c-0.118-0.054-0.17-0.191-0.117-0.31l0.383-0.852c0.052-0.118,0.191-0.17,0.309-0.117c0.118,0.053,0.17,0.19,0.117,0.309
				l-0.383,0.853C55.879,141.215,55.793,141.266,55.705,141.266z M71.042,140.272c-0.129,0-0.233-0.104-0.233-0.233v-0.935
				c0-0.129,0.104-0.233,0.233-0.233s0.233,0.104,0.233,0.233v0.935C71.275,140.168,71.17,140.272,71.042,140.272z M26.453,139.318
				c-0.129,0-0.233-0.104-0.233-0.233v-0.935c0-0.129,0.104-0.233,0.233-0.233s0.233,0.104,0.233,0.233v0.935
				C26.686,139.214,26.582,139.318,26.453,139.318z M41.732,139.221c-0.089,0-0.174-0.052-0.213-0.139l-0.383-0.852
				c-0.053-0.117,0-0.256,0.117-0.309s0.256,0,0.309,0.117l0.382,0.852c0.053,0.118,0,0.256-0.117,0.309
				C41.797,139.214,41.764,139.221,41.732,139.221z M56.662,139.136c-0.032,0-0.065-0.007-0.096-0.021
				c-0.118-0.053-0.17-0.191-0.117-0.309l0.382-0.852c0.053-0.117,0.192-0.17,0.309-0.117c0.118,0.053,0.17,0.191,0.117,0.309
				l-0.383,0.852C56.835,139.085,56.75,139.136,56.662,139.136z M71.042,137.938c-0.129,0-0.233-0.104-0.233-0.234v-0.934
				c0-0.129,0.104-0.233,0.233-0.233s0.233,0.104,0.233,0.233v0.934C71.275,137.833,71.17,137.938,71.042,137.938z M40.775,137.09
				c-0.089,0-0.174-0.051-0.213-0.137l-0.383-0.853c-0.053-0.117,0-0.256,0.117-0.309c0.118-0.052,0.256-0.001,0.309,0.117
				l0.382,0.853c0.053,0.117,0,0.256-0.117,0.309C40.84,137.084,40.807,137.09,40.775,137.09z M57.619,137.006
				c-0.032,0-0.065-0.006-0.096-0.02c-0.118-0.054-0.17-0.191-0.117-0.31l0.382-0.852c0.053-0.118,0.192-0.17,0.309-0.117
				s0.17,0.19,0.117,0.309l-0.383,0.853C57.792,136.955,57.708,137.006,57.619,137.006z M26.453,136.983
				c-0.129,0-0.233-0.104-0.233-0.233v-0.213h-0.255c-0.129,0-0.233-0.104-0.233-0.232s0.104-0.234,0.233-0.234h0.488
				c0.129,0,0.233,0.105,0.233,0.234v0.445C26.686,136.879,26.582,136.983,26.453,136.983z M77.54,136.537h-0.894
				c-0.129,0-0.234-0.104-0.234-0.232s0.105-0.234,0.234-0.234h0.805c0.14-0.065,0.322,0.033,0.322,0.193v0.041
				C77.773,136.434,77.669,136.537,77.54,136.537z M75.246,136.537h-0.934c-0.129,0-0.233-0.104-0.233-0.232
				s0.104-0.234,0.233-0.234h0.934c0.129,0,0.233,0.105,0.233,0.234S75.375,136.537,75.246,136.537z M72.911,136.537h-0.934
				c-0.129,0-0.233-0.104-0.233-0.232s0.104-0.234,0.233-0.234h0.934c0.129,0,0.233,0.105,0.233,0.234S73.04,136.537,72.911,136.537
				z M24.563,136.537h-0.934c-0.129,0-0.233-0.104-0.233-0.232s0.104-0.234,0.233-0.234h0.934c0.129,0,0.233,0.105,0.233,0.234
				S24.692,136.537,24.563,136.537z M22.229,136.537h-0.934c-0.129,0-0.233-0.104-0.233-0.232s0.104-0.234,0.233-0.234h0.934
				c0.129,0,0.233,0.105,0.233,0.234S22.357,136.537,22.229,136.537z M19.954,136.477c-0.129,0-0.233-0.104-0.233-0.232v-0.935
				c0-0.129,0.104-0.233,0.233-0.233s0.233,0.104,0.233,0.233v0.935C20.188,136.373,20.083,136.477,19.954,136.477z M77.54,135.096
				c-0.129,0-0.233-0.104-0.233-0.232v-0.935c0-0.129,0.104-0.233,0.233-0.233s0.233,0.104,0.233,0.233v0.935
				C77.773,134.992,77.669,135.096,77.54,135.096z M39.818,134.961c-0.089,0-0.174-0.052-0.213-0.139l-0.383-0.852
				c-0.053-0.117,0-0.256,0.117-0.309c0.118-0.053,0.256,0,0.309,0.117l0.383,0.852c0.053,0.118,0,0.256-0.117,0.31
				C39.883,134.954,39.85,134.961,39.818,134.961z M58.576,134.877c-0.032,0-0.065-0.007-0.096-0.021
				c-0.118-0.053-0.17-0.19-0.117-0.309l0.383-0.852c0.053-0.117,0.191-0.17,0.308-0.117c0.118,0.053,0.17,0.191,0.118,0.309
				l-0.383,0.852C58.75,134.825,58.665,134.877,58.576,134.877z M19.954,134.143c-0.129,0-0.233-0.105-0.233-0.234v-0.934
				c0-0.129,0.104-0.233,0.233-0.233s0.233,0.104,0.233,0.233v0.934C20.188,134.037,20.083,134.143,19.954,134.143z M38.861,132.831
				c-0.089,0-0.174-0.052-0.213-0.138l-0.383-0.853c-0.053-0.117,0-0.255,0.118-0.309c0.117-0.053,0.255,0,0.309,0.117l0.382,0.853
				c0.053,0.117,0,0.256-0.117,0.309C38.926,132.824,38.893,132.831,38.861,132.831z M77.54,132.762
				c-0.129,0-0.233-0.105-0.233-0.234v-0.934c0-0.129,0.104-0.233,0.233-0.233s0.233,0.104,0.233,0.233v0.934
				C77.773,132.656,77.669,132.762,77.54,132.762z M59.533,132.746c-0.032,0-0.065-0.006-0.096-0.02
				c-0.118-0.053-0.17-0.191-0.118-0.31l0.383-0.852c0.053-0.118,0.191-0.17,0.309-0.117s0.17,0.19,0.117,0.309l-0.383,0.853
				C59.707,132.695,59.622,132.746,59.533,132.746z M19.954,131.807c-0.129,0-0.233-0.104-0.233-0.232v-0.935
				c0-0.129,0.104-0.233,0.233-0.233s0.233,0.104,0.233,0.233v0.935C20.188,131.703,20.083,131.807,19.954,131.807z M37.904,130.701
				c-0.089,0-0.174-0.052-0.213-0.138l-0.383-0.853c-0.053-0.117,0-0.256,0.117-0.309c0.118-0.053,0.256,0,0.309,0.117l0.382,0.853
				c0.053,0.117,0,0.255-0.117,0.309C37.969,130.694,37.936,130.701,37.904,130.701z M60.489,130.617
				c-0.032,0-0.064-0.007-0.096-0.021c-0.117-0.054-0.17-0.191-0.117-0.31l0.383-0.852c0.053-0.117,0.191-0.17,0.309-0.117
				s0.17,0.191,0.117,0.309l-0.383,0.852C60.664,130.565,60.579,130.617,60.489,130.617z M77.54,130.426
				c-0.129,0-0.233-0.104-0.233-0.232v-0.935c0-0.129,0.104-0.233,0.233-0.233s0.233,0.104,0.233,0.233v0.935
				C77.773,130.322,77.669,130.426,77.54,130.426z M19.954,129.473c-0.129,0-0.233-0.105-0.233-0.234v-0.527
				c0-0.129,0.104-0.233,0.233-0.233h0.407c0.129,0,0.233,0.104,0.233,0.233s-0.104,0.234-0.233,0.234h-0.173v0.293
				C20.188,129.367,20.083,129.473,19.954,129.473z M76.687,128.945h-0.934c-0.129,0-0.233-0.105-0.233-0.234
				s0.104-0.233,0.233-0.233h0.934c0.129,0,0.233,0.104,0.233,0.233S76.815,128.945,76.687,128.945z M74.352,128.945h-0.934
				c-0.129,0-0.234-0.105-0.234-0.234s0.105-0.233,0.234-0.233h0.934c0.129,0,0.233,0.104,0.233,0.233S74.48,128.945,74.352,128.945
				z M72.017,128.945h-0.934c-0.129,0-0.234-0.105-0.234-0.234s0.105-0.233,0.234-0.233h0.934c0.129,0,0.233,0.104,0.233,0.233
				S72.146,128.945,72.017,128.945z M69.682,128.945h-0.934c-0.129,0-0.233-0.105-0.233-0.234s0.104-0.233,0.233-0.233h0.934
				c0.129,0,0.233,0.104,0.233,0.233S69.811,128.945,69.682,128.945z M67.347,128.945h-0.934c-0.129,0-0.233-0.105-0.233-0.234
				s0.104-0.233,0.233-0.233h0.934c0.129,0,0.233,0.104,0.233,0.233S67.476,128.945,67.347,128.945z M65.012,128.945h-0.934
				c-0.129,0-0.233-0.105-0.233-0.234s0.104-0.233,0.233-0.233h0.934c0.129,0,0.233,0.104,0.233,0.233
				S65.141,128.945,65.012,128.945z M62.677,128.945h-0.934c-0.129,0-0.233-0.105-0.233-0.234s0.104-0.233,0.233-0.233h0.934
				c0.129,0,0.233,0.104,0.233,0.233S62.806,128.945,62.677,128.945z M36.706,128.945h-0.934c-0.129,0-0.233-0.105-0.233-0.234
				s0.104-0.233,0.233-0.233h0.934c0.129,0,0.233,0.104,0.233,0.233S36.834,128.945,36.706,128.945z M34.371,128.945h-0.934
				c-0.129,0-0.233-0.105-0.233-0.234s0.104-0.233,0.233-0.233h0.934c0.129,0,0.233,0.104,0.233,0.233S34.5,128.945,34.371,128.945z
				 M32.036,128.945h-0.934c-0.129,0-0.233-0.105-0.233-0.234s0.104-0.233,0.233-0.233h0.934c0.129,0,0.233,0.104,0.233,0.233
				S32.165,128.945,32.036,128.945z M29.701,128.945h-0.934c-0.129,0-0.234-0.105-0.234-0.234s0.105-0.233,0.234-0.233h0.934
				c0.129,0,0.233,0.104,0.233,0.233S29.83,128.945,29.701,128.945z M27.366,128.945h-0.934c-0.129,0-0.234-0.105-0.234-0.234
				s0.105-0.233,0.234-0.233h0.934c0.129,0,0.233,0.104,0.233,0.233S27.495,128.945,27.366,128.945z M25.031,128.945h-0.934
				c-0.129,0-0.233-0.105-0.233-0.234s0.104-0.233,0.233-0.233h0.934c0.129,0,0.233,0.104,0.233,0.233S25.16,128.945,25.031,128.945
				z M22.696,128.945h-0.934c-0.129,0-0.233-0.105-0.233-0.234s0.104-0.233,0.233-0.233h0.934c0.129,0,0.233,0.104,0.233,0.233
				S22.825,128.945,22.696,128.945z"/>
		</g>
	</g>
</g>
<g>
	<defs>
		<circle id="SVGID_1_" cx="161.604" cy="153.47" r="46.747"/>
	</defs>
	<clipPath id="SVGID_2_">
		<use xlink:href="#SVGID_1_"  overflow="visible"/>
	</clipPath>
	
		<path clip-path="url(#SVGID_2_)" fill="none" stroke="#000000" stroke-linecap="round" stroke-linejoin="round" stroke-miterlimit="10" d="
		M147.957,131.727c0,0,13.383-2.426,27.354,0.286"/>
	<g clip-path="url(#SVGID_2_)">
		<g>
			<g>
				<path fill="none" stroke="#000000" stroke-linecap="round" stroke-linejoin="round" stroke-miterlimit="10" d="M137.242,133.856
					l-35.888,14.628c0,0-20.532,11.211-30.144,61.857c-4.349,22.914-10.92,41.111-10.92,73.582"/>
				
					<path fill="none" stroke="#000000" stroke-width="1.5" stroke-linecap="round" stroke-linejoin="round" stroke-miterlimit="10" d="
					M84.5,289.383c0.891-0.104,1.416,1.076,1.211,1.951l-2.92,12.5c-0.273,1.17-1.308,2.006-2.509,2.021
					c-10.604,0.148-19.128-3.48-22.705-5.289c-1.078-0.545-1.644-1.754-1.369-2.932l2.923-12.512
					c0.204-0.873,1.069-1.377,1.951-1.211C62.359,284.152,76.191,290.354,84.5,289.383z"/>
			</g>
			
				<path fill="none" stroke="#000000" stroke-width="1.5" stroke-linecap="round" stroke-linejoin="round" stroke-miterlimit="10" d="
				M101.354,148.484c0,0,13.278,24.912,5.357,59.777"/>
		</g>
		<g>
			<g>
				
					<path fill="none" stroke="#000000" stroke-width="1.5" stroke-linecap="round" stroke-linejoin="round" stroke-miterlimit="10" d="
					M239.213,289.52c-0.906-10.738-5.486-40.736-21.627-81.258c0,0,0.287,21.174,0.836,42.84
					c0.381,15.004,1.918,25.461,0.273,38.232c-59.203,6.498-113.093,0-113.093,0c-1.646-12.771-0.108-23.229,0.272-38.232
					c0.549-21.666,0.836-42.84,0.836-42.84c-16.141,40.521-20.721,70.52-21.626,81.258"/>
				<path fill="none" stroke="#000000" stroke-linecap="round" stroke-linejoin="round" stroke-miterlimit="10" d="M186.387,134.116
					l36.557,14.368c0,0,20.531,11.211,30.145,61.857c4.348,22.914,11.123,43.166,10.918,73.582"/>
				
					<path fill="none" stroke="#000000" stroke-width="1.5" stroke-linecap="round" stroke-linejoin="round" stroke-miterlimit="10" d="
					M239.799,289.383c-0.893-0.104-1.416,1.076-1.213,1.951l2.92,12.5c0.273,1.17,1.309,2.006,2.51,2.021
					c10.604,0.148,19.129-3.48,22.705-5.289c1.078-0.545,1.645-1.754,1.369-2.932l-2.924-12.512
					c-0.203-0.873-1.068-1.377-1.949-1.211C261.938,284.152,248.105,290.354,239.799,289.383z"/>
			</g>
			
				<path fill="none" stroke="#000000" stroke-width="1.5" stroke-linecap="round" stroke-linejoin="round" stroke-miterlimit="10" d="
				M222.943,148.484c0,0-13.277,24.912-5.357,59.777"/>
		</g>
		
			<path fill="none" stroke="#000000" stroke-width="1.5" stroke-linecap="round" stroke-linejoin="round" stroke-miterlimit="10" d="
			M105.503,289.104h-0.916c-0.349,0-0.631,0.281-0.631,0.631v12.836c0,2.863,2.322,5.162,5.186,5.186
			c49.16,0.408,56.961,2.795,105.861,0c2.859-0.164,5.188-2.322,5.188-5.186v-12.836c0-0.35-0.283-0.631-0.631-0.631h-0.766"/>
	</g>
	<g clip-path="url(#SVGID_2_)">
		<path d="M98.915,150.779c0,0,0.631,1.623,1.468,4.073c0.842,2.452,1.877,5.751,2.734,9.099c0.437,1.672,0.809,3.359,1.113,4.951
			c0.167,0.791,0.262,1.57,0.388,2.301c0.122,0.732,0.17,1.434,0.251,2.076c0.088,0.641,0.078,1.238,0.116,1.762
			c0.04,0.523,0.035,0.982,0.015,1.359c-0.022,0.752-0.036,1.184-0.036,1.184s-0.01-0.432-0.029-1.184
			c0-0.375-0.021-0.83-0.088-1.35c-0.067-0.52-0.088-1.109-0.211-1.744c-0.115-0.633-0.2-1.324-0.361-2.045
			c-0.165-0.719-0.299-1.482-0.509-2.26c-0.388-1.561-0.847-3.211-1.37-4.844c-1.03-3.271-2.234-6.482-3.2-8.864
			c-0.964-2.387-1.666-3.937-1.666-3.937c-0.171-0.377-0.004-0.822,0.374-0.993s0.822-0.003,0.993,0.374
			C98.903,150.75,98.91,150.768,98.915,150.779z"/>
	</g>
	<g clip-path="url(#SVGID_2_)">
		<path d="M226.594,151.347c0,0.001-0.67,1.536-1.551,3.924c-0.436,1.192-0.926,2.591-1.404,4.104
			c-0.471,1.516-0.961,3.139-1.354,4.787c-0.219,0.818-0.387,1.648-0.561,2.463c-0.191,0.814-0.293,1.627-0.438,2.41
			c-0.135,0.783-0.193,1.547-0.287,2.271c-0.076,0.725-0.084,1.412-0.127,2.047c-0.039,0.637,0.02,1.219,0.023,1.736
			c-0.004,0.52,0.059,0.965,0.113,1.334c0.098,0.738,0.154,1.16,0.154,1.16s-0.078-0.42-0.219-1.15
			c-0.074-0.367-0.162-0.813-0.188-1.334c-0.031-0.518-0.123-1.104-0.119-1.744c0.008-0.641-0.023-1.338,0.014-2.072
			c0.055-0.732,0.072-1.512,0.164-2.309c0.102-0.795,0.16-1.625,0.307-2.455c0.131-0.832,0.254-1.682,0.43-2.518
			c0.305-1.688,0.709-3.352,1.102-4.91c0.398-1.555,0.814-2.996,1.189-4.226c0.754-2.452,1.357-4.077,1.357-4.076
			c0.143-0.39,0.572-0.59,0.961-0.448c0.391,0.143,0.59,0.572,0.449,0.962C226.605,151.316,226.6,151.335,226.594,151.347z"/>
	</g>
	<g clip-path="url(#SVGID_2_)">
		<path d="M229.533,154.385c0,0-0.152,0.289-0.361,0.771c-0.229,0.474-0.508,1.202-0.852,2.071c-0.17,0.434-0.314,0.92-0.49,1.428
			c-0.168,0.51-0.367,1.043-0.506,1.613c-0.156,0.566-0.314,1.152-0.477,1.748c-0.182,0.592-0.273,1.213-0.408,1.826
			c-0.127,0.617-0.252,1.232-0.377,1.84c-0.104,0.609-0.164,1.217-0.246,1.801c-0.076,0.588-0.15,1.154-0.221,1.691
			c-0.09,0.537-0.082,1.051-0.115,1.523c-0.094,1.895-0.158,3.158-0.158,3.158s-0.029-1.268-0.074-3.166
			c-0.004-0.477-0.049-0.994,0-1.537c0.031-0.547,0.063-1.121,0.096-1.715c0.039-0.596,0.055-1.213,0.115-1.838
			c0.08-0.621,0.16-1.254,0.24-1.885c0.092-0.631,0.139-1.271,0.277-1.885c0.119-0.617,0.238-1.227,0.354-1.814
			c0.1-0.592,0.26-1.15,0.393-1.686c0.143-0.531,0.256-1.041,0.396-1.504c0.287-0.921,0.518-1.69,0.73-2.232
			c0.195-0.551,0.318-0.831,0.318-0.831l0.014-0.031c0.168-0.38,0.611-0.552,0.99-0.384c0.379,0.166,0.553,0.609,0.385,0.989
			C229.549,154.353,229.541,154.37,229.533,154.385z"/>
	</g>
	<g clip-path="url(#SVGID_2_)">
		<g>
			<path d="M107.248,209.035c0,0,1.004,1.658,2.221,4.236c0.613,1.291,1.287,2.816,1.936,4.479c0.336,0.826,0.627,1.701,0.953,2.578
				c0.282,0.893,0.594,1.791,0.853,2.705c0.241,0.92,0.534,1.824,0.72,2.742c0.203,0.912,0.426,1.805,0.554,2.686
				c0.148,0.877,0.31,1.723,0.375,2.535c0.073,0.813,0.205,1.572,0.207,2.285c0.027,0.709,0.052,1.359,0.074,1.936
				c-0.001,0.576-0.038,1.078-0.05,1.492c-0.033,0.824-0.053,1.297-0.053,1.297s-0.004-0.473-0.012-1.299
				c-0.008-0.412,0.003-0.914-0.024-1.486c-0.05-0.572-0.106-1.217-0.169-1.92c-0.037-0.705-0.207-1.455-0.318-2.256
				c-0.104-0.801-0.306-1.629-0.495-2.488c-0.17-0.865-0.435-1.736-0.679-2.627c-0.228-0.895-0.563-1.775-0.844-2.67
				c-0.301-0.887-0.652-1.758-0.973-2.623c-0.365-0.848-0.693-1.693-1.064-2.49c-0.72-1.602-1.455-3.066-2.119-4.303
				c-1.328-2.482-2.361-4.01-2.361-4.01c-0.232-0.344-0.142-0.811,0.201-1.043c0.344-0.23,0.811-0.141,1.042,0.203
				c0.007,0.01,0.013,0.02,0.019,0.029L107.248,209.035z"/>
		</g>
		<g>
			<path d="M107.535,210.061c0,0,0.205,0.934,0.46,2.367c0.13,0.713,0.28,1.547,0.442,2.439c0.172,0.889,0.281,1.852,0.43,2.805
				c0.138,0.955,0.275,1.91,0.405,2.805c0.071,0.902,0.14,1.746,0.196,2.469c0.114,1.438,0.189,2.396,0.189,2.396
				s-0.168-0.947-0.422-2.369c-0.127-0.707-0.273-1.533-0.432-2.418c-0.215-0.873-0.444-1.805-0.674-2.738
				c-0.238-0.928-0.438-1.865-0.694-2.727c-0.245-0.863-0.474-1.668-0.67-2.359c-0.388-1.379-0.685-2.299-0.685-2.299
				c-0.128-0.396,0.088-0.818,0.482-0.947c0.395-0.127,0.818,0.088,0.946,0.484c0.008,0.021,0.015,0.045,0.019,0.068
				L107.535,210.061z"/>
		</g>
	</g>
	<g clip-path="url(#SVGID_2_)">
		<g>
			<path d="M218.465,209.834c-0.002,0-1.033,1.527-2.361,4.01c-0.664,1.236-1.4,2.701-2.119,4.303
				c-0.371,0.797-0.701,1.643-1.064,2.49c-0.32,0.865-0.674,1.736-0.973,2.623c-0.281,0.895-0.617,1.775-0.844,2.67
				c-0.244,0.891-0.51,1.762-0.68,2.627c-0.189,0.859-0.391,1.688-0.496,2.488c-0.111,0.801-0.281,1.551-0.316,2.256
				c-0.063,0.703-0.119,1.348-0.17,1.92c-0.027,0.572-0.016,1.074-0.025,1.486c-0.006,0.826-0.012,1.299-0.012,1.299
				s-0.018-0.473-0.053-1.297c-0.012-0.414-0.047-0.916-0.049-1.492c0.021-0.576,0.047-1.227,0.074-1.936
				c0.002-0.713,0.135-1.473,0.207-2.285c0.066-0.813,0.227-1.658,0.375-2.535c0.129-0.881,0.352-1.773,0.555-2.686
				c0.186-0.918,0.479-1.822,0.719-2.742c0.258-0.914,0.57-1.813,0.854-2.705c0.324-0.877,0.617-1.752,0.953-2.578
				c0.648-1.662,1.32-3.188,1.936-4.479c1.217-2.578,2.221-4.236,2.221-4.236l0.006-0.01c0.213-0.355,0.676-0.469,1.029-0.254
				c0.355,0.215,0.469,0.676,0.254,1.031C218.479,209.813,218.471,209.824,218.465,209.834z"/>
		</g>
		<g>
			<path d="M218.361,210.432c0,0-0.299,0.92-0.686,2.299c-0.195,0.691-0.424,1.496-0.67,2.359c-0.256,0.861-0.455,1.799-0.695,2.727
				c-0.229,0.934-0.457,1.865-0.674,2.738c-0.156,0.885-0.305,1.711-0.432,2.418c-0.254,1.422-0.422,2.369-0.422,2.369
				s0.076-0.959,0.189-2.396c0.059-0.723,0.125-1.566,0.197-2.469c0.129-0.895,0.268-1.85,0.406-2.805
				c0.148-0.953,0.258-1.916,0.43-2.805c0.162-0.893,0.313-1.727,0.441-2.439c0.256-1.434,0.461-2.367,0.461-2.367l0.004-0.021
				c0.09-0.406,0.49-0.662,0.895-0.574c0.406,0.09,0.662,0.49,0.574,0.895C218.375,210.385,218.369,210.408,218.361,210.432z"/>
		</g>
	</g>
	<g clip-path="url(#SVGID_2_)">
		<g>
			<g>
				<path fill="none" stroke="#000000" stroke-linecap="round" stroke-linejoin="round" stroke-miterlimit="10" d="M161.123,150.204
					c0.236-3.818-0.123-12.04-6.922-15.942c-5.268-3.023-15.635-4.513-22.849-8.682c-2.825-1.633-8.147-7.051-8.427-14.956"/>
			</g>
		</g>
		<g>
			<g>
				
					<path fill="none" stroke="#000000" stroke-width="0.5" stroke-linecap="round" stroke-linejoin="round" stroke-miterlimit="10" stroke-dasharray="2,2" d="
					M161.039,149.938c-0.451-4.08-2.629-10.446-9.115-13.674c-6.754-3.36-23.831-5.376-27.23-17.433"/>
			</g>
		</g>
		<g>
			<g>
				
					<path fill="none" stroke="#000000" stroke-width="0.5" stroke-linecap="round" stroke-linejoin="round" stroke-miterlimit="10" stroke-dasharray="2,2" d="
					M163.232,150.212c0.451-4.08,2.211-10.721,8.697-13.947c6.754-3.36,23.83-5.376,27.23-17.433"/>
			</g>
		</g>
		
			<path fill="none" stroke="#000000" stroke-width="1.5" stroke-linecap="round" stroke-linejoin="round" stroke-miterlimit="10" d="
			M201.537,104.321c0-15.938-18.203-37.676-38.963-37.676h-0.83c-20.76,0-38.963,21.739-38.963,37.676"/>
		<g>
			<g>
				<path fill="none" stroke="#000000" stroke-linecap="round" stroke-linejoin="round" stroke-miterlimit="10" d="M163.135,150.201
					c-0.236-3.82,0.123-12.039,6.92-15.939c5.268-3.023,15.52-4.72,22.85-8.682c2.725-1.475,8.041-7.178,8.447-15.289"/>
			</g>
		</g>
		<path fill="none" stroke="#000000" stroke-linecap="round" stroke-linejoin="round" stroke-miterlimit="10" d="M163.135,150.201
			c0.695-2.406,2.986-5.559,6.879-8.625c12.707-10.009,31.48-3.169,31.48-35.997c0-28.675-23.895-46.422-39.271-48.223h-0.189
			c-15.377,1.801-39.272,19.356-39.272,48.223c0,32.828,18.774,25.988,31.481,35.997c3.879,3.056,6.18,6.223,6.881,8.627"/>
		<path fill="none" stroke="#000000" stroke-linecap="round" stroke-linejoin="round" stroke-miterlimit="10" d="M186.387,134.116
			c0,0-8.346,17.054-24.121,17.054c-18.918,0-25.023-17.313-25.023-17.313"/>
		
			<path fill="none" stroke="#000000" stroke-width="0.7" stroke-linecap="round" stroke-linejoin="round" stroke-miterlimit="10" stroke-dasharray="2,2" d="
			M201.352,102.211c0-15.937-18.125-37.676-38.799-37.676h-0.828c-20.672,0-38.799,21.739-38.799,37.676"/>
	</g>
	
		<line clip-path="url(#SVGID_2_)" fill="none" stroke="#000000" stroke-width="0.5" stroke-linecap="round" stroke-linejoin="round" stroke-miterlimit="10" stroke-dasharray="2,2" x1="102.385" y1="150.686" x2="137.668" y2="136.248"/>
	
		<line clip-path="url(#SVGID_2_)" fill="none" stroke="#000000" stroke-width="0.5" stroke-linecap="round" stroke-linejoin="round" stroke-miterlimit="10" stroke-dasharray="2,2" x1="185.941" y1="137.08" x2="221.91" y2="150.688"/>
	<g clip-path="url(#SVGID_2_)">
		<path fill="none" stroke="#000000" stroke-linecap="round" stroke-linejoin="round" stroke-miterlimit="10" d="M152.904,194.189
			c0,0-0.697-0.871-0.221-2.316c1.389-4.199,1.168-9.252,1.199-14.068v-0.094c0.025-3.883-0.377-5.932-0.766-7.914
			s-0.789-4.031-0.752-7.713c0.061-5.831,0.895-16.107,0.902-16.21"/>
		
			<path fill="none" stroke="#000000" stroke-width="1.5" stroke-linecap="round" stroke-linejoin="round" stroke-miterlimit="10" d="
			M156.131,177.725"/>
	</g>
	<g clip-path="url(#SVGID_2_)">
		<path fill="none" stroke="#000000" stroke-linecap="round" stroke-linejoin="round" stroke-miterlimit="10" d="M170.578,146.148
			c0.049,0.194,1.199,4.852,1.158,12.326c-0.008,1.414,0.023,2.645,0.051,3.764c0.076,2.977,0.137,5.328-0.645,8.213
			c-0.975,3.602-1.09,7.5-0.873,9.947"/>
	</g>
	
		<circle clip-path="url(#SVGID_2_)" fill="none" stroke="#000000" stroke-linecap="round" stroke-linejoin="round" stroke-miterlimit="10" cx="153.123" cy="145.874" r="1.99"/>
	
		<circle clip-path="url(#SVGID_2_)" fill="none" stroke="#000000" stroke-linecap="round" stroke-linejoin="round" stroke-miterlimit="10" cx="170.477" cy="145.874" r="1.99"/>
	<path clip-path="url(#SVGID_2_)" d="M154.213,196.305L154.213,196.305c-0.154,0.088-0.352,0.035-0.441-0.119l-1.203-2.082
		c-0.088-0.154-0.035-0.352,0.119-0.441l0,0c0.152-0.088,0.352-0.035,0.439,0.119l1.203,2.082
		C154.42,196.018,154.365,196.217,154.213,196.305z"/>
	<path clip-path="url(#SVGID_2_)" d="M170.549,183.248L170.549,183.248c-0.176,0.023-0.338-0.102-0.361-0.277l-0.313-2.385
		c-0.023-0.178,0.102-0.34,0.277-0.363l0,0c0.176-0.021,0.338,0.104,0.361,0.279l0.313,2.385
		C170.85,183.063,170.725,183.225,170.549,183.248z"/>
</g>
</svg>
