<?xml version="1.0" encoding="utf-8"?>
<!-- Generator: Adobe Illustrator 16.0.0, SVG Export Plug-In . SVG Version: 6.00 Build 0)  -->
<!DOCTYPE svg PUBLIC "-//W3C//DTD SVG 1.1//EN" "http://www.w3.org/Graphics/SVG/1.1/DTD/svg11.dtd">
<svg version="1.1" id="Layer_1" xmlns="http://www.w3.org/2000/svg" xmlns:xlink="http://www.w3.org/1999/xlink" x="0px" y="0px"
	 width="1548.69px" height="665.089px" viewBox="0 0 1548.69 665.089" enable-background="new 0 0 1548.69 665.089"
	 xml:space="preserve">
<path fill="none" stroke="#01EEBC" stroke-width="24" stroke-linecap="round" stroke-linejoin="round" stroke-miterlimit="10" d="
	M166.598,109.487h360.541c67.391,0,122.022,54.631,122.022,122.022l0,0c0,67.391-54.631,122.022-122.022,122.022H86.733
	c-38.75,0-70.163,31.414-70.163,70.164v55.258h429.492c24.58,0,44.506,19.927,44.506,44.508l0,0
	c0,24.58-19.926,44.506-44.506,44.506H296.406c-17.453,0-31.602,14.148-31.602,31.602l0,0c0,17.454,14.149,31.604,31.602,31.604
	H1531"/>
<g>
	<g>
		<path fill="#1E1E1E" d="M169.157,279.335c-1.067,0-1.6-0.723-1.6-2.168v-74.332c0.104-1.342,0.653-2.013,1.652-2.013h12.802
			c0.584,0,0.963,0.129,1.136,0.387c0.172,0.258,0.378,0.766,0.619,1.523l11.253,40.831l0.568,4.129l0.62-4.129l11.356-40.831
			c0.31-1.032,0.619-1.617,0.929-1.755c0.172-0.104,0.447-0.155,0.826-0.155h12.75c0.998,0,1.548,0.671,1.652,2.013v74.332
			c0,1.445-0.534,2.168-1.6,2.168h-10.015c-1.135,0-1.687-0.723-1.651-2.168l0.155-44.444l0.361-3.975l-0.052,0.413l-10.427,36.856
			c-0.206,0.757-0.422,1.273-0.645,1.549c-0.224,0.276-0.611,0.413-1.162,0.413h-6.091c-0.551,0-0.929-0.137-1.136-0.413
			c-0.207-0.275-0.431-0.792-0.671-1.549l-10.376-36.856l-0.103-0.413l0.361,3.975l0.155,44.444c0,1.445-0.551,2.168-1.651,2.168
			H169.157z"/>
		<path fill="#1E1E1E" d="M252.215,280.625c-5.747,0-10.72-1.91-14.918-5.73c-4.199-3.82-6.297-8.448-6.297-13.885V202.99
			c0-0.619,0.146-1.135,0.439-1.548c0.292-0.413,0.662-0.62,1.109-0.62h10.892c1.101,0,1.652,0.723,1.652,2.168v57.194
			c0,1.961,0.653,3.58,1.961,4.853c1.342,1.445,3.063,2.16,5.162,2.142c2.099-0.017,3.82-0.731,5.162-2.142
			c1.272-1.273,1.927-2.891,1.961-4.853v-57.143c0-0.619,0.163-1.144,0.491-1.574c0.326-0.43,0.765-0.646,1.316-0.646h10.375
			c0.585,0,1.049,0.225,1.394,0.671c0.343,0.447,0.516,0.964,0.516,1.548v57.969c0,5.472-2.083,10.1-6.246,13.885
			C263.021,278.715,258.03,280.625,252.215,280.625z"/>
		<path fill="#1E1E1E" d="M300.584,280.625c-5.954,0-10.926-1.755-14.918-5.265c-4.199-3.647-6.281-8.448-6.246-14.402v-41.76
			c0-5.643,1.961-10.324,5.885-14.04c3.923-3.75,9.016-5.627,15.279-5.627c6.641,0,11.821,2.083,15.537,6.246
			c3.304,3.751,4.956,8.329,4.956,13.731v5.42c0,0.929-0.129,1.566-0.387,1.91c-0.258,0.345-0.749,0.517-1.471,0.517h-10.272
			c-0.689,0-1.162-0.163-1.419-0.491c-0.258-0.327-0.37-0.903-0.336-1.729v-5.162c0-1.789-0.603-3.389-1.807-4.8
			c-1.273-1.479-2.925-2.202-4.955-2.168c-2.065,0-3.734,0.68-5.007,2.039c-1.273,1.36-1.91,2.951-1.91,4.775v40.315
			c0,1.893,0.636,3.528,1.91,4.904c1.342,1.445,3.063,2.16,5.162,2.142c2.099-0.017,3.768-0.731,5.007-2.142
			c1.205-1.411,1.824-3.046,1.858-4.904v-6.711c0-0.859,0.12-1.445,0.361-1.755c0.24-0.31,0.705-0.464,1.394-0.464h10.272
			c0.688,0,1.169,0.138,1.445,0.413c0.275,0.276,0.413,0.826,0.413,1.652v7.691c0,5.988-2.013,10.789-6.04,14.402
			C311.407,278.871,306.503,280.625,300.584,280.625z"/>
		<path fill="#1E1E1E" d="M329.338,279.335c-1.308,0-1.979-0.723-2.013-2.168V202.99c0-1.445,0.671-2.168,2.013-2.168h10.118
			c1.342,0,2.013,0.723,2.013,2.168v29.372h14.867V202.99c0-0.619,0.181-1.135,0.542-1.548s0.869-0.62,1.523-0.62h10.169
			c1.272,0,1.91,0.689,1.91,2.065v74.332c0,1.411-0.706,2.116-2.116,2.116H358.4c-1.342,0-2.031-0.705-2.065-2.116v-31.437h-14.867
			v31.385c0,1.445-0.671,2.168-2.013,2.168H329.338z"/>
		<path fill="#1E1E1E" d="M374.301,279.335c-1.101,0-1.479-0.723-1.136-2.168l16.673-74.435c0.343-1.273,1.101-1.91,2.271-1.91
			h9.756c1.169,0,1.927,0.637,2.271,1.91l16.673,74.435c0.343,1.445-0.035,2.168-1.136,2.168h-10.995
			c-1.412,0-2.203-0.62-2.375-1.858l-1.858-11.253h-14.969l-1.807,11.253c-0.173,1.239-0.964,1.858-2.375,1.858H374.301z
			 M391.593,253.628h10.737l-4.749-28.855l-0.567-7.485l-0.62,7.485L391.593,253.628z"/>
	</g>
</g>
<g>
	<path fill="#1E1E1E" d="M737.136,619.4c-0.276,0-0.508-0.098-0.695-0.295c-0.188-0.197-0.281-0.473-0.281-0.828v-3.783
		c0-0.71,0.315-1.064,0.946-1.064h4.404c0.237,0,0.453,0.099,0.65,0.295c0.197,0.197,0.295,0.464,0.295,0.799v3.725
		c0,0.769-0.335,1.152-1.005,1.152H737.136z M737.697,658.509c-0.69,0-1.035-0.374-1.035-1.124v-31.924
		c0-0.749,0.344-1.123,1.035-1.123h3.251c0.669,0,1.005,0.374,1.005,1.123v31.924c0,0.75-0.335,1.124-1.005,1.124H737.697z"/>
	<path fill="#1E1E1E" d="M757.858,652.566c-3.252,0-5.897-1.039-7.937-3.117c-2.04-2.08-3.06-4.725-3.06-7.938v-1.655
		c0-0.453,0.069-0.788,0.207-1.005c0.138-0.217,0.404-0.326,0.798-0.326h3.636c0.354,0,0.606,0.094,0.754,0.281
		c0.147,0.188,0.222,0.479,0.222,0.872v1.537c0,1.991,0.64,3.528,1.921,4.612c1.025,0.867,2.217,1.3,3.577,1.3
		c1.497,0,2.808-0.513,3.932-1.537c1.123-1.044,1.675-2.345,1.655-3.901c0-1.99-0.513-3.686-1.537-5.085
		c-0.729-0.966-2.542-2.649-5.439-5.055c-0.099-0.079-0.379-0.3-0.842-0.665c-0.463-0.364-0.754-0.592-0.872-0.68
		c-0.118-0.089-0.37-0.291-0.753-0.605c-0.385-0.315-0.65-0.533-0.798-0.65c-0.148-0.119-0.384-0.315-0.709-0.592
		c-0.325-0.275-0.562-0.488-0.709-0.635c-0.148-0.148-0.35-0.341-0.606-0.577c-0.256-0.236-0.468-0.443-0.636-0.62
		c-0.167-0.178-0.354-0.375-0.562-0.592s-0.389-0.424-0.547-0.621c-1.793-2.188-2.69-4.808-2.69-7.863
		c0-2.738,0.68-5.024,2.04-6.857c1.143-1.537,2.641-2.68,4.493-3.429c1.537-0.63,2.986-0.946,4.346-0.946
		c3.192,0,5.803,1.045,7.833,3.134c1.99,2.069,2.985,4.69,2.985,7.862v1.98c0,0.414-0.073,0.7-0.222,0.857
		c-0.147,0.158-0.438,0.236-0.872,0.236h-3.547c-0.354,0-0.596-0.078-0.725-0.236c-0.128-0.157-0.191-0.434-0.191-0.827v-1.98
		c0-1.518-0.454-2.809-1.36-3.872c-0.985-1.143-2.256-1.715-3.813-1.715c-1.281,0-2.414,0.414-3.399,1.241
		c-1.261,1.064-1.892,2.621-1.892,4.671c0,1.853,0.621,3.488,1.862,4.906c0.631,0.729,1.932,1.883,3.902,3.459
		c1.497,1.242,2.966,2.424,4.404,3.547c2.838,2.307,4.749,4.74,5.734,7.302c0.552,1.478,0.817,3.212,0.798,5.202
		c0,2.857-1.044,5.32-3.133,7.391C763.878,651.503,761.129,652.566,757.858,652.566z"/>
	<path fill="#1E1E1E" d="M774.531,651.887c-0.69,0-1.035-0.384-1.035-1.152V608.05c0-0.749,0.345-1.124,1.035-1.124h16.672
		c0.591,0,0.887,0.346,0.887,1.035v3.37c0,0.67-0.296,1.005-0.887,1.005h-12.031v13.893h9.548c0.276,0,0.507,0.084,0.695,0.252
		c0.187,0.168,0.28,0.419,0.28,0.754v3.369c0,0.671-0.325,1.006-0.976,1.006h-9.548v14.868h12.031c0.61,0,0.916,0.325,0.916,0.976
		v3.43c0,0.67-0.306,1.004-0.916,1.004H774.531z"/>
	<path fill="#1E1E1E" d="M805.955,652.566c-3.055,0-5.646-0.955-7.774-2.867c-2.228-1.99-3.341-4.562-3.341-7.715v-25.125
		c0-3.114,1.094-5.676,3.281-7.687c2.129-1.95,4.749-2.937,7.863-2.956c3.547,0,6.315,1.213,8.307,3.637
		c1.655,2.068,2.482,4.434,2.482,7.094v2.572c0,0.492-0.069,0.827-0.207,1.004c-0.138,0.178-0.395,0.267-0.769,0.267h-3.694
		c-0.355,0-0.606-0.089-0.754-0.267c-0.148-0.177-0.222-0.482-0.222-0.916v-2.512c0-1.479-0.483-2.75-1.448-3.814
		c-0.986-1.083-2.237-1.625-3.755-1.625c-1.497,0-2.769,0.522-3.813,1.566c-1.064,1.025-1.597,2.287-1.597,3.783v24.742
		c0,1.518,0.562,2.818,1.685,3.902c1.045,1.005,2.296,1.508,3.755,1.508c1.478,0,2.744-0.527,3.798-1.582s1.582-2.301,1.582-3.739
		v-7.242h-3.666c-0.65,0-0.976-0.325-0.976-0.976v-2.985c0-0.69,0.325-1.034,0.976-1.034h8.218c0.689,0,1.045,0.374,1.064,1.123
		v11.262c0,3.134-1.064,5.695-3.192,7.686C811.689,651.602,809.088,652.566,805.955,652.566z"/>
	<path fill="#1E1E1E" d="M832.53,652.566c-3.055,0-5.676-1.033-7.863-3.104c-2.188-2.029-3.271-4.522-3.251-7.479V608.05
		c0-0.315,0.088-0.581,0.266-0.798s0.374-0.326,0.592-0.326h3.931c0.592,0,0.887,0.375,0.887,1.124v33.64
		c0,1.537,0.522,2.818,1.567,3.842c1.044,1.084,2.345,1.627,3.901,1.627c1.537,0,2.848-0.543,3.932-1.627
		c1.024-1.063,1.547-2.344,1.566-3.842v-33.58c0-0.809,0.315-1.202,0.946-1.184h3.754c0.65,0,0.976,0.395,0.976,1.184v33.875
		c0,2.938-1.094,5.43-3.281,7.479C838.245,651.533,835.604,652.566,832.53,652.566z"/>
	<path fill="#1E1E1E" d="M850.238,651.887c-0.69,0-1.035-0.384-1.035-1.152V608.05c0-0.749,0.345-1.124,1.035-1.124h3.605
		c0.67,0,1.016,0.375,1.035,1.124v42.685c0,0.769-0.346,1.152-1.035,1.152H850.238z M850.77,602.699
		c-0.295,0-0.527-0.133-0.694-0.398c-0.168-0.267-0.173-0.606-0.015-1.02l3.163-7.006c0.138-0.375,0.285-0.626,0.443-0.754
		c0.157-0.129,0.414-0.192,0.769-0.192h2.808c0.276,0,0.478,0.144,0.606,0.429c0.128,0.285,0.113,0.605-0.045,0.961l-3.694,7.064
		c-0.296,0.611-0.71,0.916-1.241,0.916H850.77z"/>
	<path fill="#1E1E1E" d="M861.886,651.887c-0.69,0-1.034-0.384-1.034-1.152V608.05c0-0.749,0.344-1.124,1.034-1.124h3.518
		c0.552,0.139,0.916,0.444,1.094,0.917l11.587,29.886l0.739,2.896l-0.147-2.72l-0.207-29.855c-0.02-0.335,0.06-0.606,0.236-0.813
		c0.178-0.207,0.443-0.311,0.799-0.311h3.398c0.67,0,1.006,0.375,1.006,1.124v42.714c0,0.75-0.365,1.123-1.094,1.123h-3.43
		c-0.631,0-1.044-0.295-1.241-0.887l-11.558-29.5l-0.621-2.158l0.148,2.365l0.177,29.027c0,0.769-0.345,1.152-1.034,1.152H861.886z"
		/>
	<path fill="#1E1E1E" d="M900.196,652.566c-3.133,0-5.744-0.984-7.833-2.955c-2.188-2.01-3.281-4.553-3.281-7.627v-25.125
		c0-3.114,1.094-5.676,3.281-7.687c2.128-1.95,4.754-2.931,7.878-2.94c3.123-0.01,5.749,0.96,7.878,2.911
		c2.187,2.069,3.28,4.641,3.28,7.716v25.125c0,3.114-1.094,5.676-3.28,7.686C905.99,651.602,903.35,652.566,900.196,652.566z
		 M900.196,647.158c1.557,0,2.887-0.543,3.991-1.627c1.024-1.023,1.537-2.285,1.537-3.783v-24.652c0-1.479-0.522-2.76-1.567-3.844
		c-1.123-1.064-2.434-1.596-3.931-1.596c-1.537,0-2.838,0.531-3.902,1.596c-1.045,1.084-1.566,2.365-1.566,3.844v24.652
		c0,1.498,0.512,2.76,1.537,3.783C897.339,646.615,898.64,647.158,900.196,647.158z"/>
	<path fill="#1E1E1E" d="M926.358,652.566c-3.252,0-5.897-1.039-7.937-3.117c-2.04-2.08-3.06-4.725-3.06-7.938v-1.655
		c0-0.453,0.068-0.788,0.207-1.005c0.138-0.217,0.403-0.326,0.798-0.326h3.636c0.354,0,0.606,0.094,0.754,0.281
		s0.222,0.479,0.222,0.872v1.537c0,1.991,0.64,3.528,1.921,4.612c1.024,0.867,2.218,1.3,3.577,1.3c1.497,0,2.809-0.513,3.932-1.537
		c1.123-1.044,1.675-2.345,1.655-3.901c0-1.99-0.513-3.686-1.537-5.085c-0.729-0.966-2.542-2.649-5.439-5.055
		c-0.099-0.079-0.379-0.3-0.842-0.665c-0.464-0.364-0.754-0.592-0.872-0.68c-0.118-0.089-0.37-0.291-0.754-0.605
		c-0.385-0.315-0.65-0.533-0.798-0.65c-0.148-0.119-0.385-0.315-0.71-0.592c-0.325-0.275-0.562-0.488-0.709-0.635
		c-0.148-0.148-0.351-0.341-0.606-0.577s-0.468-0.443-0.636-0.62c-0.167-0.178-0.354-0.375-0.562-0.592s-0.39-0.424-0.547-0.621
		c-1.793-2.188-2.689-4.808-2.689-7.863c0-2.738,0.68-5.024,2.039-6.857c1.143-1.537,2.641-2.68,4.493-3.429
		c1.537-0.63,2.986-0.946,4.346-0.946c3.192,0,5.804,1.045,7.833,3.134c1.99,2.069,2.985,4.69,2.985,7.862v1.98
		c0,0.414-0.073,0.7-0.221,0.857c-0.148,0.158-0.439,0.236-0.873,0.236h-3.547c-0.354,0-0.596-0.078-0.724-0.236
		c-0.129-0.157-0.192-0.434-0.192-0.827v-1.98c0-1.518-0.454-2.809-1.36-3.872c-0.985-1.143-2.257-1.715-3.813-1.715
		c-1.281,0-2.415,0.414-3.399,1.241c-1.262,1.064-1.893,2.621-1.893,4.671c0,1.853,0.621,3.488,1.862,4.906
		c0.631,0.729,1.932,1.883,3.902,3.459c1.497,1.242,2.966,2.424,4.404,3.547c2.838,2.307,4.749,4.74,5.734,7.302
		c0.552,1.478,0.817,3.212,0.799,5.202c0,2.857-1.045,5.32-3.134,7.391C932.379,651.503,929.629,652.566,926.358,652.566z"/>
	<path fill="#1E1E1E" d="M954.413,651.887c-0.69,0-1.034-0.384-1.034-1.152V608.05c0-0.749,0.344-1.124,1.034-1.124h16.672
		c0.591,0,0.887,0.346,0.887,1.035v3.37c0,0.67-0.296,1.005-0.887,1.005h-12.031v13.893h9.548c0.276,0,0.508,0.084,0.695,0.252
		c0.187,0.168,0.28,0.419,0.28,0.754v3.369c0,0.671-0.325,1.006-0.976,1.006h-9.548v14.868h12.031c0.61,0,0.916,0.325,0.916,0.976
		v3.43c0,0.67-0.306,1.004-0.916,1.004H954.413z"/>
	<path fill="#1E1E1E" d="M976.998,651.887c-0.689,0-1.034-0.384-1.034-1.152V608.05c0-0.749,0.345-1.124,1.034-1.124h3.518
		c0.552,0.139,0.916,0.444,1.094,0.917l11.588,29.886l0.738,2.896l-0.147-2.72l-0.207-29.855c-0.02-0.335,0.06-0.606,0.236-0.813
		c0.178-0.207,0.443-0.311,0.799-0.311h3.399c0.669,0,1.005,0.375,1.005,1.124v42.714c0,0.75-0.365,1.123-1.094,1.123h-3.429
		c-0.631,0-1.045-0.295-1.242-0.887l-11.558-29.5l-0.621-2.158l0.148,2.365l0.177,29.027c0,0.769-0.345,1.152-1.034,1.152H976.998z"
		/>
	<path fill="#1E1E1E" d="M1017.438,651.887c-0.69,0-1.034-0.384-1.034-1.152V608.05c0-0.749,0.344-1.124,1.034-1.124h3.606
		c0.67,0,1.015,0.375,1.034,1.124v42.685c0,0.769-0.345,1.152-1.034,1.152H1017.438z"/>
	<path fill="#1E1E1E" d="M1029.086,651.887c-0.689,0-1.034-0.384-1.034-1.152V608.05c0-0.749,0.345-1.124,1.034-1.124h3.518
		c0.552,0.139,0.917,0.444,1.094,0.917l11.588,29.886l0.739,2.896l-0.148-2.72l-0.207-29.855c-0.02-0.335,0.06-0.606,0.237-0.813
		c0.177-0.207,0.443-0.311,0.798-0.311h3.399c0.67,0,1.005,0.375,1.005,1.124v42.714c0,0.75-0.365,1.123-1.094,1.123h-3.429
		c-0.631,0-1.045-0.295-1.242-0.887l-11.558-29.5l-0.62-2.158l0.147,2.365l0.177,29.027c0,0.769-0.345,1.152-1.034,1.152H1029.086z"
		/>
	<path fill="#1E1E1E" d="M1066.924,652.566c-3.251,0-5.896-1.039-7.937-3.117c-2.04-2.08-3.06-4.725-3.06-7.938v-1.655
		c0-0.453,0.069-0.788,0.207-1.005s0.404-0.326,0.798-0.326h3.636c0.355,0,0.606,0.094,0.754,0.281
		c0.148,0.188,0.222,0.479,0.222,0.872v1.537c0,1.991,0.641,3.528,1.922,4.612c1.024,0.867,2.217,1.3,3.577,1.3
		c1.497,0,2.808-0.513,3.931-1.537c1.124-1.044,1.675-2.345,1.655-3.901c0-1.99-0.512-3.686-1.537-5.085
		c-0.729-0.966-2.542-2.649-5.438-5.055c-0.099-0.079-0.38-0.3-0.843-0.665c-0.463-0.364-0.754-0.592-0.872-0.68
		c-0.118-0.089-0.369-0.291-0.754-0.605c-0.384-0.315-0.65-0.533-0.798-0.65c-0.147-0.119-0.384-0.315-0.709-0.592
		c-0.325-0.275-0.563-0.488-0.71-0.635c-0.147-0.148-0.35-0.341-0.605-0.577c-0.257-0.236-0.469-0.443-0.636-0.62
		c-0.168-0.178-0.354-0.375-0.562-0.592s-0.39-0.424-0.547-0.621c-1.794-2.188-2.69-4.808-2.69-7.863c0-2.738,0.68-5.024,2.04-6.857
		c1.143-1.537,2.641-2.68,4.493-3.429c1.537-0.63,2.985-0.946,4.345-0.946c3.192,0,5.804,1.045,7.834,3.134
		c1.99,2.069,2.985,4.69,2.985,7.862v1.98c0,0.414-0.074,0.7-0.222,0.857c-0.147,0.158-0.438,0.236-0.872,0.236h-3.547
		c-0.355,0-0.597-0.078-0.725-0.236c-0.128-0.157-0.192-0.434-0.192-0.827v-1.98c0-1.518-0.453-2.809-1.359-3.872
		c-0.985-1.143-2.257-1.715-3.813-1.715c-1.281,0-2.414,0.414-3.399,1.241c-1.261,1.064-1.892,2.621-1.892,4.671
		c0,1.853,0.621,3.488,1.862,4.906c0.63,0.729,1.931,1.883,3.901,3.459c1.498,1.242,2.966,2.424,4.405,3.547
		c2.837,2.307,4.749,4.74,5.734,7.302c0.552,1.478,0.817,3.212,0.798,5.202c0,2.857-1.045,5.32-3.133,7.391
		C1072.944,651.503,1070.195,652.566,1066.924,652.566z"/>
	<path fill="#1E1E1E" d="M1087.913,651.887c-0.257,0-0.473-0.093-0.65-0.28c-0.178-0.187-0.267-0.448-0.267-0.783v-38.487h-6.828
		c-0.591,0-0.887-0.335-0.887-1.005v-3.341c0-0.334,0.084-0.596,0.252-0.783c0.167-0.188,0.379-0.281,0.635-0.281h19.421
		c0.592,0,0.877,0.346,0.857,1.035v3.37c0,0.67-0.286,1.005-0.857,1.005h-6.888v38.487c0,0.335-0.084,0.597-0.251,0.783
		c-0.167,0.188-0.38,0.28-0.636,0.28H1087.913z"/>
	<path fill="#1E1E1E" d="M1098.083,651.887c-0.65,0-0.896-0.384-0.739-1.152l9.695-42.861c0.138-0.631,0.503-0.947,1.094-0.947
		h3.577c0.552,0,0.916,0.316,1.094,0.947l9.666,42.861c0.178,0.769-0.06,1.152-0.709,1.152h-3.991c-0.631,0-0.995-0.305-1.094-0.916
		l-1.596-8.247h-10.347l-1.596,8.247c-0.099,0.611-0.474,0.916-1.123,0.916H1098.083z M1105.739,637.58h8.365l-3.932-20.248
		l-0.267-3.311l-0.266,3.311L1105.739,637.58z"/>
	<path fill="#1E1E1E" d="M1134.856,652.566c-3.055,0-5.646-0.955-7.774-2.867c-2.227-1.99-3.34-4.562-3.34-7.715v-25.125
		c0-3.114,1.094-5.676,3.281-7.687c2.128-1.95,4.749-2.937,7.862-2.956c3.548,0,6.316,1.213,8.307,3.637
		c1.655,2.068,2.483,4.434,2.483,7.094v2.572c0,0.492-0.069,0.827-0.207,1.004c-0.139,0.178-0.395,0.267-0.769,0.267h-3.695
		c-0.354,0-0.605-0.089-0.754-0.267c-0.147-0.177-0.222-0.482-0.222-0.916v-2.512c0-1.479-0.482-2.75-1.448-3.814
		c-0.985-1.083-2.237-1.625-3.754-1.625c-1.498,0-2.769,0.522-3.813,1.566c-1.064,1.025-1.596,2.287-1.596,3.783v24.742
		c0,1.518,0.562,2.818,1.685,3.902c1.044,1.005,2.296,1.508,3.754,1.508c1.479,0,2.744-0.527,3.799-1.582
		c1.054-1.055,1.581-2.301,1.581-3.739v-7.242h-3.665c-0.65,0-0.976-0.325-0.976-0.976v-2.985c0-0.69,0.325-1.034,0.976-1.034h8.218
		c0.689,0,1.044,0.374,1.063,1.123v11.262c0,3.134-1.063,5.695-3.192,7.686C1140.591,651.602,1137.99,652.566,1134.856,652.566z"/>
	<path fill="#1E1E1E" d="M1151.854,651.887c-0.689,0-1.034-0.363-1.034-1.094V608.05c0-0.749,0.345-1.124,1.034-1.124h10.051
		c3.251,0,5.922,1.064,8.011,3.193c2.029,2.109,3.045,4.75,3.045,7.922v5.646c0,2.108-0.419,3.961-1.257,5.557
		s-2.005,2.887-3.503,3.873l5.173,17.617c0.099,0.295,0.069,0.562-0.088,0.799c-0.158,0.236-0.365,0.354-0.621,0.354h-4.021
		c-0.531,0-0.857-0.295-0.976-0.887l-4.286-16.109c-0.531,0.078-1.123,0.117-1.773,0.117h-5.113v15.785
		c0,0.73-0.346,1.094-1.035,1.094H1151.854z M1156.496,629.6h5.438c1.655,0,2.985-0.553,3.991-1.656
		c0.906-1.023,1.35-2.384,1.33-4.079v-5.823c0-1.675-0.483-3.045-1.449-4.109c-0.945-1.044-2.246-1.576-3.901-1.596h-5.409V629.6z"
		/>
	<path fill="#1E1E1E" d="M1175.386,651.887c-0.65,0-0.896-0.384-0.739-1.152l9.695-42.861c0.139-0.631,0.503-0.947,1.094-0.947
		h3.577c0.552,0,0.917,0.316,1.094,0.947l9.666,42.861c0.178,0.769-0.059,1.152-0.709,1.152h-3.991
		c-0.631,0-0.995-0.305-1.094-0.916l-1.596-8.247h-10.346l-1.597,8.247c-0.099,0.611-0.473,0.916-1.123,0.916H1175.386z
		 M1183.042,637.58h8.365l-3.932-20.248l-0.266-3.311l-0.267,3.311L1183.042,637.58z"/>
	<path fill="#1E1E1E" d="M1203.055,651.887c-0.552,0-0.817-0.384-0.798-1.152v-42.803c0.039-0.67,0.325-1.006,0.857-1.006h4.611
		c0.275,0,0.482,0.074,0.62,0.223c0.138,0.147,0.247,0.389,0.326,0.725l7.804,26.84l0.266,1.922l0.325-1.922l7.804-26.84
		c0.079-0.336,0.192-0.577,0.34-0.725c0.147-0.148,0.35-0.223,0.606-0.223h4.611c0.551,0,0.847,0.336,0.887,1.006v42.803
		c0,0.769-0.276,1.152-0.828,1.152h-3.665c-0.591,0-0.887-0.384-0.887-1.152l0.059-29.855l0.089-1.655l-0.059,0.413l-7.154,24.388
		c-0.138,0.65-0.463,0.976-0.975,0.976h-2.218c-0.513,0-0.838-0.325-0.976-0.976l-7.153-24.388l-0.089-0.413l0.119,1.655
		l0.059,29.855c0,0.769-0.296,1.152-0.887,1.152H1203.055z"/>
	<path fill="#1E1E1E" d="M1237.937,651.887c-0.631,0-0.945-0.354-0.945-1.063v-3.784c0-0.354,0.089-0.635,0.266-0.842
		c0.178-0.207,0.404-0.311,0.68-0.311h4.316c0.669,0,1.005,0.395,1.005,1.182v3.725c0,0.355-0.099,0.627-0.296,0.813
		c-0.197,0.188-0.413,0.28-0.65,0.28H1237.937z M1238.528,640.979c-0.69,0-1.035-0.374-1.035-1.123v-31.925
		c0-0.749,0.345-1.123,1.035-1.123h3.251c0.67,0,1.006,0.374,1.006,1.123v31.925c0,0.749-0.336,1.123-1.006,1.123H1238.528z"/>
</g>
<g>
	<path fill="#5724BA" d="M217.708,504.975c-16.107,0-29.504-4.281-40.188-12.846c-11.237-8.957-16.853-20.898-16.853-35.827v-88.036
		c0-15.398,5.616-27.499,16.853-36.299c10.607-8.25,23.963-12.375,40.07-12.375c16.264,0,29.62,4.125,40.07,12.375
		c11.314,8.88,16.971,20.978,16.971,36.299v88.036c0,15.321-5.657,27.421-16.971,36.299
		C247.209,500.851,233.892,504.975,217.708,504.975z M217.708,460.662c2.75,0,4.792-0.725,6.128-2.18
		c1.335-1.453,2.003-3.162,2.003-5.127v-82.144c0-1.807-0.727-3.478-2.18-5.009c-1.455-1.532-3.438-2.299-5.952-2.299
		c-2.516,0-4.519,0.748-6.01,2.24c-1.494,1.492-2.239,3.182-2.239,5.067v82.144c0,1.965,0.667,3.674,2.003,5.127
		C212.796,459.938,214.879,460.662,217.708,460.662z"/>
	<path fill="#5724BA" d="M293.369,501.911c-3.694,0-5.539-1.768-5.539-5.304v-168.53c0-3.613,1.845-5.421,5.539-5.421h35.238
		c0.943,0,1.688,0.118,2.239,0.354c2.593,0.55,4.361,2.239,5.304,5.067l22.981,70.123l3.889,17.324l-0.825-15.438l-2.475-72.009
		c-0.079-1.491,0.393-2.77,1.415-3.83c1.02-1.061,2.396-1.591,4.125-1.591h35.592c3.536,0,5.304,1.729,5.304,5.186v168.766
		c0,3.536-2.044,5.304-6.128,5.304h-35.592c-4.086,0-6.679-1.768-7.778-5.304l-20.86-62.108l-4.832-16.735l1.296,16.854l2.004,61.99
		c0.156,3.536-1.729,5.304-5.657,5.304H293.369z"/>
	<path fill="#5724BA" d="M427.486,501.911c-3.694,0-5.539-1.768-5.539-5.304v-168.53c0-3.613,1.845-5.421,5.539-5.421h52.563
		c16.5,0,29.738,3.93,39.716,11.785c10.843,8.644,16.264,20.939,16.264,36.889v81.908c0,15.791-5.382,28.049-16.146,36.77
		c-9.822,7.938-22.864,11.903-39.127,11.903H427.486z M470.739,457.717h10.018c1.806-0.157,3.338-0.785,4.596-1.887
		c1.256-1.1,1.886-2.514,1.886-4.242v-78.137c0-2.514-0.63-4.32-1.886-5.422c-1.022-0.784-2.554-1.178-4.596-1.178h-10.018V457.717z
		"/>
	<path fill="#5724BA" d="M539.447,501.911c-2.514,0-3.338-1.768-2.475-5.304l39.127-168.53c0.864-3.613,3.024-5.421,6.482-5.421
		h36.652c3.456,0,5.695,1.808,6.717,5.421l39.127,168.53c0.943,3.536,0.077,5.304-2.593,5.304h-41.131
		c-4.007,0-6.325-1.768-6.953-5.304l-1.65-14.378h-23.688l-1.532,14.378c-0.472,3.536-2.751,5.304-6.835,5.304H539.447z
		 M593.896,440.863h14.024l-4.95-43.842l-2.003-22.981l-1.886,22.981L593.896,440.863z"/>
</g>
<line fill="none" stroke="#1E1E1E" stroke-width="3" stroke-linecap="round" stroke-linejoin="round" stroke-miterlimit="10" stroke-dasharray="4,8" x1="176.453" y1="145.195" x2="403.833" y2="145.195"/>
<line fill="none" stroke="#1E1E1E" stroke-width="3" stroke-linecap="round" stroke-linejoin="round" stroke-miterlimit="10" stroke-dasharray="4,8" x1="507.542" y1="596.461" x2="707.404" y2="596.461"/>
<g>
	<path fill="none" stroke="#1E1E1E" stroke-width="3" stroke-linecap="round" stroke-linejoin="round" stroke-miterlimit="10" d="
		M77.38,582.129c7.207,0,7.207,9.779,14.414,9.779c7.208,0,7.208-9.779,14.415-9.779c7.208,0,7.208,9.779,14.417,9.779
		c7.206,0,7.206-9.779,14.413-9.779c7.208,0,7.208,9.779,14.417,9.779s7.209-9.779,14.418-9.779c7.21,0,7.21,9.779,14.42,9.779
		s7.21-9.779,14.42-9.779"/>
	<path fill="none" stroke="#1E1E1E" stroke-width="3" stroke-linecap="round" stroke-linejoin="round" stroke-miterlimit="10" d="
		M90.158,608.255c7.207,0,7.207,9.779,14.414,9.779c7.208,0,7.208-9.779,14.415-9.779c7.208,0,7.208,9.779,14.417,9.779
		c7.206,0,7.206-9.779,14.413-9.779c7.208,0,7.208,9.779,14.417,9.779s7.209-9.779,14.418-9.779c7.21,0,7.21,9.779,14.42,9.779
		s7.21-9.779,14.42-9.779"/>
</g>
<g>
	
		<polyline fill="none" stroke="#1E1E1E" stroke-width="3" stroke-linecap="round" stroke-linejoin="round" stroke-miterlimit="10" points="
		1398.801,610.637 1430.063,634.083 1398.801,657.529 	"/>
	
		<polyline fill="none" stroke="#1E1E1E" stroke-width="3" stroke-linecap="round" stroke-linejoin="round" stroke-miterlimit="10" points="
		1377.092,610.637 1408.354,634.083 1377.092,657.529 	"/>
	
		<polyline fill="none" stroke="#1E1E1E" stroke-width="3" stroke-linecap="round" stroke-linejoin="round" stroke-miterlimit="10" points="
		1355.382,610.637 1386.644,634.083 1355.382,657.529 	"/>
	
		<polyline fill="none" stroke="#1E1E1E" stroke-width="3" stroke-linecap="round" stroke-linejoin="round" stroke-miterlimit="10" points="
		1333.672,610.637 1364.934,634.083 1333.672,657.529 	"/>
</g>
<g>
	<g>
		<path fill="#FFFFFF" stroke="#1E1E1E" stroke-width="3" stroke-miterlimit="10" d="M601.06,181.632h-74.834
			c-28.33,0-51.295-22.966-51.295-51.295V55.503c0-28.33,22.965-51.295,51.295-51.295h74.834c28.33,0,51.295,22.965,51.295,51.295
			v74.833C652.355,158.667,629.389,181.632,601.06,181.632z"/>
	</g>
	<g>
		<path fill="#F7DF03" d="M594.246,167.054H533.04c-24.042,0-43.531-19.489-43.531-43.531V62.317
			c0-24.042,19.49-43.531,43.531-43.531h61.206c24.042,0,43.531,19.489,43.531,43.531v61.207
			C637.776,147.565,618.287,167.054,594.246,167.054z"/>
		<path fill="none" stroke="#1E1E1E" stroke-width="3" stroke-miterlimit="10" d="M594.246,167.054H533.04
			c-24.042,0-43.531-19.489-43.531-43.531V62.317c0-24.042,19.49-43.531,43.531-43.531h61.206c24.042,0,43.531,19.489,43.531,43.531
			v61.207C637.776,147.565,618.287,167.054,594.246,167.054z"/>
	</g>
	<g>
		<circle fill="#5724BA" cx="563.643" cy="92.92" r="45.886"/>
		
			<circle fill="none" stroke="#1E1E1E" stroke-width="3" stroke-linecap="round" stroke-linejoin="round" stroke-miterlimit="10" cx="563.643" cy="92.92" r="45.886"/>
	</g>
	
		<circle fill="#FFFFFF" stroke="#1E1E1E" stroke-width="3" stroke-linecap="round" stroke-linejoin="round" stroke-miterlimit="10" cx="563.643" cy="92.92" r="31.368"/>
	<circle fill="#1E1E1E" cx="605.426" cy="42.532" r="6.194"/>
</g>
</svg>
