<?xml version="1.0" encoding="utf-8"?>
<!-- Generator: Adobe Illustrator 16.0.0, SVG Export Plug-In . SVG Version: 6.00 Build 0)  -->
<!DOCTYPE svg PUBLIC "-//W3C//DTD SVG 1.1//EN" "http://www.w3.org/Graphics/SVG/1.1/DTD/svg11.dtd">
<svg version="1.1" id="Layer_1" xmlns="http://www.w3.org/2000/svg" xmlns:xlink="http://www.w3.org/1999/xlink" x="0px" y="0px"
	 width="180px" height="210px" viewBox="0 0 180 210" enable-background="new 0 0 180 210" xml:space="preserve">
<g>
	<g>
		<g>
			<path fill="none" stroke="#1E1E1E" stroke-width="2" stroke-linecap="round" stroke-linejoin="round" stroke-miterlimit="10" d="
				M62.277,179.324c0,0,40.044,21.584,44.064,23.514s11.418,5.789,31.682,5.789"/>
			<path fill="none" stroke="#1E1E1E" stroke-width="2" stroke-linecap="round" stroke-linejoin="round" stroke-miterlimit="10" d="
				M122.192,102.321c0,0,31.987,31.738,38.558,38.308c10.266,10.266,15.386,25.002,13.143,36.541"/>
			<g>
				<defs>
					<path id="SVGID_1_" d="M120.148,196.259c-23.02-19.089-16.047-33.739-13.58-38.753c2.09-4.244,3-11.439-2.207-16.646
						l-5.517-5.517l-9.197-9.196c-5.061-5.061-5.061-13.267,0-18.328l0,0c5.061-5.06,13.266-5.06,18.327,0l34.805,34.806V0H22.818
						v193.976L120.148,196.259z"/>
				</defs>
				<clipPath id="SVGID_2_">
					<use xlink:href="#SVGID_1_"  overflow="visible"/>
				</clipPath>
				<g clip-path="url(#SVGID_2_)">
					<path fill="#FFFFFF" d="M108.506,187.277H47.567c-7.739,0-14.012-6.273-14.012-14.012V23.537
						c0-5.946,4.82-10.766,10.766-10.766h65.71c6.896,0,12.486,5.591,12.486,12.487v148.007
						C122.518,181.004,116.244,187.277,108.506,187.277z"/>
					<rect x="34.053" y="31.952" fill="#FFFFFF" width="88.429" height="136.146"/>
					<g>
						
							<path fill="none" stroke="#1E1E1E" stroke-width="2" stroke-linecap="round" stroke-linejoin="round" stroke-miterlimit="10" d="
							M33.555,32.297"/>
						
							<path fill="none" stroke="#1E1E1E" stroke-width="2" stroke-linecap="round" stroke-linejoin="round" stroke-miterlimit="10" d="
							M121.745,32.297"/>
						
							<line fill="none" stroke="#1E1E1E" stroke-width="2" stroke-linecap="round" stroke-linejoin="round" stroke-miterlimit="10" x1="69.241" y1="23.854" x2="86.833" y2="23.854"/>
						<circle fill="#01EEBC" cx="78.037" cy="175.072" r="5.927"/>
					</g>
					
						<path fill="none" stroke="#1E1E1E" stroke-width="2" stroke-linecap="round" stroke-linejoin="round" stroke-miterlimit="10" d="
						M110.144,187.277H45.93c-6.834,0-12.375-5.539-12.375-12.374V25.146c0-6.834,5.541-12.375,12.375-12.375h64.214
						c6.835,0,12.374,5.54,12.374,12.375v149.758C122.518,181.738,116.979,187.277,110.144,187.277z"/>
				</g>
			</g>
			
				<polyline fill="none" stroke="#1E1E1E" stroke-width="2" stroke-linecap="round" stroke-linejoin="round" stroke-miterlimit="10" points="
				104.268,162.466 44.214,162.466 44.214,37.161 113.088,37.161 113.088,113.258 			"/>
		</g>
		<g>
			<polygon fill="#F7DF03" points="85.386,97.504 54.657,97.504 54.657,52.392 102.945,52.392 102.945,97.504 			"/>
			
				<polyline fill="none" stroke="#1E1E1E" stroke-width="2" stroke-linecap="round" stroke-linejoin="round" stroke-miterlimit="10" points="
				65.222,85.561 76.254,74.528 82.578,80.852 			"/>
			
				<polyline fill="none" stroke="#1E1E1E" stroke-width="2" stroke-linecap="round" stroke-linejoin="round" stroke-miterlimit="10" points="
				79.921,78.194 86.413,71.702 92.736,78.026 			"/>
			
				<circle fill="none" stroke="#1E1E1E" stroke-width="2" stroke-linecap="round" stroke-linejoin="round" stroke-miterlimit="10" cx="69.191" cy="71.097" r="2.489"/>
		</g>
		<path fill="none" stroke="#1E1E1E" stroke-width="2" stroke-linecap="round" stroke-linejoin="round" stroke-miterlimit="10" d="
			M142.455,142.624l-34.806-34.806c-5.062-5.06-13.267-5.06-18.327,0l0,0c-5.061,5.062-5.061,13.268,0,18.328l9.197,9.196
			l5.517,5.517c5.206,5.207,4.296,12.402,2.207,16.646c-2.468,5.014-9.439,19.664,13.579,38.753"/>
	</g>
	<g>
		<path fill-rule="evenodd" clip-rule="evenodd" fill="#FFFFFF" d="M122.192,31.584c-8.289,0-15.032,6.744-15.032,15.033
			c0,2.916,0.827,5.717,2.4,8.147l-2.283,5.03c-0.211,0.464-0.135,1.007,0.196,1.395c0.253,0.297,0.62,0.461,0.999,0.461
			c0.115,0,0.232-0.015,0.348-0.047l6.291-1.726c2.173,1.162,4.609,1.773,7.081,1.773c8.29,0,15.033-6.744,15.033-15.033
			C137.226,38.328,130.482,31.584,122.192,31.584z"/>
		<g>
			<g>
				<g>
					<path fill-rule="evenodd" clip-rule="evenodd" fill="#1D1D1B" d="M122.192,31.584c-8.289,0-15.032,6.744-15.032,15.033
						c0,2.916,0.827,5.717,2.4,8.147l-2.283,5.03c-0.211,0.464-0.135,1.007,0.196,1.395c0.253,0.297,0.62,0.461,0.999,0.461
						c0.115,0,0.232-0.015,0.348-0.047l6.291-1.726c2.173,1.162,4.609,1.773,7.081,1.773c8.29,0,15.033-6.744,15.033-15.033
						C137.226,38.328,130.482,31.584,122.192,31.584z M122.192,59.024c-2.195,0-4.355-0.584-6.247-1.689
						c-0.203-0.118-0.432-0.179-0.662-0.179c-0.117,0-0.233,0.016-0.348,0.047l-4.11,1.128l1.432-3.154
						c0.194-0.429,0.145-0.929-0.131-1.311c-1.531-2.123-2.341-4.629-2.341-7.249c0-6.841,5.566-12.407,12.407-12.407
						c6.842,0,12.407,5.566,12.407,12.407C134.6,53.458,129.034,59.024,122.192,59.024z"/>
				</g>
				<g>
					<path fill-rule="evenodd" clip-rule="evenodd" fill="#1D1D1B" d="M127.973,48.868c-0.63-0.376-1.449-0.797-2.191-0.494
						c-0.568,0.233-0.932,1.124-1.301,1.579c-0.189,0.233-0.414,0.27-0.705,0.153c-2.136-0.851-3.772-2.277-4.951-4.241
						c-0.199-0.306-0.164-0.546,0.076-0.829c0.357-0.419,0.804-0.896,0.9-1.46c0.096-0.565-0.169-1.225-0.402-1.729
						c-0.299-0.643-0.633-1.56-1.276-1.923c-0.592-0.334-1.372-0.147-1.899,0.282c-0.91,0.741-1.349,1.903-1.336,3.054
						c0.004,0.327,0.044,0.653,0.121,0.969c0.184,0.76,0.534,1.468,0.93,2.143c0.297,0.508,0.621,1.001,0.971,1.476
						c1.143,1.552,2.563,2.9,4.209,3.909c0.822,0.503,1.707,0.945,2.625,1.248c1.028,0.34,1.945,0.694,3.056,0.483
						c1.163-0.221,2.31-0.94,2.771-2.062c0.137-0.332,0.205-0.701,0.129-1.052C129.539,49.649,128.559,49.219,127.973,48.868z"/>
				</g>
			</g>
		</g>
	</g>
	<g>
		<path fill="#5724BA" d="M38.533,140.535c5.53,6.816,11.531,8.871,14.592,9.49c0.642,0.129,1.079-0.623,0.656-1.123
			c-4.495-5.318-3.355-13.473-3.355-13.473l0,0.001c5.288-4.055,8.427-10.058,8.499-17.371
			c0.142-14.421-10.863-23.502-27.458-23.666c-16.515-0.162-27.775,8.551-27.919,23.122c-0.138,14.066,9.751,23.491,27.459,23.666
			c2.645,0.025,5.164-0.195,7.527-0.645L38.533,140.535z"/>
		<g>
			<circle fill="#FFFFFF" cx="40.58" cy="118.314" r="2.378"/>
			<circle fill="#FFFFFF" cx="30.645" cy="118.217" r="2.379"/>
			<circle fill="#FFFFFF" cx="20.709" cy="118.119" r="2.379"/>
		</g>
	</g>
</g>
</svg>
