<?xml version="1.0" encoding="utf-8"?>
<!-- Generator: Adobe Illustrator 16.0.0, SVG Export Plug-In . SVG Version: 6.00 Build 0)  -->
<!DOCTYPE svg PUBLIC "-//W3C//DTD SVG 1.1//EN" "http://www.w3.org/Graphics/SVG/1.1/DTD/svg11.dtd">
<svg version="1.1" id="Layer_1" xmlns="http://www.w3.org/2000/svg" xmlns:xlink="http://www.w3.org/1999/xlink" x="0px" y="0px"
	 width="194px" height="255.463px" viewBox="0 0 194 255.463" enable-background="new 0 0 194 255.463" xml:space="preserve">
<circle fill="#F7DF03" cx="96.347" cy="95.154" r="91.918"/>
<g>
	<path fill="#FFFFFF" d="M192.025,242.623l-2.598-11.117c-0.137-0.584-0.52-1.045-1.016-1.318c0.089-20.24-3.307-35.543-6.594-50.34
		c-1.066-4.799-2.169-9.76-3.119-14.764c-8.301-43.743-25.52-54.493-27.084-55.384c-0.009-0.005-0.014-0.014-0.022-0.019
		c-0.007-0.003-0.015-0.003-0.021-0.006c-0.017-0.009-0.032-0.018-0.044-0.024l-31.054-12.206
		c6.235-2.811,11.351-7.457,12.248-20.917c0.005-0.067,0.015-0.131,0.019-0.199c0-0.006-0.004-0.011-0.003-0.017
		c0.083-1.318,0.13-2.71,0.13-4.203c0-0.289-0.017-0.572-0.021-0.859c0.036-0.079,0.059-0.166,0.059-0.259
		c0-0.985-0.086-2.002-0.238-3.037c-2.13-22.953-21.574-37.717-35.323-39.322l-0.243,0.004c-7.545,0.884-16.34,5.71-22.952,12.595
		c-5.37,5.593-11.708,14.949-12.427,28.352c-0.034,0.475-0.053,0.946-0.053,1.409c0,0.021,0.009,0.037,0.011,0.057
		c-0.008,0.355-0.03,0.7-0.03,1.061c0,1.6,0.055,3.084,0.15,4.485c0,0.007-0.003,0.013-0.003,0.021
		c0.018,0.506,0.065,0.999,0.125,1.485c1.148,11.911,5.856,16.395,11.616,19.114L42.967,109.68c-0.002,0.001-0.004,0-0.006,0.001
		c0,0-0.001,0.001-0.001,0.001l-0.004,0.001c-0.756,0.412-18.603,10.618-27.101,55.399c-0.969,5.105-2.083,10.037-3.159,14.805
		c-3.203,14.18-6.51,28.848-6.552,50.299c-0.497,0.271-0.88,0.732-1.017,1.318l-2.598,11.117c-0.311,1.33,0.325,2.691,1.545,3.309
		c2.867,1.451,10.467,4.771,19.906,4.771c0.186,0,0.374,0,0.562-0.004c1.358-0.02,2.522-0.957,2.832-2.281l2.595-11.109
		c0.16-0.686-0.035-1.488-0.485-1.992c-0.009-0.01-0.02-0.016-0.03-0.025c0.5-5.609,3.452-31.252,17.884-68.492
		c-0.098,6.322-0.333,20.41-0.692,34.604c-0.1,3.955-0.289,7.518-0.472,10.963c-0.413,7.777-0.757,14.543,0.135,22.191h-0.179
		c-0.655,0-1.188,0.533-1.188,1.189v11.404c0,2.863,2.347,5.213,5.231,5.236c14.607,0.121,25.032,0.438,34.23,0.717
		c8.296,0.252,15.525,0.471,23.761,0.471c9.591,0,20.544-0.299,36.116-1.188c2.965-0.17,5.2-2.42,5.2-5.236v-11.404
		c0-0.656-0.533-1.189-1.188-1.189h-0.045c0.893-7.648,0.547-14.414,0.135-22.191c-0.184-3.445-0.372-7.008-0.473-10.963
		c-0.359-14.193-0.595-28.281-0.691-34.604c14.432,37.24,17.384,62.883,17.883,68.49c-0.009,0.012-0.02,0.018-0.029,0.027
		c-0.451,0.504-0.646,1.307-0.484,1.992l2.594,11.109c0.311,1.324,1.475,2.262,2.833,2.281c0.188,0.004,0.375,0.004,0.562,0.004
		c9.438,0,17.039-3.32,19.906-4.771C191.701,245.314,192.336,243.953,192.025,242.623z"/>
	<g>
		<g>
			<g>
				<path fill="none" d="M33.881,242.438"/>
			</g>
		</g>
		<g>
			<g>
				<path d="M108.974,96.227c-0.04,0-0.08-0.004-0.12-0.012c-12.148-2.357-23.958-0.274-24.076-0.252
					c-0.342,0.063-0.668-0.165-0.73-0.506c-0.062-0.342,0.165-0.668,0.506-0.73c0.12-0.022,12.151-2.149,24.539,0.255
					c0.341,0.066,0.563,0.396,0.497,0.737C109.531,96.018,109.269,96.227,108.974,96.227z"/>
			</g>
		</g>
		<g>
			<g>
				<g>
					<g>
						<g>
							<path d="M6.769,231.211c-0.347,0-0.628-0.281-0.628-0.629c0-21.672,3.332-36.428,6.555-50.697
								c1.077-4.768,2.19-9.697,3.159-14.803c8.499-44.781,26.345-54.986,27.101-55.398l31.952-13.029
								c0.322-0.133,0.688,0.023,0.819,0.344c0.131,0.321-0.023,0.688-0.344,0.819l-31.889,12.999
								c-0.115,0.068-18.034,10.395-26.405,54.5c-0.973,5.127-2.089,10.068-3.167,14.846c-3.208,14.203-6.524,28.889-6.524,50.42
								C7.397,230.93,7.116,231.211,6.769,231.211z"/>
						</g>
					</g>
					<g>
						<g>
							<path d="M23.979,250.701c-9.438,0.002-17.039-3.32-19.906-4.771c-1.22-0.617-1.855-1.977-1.545-3.307l2.598-11.119
								c0.252-1.082,1.333-1.762,2.461-1.551c0.264,0.049,0.78,0.242,1.923,0.672c3.862,1.455,12.91,4.863,18.696,4.184c0,0,0,0,0,0
								c0.481-0.055,0.935,0.123,1.276,0.506c0.451,0.506,0.646,1.307,0.485,1.994l-2.595,11.107
								c-0.31,1.324-1.474,2.264-2.832,2.283C24.354,250.701,24.166,250.701,23.979,250.701z M7.17,231.17
								c-0.396,0-0.733,0.246-0.821,0.621l-2.597,11.117c-0.178,0.764,0.187,1.547,0.889,1.9c2.841,1.438,10.445,4.742,19.882,4.633
								c0.78-0.012,1.448-0.551,1.626-1.311l2.595-11.109c0.066-0.287-0.021-0.67-0.199-0.869c-0.096-0.107-0.162-0.102-0.193-0.096
								c-6.09,0.711-15.338-2.768-19.286-4.256c-0.794-0.299-1.545-0.582-1.713-0.613C7.292,231.176,7.23,231.17,7.17,231.17z"/>
						</g>
					</g>
				</g>
				<g>
					<g>
						<path d="M48.017,163.979c-0.046,0-0.092-0.004-0.14-0.016c-0.338-0.076-0.55-0.412-0.473-0.75
							c6.907-30.402-4.585-52.463-4.702-52.683c-0.163-0.306-0.047-0.686,0.259-0.849c0.307-0.164,0.687-0.048,0.85,0.259
							c0.12,0.223,11.828,22.699,4.818,53.551C48.563,163.781,48.304,163.979,48.017,163.979z"/>
					</g>
				</g>
			</g>
			<g>
				<g>
					<g>
						<g>
							<path d="M98.24,238.566c-29.599,0.002-50.965-2.516-51.284-2.553c-0.286-0.035-0.511-0.258-0.548-0.545
								c-1.035-8.029-0.665-15.016-0.235-23.105c0.183-3.445,0.372-7.008,0.472-10.963c0.359-14.193,0.594-28.279,0.691-34.602
								c-14.71,37.959-17.496,63.885-17.911,68.807c-0.03,0.346-0.328,0.6-0.679,0.574c-0.346-0.029-0.603-0.334-0.573-0.68
								c0.43-5.092,3.377-32.51,19.259-72.381c0.112-0.283,0.41-0.445,0.706-0.385c0.297,0.059,0.51,0.322,0.506,0.625
								c-0.003,0.189-0.261,19.037-0.743,38.072c-0.101,3.973-0.29,7.545-0.474,10.998c-0.417,7.863-0.779,14.676,0.166,22.391
								c5.17,0.578,50.438,5.303,99.367-0.002c0.943-7.715,0.582-14.525,0.164-22.387c-0.183-3.455-0.373-7.027-0.473-11
								c-0.482-19.035-0.74-37.883-0.743-38.072c-0.004-0.303,0.208-0.566,0.506-0.625c0.297-0.059,0.595,0.104,0.706,0.385
								c15.883,39.873,18.83,67.291,19.259,72.381c0.029,0.346-0.228,0.65-0.573,0.68c-0.35,0.023-0.65-0.227-0.679-0.574
								c-0.415-4.922-3.2-30.848-17.911-68.809c0.097,6.324,0.332,20.412,0.691,34.604c0.1,3.955,0.289,7.518,0.473,10.963
								c0.429,8.09,0.799,15.076-0.235,23.105c-0.037,0.289-0.267,0.514-0.555,0.545C130.146,237.928,113.148,238.566,98.24,238.566
								z"/>
						</g>
					</g>
					<g>
						<g>
							<path d="M187.785,231.211c-0.002,0-0.003,0-0.004,0c-0.348-0.002-0.627-0.285-0.625-0.633
								c0.137-20.301-3.271-35.633-6.565-50.461c-1.068-4.807-2.173-9.777-3.126-14.801c-4.377-23.061-11.346-36.663-16.422-44.014
								c-5.49-7.95-10.002-10.492-10.048-10.517l-32.41-12.734c-0.323-0.127-0.481-0.491-0.354-0.814s0.49-0.481,0.814-0.355
								l32.482,12.768c0.826,0.446,18.674,10.651,27.172,55.432c0.949,5.006,2.053,9.965,3.118,14.764
								c3.311,14.895,6.733,30.299,6.597,50.74C188.411,230.932,188.13,231.211,187.785,231.211z"/>
						</g>
					</g>
					<g>
						<g>
							<path d="M170.574,250.701c-0.187,0-0.373,0-0.562-0.002c-1.358-0.02-2.523-0.959-2.833-2.283l-2.594-11.107
								c-0.161-0.688,0.033-1.488,0.484-1.994c0.342-0.383,0.795-0.561,1.276-0.506l0,0c5.79,0.678,14.835-2.729,18.696-4.184
								c1.143-0.43,1.659-0.623,1.924-0.672c1.128-0.213,2.209,0.469,2.461,1.551l2.598,11.119c0.311,1.33-0.325,2.689-1.545,3.307
								C187.613,247.381,180.012,250.701,170.574,250.701z M166.176,236.055c-0.036,0-0.093,0.014-0.168,0.098
								c-0.179,0.199-0.266,0.582-0.199,0.869l2.596,11.109c0.178,0.76,0.846,1.299,1.626,1.311
								c9.413,0.129,17.042-3.195,19.882-4.633c0.702-0.354,1.067-1.137,0.889-1.9l-2.597-11.117
								c-0.101-0.432-0.533-0.691-1.005-0.604c-0.168,0.031-0.918,0.314-1.713,0.613c-3.947,1.486-13.192,4.967-19.285,4.256l0,0
								C166.194,236.055,166.186,236.055,166.176,236.055z"/>
						</g>
					</g>
				</g>
				<g>
					<g>
						<path d="M146.537,163.979c-0.287,0-0.546-0.197-0.612-0.488c-7.009-30.852,4.699-53.328,4.817-53.551
							c0.164-0.307,0.545-0.422,0.851-0.26c0.306,0.164,0.422,0.544,0.259,0.85c-0.117,0.22-11.602,22.308-4.701,52.683
							c0.077,0.338-0.135,0.674-0.474,0.75C146.63,163.975,146.583,163.979,146.537,163.979z"/>
					</g>
				</g>
			</g>
			<g>
				<g>
					<path d="M108.162,253.572c-8.233,0-15.465-0.219-23.76-0.471c-9.199-0.279-19.624-0.594-34.23-0.715
						c-2.884-0.025-5.231-2.373-5.231-5.238v-11.404c0-0.656,0.533-1.189,1.188-1.189h0.814c0.347,0,0.628,0.281,0.628,0.629
						c0,0.346-0.281,0.629-0.628,0.629h-0.746v11.336c0,2.178,1.788,3.963,3.985,3.98c14.62,0.121,25.053,0.438,34.258,0.717
						c17.926,0.543,30.878,0.936,59.767-0.715c2.289-0.131,4.016-1.844,4.016-3.982v-11.336h-0.612
						c-0.347,0-0.628-0.283-0.628-0.629c0-0.348,0.281-0.629,0.628-0.629h0.681c0.655,0,1.188,0.533,1.188,1.189v11.404
						c0,2.816-2.235,5.066-5.2,5.236C128.705,253.275,117.754,253.572,108.162,253.572z"/>
				</g>
			</g>
		</g>
		<g>
			<g>
				<path d="M41.053,112.286c0.741,1.925,1.405,3.854,2.036,5.804c0.63,1.947,1.209,3.911,1.716,5.894
					c0.511,1.981,0.964,3.979,1.272,6.002c0.306,2.019,0.53,4.066,0.387,6.105c0.038-2.041-0.29-4.061-0.696-6.048
					c-0.409-1.99-0.96-3.949-1.568-5.886c-0.604-1.939-1.278-3.857-2.001-5.754c-0.723-1.895-1.485-3.786-2.304-5.627l-0.003-0.007
					c-0.142-0.317,0.001-0.689,0.319-0.83c0.317-0.141,0.688,0.001,0.83,0.319C41.045,112.265,41.049,112.276,41.053,112.286z"/>
			</g>
		</g>
		<g>
			<g>
				<path d="M154.504,112.766c-0.777,1.826-1.475,3.721-2.117,5.618c-0.643,1.901-1.22,3.826-1.693,5.776
					c-0.476,1.948-0.883,3.92-1.082,5.919c-0.199,1.993-0.269,4.022,0.105,6.01c-0.478-1.967-0.516-4.016-0.418-6.035
					c0.096-2.027,0.402-4.038,0.781-6.03c0.375-1.994,0.856-3.966,1.406-5.919c0.551-1.956,1.149-3.886,1.854-5.813
					c0.119-0.326,0.48-0.494,0.806-0.375c0.327,0.119,0.495,0.48,0.376,0.806c-0.004,0.009-0.008,0.019-0.012,0.028L154.504,112.766
					z"/>
			</g>
		</g>
		<g>
			<g>
				<path d="M157.113,115.473c-0.631,1.275-1.16,2.69-1.612,4.092c-0.45,1.412-0.837,2.851-1.138,4.309
					c-0.292,1.46-0.547,2.933-0.69,4.421c-0.171,1.485-0.23,2.982-0.261,4.482c-0.074-1.496-0.12-3.001-0.053-4.505
					c0.039-1.505,0.192-3.006,0.385-4.504c0.201-1.498,0.491-2.985,0.85-4.459c0.369-1.479,0.787-2.919,1.387-4.379
					c0.132-0.321,0.499-0.475,0.82-0.343c0.322,0.132,0.476,0.5,0.344,0.821c-0.006,0.013-0.012,0.026-0.018,0.039L157.113,115.473z
					"/>
			</g>
		</g>
		<g>
			<g>
				<g>
					<path d="M33.146,206.945c-0.109-1.957-0.408-3.973-0.813-5.934c-0.412-1.967-0.961-3.908-1.64-5.805
						c-0.661-1.904-1.527-3.732-2.51-5.496c-0.972-1.777-2.204-3.393-3.518-4.941c1.39,1.477,2.714,3.039,3.786,4.779
						c1.083,1.727,2.057,3.535,2.827,5.432c0.788,1.887,1.448,3.832,1.972,5.816c0.517,1.99,0.925,3.986,1.15,6.074
						c0.038,0.346-0.212,0.656-0.558,0.693c-0.346,0.037-0.655-0.213-0.692-0.559c-0.001-0.01-0.002-0.02-0.002-0.029
						L33.146,206.945z"/>
				</g>
			</g>
		</g>
		<g>
			<g>
				<g>
					<path d="M161.943,215.24c0.316-2.061,0.693-4.09,1.104-6.119s0.868-4.047,1.39-6.051c0.517-2.004,1.086-3.994,1.779-5.945
						c0.692-1.945,1.457-3.881,2.516-5.656c-0.967,1.826-1.627,3.785-2.217,5.754c-0.589,1.969-1.055,3.975-1.466,5.99
						c-0.416,2.012-0.769,4.039-1.073,6.072c-0.306,2.031-0.578,4.076-0.785,6.107l-0.002,0.006
						c-0.035,0.346-0.344,0.598-0.688,0.563s-0.597-0.344-0.562-0.689C161.94,215.262,161.941,215.25,161.943,215.24z"/>
				</g>
			</g>
		</g>
		<g>
			<g>
				<path d="M8.703,230.502c1.263-0.893,2.495-1.92,3.584-3.051c0.551-0.564,1.048-1.178,1.475-1.838
					c0.414-0.66,0.78-1.393,0.799-2.203c0.089,0.809-0.185,1.619-0.523,2.354c-0.349,0.738-0.781,1.439-1.269,2.092
					c-0.974,1.316-2.07,2.508-3.289,3.635c-0.256,0.236-0.654,0.221-0.891-0.035s-0.221-0.654,0.035-0.891
					c0.02-0.018,0.041-0.033,0.062-0.049L8.703,230.502z"/>
			</g>
		</g>
		<g>
			<g>
				<path d="M11.513,231.207c0.615-0.221,1.335-0.658,1.934-1.133c0.625-0.473,1.187-1.037,1.722-1.625
					c1.06-1.195,1.917-2.582,2.624-4.041c0.739-1.451,1.253-3.008,1.739-4.572l0.587-2.391l0.444-2.426l-0.289,2.455l-0.437,2.438
					c-0.389,1.607-0.809,3.219-1.471,4.754c-0.63,1.543-1.424,3.041-2.469,4.383c-0.53,0.664-1.095,1.309-1.75,1.873
					c-0.661,0.578-1.32,1.08-2.234,1.477c-0.319,0.137-0.689-0.01-0.827-0.328s0.008-0.688,0.327-0.826
					c0.012-0.006,0.024-0.01,0.037-0.016L11.513,231.207z"/>
			</g>
		</g>
		<g>
			<g>
				<g>
					<path d="M48.458,164.053c1.157,1.982,2.131,4,3.024,6.076c0.884,2.074,1.649,4.195,2.291,6.352
						c0.647,2.156,1.101,4.367,1.421,6.588c0.305,2.229,0.353,4.479,0.221,6.711c0.027-2.238-0.125-4.469-0.531-6.662
						c-0.421-2.188-0.971-4.348-1.709-6.445c-0.732-2.1-1.584-4.154-2.55-6.152c-0.968-1.99-2.039-3.959-3.224-5.789l-0.013-0.018
						c-0.188-0.293-0.105-0.682,0.186-0.869c0.291-0.189,0.68-0.107,0.869,0.184C48.449,164.035,48.455,164.045,48.458,164.053z"/>
				</g>
			</g>
			<g>
				<g>
					<path d="M48.71,164.953c0.472,2.25,0.88,4.496,1.227,6.758c0.339,2.262,0.625,4.535,0.699,6.816
						c-0.284-2.264-0.774-4.486-1.315-6.693c-0.548-2.203-1.16-4.4-1.825-6.561l-0.002-0.006c-0.102-0.332,0.084-0.686,0.416-0.787
						c0.332-0.104,0.685,0.084,0.787,0.416C48.701,164.914,48.707,164.934,48.71,164.953z"/>
				</g>
			</g>
		</g>
		<g>
			<g>
				<path d="M185.202,231.49c-1.219-1.127-2.314-2.318-3.288-3.635c-0.488-0.652-0.921-1.354-1.27-2.092
					c-0.338-0.734-0.612-1.545-0.523-2.354c0.019,0.811,0.385,1.543,0.799,2.203c0.427,0.66,0.924,1.273,1.476,1.838
					c1.089,1.131,2.321,2.158,3.584,3.051l0.015,0.012c0.284,0.201,0.352,0.594,0.15,0.879c-0.201,0.283-0.594,0.35-0.879,0.15
					C185.244,231.527,185.222,231.508,185.202,231.49z"/>
			</g>
		</g>
		<g>
			<g>
				<path d="M182.77,232.398c-0.914-0.396-1.573-0.898-2.234-1.477c-0.654-0.564-1.219-1.209-1.749-1.873
					c-1.044-1.342-1.839-2.84-2.47-4.383c-0.661-1.535-1.082-3.146-1.471-4.754l-0.436-2.438l-0.291-2.455l0.445,2.426l0.586,2.391
					c0.486,1.564,1.001,3.121,1.739,4.572c0.707,1.459,1.563,2.846,2.624,4.041c0.535,0.588,1.097,1.152,1.723,1.625
					c0.598,0.475,1.318,0.912,1.934,1.133l0.062,0.021c0.327,0.117,0.497,0.477,0.38,0.805c-0.117,0.326-0.477,0.496-0.805,0.379
					C182.795,232.408,182.781,232.402,182.77,232.398z"/>
			</g>
		</g>
		<g>
			<g>
				<g>
					<path d="M147.282,164.73c-1.187,1.83-2.257,3.799-3.225,5.789c-0.965,1.998-1.817,4.053-2.55,6.152
						c-0.739,2.098-1.287,4.258-1.709,6.445c-0.406,2.193-0.559,4.424-0.531,6.662c-0.133-2.232-0.085-4.482,0.221-6.711
						c0.32-2.221,0.773-4.432,1.421-6.588c0.642-2.156,1.407-4.277,2.291-6.352c0.894-2.076,1.867-4.094,3.024-6.076
						c0.174-0.299,0.559-0.4,0.859-0.225c0.3,0.174,0.4,0.559,0.226,0.859c-0.005,0.008-0.009,0.016-0.015,0.023L147.282,164.73z"/>
				</g>
			</g>
			<g>
				<g>
					<path d="M147.188,165.273c-0.666,2.16-1.277,4.357-1.826,6.561c-0.541,2.207-1.031,4.43-1.314,6.693
						c0.074-2.281,0.36-4.555,0.699-6.816c0.346-2.262,0.754-4.508,1.227-6.758c0.071-0.342,0.404-0.559,0.744-0.486
						c0.341,0.07,0.559,0.404,0.486,0.744c-0.003,0.02-0.008,0.037-0.014,0.055L147.188,165.273z"/>
				</g>
			</g>
		</g>
		<g>
			<g>
				<g>
					<g>
						<g>
							<path d="M96.365,112.391c-0.013,0-0.026,0-0.04-0.001c-0.346-0.021-0.609-0.319-0.588-0.666
								c0.184-2.972-0.017-10.243-5.835-13.583c-2.087-1.197-5.187-2.143-8.469-3.143c-3.893-1.187-8.305-2.532-11.836-4.572
								c-3.001-1.734-7.555-6.844-7.801-13.811c-0.012-0.347,0.259-0.638,0.606-0.65c0.34-0.021,0.638,0.258,0.65,0.605
								c0.255,7.219,5.266,11.664,7.174,12.767c3.406,1.969,7.745,3.292,11.573,4.458c3.353,1.022,6.519,1.987,8.728,3.255
								c6.43,3.69,6.663,11.544,6.464,14.75C96.971,112.134,96.695,112.391,96.365,112.391z"/>
						</g>
					</g>
				</g>
			</g>
			<g>
				<g>
					<g>
						<g>
							<path d="M96.291,111.819c-0.147,0-0.274-0.111-0.291-0.261c-0.059-0.533-0.148-1.08-0.266-1.625
								c-0.034-0.158,0.066-0.315,0.225-0.349c0.157-0.034,0.314,0.067,0.348,0.225c0.121,0.564,0.214,1.131,0.275,1.683
								c0.018,0.161-0.099,0.306-0.259,0.324C96.313,111.818,96.302,111.819,96.291,111.819z M95.59,108.546
								c-0.125,0-0.24-0.08-0.28-0.204c-0.167-0.523-0.36-1.042-0.576-1.542c-0.064-0.149,0.004-0.322,0.153-0.386
								c0.148-0.065,0.321,0.005,0.385,0.153c0.223,0.519,0.424,1.055,0.596,1.597c0.049,0.154-0.036,0.319-0.19,0.369
								C95.649,108.542,95.619,108.546,95.59,108.546z M94.261,105.476c-0.103,0-0.202-0.054-0.256-0.15
								c-0.271-0.481-0.567-0.947-0.882-1.385c-0.095-0.131-0.065-0.314,0.067-0.409c0.131-0.094,0.314-0.064,0.409,0.067
								c0.328,0.455,0.636,0.939,0.917,1.44c0.08,0.141,0.029,0.32-0.112,0.399C94.359,105.463,94.31,105.476,94.261,105.476z
								 M92.307,102.763c-0.08,0-0.159-0.032-0.217-0.096c-0.369-0.403-0.764-0.788-1.176-1.142
								c-0.123-0.106-0.136-0.291-0.031-0.414c0.105-0.123,0.291-0.137,0.414-0.031c0.43,0.37,0.842,0.77,1.227,1.191
								c0.109,0.12,0.101,0.305-0.019,0.414C92.448,102.737,92.378,102.763,92.307,102.763z M89.772,100.584
								c-0.056,0-0.113-0.016-0.163-0.049c-0.449-0.3-0.925-0.579-1.415-0.829c-0.145-0.073-0.202-0.25-0.128-0.395
								c0.073-0.144,0.25-0.203,0.395-0.127c0.51,0.26,1.006,0.55,1.474,0.863c0.135,0.09,0.171,0.272,0.081,0.407
								C89.959,100.538,89.867,100.584,89.772,100.584z M86.797,99.054c-0.036,0-0.073-0.006-0.109-0.021
								c-0.487-0.195-1.009-0.387-1.56-0.58c-0.153-0.053-0.234-0.221-0.18-0.374s0.221-0.232,0.374-0.18
								c0.56,0.196,1.09,0.391,1.584,0.588c0.15,0.06,0.224,0.23,0.164,0.381C87.024,98.984,86.914,99.054,86.797,99.054z
								 M83.636,97.933c-0.03,0-0.062-0.005-0.092-0.015l-1.594-0.522c-0.154-0.05-0.238-0.216-0.188-0.37s0.215-0.238,0.37-0.188
								l1.596,0.521c0.154,0.052,0.237,0.217,0.186,0.371C83.874,97.854,83.759,97.933,83.636,97.933z M80.449,96.885
								c-0.031,0-0.062-0.005-0.093-0.015c-0.524-0.176-1.056-0.357-1.591-0.546c-0.153-0.054-0.233-0.222-0.179-0.375
								c0.054-0.152,0.222-0.232,0.374-0.179c0.532,0.188,1.061,0.369,1.582,0.543c0.153,0.052,0.236,0.218,0.185,0.371
								C80.686,96.807,80.571,96.885,80.449,96.885z M77.287,95.765c-0.034,0-0.069-0.006-0.104-0.02
								c-0.522-0.199-1.045-0.406-1.566-0.623c-0.149-0.063-0.22-0.234-0.157-0.384c0.063-0.148,0.234-0.219,0.383-0.157
								c0.515,0.215,1.032,0.42,1.548,0.616c0.151,0.058,0.228,0.228,0.17,0.378C77.517,95.692,77.405,95.765,77.287,95.765z
								 M74.195,94.47c-0.042,0-0.083-0.009-0.124-0.027c-0.512-0.238-1.018-0.488-1.516-0.749
								c-0.143-0.076-0.198-0.253-0.123-0.396c0.075-0.144,0.252-0.197,0.396-0.124c0.489,0.257,0.987,0.502,1.49,0.737
								c0.147,0.068,0.211,0.242,0.143,0.389C74.411,94.407,74.305,94.47,74.195,94.47z M71.23,92.902
								c-0.052,0-0.104-0.014-0.151-0.043c-0.495-0.3-0.973-0.612-1.419-0.929c-0.132-0.094-0.163-0.277-0.069-0.409
								c0.093-0.132,0.276-0.163,0.409-0.069c0.436,0.309,0.901,0.614,1.384,0.906c0.139,0.084,0.183,0.264,0.099,0.403
								C71.427,92.852,71.33,92.902,71.23,92.902z M68.505,90.958c-0.067,0-0.134-0.023-0.189-0.07
								c-0.442-0.375-0.861-0.766-1.245-1.164c-0.112-0.117-0.109-0.302,0.008-0.415c0.117-0.113,0.302-0.109,0.415,0.008
								c0.37,0.383,0.774,0.762,1.202,1.124c0.124,0.105,0.139,0.29,0.034,0.413C68.671,90.923,68.588,90.958,68.505,90.958z
								 M66.19,88.547c-0.088,0-0.175-0.04-0.233-0.115c-0.349-0.456-0.669-0.933-0.952-1.418c-0.082-0.14-0.035-0.319,0.105-0.4
								c0.139-0.081,0.319-0.035,0.401,0.105c0.271,0.464,0.577,0.92,0.912,1.357c0.098,0.128,0.073,0.313-0.055,0.411
								C66.315,88.528,66.252,88.547,66.19,88.547z M64.513,85.665c-0.114,0-0.223-0.068-0.271-0.18
								c-0.206-0.492-0.384-1.002-0.53-1.52c-0.044-0.156,0.047-0.318,0.203-0.361s0.318,0.047,0.362,0.203
								c0.139,0.494,0.309,0.982,0.506,1.452c0.063,0.149-0.008,0.321-0.157,0.383C64.589,85.657,64.551,85.665,64.513,85.665z"/>
						</g>
					</g>
				</g>
			</g>
			<g>
				<g>
					<g>
						<g>
							<path d="M98.24,112.063c-0.012,0-0.021-0.001-0.033-0.002c-0.161-0.018-0.277-0.163-0.259-0.324
								c0.062-0.564,0.147-1.129,0.251-1.68c0.03-0.159,0.184-0.262,0.344-0.233c0.158,0.03,0.263,0.184,0.232,0.343
								c-0.102,0.536-0.184,1.085-0.244,1.635C98.514,111.951,98.387,112.063,98.24,112.063z M98.867,108.772
								c-0.025,0-0.052-0.003-0.078-0.011c-0.156-0.043-0.247-0.205-0.204-0.361c0.154-0.555,0.332-1.099,0.529-1.618
								c0.058-0.152,0.227-0.229,0.378-0.17c0.152,0.057,0.229,0.227,0.17,0.378c-0.19,0.502-0.363,1.03-0.512,1.567
								C99.114,108.688,98.996,108.772,98.867,108.772z M100.061,105.646c-0.044,0-0.09-0.011-0.131-0.031
								c-0.146-0.073-0.203-0.249-0.131-0.394c0.26-0.516,0.545-1.015,0.851-1.481c0.089-0.136,0.271-0.173,0.405-0.085
								c0.137,0.089,0.174,0.271,0.086,0.406c-0.293,0.447-0.568,0.927-0.818,1.423
								C100.271,105.586,100.168,105.646,100.061,105.646z M101.895,102.851c-0.066,0-0.134-0.023-0.189-0.07
								c-0.123-0.105-0.139-0.29-0.033-0.414c0.371-0.437,0.771-0.851,1.19-1.23c0.119-0.109,0.305-0.1,0.414,0.021
								c0.108,0.12,0.099,0.306-0.021,0.414c-0.4,0.362-0.782,0.757-1.137,1.176C102.061,102.816,101.979,102.851,101.895,102.851z
								 M104.371,100.609c-0.094,0-0.185-0.045-0.242-0.127c-0.092-0.133-0.058-0.316,0.076-0.408
								c0.464-0.32,0.958-0.616,1.469-0.878c0.144-0.075,0.32-0.018,0.395,0.126c0.074,0.144,0.018,0.321-0.127,0.395
								c-0.488,0.251-0.961,0.534-1.404,0.839C104.486,100.592,104.429,100.609,104.371,100.609z M107.337,99.064
								c-0.116,0-0.226-0.069-0.272-0.184c-0.061-0.15,0.014-0.321,0.164-0.381c0.493-0.198,1.023-0.394,1.584-0.59
								c0.152-0.053,0.32,0.027,0.373,0.18c0.054,0.152-0.027,0.32-0.18,0.374c-0.551,0.193-1.073,0.385-1.561,0.581
								C107.41,99.057,107.373,99.064,107.337,99.064z M110.498,97.941c-0.123,0-0.238-0.078-0.279-0.202
								c-0.051-0.153,0.033-0.319,0.187-0.371l1.596-0.522c0.154-0.051,0.319,0.034,0.37,0.188c0.05,0.154-0.034,0.319-0.188,0.369
								l-1.594,0.522C110.559,97.936,110.527,97.941,110.498,97.941z M113.686,96.894c-0.123,0-0.238-0.078-0.278-0.2
								c-0.052-0.154,0.031-0.32,0.185-0.372c0.521-0.174,1.05-0.354,1.582-0.542c0.153-0.055,0.32,0.026,0.375,0.179
								c0.053,0.153-0.027,0.32-0.18,0.374c-0.535,0.189-1.066,0.371-1.591,0.546C113.747,96.889,113.716,96.894,113.686,96.894z
								 M116.848,95.774c-0.119,0-0.23-0.072-0.274-0.189c-0.058-0.151,0.019-0.321,0.17-0.378c0.517-0.196,1.034-0.401,1.549-0.615
								c0.149-0.062,0.321,0.009,0.384,0.158c0.063,0.15-0.009,0.321-0.158,0.384c-0.521,0.217-1.043,0.423-1.566,0.622
								C116.916,95.768,116.882,95.774,116.848,95.774z M119.939,94.481c-0.11,0-0.217-0.063-0.266-0.169
								c-0.068-0.147-0.004-0.322,0.143-0.39c0.504-0.233,1.002-0.479,1.49-0.736c0.144-0.073,0.321-0.02,0.396,0.124
								s0.021,0.32-0.123,0.396c-0.498,0.261-1.005,0.511-1.518,0.748C120.023,94.473,119.98,94.481,119.939,94.481z
								 M122.906,92.916c-0.1,0-0.197-0.05-0.252-0.141c-0.084-0.139-0.039-0.319,0.1-0.403c0.483-0.292,0.949-0.597,1.385-0.905
								c0.133-0.093,0.314-0.063,0.408,0.07s0.063,0.315-0.069,0.409c-0.446,0.317-0.925,0.629-1.421,0.928
								C123.01,92.902,122.957,92.916,122.906,92.916z M125.634,90.976c-0.083,0-0.166-0.036-0.224-0.104
								c-0.105-0.124-0.09-0.309,0.034-0.413c0.429-0.362,0.834-0.74,1.204-1.122c0.111-0.117,0.297-0.12,0.414-0.007
								c0.116,0.112,0.119,0.298,0.007,0.414c-0.384,0.396-0.803,0.788-1.247,1.163C125.768,90.953,125.701,90.976,125.634,90.976z
								 M127.953,88.569c-0.063,0-0.126-0.02-0.18-0.061c-0.128-0.099-0.152-0.283-0.053-0.411c0.334-0.436,0.642-0.892,0.914-1.355
								c0.082-0.14,0.262-0.187,0.4-0.104c0.141,0.082,0.187,0.262,0.105,0.401c-0.285,0.485-0.605,0.961-0.955,1.417
								C128.127,88.529,128.041,88.569,127.953,88.569z M129.636,85.689c-0.038,0-0.077-0.007-0.114-0.023
								c-0.148-0.063-0.219-0.235-0.156-0.384c0.201-0.477,0.375-0.973,0.517-1.475c0.044-0.156,0.206-0.248,0.362-0.203
								c0.155,0.043,0.246,0.206,0.202,0.361c-0.147,0.526-0.33,1.045-0.54,1.544C129.859,85.622,129.75,85.689,129.636,85.689z"/>
						</g>
					</g>
				</g>
			</g>
			<g>
				<g>
					<path d="M132.275,71.62c-0.347,0-0.628-0.281-0.628-0.628c0-14.344-16.483-32.85-33.992-32.85h-0.738
						c-14.842,0-33.992,15.93-33.992,32.85c0,0.347-0.281,0.628-0.628,0.628s-0.628-0.281-0.628-0.628
						c0-7.094,4.05-15.71,10.568-22.485c7.105-7.386,16.102-11.621,24.681-11.621h0.738c8.579,0,17.575,4.235,24.681,11.621
						c6.52,6.775,10.568,15.392,10.568,22.485C132.904,71.339,132.623,71.62,132.275,71.62z"/>
				</g>
			</g>
			<g>
				<g>
					<g>
						<g>
							<path d="M98.151,112.388c-0.329,0-0.606-0.256-0.626-0.589c-0.198-3.205,0.036-11.057,6.463-14.747
								c2.287-1.313,5.576-2.343,9.059-3.433c3.883-1.216,7.898-2.473,11.259-4.289c2.101-1.136,6.825-6.002,7.179-13.063
								c0.018-0.346,0.313-0.605,0.659-0.596c0.347,0.017,0.613,0.313,0.597,0.659c-0.385,7.665-5.445,12.813-7.836,14.105
								c-3.468,1.875-7.541,3.15-11.481,4.384c-3.415,1.069-6.641,2.079-8.809,3.323c-5.817,3.339-6.019,10.609-5.835,13.58
								c0.021,0.346-0.242,0.645-0.588,0.666C98.178,112.387,98.164,112.388,98.151,112.388z"/>
						</g>
					</g>
				</g>
			</g>
			<g>
				<g>
					<path d="M96.364,112.389c-0.272,0-0.523-0.178-0.603-0.453c-0.639-2.194-2.844-4.941-5.898-7.347
						c-3.203-2.522-6.912-3.832-10.499-5.098c-9.11-3.215-17.714-6.252-17.714-27.382c0-14.763,6.797-24.941,12.499-30.878
						c6.612-6.886,15.407-11.712,22.952-12.595l0.242-0.004c14.563,1.701,35.524,18.159,35.524,43.478
						c0,21.129-8.604,24.167-17.715,27.382c-3.586,1.266-7.295,2.576-10.498,5.098c-3.107,2.447-5.257,5.124-5.898,7.344
						c-0.096,0.333-0.445,0.525-0.778,0.43c-0.333-0.097-0.525-0.445-0.429-0.778c0.713-2.467,3.02-5.376,6.328-7.982
						c3.365-2.651,7.174-3.996,10.857-5.296c8.679-3.063,16.877-5.956,16.877-26.197c0-24.599-20.306-40.582-34.341-42.225
						l-0.096,0.004C83.211,31.528,62.906,47.511,62.906,72.11c0,20.241,8.198,23.134,16.876,26.197
						c3.683,1.3,7.492,2.645,10.858,5.296c3.301,2.601,5.607,5.51,6.328,7.983c0.097,0.333-0.095,0.682-0.428,0.779
						C96.482,112.382,96.422,112.389,96.364,112.389z"/>
				</g>
			</g>
			<g>
				<g>
					<path d="M97.38,113.25c-17.057,0-22.772-15.646-22.828-15.804c-0.116-0.327,0.056-0.686,0.383-0.801
						c0.326-0.114,0.686,0.056,0.801,0.383c0.053,0.15,5.491,14.966,21.643,14.966c13.469,0,20.797-14.654,20.87-14.802
						c0.153-0.312,0.529-0.44,0.841-0.289c0.312,0.153,0.44,0.529,0.288,0.841C119.303,97.898,111.625,113.25,97.38,113.25z"/>
				</g>
			</g>
			<g>
				<g>
					<path d="M132.112,69.411c-0.162,0-0.294-0.132-0.294-0.293c0-0.537-0.023-1.091-0.07-1.648
						c-0.014-0.162,0.105-0.303,0.268-0.317c0.156-0.022,0.303,0.106,0.316,0.267c0.049,0.573,0.073,1.145,0.073,1.698
						C132.405,69.279,132.273,69.411,132.112,69.411z M62.424,69.411c-0.162,0-0.293-0.132-0.293-0.293
						c0-0.499,0.021-1.013,0.06-1.529c0.012-0.161,0.158-0.278,0.314-0.27c0.161,0.013,0.283,0.153,0.27,0.315
						c-0.038,0.501-0.058,1-0.058,1.484C62.718,69.279,62.586,69.411,62.424,69.411z M62.676,66.241
						c-0.015,0-0.03-0.001-0.045-0.004c-0.16-0.024-0.27-0.174-0.246-0.334c0.084-0.546,0.19-1.106,0.316-1.666
						c0.036-0.158,0.192-0.255,0.351-0.222c0.158,0.035,0.257,0.192,0.222,0.35c-0.123,0.546-0.226,1.093-0.308,1.626
						C62.943,66.137,62.818,66.241,62.676,66.241z M131.834,66.076c-0.141,0-0.266-0.103-0.289-0.247
						c-0.086-0.534-0.193-1.081-0.319-1.624c-0.036-0.158,0.062-0.315,0.22-0.352c0.158-0.04,0.314,0.062,0.352,0.219
						c0.129,0.557,0.238,1.116,0.326,1.664c0.027,0.16-0.082,0.311-0.242,0.336C131.865,66.074,131.85,66.076,131.834,66.076z
						 M63.406,62.973c-0.027,0-0.055-0.003-0.082-0.012c-0.155-0.045-0.245-0.208-0.2-0.363c0.155-0.535,0.328-1.072,0.518-1.61
						c0.054-0.153,0.221-0.234,0.374-0.179c0.153,0.054,0.233,0.221,0.179,0.374c-0.186,0.528-0.355,1.055-0.508,1.58
						C63.65,62.89,63.533,62.973,63.406,62.973z M131.083,62.812c-0.126,0-0.243-0.083-0.28-0.21
						c-0.156-0.524-0.329-1.051-0.518-1.577c-0.055-0.153,0.025-0.32,0.178-0.375c0.151-0.055,0.32,0.024,0.375,0.177
						c0.191,0.537,0.367,1.073,0.526,1.608c0.046,0.155-0.042,0.318-0.197,0.364C131.139,62.807,131.111,62.812,131.083,62.812z
						 M64.517,59.813c-0.037,0-0.075-0.007-0.111-0.022c-0.15-0.062-0.221-0.233-0.16-0.383c0.213-0.516,0.44-1.032,0.682-1.547
						c0.069-0.146,0.244-0.208,0.39-0.141c0.146,0.069,0.209,0.244,0.14,0.39c-0.237,0.506-0.461,1.013-0.67,1.521
						C64.742,59.744,64.633,59.813,64.517,59.813z M129.955,59.656c-0.115,0-0.225-0.068-0.271-0.18
						c-0.211-0.506-0.438-1.012-0.678-1.517c-0.069-0.146-0.007-0.321,0.139-0.391c0.146-0.071,0.322-0.008,0.391,0.139
						c0.245,0.514,0.475,1.028,0.689,1.543c0.063,0.149-0.008,0.321-0.156,0.384C130.031,59.649,129.992,59.656,129.955,59.656z
						 M65.941,56.778c-0.046,0-0.093-0.011-0.136-0.034c-0.144-0.076-0.198-0.253-0.123-0.396c0.26-0.494,0.534-0.986,0.819-1.476
						c0.082-0.141,0.262-0.186,0.401-0.105c0.14,0.082,0.187,0.261,0.105,0.401c-0.281,0.482-0.55,0.967-0.807,1.454
						C66.148,56.721,66.046,56.778,65.941,56.778z M128.517,56.63c-0.104,0-0.206-0.057-0.259-0.156
						c-0.259-0.486-0.53-0.97-0.813-1.451c-0.083-0.14-0.036-0.319,0.104-0.402c0.14-0.082,0.319-0.036,0.401,0.104
						c0.288,0.488,0.563,0.979,0.826,1.473c0.076,0.144,0.021,0.321-0.121,0.397C128.61,56.619,128.563,56.63,128.517,56.63z
						 M67.629,53.883c-0.054,0-0.109-0.015-0.158-0.047c-0.136-0.087-0.176-0.269-0.088-0.405c0.302-0.471,0.615-0.939,0.939-1.403
						c0.093-0.132,0.276-0.165,0.408-0.072c0.133,0.093,0.166,0.275,0.072,0.409c-0.319,0.457-0.628,0.918-0.926,1.383
						C67.821,53.835,67.726,53.883,67.629,53.883z M126.816,53.741c-0.097,0-0.191-0.047-0.247-0.134
						c-0.3-0.463-0.61-0.923-0.932-1.379c-0.093-0.132-0.062-0.315,0.07-0.409s0.315-0.063,0.409,0.071
						c0.326,0.462,0.641,0.929,0.945,1.398c0.088,0.136,0.049,0.318-0.088,0.406C126.926,53.726,126.871,53.741,126.816,53.741z
						 M69.55,51.136c-0.062,0-0.124-0.02-0.177-0.06c-0.129-0.098-0.154-0.282-0.056-0.411c0.339-0.446,0.688-0.888,1.047-1.324
						c0.103-0.125,0.288-0.143,0.413-0.041c0.125,0.103,0.143,0.288,0.04,0.413c-0.354,0.43-0.699,0.866-1.033,1.307
						C69.726,51.096,69.638,51.136,69.55,51.136z M124.885,51.001c-0.088,0-0.176-0.04-0.233-0.115
						c-0.336-0.439-0.682-0.873-1.038-1.302c-0.104-0.125-0.086-0.31,0.039-0.413c0.124-0.104,0.31-0.086,0.412,0.039
						c0.361,0.435,0.712,0.875,1.053,1.319c0.099,0.129,0.074,0.313-0.055,0.411C125.01,50.981,124.947,51.001,124.885,51.001z
						 M71.679,48.547c-0.069,0-0.139-0.024-0.195-0.074c-0.121-0.107-0.131-0.293-0.024-0.414c0.373-0.419,0.755-0.833,1.146-1.239
						c0.113-0.116,0.298-0.12,0.415-0.008c0.117,0.112,0.12,0.298,0.008,0.415c-0.385,0.401-0.762,0.809-1.13,1.223
						C71.841,48.514,71.76,48.547,71.679,48.547z M122.744,48.421c-0.08,0-0.16-0.033-0.218-0.098
						c-0.368-0.411-0.747-0.817-1.133-1.215c-0.112-0.117-0.109-0.302,0.007-0.415s0.301-0.11,0.414,0.006
						c0.393,0.404,0.775,0.815,1.148,1.233c0.108,0.12,0.098,0.306-0.022,0.414C122.885,48.396,122.814,48.421,122.744,48.421z
						 M74.004,46.127c-0.077,0-0.154-0.03-0.211-0.09c-0.112-0.117-0.109-0.302,0.008-0.415c0.405-0.391,0.819-0.773,1.24-1.148
						c0.121-0.108,0.307-0.097,0.414,0.024c0.107,0.121,0.097,0.306-0.024,0.414c-0.416,0.369-0.823,0.747-1.224,1.132
						C74.151,46.1,74.078,46.127,74.004,46.127z M120.417,46.018c-0.073,0-0.146-0.027-0.202-0.082
						c-0.4-0.382-0.809-0.758-1.225-1.125c-0.121-0.107-0.133-0.292-0.025-0.414c0.107-0.122,0.292-0.133,0.414-0.026
						c0.421,0.373,0.835,0.753,1.241,1.141c0.116,0.112,0.12,0.297,0.009,0.415C120.572,45.987,120.494,46.018,120.417,46.018z
						 M76.512,43.896c-0.085,0-0.169-0.037-0.227-0.107c-0.103-0.125-0.084-0.31,0.041-0.413c0.435-0.357,0.877-0.706,1.327-1.044
						c0.129-0.099,0.313-0.073,0.411,0.057c0.097,0.129,0.072,0.313-0.058,0.411c-0.443,0.334-0.879,0.678-1.308,1.03
						C76.643,43.875,76.577,43.896,76.512,43.896z M117.906,43.8c-0.064,0-0.131-0.022-0.186-0.066
						c-0.43-0.351-0.867-0.692-1.311-1.024c-0.13-0.097-0.156-0.28-0.06-0.41c0.097-0.131,0.28-0.156,0.411-0.06
						c0.45,0.337,0.894,0.684,1.33,1.039c0.125,0.103,0.145,0.287,0.042,0.413C118.076,43.764,117.991,43.8,117.906,43.8z
						 M79.188,41.879c-0.093,0-0.185-0.044-0.242-0.127c-0.092-0.133-0.058-0.316,0.075-0.408c0.463-0.32,0.933-0.629,1.409-0.929
						c0.137-0.085,0.318-0.045,0.404,0.092s0.045,0.318-0.092,0.404c-0.469,0.294-0.932,0.6-1.388,0.915
						C79.303,41.862,79.245,41.879,79.188,41.879z M115.222,41.791c-0.057,0-0.114-0.017-0.165-0.051
						c-0.459-0.314-0.923-0.617-1.395-0.911c-0.137-0.085-0.179-0.266-0.093-0.404c0.085-0.137,0.267-0.18,0.403-0.094
						c0.479,0.297,0.95,0.606,1.415,0.924c0.134,0.092,0.168,0.274,0.076,0.408C115.407,41.747,115.315,41.791,115.222,41.791z
						 M82.023,40.098c-0.102,0-0.201-0.054-0.255-0.149c-0.08-0.141-0.031-0.319,0.11-0.399c0.489-0.278,0.985-0.544,1.486-0.798
						c0.145-0.073,0.321-0.015,0.394,0.129c0.074,0.144,0.016,0.321-0.128,0.394c-0.494,0.25-0.981,0.512-1.463,0.785
						C82.122,40.085,82.072,40.098,82.023,40.098z M112.374,40.02c-0.048,0-0.098-0.012-0.144-0.038
						c-0.484-0.272-0.974-0.532-1.469-0.78c-0.145-0.072-0.203-0.249-0.131-0.394c0.072-0.144,0.249-0.203,0.393-0.131
						c0.504,0.252,1.002,0.517,1.494,0.793c0.142,0.079,0.191,0.258,0.112,0.399C112.576,39.966,112.477,40.02,112.374,40.02z
						 M85.008,38.585c-0.112,0-0.219-0.065-0.268-0.173c-0.066-0.148,0-0.322,0.148-0.388c0.515-0.23,1.034-0.447,1.558-0.65
						c0.151-0.06,0.321,0.017,0.379,0.167c0.059,0.151-0.016,0.32-0.167,0.379c-0.515,0.2-1.025,0.414-1.53,0.639
						C85.088,38.577,85.047,38.585,85.008,38.585z M109.375,38.518c-0.039,0-0.079-0.008-0.117-0.025
						c-0.508-0.224-1.021-0.436-1.537-0.632c-0.151-0.058-0.228-0.227-0.17-0.378s0.227-0.228,0.379-0.169
						c0.525,0.201,1.048,0.416,1.564,0.644c0.148,0.066,0.215,0.239,0.15,0.387C109.596,38.452,109.488,38.518,109.375,38.518z
						 M88.127,37.377c-0.124,0-0.238-0.078-0.278-0.202c-0.051-0.154,0.033-0.32,0.187-0.371c0.536-0.176,1.075-0.337,1.619-0.482
						c0.156-0.043,0.317,0.05,0.359,0.207s-0.051,0.317-0.207,0.359c-0.533,0.143-1.063,0.301-1.588,0.474
						C88.188,37.372,88.157,37.377,88.127,37.377z M106.244,37.323c-0.03,0-0.061-0.004-0.091-0.014
						c-0.526-0.17-1.058-0.325-1.592-0.464c-0.157-0.042-0.251-0.201-0.21-0.358c0.041-0.157,0.201-0.251,0.357-0.209
						c0.546,0.142,1.088,0.301,1.625,0.474c0.154,0.05,0.238,0.215,0.188,0.369C106.482,37.244,106.367,37.323,106.244,37.323z
						 M91.359,36.511c-0.136,0-0.258-0.095-0.287-0.233c-0.033-0.159,0.069-0.314,0.228-0.347c0.556-0.116,1.116-0.215,1.667-0.295
						c0.162-0.02,0.309,0.088,0.333,0.248c0.023,0.161-0.087,0.31-0.248,0.333c-0.539,0.079-1.088,0.176-1.632,0.289
						C91.399,36.509,91.379,36.511,91.359,36.511z M103.005,36.476c-0.019,0-0.038-0.002-0.058-0.005
						c-0.544-0.11-1.093-0.204-1.631-0.278c-0.16-0.022-0.272-0.171-0.25-0.331c0.021-0.16,0.172-0.273,0.33-0.25
						c0.551,0.077,1.111,0.172,1.666,0.284c0.159,0.032,0.262,0.187,0.23,0.346C103.264,36.38,103.143,36.476,103.005,36.476z
						 M94.674,36.026c-0.151,0-0.279-0.116-0.292-0.269c-0.014-0.162,0.106-0.303,0.268-0.316c0.562-0.047,1.131-0.078,1.694-0.089
						c0.144-0.006,0.296,0.125,0.299,0.287c0.003,0.162-0.125,0.296-0.287,0.299c-0.55,0.012-1.108,0.041-1.657,0.087
						C94.69,36.026,94.682,36.026,94.674,36.026z M99.697,36.014c-0.008,0-0.016,0-0.023-0.001
						c-0.553-0.043-1.108-0.069-1.653-0.077c-0.162-0.002-0.291-0.135-0.289-0.297c0.002-0.161,0.113-0.285,0.297-0.289
						c0.557,0.008,1.125,0.034,1.689,0.078c0.162,0.013,0.283,0.154,0.27,0.315C99.977,35.897,99.849,36.014,99.697,36.014z"/>
				</g>
			</g>
		</g>
		<g>
			<g>
				<path d="M29.172,238.248c-0.003,0-0.006,0-0.009,0c-0.302-0.008-0.605-0.02-0.909-0.035c-0.162-0.01-0.286-0.146-0.278-0.309
					s0.146-0.285,0.308-0.277c0.298,0.016,0.598,0.027,0.895,0.035c0.162,0.006,0.29,0.141,0.285,0.303
					C29.46,238.123,29.33,238.248,29.172,238.248z M26.597,238.094c-0.009,0-0.018-0.002-0.027-0.002
					c-0.56-0.051-1.12-0.113-1.678-0.184c-0.161-0.021-0.274-0.168-0.254-0.328s0.168-0.271,0.328-0.254
					c0.551,0.07,1.104,0.131,1.657,0.182c0.161,0.014,0.28,0.158,0.265,0.318C26.875,237.979,26.747,238.094,26.597,238.094z
					 M23.271,237.672c-0.016,0-0.031-0.002-0.047-0.004c-0.557-0.09-1.111-0.188-1.66-0.291c-0.159-0.031-0.263-0.184-0.233-0.344
					c0.03-0.158,0.184-0.264,0.343-0.232c0.543,0.104,1.092,0.199,1.643,0.287c0.16,0.025,0.269,0.176,0.243,0.336
					C23.538,237.568,23.413,237.672,23.271,237.672z M19.977,237.047c-0.021,0-0.042-0.002-0.063-0.006
					c-0.555-0.121-1.102-0.248-1.641-0.381c-0.157-0.037-0.253-0.195-0.215-0.354c0.039-0.156,0.196-0.256,0.354-0.215
					c0.534,0.129,1.077,0.256,1.627,0.375c0.159,0.035,0.259,0.191,0.224,0.35C20.233,236.953,20.112,237.047,19.977,237.047z
					 M16.718,236.254c-0.025,0-0.051-0.004-0.076-0.01c-0.553-0.148-1.094-0.301-1.622-0.455c-0.155-0.045-0.245-0.207-0.199-0.363
					c0.045-0.154,0.208-0.244,0.363-0.199c0.523,0.152,1.061,0.303,1.609,0.451c0.156,0.041,0.249,0.203,0.208,0.359
					C16.966,236.168,16.847,236.254,16.718,236.254z M13.497,235.316c-0.029,0-0.058-0.006-0.087-0.014
					c-0.555-0.176-1.09-0.35-1.601-0.52c-0.154-0.053-0.236-0.219-0.185-0.373c0.052-0.152,0.218-0.234,0.371-0.184
					c0.508,0.17,1.039,0.344,1.59,0.516c0.154,0.049,0.241,0.213,0.192,0.367C13.737,235.234,13.622,235.316,13.497,235.316z
					 M10.316,234.248c-0.033,0-0.066-0.006-0.099-0.018c-0.57-0.203-1.099-0.4-1.58-0.582c-0.151-0.059-0.228-0.227-0.17-0.379
					c0.058-0.15,0.228-0.227,0.378-0.17c0.478,0.182,1.002,0.377,1.568,0.578c0.152,0.055,0.232,0.223,0.178,0.375
					C10.55,234.174,10.437,234.248,10.316,234.248z M7.18,233.053c-0.037,0-0.075-0.006-0.11-0.021
					c-0.997-0.404-1.56-0.66-1.56-0.66c-0.148-0.066-0.213-0.24-0.146-0.389c0.067-0.146,0.241-0.211,0.388-0.145
					c0.003,0,0.558,0.252,1.538,0.65c0.15,0.061,0.222,0.232,0.161,0.383C7.406,232.984,7.296,233.053,7.18,233.053z"/>
			</g>
		</g>
		<g>
			<g>
				<path d="M165.158,238.248c-0.158,0-0.289-0.125-0.293-0.283c-0.005-0.162,0.123-0.297,0.285-0.303
					c0.297-0.008,0.596-0.02,0.895-0.035c0.158-0.006,0.3,0.115,0.309,0.277c0.008,0.162-0.116,0.299-0.278,0.309
					c-0.304,0.016-0.606,0.027-0.909,0.035C165.164,238.248,165.16,238.248,165.158,238.248z M167.732,238.094
					c-0.149,0-0.277-0.115-0.291-0.268c-0.015-0.16,0.104-0.305,0.266-0.318c0.553-0.051,1.105-0.111,1.656-0.182
					c0.16-0.018,0.308,0.094,0.328,0.254s-0.094,0.307-0.254,0.328c-0.558,0.07-1.117,0.133-1.678,0.184
					C167.751,238.092,167.742,238.094,167.732,238.094z M171.059,237.672c-0.142,0-0.266-0.104-0.289-0.248
					c-0.025-0.16,0.084-0.311,0.243-0.336c0.552-0.088,1.101-0.184,1.644-0.287c0.158-0.033,0.313,0.074,0.343,0.232
					c0.03,0.16-0.074,0.313-0.233,0.344c-0.549,0.104-1.104,0.201-1.66,0.291C171.09,237.67,171.074,237.672,171.059,237.672z
					 M174.354,237.047c-0.135,0-0.256-0.094-0.286-0.23c-0.034-0.158,0.065-0.314,0.224-0.35c0.551-0.119,1.094-0.246,1.627-0.375
					c0.158-0.041,0.316,0.059,0.355,0.215c0.038,0.158-0.059,0.316-0.216,0.354c-0.538,0.133-1.087,0.26-1.642,0.381
					C174.396,237.045,174.375,237.047,174.354,237.047z M177.612,236.254c-0.13,0-0.247-0.086-0.282-0.217
					c-0.043-0.156,0.051-0.318,0.207-0.359c0.549-0.148,1.086-0.299,1.608-0.451c0.155-0.045,0.319,0.045,0.364,0.199
					c0.045,0.156-0.045,0.318-0.199,0.363c-0.527,0.154-1.068,0.307-1.622,0.455C177.663,236.25,177.638,236.254,177.612,236.254z
					 M180.834,235.316c-0.125,0-0.241-0.082-0.28-0.207c-0.049-0.154,0.038-0.318,0.192-0.367c0.551-0.172,1.082-0.346,1.59-0.516
					c0.153-0.051,0.319,0.031,0.371,0.184c0.051,0.154-0.031,0.32-0.186,0.373c-0.51,0.17-1.045,0.344-1.601,0.52
					C180.893,235.311,180.862,235.316,180.834,235.316z M184.014,234.248c-0.12,0-0.232-0.074-0.275-0.195
					c-0.056-0.152,0.024-0.32,0.176-0.375c0.566-0.201,1.092-0.396,1.569-0.578c0.151-0.057,0.321,0.02,0.378,0.17
					c0.059,0.152-0.018,0.32-0.17,0.379c-0.48,0.182-1.009,0.379-1.578,0.582C184.08,234.242,184.047,234.248,184.014,234.248z
					 M187.15,233.053c-0.116,0-0.226-0.068-0.271-0.182c-0.062-0.15,0.011-0.322,0.16-0.383c0.98-0.398,1.535-0.65,1.539-0.65
					c0.146-0.066,0.32-0.002,0.388,0.145c0.067,0.148,0.002,0.322-0.146,0.389c0,0-0.563,0.256-1.561,0.66
					C187.225,233.047,187.188,233.053,187.15,233.053z"/>
			</g>
		</g>
		<g>
			<g>
				<path d="M97.416,240.947L97.416,240.947l-1.676-0.004c-0.162,0-0.293-0.133-0.292-0.295c0-0.16,0.131-0.291,0.293-0.291
					c0,0,0.001,0,0.001,0l1.675,0.002c0.162,0,0.293,0.133,0.293,0.295C97.708,240.814,97.577,240.947,97.416,240.947z
					 M99.092,240.945c-0.162,0-0.293-0.131-0.294-0.293c0-0.162,0.131-0.293,0.293-0.295l1.675-0.006h0.001
					c0.161,0,0.292,0.131,0.294,0.293c0,0.16-0.131,0.293-0.293,0.295L99.092,240.945L99.092,240.945z M94.064,240.938
					c-0.001,0-0.001,0-0.002,0l-1.676-0.014c-0.162,0-0.292-0.133-0.291-0.295c0.001-0.162,0.132-0.291,0.293-0.291
					c0.001,0,0.002,0,0.002,0l1.675,0.012c0.162,0.002,0.292,0.133,0.292,0.295S94.226,240.938,94.064,240.938z M102.442,240.928
					c-0.161,0-0.292-0.129-0.294-0.291c0-0.162,0.13-0.295,0.291-0.295l1.676-0.016c0.174-0.012,0.294,0.129,0.296,0.291
					c0.001,0.162-0.128,0.295-0.29,0.297l-1.677,0.014C102.443,240.928,102.443,240.928,102.442,240.928z M90.713,240.908
					c-0.001,0-0.002,0-0.003,0l-1.676-0.021c-0.162-0.002-0.292-0.135-0.289-0.297c0.002-0.16,0.117-0.283,0.297-0.289l1.675,0.021
					c0.162,0.002,0.292,0.135,0.29,0.297C91.004,240.779,90.874,240.908,90.713,240.908z M105.793,240.895
					c-0.16,0-0.291-0.129-0.293-0.291c-0.002-0.16,0.128-0.295,0.289-0.297l1.676-0.023c0.168-0.021,0.295,0.127,0.297,0.289
					c0.003,0.162-0.127,0.297-0.289,0.299l-1.676,0.023C105.796,240.895,105.795,240.895,105.793,240.895z M87.363,240.861
					c-0.002,0-0.004,0-0.005,0l-1.676-0.031c-0.162-0.002-0.291-0.137-0.287-0.299c0.002-0.162,0.134-0.277,0.299-0.287l1.674,0.031
					c0.162,0.002,0.291,0.135,0.288,0.297C87.653,240.732,87.522,240.861,87.363,240.861z M109.145,240.844
					c-0.16,0-0.291-0.129-0.294-0.289c-0.003-0.162,0.126-0.295,0.288-0.299l1.675-0.031c0.149,0,0.296,0.125,0.3,0.287
					c0.002,0.162-0.126,0.297-0.288,0.299l-1.676,0.033C109.147,240.844,109.146,240.844,109.145,240.844z M84.012,240.795
					c-0.002,0-0.004,0-0.007,0l-1.676-0.041c-0.162-0.004-0.29-0.139-0.286-0.301c0.004-0.162,0.133-0.287,0.301-0.285l1.674,0.041
					c0.163,0.002,0.291,0.137,0.287,0.299C84.301,240.668,84.17,240.795,84.012,240.795z M112.494,240.775
					c-0.158,0-0.289-0.127-0.293-0.287s0.125-0.295,0.287-0.299l1.674-0.039c0.175-0.016,0.297,0.123,0.301,0.285
					s-0.124,0.297-0.286,0.301l-1.675,0.039C112.499,240.775,112.497,240.775,112.494,240.775z M80.662,240.709
					c-0.003,0-0.006,0-0.008,0l-1.676-0.053c-0.162-0.004-0.289-0.139-0.284-0.301c0.005-0.162,0.137-0.295,0.302-0.283l1.674,0.049
					c0.162,0.006,0.29,0.141,0.285,0.303C80.95,240.582,80.82,240.709,80.662,240.709z M115.845,240.691
					c-0.158,0-0.289-0.125-0.293-0.285c-0.005-0.162,0.123-0.297,0.285-0.301l1.675-0.047c0.166-0.027,0.297,0.123,0.301,0.283
					c0.005,0.162-0.123,0.297-0.284,0.303l-1.675,0.047C115.85,240.691,115.848,240.691,115.845,240.691z M77.312,240.602
					c-0.003,0-0.007,0-0.01,0l-1.676-0.063c-0.161-0.006-0.288-0.143-0.281-0.305c0.006-0.16,0.141-0.287,0.304-0.281l1.673,0.063
					c0.162,0.004,0.289,0.141,0.283,0.303C77.6,240.477,77.469,240.602,77.312,240.602z M119.194,240.592
					c-0.157,0-0.288-0.125-0.293-0.283c-0.005-0.162,0.122-0.297,0.284-0.303l1.674-0.055c0.164-0.018,0.297,0.121,0.303,0.281
					c0.006,0.162-0.121,0.299-0.283,0.305l-1.675,0.055C119.201,240.592,119.197,240.592,119.194,240.592z M122.543,240.477
					c-0.156,0-0.287-0.123-0.293-0.281c-0.006-0.162,0.121-0.299,0.283-0.305l1.674-0.063c0.157-0.016,0.298,0.119,0.305,0.281
					c0.006,0.162-0.121,0.299-0.283,0.305l-1.674,0.063C122.551,240.477,122.547,240.477,122.543,240.477z M73.963,240.473
					c-0.004,0-0.008,0-0.012,0l-1.675-0.072c-0.162-0.008-0.287-0.145-0.28-0.307c0.008-0.162,0.144-0.305,0.306-0.279l1.673,0.072
					c0.162,0.006,0.288,0.143,0.281,0.305C74.249,240.35,74.119,240.473,73.963,240.473z M125.893,240.346
					c-0.156,0-0.287-0.123-0.293-0.281c-0.007-0.162,0.119-0.297,0.281-0.305l1.673-0.07c0.161-0.016,0.299,0.119,0.306,0.279
					c0.007,0.162-0.119,0.299-0.28,0.307l-1.675,0.07C125.9,240.346,125.896,240.346,125.893,240.346z M70.615,240.322
					c-0.004,0-0.009,0-0.014-0.002l-1.675-0.084c-0.162-0.008-0.286-0.146-0.277-0.309c0.008-0.16,0.142-0.271,0.308-0.277
					l1.672,0.084c0.162,0.008,0.287,0.146,0.279,0.309C70.9,240.199,70.771,240.322,70.615,240.322z M129.24,240.201
					c-0.156,0-0.285-0.123-0.293-0.281c-0.008-0.162,0.117-0.299,0.279-0.307l1.674-0.078c0.16-0.016,0.299,0.117,0.307,0.279
					s-0.117,0.299-0.279,0.307l-1.674,0.078C129.248,240.201,129.244,240.201,129.24,240.201z M67.268,240.146
					c-0.005,0-0.011,0-0.016,0l-1.674-0.098c-0.162-0.01-0.285-0.148-0.275-0.311c0.009-0.162,0.145-0.275,0.31-0.275l1.672,0.098
					c0.162,0.01,0.286,0.146,0.276,0.309C67.552,240.025,67.423,240.146,67.268,240.146z M132.588,240.039
					c-0.156,0-0.285-0.121-0.293-0.277c-0.008-0.162,0.116-0.301,0.277-0.309l1.674-0.086c0.158,0.004,0.299,0.117,0.308,0.277
					c0.009,0.162-0.116,0.301-0.277,0.309l-1.675,0.086C132.598,240.039,132.592,240.039,132.588,240.039z M63.923,239.945
					c-0.006,0-0.013,0-0.019,0l-1.673-0.109c-0.162-0.012-0.284-0.15-0.273-0.313s0.152-0.281,0.313-0.273l1.671,0.111
					c0.162,0.01,0.284,0.148,0.274,0.311C64.206,239.826,64.076,239.945,63.923,239.945z M135.934,239.863
					c-0.154,0-0.284-0.121-0.293-0.277c-0.008-0.162,0.115-0.299,0.277-0.309l1.672-0.094c0.166,0,0.301,0.115,0.31,0.277
					c0.009,0.16-0.114,0.299-0.276,0.309l-1.674,0.094C135.944,239.863,135.939,239.863,135.934,239.863z M60.579,239.719
					c-0.007,0-0.014,0-0.021,0c-0.574-0.043-1.131-0.084-1.672-0.125c-0.162-0.014-0.282-0.154-0.27-0.316
					c0.013-0.16,0.154-0.277,0.315-0.27c0.541,0.043,1.097,0.084,1.669,0.125c0.162,0.012,0.283,0.152,0.271,0.314
					C60.86,239.602,60.731,239.719,60.579,239.719z M139.279,239.674c-0.154,0-0.283-0.121-0.292-0.277
					c-0.01-0.16,0.113-0.299,0.275-0.309l1.672-0.1c0.169-0.014,0.301,0.113,0.31,0.273c0.011,0.162-0.112,0.301-0.273,0.311
					l-1.674,0.102C139.291,239.674,139.285,239.674,139.279,239.674z M142.625,239.469c-0.154,0-0.283-0.119-0.293-0.275
					c-0.01-0.162,0.112-0.301,0.273-0.311l1.672-0.107c0.162-0.008,0.301,0.111,0.313,0.273c0.01,0.16-0.112,0.301-0.273,0.311
					l-1.674,0.107C142.637,239.469,142.631,239.469,142.625,239.469z M57.238,239.461c-0.008,0-0.016,0-0.024,0
					c-0.578-0.047-1.135-0.094-1.671-0.141c-0.162-0.014-0.281-0.156-0.267-0.318c0.014-0.16,0.159-0.277,0.317-0.266
					c0.535,0.047,1.091,0.094,1.668,0.141c0.162,0.012,0.282,0.154,0.269,0.314C57.517,239.346,57.389,239.461,57.238,239.461z
					 M145.969,239.25c-0.153,0-0.282-0.119-0.293-0.273c-0.01-0.162,0.111-0.303,0.273-0.313l1.672-0.115
					c0.154-0.01,0.301,0.111,0.312,0.273c0.011,0.16-0.11,0.301-0.272,0.313l-1.672,0.113
					C145.982,239.25,145.975,239.25,145.969,239.25z M53.898,239.172c-0.009,0-0.018,0-0.027,0c-0.587-0.055-1.144-0.107-1.67-0.16
					c-0.161-0.016-0.279-0.158-0.263-0.32c0.016-0.16,0.159-0.283,0.32-0.264c0.525,0.053,1.081,0.105,1.667,0.158
					c0.162,0.016,0.28,0.158,0.265,0.32C54.176,239.059,54.048,239.172,53.898,239.172z M50.563,238.844c-0.01,0-0.021,0-0.031,0
					c-0.611-0.064-1.167-0.127-1.668-0.184c-0.161-0.018-0.276-0.162-0.258-0.324c0.018-0.16,0.164-0.273,0.324-0.258
					c0.5,0.057,1.054,0.117,1.664,0.182c0.161,0.018,0.278,0.16,0.261,0.322C50.838,238.732,50.711,238.844,50.563,238.844z
					 M47.232,238.467c-0.012,0-0.024,0-0.036-0.002c-1.107-0.137-1.669-0.219-1.669-0.219c-0.16-0.023-0.271-0.174-0.248-0.334
					s0.176-0.266,0.333-0.246c0.002,0,0.56,0.082,1.656,0.217c0.161,0.02,0.275,0.166,0.255,0.326
					C47.504,238.357,47.378,238.467,47.232,238.467z"/>
			</g>
		</g>
		<g>
			<g>
				<path d="M44.173,112.483c-0.116,0-0.226-0.068-0.272-0.183c-0.061-0.149,0.011-0.321,0.161-0.382l1.551-0.635
					c0.151-0.062,0.321,0.011,0.382,0.161c0.062,0.15-0.01,0.321-0.161,0.382l-1.551,0.635
					C44.248,112.477,44.21,112.483,44.173,112.483z M47.275,111.214c-0.116,0-0.225-0.069-0.272-0.182
					c-0.061-0.15,0.011-0.321,0.161-0.382l1.55-0.635c0.151-0.062,0.321,0.011,0.383,0.16c0.061,0.15-0.011,0.321-0.161,0.383
					l-1.55,0.635C47.349,111.208,47.312,111.214,47.275,111.214z M50.376,109.945c-0.115,0-0.225-0.069-0.271-0.183
					c-0.062-0.15,0.01-0.321,0.16-0.382l1.551-0.634c0.151-0.062,0.321,0.011,0.382,0.16c0.061,0.15-0.011,0.321-0.161,0.382
					l-1.551,0.634C50.451,109.938,50.413,109.945,50.376,109.945z M53.478,108.676c-0.115,0-0.225-0.069-0.271-0.183
					c-0.062-0.15,0.01-0.321,0.161-0.382l1.551-0.635c0.151-0.062,0.321,0.011,0.382,0.161c0.062,0.149-0.011,0.321-0.161,0.382
					l-1.551,0.634C53.552,108.669,53.515,108.676,53.478,108.676z M56.58,107.407c-0.116,0-0.226-0.069-0.272-0.182
					c-0.061-0.15,0.011-0.321,0.161-0.382l1.55-0.634c0.151-0.063,0.322,0.01,0.383,0.16c0.061,0.149-0.011,0.321-0.161,0.382
					l-1.55,0.635C56.654,107.4,56.616,107.407,56.58,107.407z M59.681,106.138c-0.115,0-0.225-0.068-0.271-0.183
					c-0.062-0.149,0.01-0.321,0.16-0.382l1.551-0.634c0.151-0.062,0.321,0.01,0.383,0.16c0.061,0.15-0.011,0.321-0.161,0.382
					l-1.551,0.634C59.755,106.131,59.718,106.138,59.681,106.138z M62.782,104.869c-0.115,0-0.225-0.068-0.271-0.182
					c-0.062-0.15,0.01-0.321,0.16-0.383l1.551-0.635c0.151-0.062,0.322,0.011,0.383,0.16c0.062,0.15-0.011,0.321-0.16,0.382
					l-1.551,0.635C62.857,104.862,62.819,104.869,62.782,104.869z M65.884,103.6c-0.116,0-0.225-0.069-0.271-0.183
					c-0.062-0.149,0.01-0.321,0.16-0.382l1.551-0.635c0.151-0.062,0.321,0.011,0.382,0.16c0.062,0.15-0.01,0.321-0.16,0.382
					l-1.551,0.634C65.958,103.593,65.92,103.6,65.884,103.6z M68.985,102.331c-0.115,0-0.225-0.069-0.271-0.182
					c-0.062-0.15,0.01-0.321,0.16-0.382l1.551-0.635c0.151-0.062,0.321,0.011,0.383,0.16c0.061,0.15-0.011,0.321-0.161,0.383
					l-1.551,0.635C69.06,102.324,69.022,102.331,68.985,102.331z M72.087,101.061c-0.115,0-0.225-0.069-0.271-0.182
					c-0.062-0.15,0.01-0.321,0.16-0.382l1.551-0.634c0.151-0.062,0.321,0.011,0.382,0.16c0.062,0.15-0.01,0.321-0.16,0.382
					l-1.551,0.634C72.162,101.054,72.124,101.061,72.087,101.061z M75.188,99.792c-0.116,0-0.225-0.068-0.271-0.182
					c-0.062-0.15,0.01-0.321,0.16-0.383l0.334-0.137c0.151-0.062,0.322,0.011,0.383,0.16c0.062,0.15-0.01,0.321-0.16,0.383
					l-0.335,0.137C75.263,99.785,75.225,99.792,75.188,99.792z"/>
			</g>
		</g>
		<g>
			<g>
				<path d="M150.38,112.485c-0.034,0-0.069-0.006-0.104-0.019l-0.618-0.234c-0.151-0.057-0.229-0.227-0.17-0.378
					c0.057-0.151,0.225-0.229,0.377-0.17l0.619,0.234c0.15,0.058,0.227,0.227,0.17,0.378
					C150.61,112.413,150.498,112.485,150.38,112.485z M148.195,111.658c-0.035,0-0.07-0.006-0.104-0.019l-1.568-0.593
					c-0.15-0.057-0.228-0.226-0.17-0.378c0.057-0.151,0.227-0.229,0.378-0.17l1.567,0.593c0.151,0.058,0.228,0.227,0.17,0.378
					C148.425,111.586,148.313,111.658,148.195,111.658z M145.061,110.473c-0.035,0-0.07-0.006-0.104-0.019l-1.567-0.593
					c-0.151-0.057-0.228-0.226-0.171-0.378c0.058-0.151,0.227-0.229,0.378-0.17l1.567,0.593c0.152,0.058,0.228,0.227,0.17,0.378
					C145.291,110.4,145.179,110.473,145.061,110.473z M141.926,109.287c-0.034,0-0.069-0.006-0.104-0.02l-1.566-0.593
					c-0.152-0.057-0.229-0.226-0.172-0.378c0.059-0.151,0.227-0.228,0.379-0.17l1.566,0.593c0.152,0.057,0.229,0.226,0.171,0.378
					C142.156,109.214,142.045,109.287,141.926,109.287z M138.791,108.102c-0.034,0-0.069-0.006-0.104-0.02l-1.566-0.593
					c-0.152-0.057-0.229-0.226-0.171-0.378c0.058-0.151,0.227-0.228,0.378-0.17l1.566,0.593c0.152,0.057,0.229,0.226,0.172,0.378
					C139.021,108.029,138.91,108.102,138.791,108.102z M135.657,106.916c-0.034,0-0.069-0.006-0.104-0.019l-1.567-0.593
					c-0.151-0.058-0.229-0.227-0.17-0.378c0.057-0.151,0.227-0.228,0.377-0.17l1.567,0.593c0.151,0.057,0.228,0.226,0.171,0.378
					C135.887,106.843,135.775,106.916,135.657,106.916z M132.523,105.73c-0.035,0-0.07-0.006-0.104-0.019l-1.567-0.593
					c-0.151-0.058-0.228-0.227-0.17-0.378c0.057-0.151,0.227-0.229,0.378-0.17l1.567,0.593c0.151,0.057,0.228,0.226,0.17,0.378
					C132.753,105.658,132.641,105.73,132.523,105.73z M129.389,104.544c-0.035,0-0.07-0.006-0.104-0.019l-1.567-0.593
					c-0.151-0.057-0.228-0.226-0.171-0.378c0.058-0.151,0.227-0.229,0.378-0.17l1.567,0.593c0.152,0.057,0.229,0.226,0.17,0.378
					C129.618,104.472,129.507,104.544,129.389,104.544z M126.254,103.358c-0.034,0-0.069-0.006-0.104-0.019l-1.567-0.593
					c-0.151-0.057-0.228-0.226-0.171-0.378c0.059-0.151,0.227-0.229,0.379-0.17l1.566,0.593c0.152,0.058,0.229,0.227,0.171,0.378
					C126.484,103.286,126.373,103.358,126.254,103.358z M123.119,102.173c-0.034,0-0.068-0.006-0.104-0.019l-1.566-0.593
					c-0.152-0.057-0.229-0.226-0.171-0.378c0.058-0.151,0.226-0.229,0.378-0.17l1.566,0.593c0.152,0.058,0.229,0.227,0.172,0.378
					C123.35,102.101,123.238,102.173,123.119,102.173z M119.985,100.987c-0.034,0-0.069-0.006-0.104-0.02l-1.567-0.593
					c-0.152-0.057-0.229-0.226-0.17-0.378c0.057-0.151,0.226-0.229,0.377-0.17l1.567,0.593c0.151,0.057,0.228,0.226,0.171,0.378
					C120.215,100.915,120.104,100.987,119.985,100.987z"/>
			</g>
		</g>
		<g>
			<g>
				<g>
					<path fill="#FFFFFF" d="M138.061,218.725c0,0-11.45-5.18-14.977-26.926c-12.758,0.879-21.096,0.791-39.092,0
						c-3.804-0.168-12.522,0-12.522,0c-3.527,21.746-14.977,26.926-14.977,26.926l5.04,13.379c7.511-1.127,35.715,0,41.153,0
						c5.438,0,26.067,0,30.333,0L138.061,218.725z"/>
				</g>
				<g>
					<path d="M61.534,232.732c-0.258,0-0.495-0.158-0.588-0.406l-5.04-13.381c-0.116-0.309,0.028-0.656,0.328-0.793
						c0.111-0.051,11.194-5.35,14.616-26.455c0.049-0.299,0.305-0.521,0.608-0.527c0.087,0,8.781-0.164,12.562,0
						c17.585,0.773,26.125,0.891,39.021,0.002c0.324-0.025,0.611,0.205,0.662,0.525c3.434,21.17,14.504,26.404,14.616,26.453
						c0.302,0.137,0.445,0.484,0.329,0.795l-5.041,13.381c-0.092,0.244-0.326,0.406-0.588,0.406h-30.333
						c-1.331,0-4.009-0.066-7.4-0.152c-10.484-0.262-28.03-0.699-33.659,0.145C61.596,232.73,61.564,232.732,61.534,232.732z
						 M74.364,230.975c6.995,0,15.079,0.203,20.954,0.35c3.382,0.084,6.053,0.152,7.369,0.152h29.898l4.69-12.453
						c-2.323-1.307-11.48-7.568-14.719-26.561c-12.641,0.852-21.213,0.727-38.592-0.037c-3.206-0.141-10.023-0.041-11.96-0.008
						c-3.232,19.025-12.401,25.299-14.726,26.605l4.667,12.391C64.587,231.086,69.177,230.975,74.364,230.975z"/>
				</g>
			</g>
			<g>
				<g>
					<path d="M58.526,224.668c-0.239,0-0.467-0.137-0.572-0.367c-0.144-0.316-0.004-0.688,0.312-0.832
						c0.134-0.061,13.462-6.422,17.573-31.771c0.056-0.342,0.379-0.578,0.721-0.52c0.342,0.057,0.575,0.379,0.52,0.721
						c-4.229,26.074-17.723,32.455-18.295,32.715C58.7,224.65,58.612,224.668,58.526,224.668z"/>
				</g>
			</g>
			<g>
				<g>
					<path d="M57.725,222.285c-0.111,0-0.218-0.064-0.267-0.174c-0.067-0.146-0.001-0.32,0.146-0.387
						c0.005-0.004,0.538-0.246,1.399-0.832c0.133-0.094,0.316-0.057,0.407,0.076c0.091,0.135,0.057,0.316-0.077,0.408
						c-0.909,0.619-1.465,0.871-1.488,0.881C57.806,222.275,57.765,222.285,57.725,222.285z M60.51,220.424
						c-0.085,0-0.169-0.037-0.228-0.109c-0.103-0.125-0.083-0.311,0.042-0.412c0.415-0.338,0.833-0.705,1.245-1.09
						c0.118-0.111,0.303-0.105,0.415,0.012c0.111,0.119,0.105,0.305-0.013,0.416c-0.421,0.395-0.851,0.771-1.276,1.117
						C60.64,220.4,60.575,220.424,60.51,220.424z M62.955,218.135c-0.072,0-0.144-0.025-0.201-0.08
						c-0.118-0.109-0.124-0.297-0.013-0.414c0.359-0.381,0.727-0.793,1.103-1.24c0.104-0.123,0.289-0.139,0.413-0.035
						s0.14,0.289,0.036,0.414c-0.383,0.455-0.758,0.875-1.124,1.264C63.111,218.104,63.033,218.135,62.955,218.135z M65.113,215.574
						c-0.062,0-0.124-0.02-0.177-0.061c-0.129-0.098-0.154-0.281-0.057-0.41c0.321-0.424,0.646-0.873,0.97-1.348
						c0.091-0.135,0.274-0.168,0.408-0.076c0.134,0.092,0.168,0.273,0.077,0.406c-0.33,0.482-0.66,0.939-0.986,1.371
						C65.289,215.533,65.202,215.574,65.113,215.574z M67.004,212.811c-0.053,0-0.106-0.014-0.154-0.043
						c-0.138-0.086-0.18-0.268-0.095-0.404c0.283-0.457,0.566-0.934,0.847-1.432c0.08-0.141,0.259-0.189,0.399-0.111
						c0.141,0.08,0.191,0.258,0.111,0.4c-0.285,0.504-0.572,0.988-0.859,1.451C67.198,212.762,67.103,212.811,67.004,212.811z
						 M68.651,209.895c-0.045,0-0.091-0.01-0.134-0.031c-0.144-0.074-0.201-0.252-0.126-0.395c0.247-0.482,0.491-0.979,0.732-1.494
						c0.068-0.146,0.242-0.211,0.39-0.143c0.146,0.07,0.21,0.244,0.141,0.391c-0.244,0.521-0.492,1.027-0.742,1.514
						C68.86,209.838,68.757,209.895,68.651,209.895z M70.071,206.863c-0.038,0-0.077-0.008-0.115-0.025
						c-0.149-0.063-0.218-0.234-0.155-0.383c0.212-0.5,0.422-1.014,0.627-1.543c0.059-0.15,0.229-0.227,0.379-0.166
						c0.151,0.057,0.226,0.229,0.167,0.379c-0.208,0.535-0.42,1.055-0.635,1.559C70.293,206.795,70.185,206.863,70.071,206.863z
						 M71.284,203.74c-0.032,0-0.065-0.006-0.098-0.016c-0.153-0.055-0.233-0.223-0.179-0.375c0.181-0.514,0.358-1.039,0.531-1.58
						c0.049-0.154,0.214-0.24,0.369-0.189c0.154,0.051,0.239,0.215,0.189,0.369c-0.175,0.547-0.354,1.078-0.537,1.596
						C71.518,203.666,71.404,203.74,71.284,203.74z M72.307,200.551c-0.027,0-0.055-0.002-0.082-0.012
						c-0.155-0.045-0.245-0.207-0.2-0.363c0.152-0.523,0.3-1.059,0.443-1.607c0.041-0.156,0.2-0.25,0.358-0.209
						c0.157,0.041,0.25,0.203,0.209,0.359c-0.145,0.553-0.294,1.094-0.448,1.621C72.551,200.469,72.434,200.551,72.307,200.551z
						 M73.157,197.313c-0.022,0-0.045-0.002-0.068-0.008c-0.157-0.037-0.255-0.195-0.218-0.354c0.126-0.531,0.247-1.074,0.364-1.627
						c0.034-0.158,0.188-0.262,0.348-0.227c0.158,0.033,0.26,0.189,0.226,0.348c-0.118,0.559-0.24,1.105-0.366,1.641
						C73.41,197.221,73.29,197.313,73.157,197.313z M73.85,194.035c-0.018,0-0.037-0.002-0.055-0.006
						c-0.159-0.029-0.264-0.184-0.234-0.342c0.101-0.537,0.198-1.086,0.291-1.645c0.026-0.158,0.179-0.27,0.337-0.24
						c0.16,0.025,0.268,0.178,0.241,0.336c-0.093,0.563-0.191,1.115-0.292,1.656C74.111,193.936,73.988,194.035,73.85,194.035z"/>
				</g>
			</g>
			<g>
				<g>
					<path d="M136.797,221.73c-0.041,0-0.081-0.01-0.12-0.027c-0.023-0.01-0.579-0.262-1.487-0.885
						c-0.134-0.092-0.168-0.273-0.076-0.406c0.092-0.135,0.273-0.168,0.407-0.076c0.859,0.588,1.392,0.83,1.396,0.832
						c0.147,0.068,0.214,0.24,0.146,0.389C137.016,221.664,136.908,221.73,136.797,221.73z M134.018,219.861
						c-0.065,0-0.131-0.023-0.186-0.068c-0.424-0.348-0.852-0.727-1.27-1.125c-0.118-0.111-0.123-0.297-0.012-0.414
						c0.112-0.117,0.299-0.123,0.416-0.012c0.408,0.389,0.824,0.758,1.237,1.1c0.125,0.102,0.144,0.287,0.04,0.412
						C134.187,219.824,134.103,219.861,134.018,219.861z M131.588,217.557c-0.079,0-0.158-0.033-0.215-0.096
						c-0.363-0.391-0.736-0.814-1.114-1.273c-0.104-0.125-0.085-0.309,0.039-0.412c0.125-0.104,0.31-0.086,0.413,0.039
						c0.371,0.449,0.736,0.865,1.092,1.248c0.109,0.119,0.104,0.305-0.016,0.416C131.73,217.529,131.658,217.557,131.588,217.557z
						 M129.453,214.977c-0.09,0-0.179-0.041-0.236-0.119c-0.322-0.434-0.647-0.895-0.973-1.381c-0.09-0.135-0.055-0.316,0.08-0.406
						s0.316-0.055,0.406,0.08c0.32,0.479,0.641,0.932,0.957,1.357c0.097,0.131,0.07,0.314-0.061,0.41
						C129.574,214.957,129.514,214.977,129.453,214.977z M127.588,212.195c-0.099,0-0.195-0.051-0.25-0.143
						c-0.283-0.465-0.564-0.951-0.844-1.459c-0.078-0.143-0.027-0.32,0.115-0.398c0.141-0.078,0.32-0.027,0.398,0.115
						c0.275,0.5,0.553,0.98,0.831,1.439c0.083,0.139,0.04,0.318-0.099,0.402C127.692,212.182,127.641,212.195,127.588,212.195z
						 M125.973,209.262c-0.107,0-0.211-0.059-0.263-0.162c-0.245-0.488-0.487-0.996-0.726-1.52
						c-0.067-0.148-0.002-0.322,0.145-0.389c0.148-0.068,0.322-0.002,0.389,0.145c0.236,0.52,0.475,1.02,0.717,1.502
						c0.072,0.145,0.014,0.32-0.131,0.393C126.062,209.252,126.017,209.262,125.973,209.262z M124.584,206.215
						c-0.115,0-0.225-0.068-0.271-0.182c-0.21-0.506-0.416-1.029-0.618-1.566c-0.057-0.152,0.02-0.32,0.171-0.377
						c0.153-0.057,0.321,0.02,0.378,0.17c0.199,0.531,0.404,1.049,0.611,1.549c0.062,0.15-0.01,0.322-0.159,0.383
						C124.66,206.207,124.621,206.215,124.584,206.215z M123.404,203.08c-0.121,0-0.236-0.076-0.277-0.199
						c-0.178-0.52-0.351-1.053-0.521-1.6c-0.048-0.154,0.039-0.318,0.194-0.367c0.154-0.049,0.318,0.039,0.366,0.193
						c0.167,0.543,0.34,1.07,0.515,1.586c0.053,0.152-0.029,0.318-0.182,0.371C123.468,203.076,123.436,203.08,123.404,203.08z
						 M122.414,199.881c-0.129,0-0.246-0.084-0.282-0.215c-0.148-0.529-0.292-1.07-0.432-1.625c-0.04-0.158,0.056-0.316,0.212-0.355
						c0.158-0.041,0.317,0.055,0.356,0.213c0.138,0.549,0.281,1.086,0.429,1.611c0.043,0.154-0.048,0.316-0.204,0.361
						C122.467,199.877,122.439,199.881,122.414,199.881z M121.596,196.633c-0.135,0-0.256-0.092-0.286-0.229
						c-0.122-0.537-0.239-1.084-0.353-1.645c-0.031-0.158,0.072-0.313,0.23-0.344c0.156-0.031,0.313,0.07,0.346,0.229
						c0.111,0.555,0.229,1.098,0.348,1.631c0.036,0.158-0.063,0.314-0.221,0.352C121.639,196.631,121.616,196.633,121.596,196.633z
						 M120.933,193.35c-0.14,0-0.263-0.1-0.288-0.242c-0.074-0.414-0.146-0.836-0.215-1.262c-0.026-0.16,0.082-0.311,0.242-0.338
						c0.158-0.023,0.311,0.084,0.336,0.244c0.068,0.422,0.141,0.84,0.214,1.254c0.028,0.158-0.078,0.311-0.237,0.34
						C120.967,193.348,120.949,193.35,120.933,193.35z"/>
				</g>
			</g>
			<g>
				<g>
					<path d="M136.028,224.668c-0.079,0-0.159-0.014-0.237-0.045c-0.574-0.236-14.086-6.043-18.316-32.131
						c-0.057-0.342,0.177-0.664,0.52-0.721c0.342-0.059,0.665,0.178,0.721,0.52c4.119,25.398,17.418,31.113,17.551,31.168
						c0.322,0.131,0.477,0.498,0.344,0.82C136.511,224.521,136.275,224.668,136.028,224.668z"/>
				</g>
			</g>
		</g>
		<g>
			<g>
				<g>
					<path d="M67.492,223.547c-0.716,0.49-1.333,1.1-1.894,1.746c-0.559,0.65-1.048,1.352-1.481,2.082
						c-0.414,0.742-0.795,1.498-1.088,2.291c-0.309,0.783-0.536,1.598-0.738,2.41l-0.005,0.02c-0.083,0.338-0.425,0.543-0.763,0.459
						c-0.338-0.084-0.544-0.426-0.46-0.764c0.006-0.023,0.015-0.049,0.022-0.072c0.318-0.836,0.661-1.66,1.086-2.445
						c0.407-0.793,0.902-1.535,1.422-2.248c0.541-0.701,1.13-1.359,1.779-1.951C66.023,224.486,66.721,223.947,67.492,223.547z"/>
				</g>
			</g>
			<g>
				<g>
					<path d="M66.778,228.186c-0.899,0.477-1.735,1.055-2.488,1.701c-0.748,0.65-1.4,1.395-1.827,2.201
						c-0.163,0.309-0.545,0.426-0.854,0.262c-0.309-0.162-0.426-0.545-0.263-0.854c0.021-0.039,0.047-0.078,0.074-0.111
						c0.726-0.867,1.6-1.502,2.51-2.014C64.845,228.867,65.798,228.469,66.778,228.186z"/>
				</g>
			</g>
		</g>
		<g>
			<g>
				<g>
					<path d="M127.062,223.547c0.771,0.4,1.47,0.939,2.118,1.527c0.648,0.592,1.238,1.25,1.779,1.951
						c0.521,0.713,1.016,1.455,1.422,2.248c0.425,0.785,0.768,1.609,1.086,2.445c0.124,0.326-0.039,0.689-0.365,0.814
						c-0.324,0.123-0.688-0.041-0.813-0.365c-0.008-0.023-0.016-0.047-0.021-0.068l-0.006-0.023
						c-0.201-0.813-0.428-1.627-0.737-2.41c-0.292-0.793-0.674-1.549-1.088-2.291c-0.433-0.73-0.923-1.432-1.481-2.082
						C128.395,224.646,127.777,224.037,127.062,223.547z"/>
				</g>
			</g>
			<g>
				<g>
					<path d="M127.775,228.186c0.98,0.283,1.934,0.682,2.848,1.186c0.91,0.512,1.785,1.146,2.51,2.014
						c0.225,0.268,0.189,0.666-0.078,0.891s-0.666,0.189-0.89-0.078c-0.028-0.033-0.054-0.072-0.074-0.109
						c-0.427-0.807-1.079-1.551-1.827-2.201C129.512,229.24,128.675,228.662,127.775,228.186z"/>
				</g>
			</g>
		</g>
	</g>
	<g>
		<g>
			<path d="M89.055,151.473c-0.182,0-0.36-0.08-0.483-0.234c-0.309-0.387-0.72-1.379-0.301-2.648
				c1.035-3.133,1.032-6.912,1.03-10.566c0-0.582,0-1.164,0.003-1.74l0-0.084c0.022-3.387-0.329-5.176-0.668-6.906
				c-0.352-1.792-0.714-3.644-0.68-6.982c0.052-5.093,0.772-14.063,0.803-14.442c0.028-0.346,0.327-0.602,0.677-0.578
				c0.346,0.028,0.604,0.329,0.576,0.674c-0.031,0.383-0.748,9.31-0.799,14.359c-0.033,3.209,0.317,4.997,0.656,6.727
				c0.352,1.792,0.714,3.644,0.692,7.156l0,0.084c-0.004,0.574-0.003,1.152-0.003,1.732c0.002,3.754,0.005,7.637-1.093,10.961
				c-0.304,0.92,0.081,1.457,0.097,1.479c0.203,0.277,0.152,0.67-0.12,0.877C89.326,151.428,89.19,151.473,89.055,151.473z"/>
		</g>
		<g>
			<path fill="none" d="M91.93,136.217"/>
		</g>
	</g>
	<g>
		<g>
			<path d="M104.492,139.221c-0.321,0-0.596-0.246-0.625-0.572c-0.197-2.229-0.094-5.779,0.795-9.058
				c0.67-2.476,0.617-4.525,0.551-7.119c-0.025-1.001-0.053-2.101-0.045-3.364c0.037-6.541-0.969-10.626-1.011-10.797
				c-0.085-0.336,0.12-0.678,0.456-0.762c0.338-0.084,0.678,0.12,0.764,0.457c0.044,0.177,1.085,4.411,1.047,11.109
				c-0.007,1.248,0.021,2.335,0.046,3.323c0.069,2.697,0.123,4.827-0.595,7.48c-0.845,3.119-0.944,6.498-0.756,8.619
				c0.031,0.346-0.225,0.65-0.57,0.682C104.53,139.221,104.512,139.221,104.492,139.221z"/>
		</g>
	</g>
	<g>
		<path d="M89.257,110.312c-1.321,0-2.396-1.075-2.396-2.396c0-1.322,1.075-2.397,2.396-2.397s2.397,1.075,2.397,2.397
			C91.654,109.236,90.579,110.312,89.257,110.312z M89.257,106.775c-0.628,0-1.14,0.511-1.14,1.14c0,0.628,0.512,1.14,1.14,1.14
			c0.629,0,1.14-0.511,1.14-1.14C90.397,107.286,89.886,106.775,89.257,106.775z"/>
	</g>
	<g>
		<path d="M104.678,110.312c-1.322,0-2.396-1.075-2.396-2.396c0-1.322,1.074-2.397,2.396-2.397c1.321,0,2.396,1.075,2.396,2.397
			C107.074,109.236,105.999,110.312,104.678,110.312z M104.678,106.775c-0.629,0-1.141,0.511-1.141,1.14
			c0,0.628,0.512,1.14,1.141,1.14s1.14-0.511,1.14-1.14C105.817,107.286,105.307,106.775,104.678,106.775z"/>
	</g>
</g>
</svg>
