<?xml version="1.0" encoding="utf-8"?>
<!-- Generator: Adobe Illustrator 16.0.0, SVG Export Plug-In . SVG Version: 6.00 Build 0)  -->
<!DOCTYPE svg PUBLIC "-//W3C//DTD SVG 1.1//EN" "http://www.w3.org/Graphics/SVG/1.1/DTD/svg11.dtd">
<svg version="1.1" id="Layer_1" xmlns="http://www.w3.org/2000/svg" xmlns:xlink="http://www.w3.org/1999/xlink" x="0px" y="0px"
	 width="142px" height="232px" viewBox="0 0 142 232" enable-background="new 0 0 142 232" xml:space="preserve">
<g>
	<g>
		<path fill="#FFFFFF" stroke="#1E1E1E" stroke-width="3" stroke-miterlimit="10" d="M110.014,229.188H18.916
			c-8.845,0-16.014-7.17-16.014-16.015V19.371c0-8.844,7.169-16.014,16.014-16.014h91.098c8.845,0,16.015,7.169,16.015,16.014
			v193.802C126.028,222.018,118.858,229.188,110.014,229.188z"/>
		
			<rect x="13.441" y="32.288" fill="#FFFFFF" stroke="#1E1E1E" stroke-width="3" stroke-linecap="round" stroke-linejoin="round" stroke-miterlimit="10" width="102.047" height="165.969"/>
		<g>
			
				<path fill="#01EEBC" stroke="#1E1E1E" stroke-width="3" stroke-linecap="round" stroke-linejoin="round" stroke-miterlimit="10" d="
				M2.917,28.621"/>
			
				<path fill="#01EEBC" stroke="#1E1E1E" stroke-width="3" stroke-linecap="round" stroke-linejoin="round" stroke-miterlimit="10" d="
				M125.045,28.632"/>
			
				<line fill="#01EEBC" stroke="#1E1E1E" stroke-width="3" stroke-linecap="round" stroke-linejoin="round" stroke-miterlimit="10" x1="59.099" y1="21.698" x2="76.864" y2="21.7"/>
			
				<path fill="#01EEBC" stroke="#1E1E1E" stroke-width="3" stroke-linecap="round" stroke-linejoin="round" stroke-miterlimit="10" d="
				M2.901,203.912"/>
			
				<path fill="#01EEBC" stroke="#1E1E1E" stroke-width="3" stroke-linecap="round" stroke-linejoin="round" stroke-miterlimit="10" d="
				M126.028,203.924"/>
			<circle fill="#01EEBC" cx="64.464" cy="213.894" r="6.962"/>
			
				<line fill="none" stroke="#1E1E1E" stroke-width="3" stroke-linecap="round" stroke-linejoin="round" stroke-miterlimit="10" x1="51.855" y1="21.699" x2="47.933" y2="21.699"/>
		</g>
	</g>
	<g>
		<path fill="#5724BA" d="M125.693,73.807H65.161c-2.752,0-5.333,0.732-7.562,2.006c0-0.002,0.001-0.003,0.001-0.005
			c-0.04,0.022-0.077,0.048-0.116,0.071c-0.207,0.121-0.41,0.246-0.611,0.376c-0.054,0.035-0.11,0.069-0.164,0.105
			c-0.25,0.167-0.495,0.34-0.735,0.52c-0.039,0.03-0.076,0.061-0.115,0.091c-0.199,0.153-0.394,0.311-0.585,0.474
			c-0.063,0.054-0.126,0.109-0.189,0.164c-0.182,0.16-0.36,0.325-0.535,0.494c-0.042,0.041-0.086,0.08-0.127,0.122
			c-0.212,0.209-0.418,0.425-0.618,0.647c-0.041,0.045-0.079,0.092-0.119,0.138c-0.158,0.181-0.313,0.364-0.462,0.552
			c-0.053,0.066-0.106,0.133-0.158,0.201c-0.152,0.196-0.299,0.397-0.441,0.601c-0.03,0.043-0.061,0.084-0.09,0.127
			c-0.168,0.246-0.328,0.498-0.481,0.754c-0.037,0.061-0.071,0.124-0.106,0.185c-0.117,0.201-0.229,0.405-0.337,0.612
			c-0.041,0.078-0.081,0.155-0.12,0.234c-0.116,0.232-0.226,0.466-0.33,0.705c-0.017,0.039-0.036,0.077-0.052,0.116
			c-0.118,0.276-0.226,0.557-0.327,0.841c-0.027,0.075-0.051,0.151-0.077,0.227c-0.074,0.218-0.143,0.438-0.208,0.66
			c-0.025,0.086-0.05,0.173-0.074,0.26c-0.073,0.268-0.139,0.539-0.197,0.813c-0.006,0.028-0.014,0.054-0.019,0.082
			c-0.062,0.3-0.112,0.604-0.156,0.91c-0.013,0.086-0.022,0.174-0.034,0.261c-0.029,0.231-0.053,0.465-0.071,0.7
			c-0.007,0.091-0.016,0.183-0.021,0.274c-0.02,0.314-0.033,0.631-0.033,0.95v33.232c0,0.264,0.007,0.525,0.02,0.785
			c0.317,6.246,4.386,11.5,9.998,13.556c0.702,0.257,1.427,0.464,2.172,0.616c0.497,0.102,1.003,0.18,1.516,0.23
			c0.513,0.053,1.034,0.08,1.561,0.08h12.751c0.346,0,0.627,0.279,0.627,0.626v16.393c0,1.938,2.371,2.878,3.698,1.466l17.2-18.287
			c0.117-0.127,0.283-0.197,0.456-0.197h25.8c8.432,0,15.268-6.836,15.268-15.268V89.074
			C140.961,80.643,134.125,73.807,125.693,73.807z"/>
		
			<path fill="#FF5D5D" stroke="#1E1E1E" stroke-width="3" stroke-linecap="round" stroke-linejoin="round" stroke-miterlimit="10" d="
			M113.129,93.621c-3.875-3.876-10.16-3.876-14.036,0l-2.19,2.189c-0.521,0.522-1.368,0.522-1.891,0l-2.154-2.155
			c-1.273-1.274-2.81-2.121-4.433-2.557c0.003-0.001,0.007-0.002,0.011-0.003c-0.21-0.057-0.421-0.106-0.633-0.148
			c-0.094-0.019-0.188-0.031-0.281-0.047c-0.182-0.031-0.363-0.058-0.547-0.079c-0.107-0.012-0.215-0.024-0.322-0.033
			c-0.252-0.021-0.504-0.035-0.757-0.036c-0.081,0-0.161,0.005-0.242,0.006c-0.2,0.003-0.399,0.013-0.6,0.028
			c-0.099,0.008-0.196,0.016-0.295,0.027c-0.261,0.028-0.52,0.063-0.776,0.112c-0.059,0.011-0.116,0.027-0.174,0.039
			c-0.221,0.046-0.439,0.1-0.656,0.16c-0.084,0.024-0.168,0.048-0.252,0.073c-0.262,0.081-0.521,0.169-0.775,0.272
			c-0.033,0.013-0.065,0.029-0.098,0.042c-0.234,0.097-0.464,0.205-0.691,0.321c-0.069,0.036-0.139,0.071-0.208,0.109
			c-0.253,0.136-0.501,0.28-0.743,0.439c-0.012,0.007-0.023,0.017-0.035,0.024c-0.232,0.155-0.459,0.324-0.682,0.501
			c-0.059,0.047-0.117,0.095-0.176,0.144c-0.23,0.191-0.455,0.391-0.672,0.606c-3.875,3.876-3.875,10.161,0,14.037l16.193,16.192
			c0.521,0.522,1.369,0.522,1.891,0l16.225-16.227C117.006,103.781,117.006,97.497,113.129,93.621z"/>
	</g>
</g>
</svg>
