<?xml version="1.0" encoding="utf-8"?>
<!-- Generator: Adobe Illustrator 16.0.0, SVG Export Plug-In . SVG Version: 6.00 Build 0)  -->
<!DOCTYPE svg PUBLIC "-//W3C//DTD SVG 1.1//EN" "http://www.w3.org/Graphics/SVG/1.1/DTD/svg11.dtd">
<svg version="1.1" id="Layer_1" xmlns="http://www.w3.org/2000/svg" xmlns:xlink="http://www.w3.org/1999/xlink" x="0px" y="0px"
	 width="941.448px" height="320px" viewBox="0 0 941.448 320" enable-background="new 0 0 941.448 320" xml:space="preserve">
<path fill="none" stroke="#F7DF03" stroke-width="24" stroke-linecap="round" stroke-linejoin="round" stroke-miterlimit="10" d="
	M15.907,299.004h839.264c37.461,0,67.829-30.369,67.829-67.83l0,0c0-37.461-30.368-67.83-67.829-67.83H341.047v-30.23
	c0-46.952-38.063-85.015-85.015-85.015H64.287"/>
<path fill="none" stroke="#1E1E1E" stroke-width="3" stroke-linecap="round" stroke-linejoin="round" stroke-miterlimit="10" stroke-dasharray="4,8" d="
	M64.287,48.099h191.746c46.952,0,85.015,38.063,85.015,85.015v30.23h305.296h106.865h101.963c37.461,0,67.829,30.369,67.829,67.83
	l0,0c0,37.461-30.368,67.83-67.829,67.83h-25.454"/>
<g>
	<g>
		<path fill="#1E1E1E" d="M332.954,287.105c-0.224,0-0.412-0.08-0.563-0.24c-0.152-0.16-0.228-0.384-0.228-0.672v-3.068
			c0-0.576,0.255-0.863,0.767-0.863h3.573c0.192,0,0.367,0.08,0.527,0.239c0.16,0.16,0.24,0.376,0.24,0.647v3.021
			c0,0.623-0.272,0.936-0.815,0.936H332.954z M333.41,318.83c-0.56,0-0.839-0.305-0.839-0.912v-25.896
			c0-0.607,0.279-0.912,0.839-0.912h2.638c0.543,0,0.815,0.305,0.815,0.912v25.896c0,0.607-0.271,0.912-0.815,0.912H333.41z"/>
		<path fill="#1E1E1E" d="M342.643,313.459c-0.56,0-0.839-0.313-0.839-0.936v-34.627c0-0.607,0.28-0.91,0.839-0.91h13.524
			c0.479,0,0.719,0.279,0.719,0.839v2.733c0,0.544-0.24,0.815-0.719,0.815h-9.76v11.271h7.746c0.224,0,0.411,0.068,0.563,0.203
			c0.152,0.137,0.228,0.34,0.228,0.611v2.734c0,0.543-0.264,0.815-0.791,0.815h-7.746v12.062h9.76c0.495,0,0.743,0.264,0.743,0.791
			v2.781c0,0.545-0.248,0.816-0.743,0.816H342.643z"/>
		<path fill="#1E1E1E" d="M360.964,313.459c-0.56,0-0.839-0.313-0.839-0.936v-34.627c0-0.607,0.279-0.91,0.839-0.91h2.854
			c0.447,0.111,0.743,0.359,0.887,0.742l9.4,24.244l0.6,2.35l-0.12-2.206l-0.168-24.22c-0.016-0.271,0.048-0.491,0.192-0.658
			c0.144-0.168,0.36-0.252,0.647-0.252h2.758c0.543,0,0.815,0.303,0.815,0.91v34.65c0,0.607-0.296,0.912-0.887,0.912h-2.782
			c-0.512,0-0.848-0.24-1.007-0.72l-9.376-23.932l-0.503-1.751l0.12,1.919l0.144,23.548c0,0.623-0.28,0.936-0.839,0.936H360.964z"/>
		<path fill="#1E1E1E" d="M390.028,313.459c-0.48,0-0.776-0.256-0.887-0.768l-7.985-34.771c-0.064-0.288-0.024-0.516,0.12-0.683
			c0.144-0.168,0.343-0.252,0.599-0.252h2.998c0.527,0,0.831,0.248,0.911,0.742l5.419,26.906l0.168,2.205l0.167-2.205l5.396-26.906
			c0.08-0.494,0.392-0.742,0.936-0.742h2.973c0.255,0,0.456,0.084,0.6,0.252c0.144,0.167,0.184,0.395,0.12,0.683l-7.985,34.771
			c-0.112,0.512-0.408,0.768-0.887,0.768H390.028z"/>
		<path fill="#1E1E1E" d="M404.68,313.459c-0.56,0-0.839-0.313-0.839-0.936v-34.627c0-0.607,0.279-0.91,0.839-0.91h2.925
			c0.543,0,0.823,0.303,0.839,0.91v34.627c0,0.623-0.28,0.936-0.839,0.936H404.68z M405.112,273.557
			c-0.24,0-0.428-0.107-0.563-0.324c-0.136-0.215-0.14-0.49-0.012-0.826l2.566-5.684c0.112-0.304,0.231-0.508,0.36-0.611
			c0.127-0.104,0.335-0.156,0.623-0.156h2.278c0.224,0,0.387,0.116,0.491,0.348c0.104,0.232,0.092,0.492-0.036,0.779l-2.998,5.731
			c-0.24,0.495-0.575,0.743-1.007,0.743H405.112z"/>
		<path fill="#1E1E1E" d="M421.634,314.01c-2.542,0-4.66-0.799-6.354-2.397c-1.774-1.631-2.662-3.692-2.662-6.187v-20.383
			c0-2.525,0.887-4.604,2.662-6.234c1.727-1.583,3.857-2.378,6.391-2.387c2.534-0.008,4.664,0.779,6.391,2.362
			c1.774,1.679,2.662,3.765,2.662,6.259v20.383c0,2.525-0.887,4.604-2.662,6.234C426.334,313.227,424.192,314.01,421.634,314.01z
			 M421.634,309.621c1.263,0,2.342-0.439,3.237-1.318c0.831-0.831,1.247-1.854,1.247-3.069v-19.999c0-1.199-0.424-2.238-1.271-3.117
			c-0.911-0.863-1.975-1.295-3.189-1.295c-1.247,0-2.302,0.432-3.165,1.295c-0.848,0.879-1.271,1.918-1.271,3.117v19.999
			c0,1.216,0.416,2.238,1.247,3.069C419.316,309.182,420.372,309.621,421.634,309.621z"/>
		<path fill="#1E1E1E" d="M442.857,314.01c-2.638,0-4.784-0.843-6.438-2.529c-1.655-1.687-2.482-3.833-2.482-6.439v-1.342
			c0-0.367,0.056-0.64,0.167-0.815s0.328-0.265,0.647-0.265h2.95c0.288,0,0.492,0.076,0.611,0.229c0.12,0.152,0.18,0.388,0.18,0.707
			v1.247c0,1.615,0.519,2.862,1.559,3.741c0.831,0.703,1.798,1.055,2.901,1.055c1.215,0,2.278-0.416,3.189-1.246
			c0.911-0.848,1.358-1.902,1.343-3.166c0-1.614-0.416-2.989-1.247-4.125c-0.592-0.783-2.062-2.149-4.412-4.1
			c-0.08-0.064-0.308-0.244-0.684-0.54c-0.376-0.296-0.611-0.479-0.707-0.552c-0.096-0.071-0.3-0.235-0.612-0.491
			c-0.312-0.255-0.527-0.432-0.647-0.527c-0.12-0.097-0.312-0.256-0.576-0.479c-0.264-0.224-0.455-0.396-0.575-0.516
			c-0.12-0.12-0.284-0.275-0.492-0.468c-0.208-0.192-0.38-0.36-0.516-0.503c-0.136-0.145-0.288-0.305-0.456-0.48
			s-0.315-0.344-0.443-0.504c-1.455-1.773-2.182-3.9-2.182-6.378c0-2.222,0.551-4.077,1.654-5.563
			c0.927-1.246,2.142-2.174,3.645-2.781c1.247-0.512,2.422-0.768,3.525-0.768c2.59,0,4.708,0.848,6.354,2.542
			c1.615,1.679,2.422,3.805,2.422,6.378v1.607c0,0.336-0.06,0.567-0.18,0.695s-0.356,0.191-0.708,0.191h-2.877
			c-0.288,0-0.484-0.063-0.587-0.191c-0.104-0.128-0.156-0.352-0.156-0.672v-1.606c0-1.23-0.368-2.278-1.103-3.142
			c-0.8-0.926-1.831-1.391-3.094-1.391c-1.039,0-1.958,0.336-2.757,1.008c-1.023,0.863-1.535,2.126-1.535,3.789
			c0,1.502,0.503,2.828,1.511,3.98c0.511,0.591,1.566,1.526,3.165,2.805c1.215,1.008,2.406,1.967,3.573,2.878
			c2.302,1.87,3.853,3.845,4.652,5.923c0.447,1.199,0.663,2.605,0.647,4.221c0,2.318-0.848,4.316-2.542,5.994
			C447.741,313.146,445.511,314.01,442.857,314.01z"/>
		<path fill="#1E1E1E" d="M462.522,313.459c-0.528,0-0.728-0.313-0.6-0.936l7.865-34.77c0.111-0.512,0.408-0.768,0.887-0.768h2.902
			c0.447,0,0.743,0.256,0.887,0.768l7.842,34.77c0.144,0.623-0.049,0.936-0.576,0.936h-3.237c-0.512,0-0.808-0.248-0.887-0.744
			l-1.295-6.689h-8.394l-1.294,6.689c-0.08,0.496-0.384,0.744-0.912,0.744H462.522z M468.733,301.853h6.785l-3.188-16.426
			l-0.216-2.687l-0.216,2.687L468.733,301.853z"/>
		<path fill="#1E1E1E" d="M497.894,313.459c-0.208,0-0.384-0.076-0.527-0.229c-0.145-0.151-0.216-0.363-0.216-0.635v-31.222h-5.54
			c-0.479,0-0.719-0.271-0.719-0.815v-2.709c0-0.271,0.067-0.484,0.203-0.636c0.137-0.151,0.309-0.228,0.516-0.228h15.755
			c0.479,0,0.711,0.279,0.695,0.839v2.733c0,0.544-0.231,0.815-0.695,0.815h-5.587v31.222c0,0.271-0.068,0.483-0.204,0.635
			c-0.136,0.152-0.308,0.229-0.516,0.229H497.894z"/>
		<path fill="#1E1E1E" d="M517.678,314.01c-2.542,0-4.66-0.799-6.354-2.397c-1.774-1.631-2.662-3.692-2.662-6.187v-20.383
			c0-2.525,0.888-4.604,2.662-6.234c1.727-1.583,3.856-2.378,6.391-2.387c2.533-0.008,4.664,0.779,6.391,2.362
			c1.773,1.679,2.661,3.765,2.661,6.259v20.383c0,2.525-0.888,4.604-2.661,6.234C522.378,313.227,520.235,314.01,517.678,314.01z
			 M517.678,309.621c1.263,0,2.342-0.439,3.237-1.318c0.831-0.831,1.246-1.854,1.246-3.069v-19.999c0-1.199-0.423-2.238-1.271-3.117
			c-0.911-0.863-1.975-1.295-3.189-1.295c-1.247,0-2.302,0.432-3.165,1.295c-0.848,0.879-1.271,1.918-1.271,3.117v19.999
			c0,1.216,0.415,2.238,1.247,3.069C515.359,309.182,516.415,309.621,517.678,309.621z"/>
		<path fill="#1E1E1E" d="M531.778,313.459c-0.56,0-0.839-0.313-0.839-0.936v-34.627c0-0.607,0.279-0.91,0.839-0.91h8.345
			c2.67,0.031,4.804,0.831,6.403,2.397c1.646,1.614,2.477,3.788,2.493,6.522v18.561c0,2.749-0.831,4.932-2.493,6.546
			c-1.6,1.599-3.726,2.414-6.379,2.446H531.778z M535.543,309.07h4.509c1.311,0,2.373-0.455,3.188-1.367
			c0.768-0.863,1.151-1.982,1.151-3.357v-18.271c0-1.439-0.38-2.57-1.139-3.393c-0.76-0.824-1.795-1.26-3.105-1.308h-4.604V309.07z"
			/>
		<path fill="#1E1E1E" d="M561.538,314.01c-2.542,0-4.66-0.799-6.354-2.397c-1.774-1.631-2.662-3.692-2.662-6.187v-20.383
			c0-2.525,0.888-4.604,2.662-6.234c1.727-1.583,3.856-2.378,6.391-2.387c2.533-0.008,4.663,0.779,6.39,2.362
			c1.775,1.679,2.662,3.765,2.662,6.259v20.383c0,2.525-0.887,4.604-2.662,6.234C566.237,313.227,564.096,314.01,561.538,314.01z
			 M561.538,309.621c1.263,0,2.342-0.439,3.237-1.318c0.831-0.831,1.247-1.854,1.247-3.069v-19.999c0-1.199-0.424-2.238-1.271-3.117
			c-0.911-0.863-1.975-1.295-3.189-1.295c-1.246,0-2.302,0.432-3.165,1.295c-0.848,0.879-1.271,1.918-1.271,3.117v19.999
			c0,1.216,0.415,2.238,1.246,3.069C559.22,309.182,560.274,309.621,561.538,309.621z"/>
		<path fill="#1E1E1E" d="M584.872,313.459c-0.561,0-0.84-0.313-0.84-0.936v-34.627c0-0.607,0.279-0.91,0.84-0.91h13.523
			c0.48,0,0.72,0.279,0.72,0.839v2.733c0,0.544-0.239,0.815-0.72,0.815h-9.759v11.271h7.745c0.224,0,0.411,0.068,0.563,0.203
			c0.151,0.137,0.228,0.34,0.228,0.611v2.734c0,0.543-0.264,0.815-0.791,0.815h-7.745v12.062h9.759c0.496,0,0.744,0.264,0.744,0.791
			v2.781c0,0.545-0.248,0.816-0.744,0.816H584.872z"/>
		<path fill="#1E1E1E" d="M603.192,313.459c-0.559,0-0.839-0.313-0.839-0.936v-34.627c0-0.607,0.28-0.91,0.839-0.91h2.926
			c0.544,0,0.823,0.303,0.84,0.91v31.174h8.944c0.495,0,0.743,0.256,0.743,0.768v2.758c0,0.271-0.072,0.483-0.216,0.635
			c-0.144,0.152-0.32,0.229-0.527,0.229H603.192z"/>
		<path fill="#1E1E1E" d="M629.644,313.459c-0.559,0-0.839-0.313-0.839-0.936v-34.627c0-0.607,0.28-0.91,0.839-0.91h8.153
			c2.622,0,4.788,0.879,6.499,2.637c1.646,1.711,2.47,3.861,2.47,6.451v5.898c0,2.59-0.831,4.748-2.494,6.475
			c-1.694,1.742-3.845,2.613-6.45,2.613h-4.412v11.463c0,0.623-0.28,0.936-0.84,0.936H629.644z M633.409,296.648h4.412
			c1.311,0,2.365-0.439,3.165-1.318c0.768-0.863,1.151-1.975,1.151-3.333v-5.827c0-1.391-0.393-2.533-1.176-3.43
			c-0.799-0.91-1.854-1.366-3.165-1.366h-4.388V296.648z"/>
		<path fill="#1E1E1E" d="M645.231,313.459c-0.527,0-0.727-0.313-0.6-0.936l7.865-34.77c0.112-0.512,0.408-0.768,0.888-0.768h2.901
			c0.447,0,0.743,0.256,0.888,0.768l7.841,34.77c0.145,0.623-0.048,0.936-0.575,0.936h-3.237c-0.512,0-0.808-0.248-0.888-0.744
			l-1.295-6.689h-8.393l-1.295,6.689c-0.08,0.496-0.384,0.744-0.911,0.744H645.231z M651.442,301.853h6.786l-3.189-16.426
			l-0.216-2.687l-0.216,2.687L651.442,301.853z"/>
		<path fill="#1E1E1E" d="M667.869,313.459c-0.56,0-0.839-0.313-0.839-0.936v-34.627c0-0.607,0.279-0.91,0.839-0.91h2.926
			c0.543,0,0.823,0.303,0.839,0.91v34.627c0,0.623-0.279,0.936-0.839,0.936H667.869z M668.301,273.557
			c-0.239,0-0.428-0.107-0.563-0.324c-0.136-0.215-0.141-0.49-0.012-0.826l2.565-5.684c0.112-0.304,0.231-0.508,0.36-0.611
			c0.127-0.104,0.335-0.156,0.623-0.156h2.278c0.224,0,0.387,0.116,0.491,0.348c0.104,0.232,0.092,0.492-0.036,0.779l-2.997,5.731
			c-0.24,0.495-0.576,0.743-1.008,0.743H668.301z"/>
		<path fill="#1E1E1E" d="M684.44,314.01c-2.638,0-4.784-0.843-6.438-2.529c-1.655-1.687-2.482-3.833-2.482-6.439v-1.342
			c0-0.367,0.056-0.64,0.168-0.815s0.327-0.265,0.647-0.265h2.949c0.288,0,0.492,0.076,0.611,0.229
			c0.12,0.152,0.181,0.388,0.181,0.707v1.247c0,1.615,0.519,2.862,1.559,3.741c0.831,0.703,1.798,1.055,2.901,1.055
			c1.215,0,2.277-0.416,3.189-1.246c0.911-0.848,1.358-1.902,1.343-3.166c0-1.614-0.416-2.989-1.247-4.125
			c-0.592-0.783-2.063-2.149-4.412-4.1c-0.08-0.064-0.309-0.244-0.684-0.54c-0.376-0.296-0.611-0.479-0.707-0.552
			c-0.096-0.071-0.3-0.235-0.611-0.491c-0.313-0.255-0.528-0.432-0.648-0.527c-0.119-0.097-0.312-0.256-0.575-0.479
			s-0.455-0.396-0.575-0.516c-0.12-0.12-0.284-0.275-0.492-0.468c-0.207-0.192-0.379-0.36-0.516-0.503
			c-0.136-0.145-0.287-0.305-0.455-0.48s-0.316-0.344-0.443-0.504c-1.455-1.773-2.183-3.9-2.183-6.378
			c0-2.222,0.552-4.077,1.655-5.563c0.927-1.246,2.142-2.174,3.645-2.781c1.247-0.512,2.422-0.768,3.525-0.768
			c2.59,0,4.707,0.848,6.354,2.542c1.615,1.679,2.422,3.805,2.422,6.378v1.607c0,0.336-0.06,0.567-0.18,0.695
			c-0.119,0.128-0.355,0.191-0.707,0.191h-2.877c-0.288,0-0.484-0.063-0.588-0.191c-0.104-0.128-0.156-0.352-0.156-0.672v-1.606
			c0-1.23-0.367-2.278-1.103-3.142c-0.8-0.926-1.831-1.391-3.094-1.391c-1.039,0-1.958,0.336-2.758,1.008
			c-1.022,0.863-1.534,2.126-1.534,3.789c0,1.502,0.504,2.828,1.511,3.98c0.511,0.591,1.566,1.526,3.165,2.805
			c1.215,1.008,2.406,1.967,3.573,2.878c2.302,1.87,3.853,3.845,4.651,5.923c0.447,1.199,0.664,2.605,0.647,4.221
			c0,2.318-0.847,4.316-2.542,5.994C689.323,313.146,687.094,314.01,684.44,314.01z"/>
		<path fill="#1E1E1E" d="M697.653,313.459c-0.512,0-0.767-0.288-0.767-0.863v-3.07c0-0.287,0.071-0.516,0.216-0.684
			c0.144-0.167,0.327-0.251,0.551-0.251h3.502c0.543,0,0.814,0.319,0.814,0.959v3.021c0,0.288-0.08,0.508-0.239,0.659
			c-0.16,0.152-0.336,0.229-0.528,0.229H697.653z M698.134,304.609c-0.561,0-0.84-0.303-0.84-0.91v-25.898
			c0-0.607,0.279-0.91,0.84-0.91h2.637c0.544,0,0.816,0.303,0.816,0.91v25.898c0,0.607-0.272,0.91-0.816,0.91H698.134z"/>
	</g>
</g>
<g>
	
		<polyline fill="none" stroke="#1E1E1E" stroke-width="3" stroke-linecap="round" stroke-linejoin="round" stroke-miterlimit="10" points="
		783.363,279.983 808.724,299.004 783.363,318.023 	"/>
	
		<polyline fill="none" stroke="#1E1E1E" stroke-width="3" stroke-linecap="round" stroke-linejoin="round" stroke-miterlimit="10" points="
		765.752,279.983 791.112,299.004 765.752,318.023 	"/>
	
		<polyline fill="none" stroke="#1E1E1E" stroke-width="3" stroke-linecap="round" stroke-linejoin="round" stroke-miterlimit="10" points="
		748.141,279.983 773.501,299.004 748.141,318.023 	"/>
	
		<polyline fill="none" stroke="#1E1E1E" stroke-width="3" stroke-linecap="round" stroke-linejoin="round" stroke-miterlimit="10" points="
		730.53,279.983 755.89,299.004 730.53,318.023 	"/>
</g>
<g>
	<path fill="none" stroke="#1E1E1E" stroke-width="3" stroke-linecap="round" stroke-linejoin="round" stroke-miterlimit="10" d="
		M512.87,143.709h-11.732c-1.217,0-2.365-0.558-3.118-1.513l-1.757-2.23c-0.552-0.7-0.852-1.565-0.852-2.457v-16.334
		c0-0.927,0.324-1.825,0.918-2.538l2-2.406"/>
	<path fill="none" stroke="#1E1E1E" stroke-width="3" stroke-linecap="round" stroke-linejoin="round" stroke-miterlimit="10" d="
		M692.869,106.6v9.632l2.382,1.266c1.412,0.75,2.295,2.218,2.295,3.817v13.813c0,1.076-0.4,2.112-1.125,2.908l-3.873,4.259
		c-0.82,0.901-1.98,1.415-3.198,1.415h-9.929"/>
	<path fill="none" stroke="#1E1E1E" stroke-width="3" stroke-linecap="round" stroke-linejoin="round" stroke-miterlimit="10" d="
		M617.382,21.92h38.838c1.575,0,3.071,0.671,4.122,1.844c5.094,5.691,20.527,23.982,30.265,46.855
		c1.498,3.519,2.263,7.31,2.263,11.134v10.865"/>
	<path fill="none" stroke="#1E1E1E" stroke-width="3" stroke-linecap="round" stroke-linejoin="round" stroke-miterlimit="10" d="
		M617.382,116.231V21.92V8.456c0-3.411-2.766-6.176-6.176-6.176h-106.7c-3.411,0-6.177,2.765-6.177,6.176v107.776h26.752"/>
	<g>
		<g>
			<g>
				
					<circle fill="#FFFFFF" stroke="#1E1E1E" stroke-width="3" stroke-linecap="round" stroke-linejoin="round" stroke-miterlimit="10" cx="535.076" cy="136.799" r="22.78"/>
				<circle fill="#5724BA" cx="535.076" cy="136.799" r="13.98"/>
			</g>
		</g>
	</g>
	<g>
		<g>
			<g>
				
					<circle fill="#FFFFFF" stroke="#1E1E1E" stroke-width="3" stroke-linecap="round" stroke-linejoin="round" stroke-miterlimit="10" cx="656.581" cy="136.799" r="22.779"/>
				<circle fill="#5724BA" cx="656.581" cy="136.799" r="13.98"/>
			</g>
		</g>
	</g>
	
		<line fill="none" stroke="#1E1E1E" stroke-width="3" stroke-linecap="round" stroke-linejoin="round" stroke-miterlimit="10" x1="692.869" y1="116.231" x2="666.62" y2="116.231"/>
	
		<line fill="none" stroke="#1E1E1E" stroke-width="3" stroke-linecap="round" stroke-linejoin="round" stroke-miterlimit="10" x1="645.753" y1="116.231" x2="545.528" y2="116.231"/>
	<path fill="none" stroke="#1E1E1E" stroke-width="3" stroke-linecap="round" stroke-linejoin="round" stroke-miterlimit="10" d="
		M626.481,29.591v39.044c0,0.936,0.387,1.831,1.07,2.471l6.382,5.983c0.628,0.589,1.456,0.917,2.317,0.917h40.973
		c1.818,0,3.468-1.073,4.205-2.736l0,0c0.48-1.084,0.525-2.305,0.124-3.421c-2.202-6.107-12.814-27.04-26.155-42.906
		c-0.574-0.684-1.487-0.991-2.381-0.991H628.12C627.215,27.952,626.481,28.686,626.481,29.591z"/>
	<path fill="none" stroke="#1E1E1E" stroke-width="3" stroke-linecap="round" stroke-linejoin="round" stroke-miterlimit="10" d="
		M694.563,92.948h-6.899c-1.073,0-2.016,0.715-2.305,1.749l-0.778,2.783c-0.213,0.76-0.037,1.575,0.469,2.181l4.832,5.775
		c0.453,0.544,1.127,0.857,1.835,0.857h2.847c1.321,0,2.393-1.071,2.393-2.393v-8.558C696.956,94.02,695.885,92.948,694.563,92.948z
		"/>
</g>
<line fill="none" stroke="#1E1E1E" stroke-width="3" stroke-linecap="round" stroke-linejoin="round" stroke-miterlimit="10" x1="557.855" y1="143.709" x2="633.802" y2="143.709"/>
<g>
	<g>
		<g>
			<g>
				<path fill="#F7DF03" d="M542.704,42.411L542.704,42.411c0.379-3.684,1.574-6.527,3.624-8.656
					c2.36-2.424,5.544-3.602,9.733-3.602c3.872,0,7.047,1.238,9.679,3.76c2.603,2.538,3.88,5.536,3.901,9.142
					c0,6.317-2.396,8.368-4.197,9.36c-1.341,0.739-2.132,2.187-2.028,3.713c0.103,1.527,1.081,2.855,2.509,3.407
					c2.412,0.931,4.188,2.381,5.438,4.443c1.275,2.089,1.92,4.455,1.969,7.23v1.705c0,4.257-1.489,7.792-4.542,10.8
					c-3.194,3.126-7.149,4.646-12.091,4.646c-4.73,0-8.419-1.055-11.289-3.237c-3.129-2.357-4.95-6.037-5.563-11.28l0,0h6.089
					c0.902,0,0.967-0.323,0.967-1.226l0,0c0.338,3.223,1.568,5.584,3.689,7.083c1.526,1.16,3.363,1.725,5.514,1.696
					c2.572,0,4.65-0.706,6.234-2.121c1.837-1.611,2.756-3.958,2.756-7.04v-1.23c-0.057-2.884-0.919-5.11-2.586-6.68
					c-1.67-1.569-4.129-2.354-7.381-2.354c-1.271,0-1.908-0.537-1.908-1.612v-7.083c0-1.215,0.565-1.824,1.697-1.824
					c4.664,0,7.012-2.502,7.039-7.507c0-1.979-0.58-3.633-1.738-4.962c-1.188-1.329-2.715-1.993-4.58-1.993
					c-1.781,0-3.209,0.558-4.283,1.675c-1.075,1.117-1.712,2.708-1.909,4.771"/>
			</g>
			<g>
				<path fill="#1D1D1D" d="M556.698,88.605c-4.787,0-8.529-1.075-11.438-3.287c-3.188-2.403-5.04-6.147-5.66-11.448l-0.032-0.275
					h6.367c0.68,0,0.719-0.11,0.719-0.979l0.492-0.026c0.331,3.135,1.537,5.458,3.588,6.907c1.48,1.125,3.279,1.668,5.368,1.651
					c2.501,0,4.543-0.693,6.072-2.058c1.774-1.557,2.675-3.863,2.675-6.856v-1.23c-0.057-2.796-0.9-4.985-2.51-6.5
					c-1.613-1.518-4.039-2.287-7.21-2.287c-1.782,0-2.156-1.01-2.156-1.859v-7.083c0-1.355,0.672-2.071,1.944-2.071
					c4.543,0,6.766-2.375,6.793-7.261c0-1.907-0.564-3.521-1.678-4.799c-1.131-1.266-2.611-1.909-4.395-1.909
					c-1.703,0-3.085,0.538-4.105,1.6c-1.03,1.07-1.65,2.626-1.841,4.624l-0.492-0.047c0.202-2.111,0.867-3.767,1.978-4.919
					c1.117-1.162,2.617-1.751,4.461-1.751c1.931,0,3.534,0.698,4.764,2.076c1.197,1.372,1.803,3.096,1.803,5.126
					c-0.029,5.146-2.481,7.754-7.287,7.754c-0.989,0-1.45,0.501-1.45,1.577v7.083c0,0.586,0.172,1.365,1.662,1.365
					c3.301,0,5.841,0.814,7.549,2.421c1.71,1.609,2.606,3.915,2.665,6.854v1.235c0,3.141-0.957,5.573-2.842,7.226
					c-1.621,1.447-3.773,2.182-6.396,2.182c-2.181,0.034-4.1-0.558-5.663-1.747c-1.89-1.334-3.103-3.365-3.61-6.044
					c-0.179,0.155-0.46,0.238-0.896,0.238h-5.811c0.635,5.013,2.414,8.56,5.434,10.835c2.822,2.145,6.466,3.187,11.141,3.187
					c4.873,0,8.771-1.497,11.918-4.575c3.006-2.961,4.468-6.437,4.468-10.623v-1.705c-0.048-2.727-0.681-5.051-1.933-7.102
					c-1.218-2.011-2.957-3.431-5.316-4.341c-1.511-0.584-2.557-2.005-2.666-3.62c-0.109-1.616,0.737-3.165,2.155-3.946
					c1.747-0.962,4.069-2.958,4.069-9.144c-0.02-3.542-1.271-6.475-3.826-8.965c-2.59-2.482-5.701-3.689-9.506-3.689
					c-4.119,0-7.246,1.153-9.557,3.527c-2.018,2.095-3.182,4.879-3.555,8.508l-0.491-0.051c0.386-3.744,1.593-6.623,3.69-8.801
					c2.41-2.475,5.652-3.678,9.912-3.678c3.939,0,7.161,1.252,9.85,3.828c2.654,2.589,3.955,5.637,3.977,9.318
					c0,6.45-2.469,8.556-4.324,9.579c-1.252,0.689-1.997,2.055-1.9,3.48c0.095,1.424,1.018,2.677,2.351,3.192
					c2.464,0.951,4.283,2.438,5.56,4.545c1.299,2.128,1.955,4.534,2.006,7.354v1.709c0,4.326-1.511,7.916-4.617,10.976
					C565.718,87.062,561.706,88.605,556.698,88.605z"/>
			</g>
		</g>
		<g>
			<g>
				<g>
					<path fill="#1D1D1D" d="M555.948,81.642c-2.126,0-3.979-0.587-5.507-1.748c-2.164-1.529-3.44-3.971-3.786-7.253l0.49-0.052
						c0.331,3.134,1.537,5.458,3.588,6.907c1.482,1.125,3.279,1.668,5.368,1.651c2.501,0,4.543-0.693,6.072-2.058
						c1.774-1.557,2.675-3.863,2.675-6.856v-1.23c-0.057-2.797-0.9-4.985-2.51-6.5c-1.613-1.518-4.039-2.287-7.21-2.287
						c-1.782,0-2.156-1.01-2.156-1.859v-7.083c0-1.355,0.672-2.071,1.944-2.071c4.543,0,6.766-2.375,6.793-7.261
						c0-1.907-0.564-3.521-1.678-4.799c-1.131-1.266-2.611-1.909-4.395-1.909c-1.703,0-3.085,0.538-4.105,1.599
						c-1.03,1.071-1.65,2.627-1.841,4.624l-0.021,0.672l-0.492-0.012l0.02-0.691c0.203-2.127,0.868-3.782,1.979-4.935
						c1.117-1.162,2.617-1.75,4.461-1.75c1.931,0,3.534,0.698,4.764,2.076c1.197,1.372,1.803,3.096,1.803,5.126
						c-0.029,5.146-2.481,7.754-7.287,7.754c-0.989,0-1.45,0.501-1.45,1.577v7.083c0,0.586,0.172,1.365,1.662,1.365
						c3.301,0,5.841,0.814,7.549,2.421c1.71,1.609,2.606,3.915,2.665,6.854v1.235c0,3.141-0.957,5.573-2.842,7.226
						c-1.621,1.447-3.773,2.182-6.396,2.182C556.053,81.642,556.001,81.642,555.948,81.642z"/>
				</g>
			</g>
		</g>
		<g>
			<g>
				<path fill="#5724BA" d="M538.673,44.045L538.673,44.045v0.012v-0.494c0.254-5.287,1.866-9.472,4.835-12.554
					c3.11-3.194,7.294-4.792,12.554-4.792c4.891,0,9.033,1.626,12.427,4.877c3.364,3.28,5.061,7.267,5.089,11.96
					c0,5.467-1.59,9.418-4.771,11.855c-0.581,0.445-0.476,1.352,0.175,1.687c2.432,1.25,4.345,3.027,5.741,5.331
					c1.64,2.687,2.487,5.769,2.545,9.246v1.739c0,5.316-1.909,9.854-5.726,13.614c-3.931,3.845-8.879,5.768-14.844,5.768
					c-5.57,0-10.123-1.342-13.657-4.029c-4.128-3.11-6.517-7.959-7.167-14.547c-0.016-0.138-0.027-0.904-0.034-1.66v0.035v0.113
					c0,0.903,0.732,1.635,1.636,1.635h2.37l0,0c0.613,5.243,2.435,8.922,5.563,11.28c2.87,2.182,6.559,3.237,11.289,3.237
					c4.941,0,8.896-1.52,12.091-4.646c3.053-3.007,4.542-6.543,4.542-10.8v-1.705c-0.049-2.776-0.693-5.141-1.969-7.23
					c-1.249-2.062-3.025-3.512-5.438-4.443c-1.428-0.552-2.406-1.88-2.509-3.407c-0.104-1.527,0.688-2.975,2.028-3.713
					c1.801-0.993,4.197-3.043,4.197-9.36c-0.021-3.605-1.299-6.604-3.901-9.142c-2.632-2.522-5.807-3.76-9.679-3.76
					c-4.189,0-7.373,1.178-9.733,3.602c-2.05,2.128-3.245,4.972-3.624,8.655l0,0"/>
			</g>
			<g>
				<path fill="#1D1D1D" d="M556.698,92.541c-5.601,0-10.245-1.373-13.807-4.08c-4.166-3.138-6.609-8.09-7.264-14.72
					c-0.008-0.071-0.021-0.304-0.033-1.438c-0.001-0.032-0.002-0.065-0.002-0.097v-0.113c0-0.011,0-0.021,0-0.033l0.494-0.004
					c0,0.081,0.002,0.158,0.002,0.231c0.042,0.728,0.647,1.308,1.387,1.308h2.59l0.025,0.218c0.604,5.16,2.393,8.794,5.467,11.111
					c2.822,2.145,6.466,3.187,11.141,3.187c4.873,0,8.771-1.497,11.918-4.575c3.006-2.961,4.468-6.437,4.468-10.623v-1.705
					c-0.048-2.727-0.681-5.051-1.933-7.102c-1.218-2.011-2.957-3.431-5.316-4.341c-1.51-0.584-2.557-2.005-2.666-3.62
					c-0.109-1.616,0.737-3.165,2.155-3.946c1.747-0.962,4.069-2.958,4.069-9.144c-0.02-3.542-1.271-6.475-3.826-8.965
					c-2.59-2.482-5.701-3.689-9.506-3.689c-4.119,0-7.246,1.153-9.557,3.527c-2.018,2.095-3.182,4.879-3.555,8.508l-0.491-0.051
					c0.386-3.744,1.593-6.623,3.69-8.801c2.41-2.475,5.652-3.678,9.912-3.678c3.939,0,7.161,1.252,9.85,3.828
					c2.654,2.589,3.955,5.637,3.977,9.318c0,6.45-2.469,8.556-4.324,9.579c-1.252,0.689-1.997,2.055-1.9,3.48
					c0.095,1.424,1.018,2.677,2.351,3.192c2.464,0.951,4.283,2.438,5.56,4.545c1.299,2.128,1.955,4.534,2.006,7.354v1.709
					c0,4.326-1.511,7.916-4.617,10.976c-3.244,3.174-7.256,4.717-12.264,4.717c-4.787,0-8.529-1.075-11.438-3.287
					c-3.145-2.37-4.989-6.044-5.634-11.23h-2.15c-0.537,0-1.022-0.226-1.366-0.588c0.004,0.117,0.007,0.168,0.01,0.19
					c0.64,6.49,3.019,11.326,7.07,14.378c3.474,2.641,8.019,3.979,13.509,3.979c5.871,0,10.807-1.917,14.671-5.698
					c3.75-3.694,5.651-8.215,5.651-13.438v-1.739c-0.057-3.413-0.9-6.482-2.509-9.117c-1.366-2.254-3.265-4.017-5.643-5.241
					c-0.39-0.201-0.646-0.581-0.685-1.019c-0.038-0.423,0.139-0.829,0.472-1.084c3.101-2.376,4.674-6.299,4.674-11.659
					c-0.028-4.602-1.715-8.566-5.015-11.783c-3.328-3.189-7.451-4.808-12.254-4.808c-5.165,0-9.329,1.588-12.377,4.718
					c-2.911,3.022-4.516,7.192-4.766,12.393l0.001,0.482h-0.495v-0.494c0.258-5.336,1.906-9.613,4.904-12.725
					c3.146-3.231,7.43-4.868,12.732-4.868c4.934,0,9.172,1.664,12.598,4.945c3.399,3.314,5.137,7.397,5.166,12.137
					c0,5.523-1.639,9.578-4.869,12.053c-0.201,0.154-0.303,0.391-0.279,0.647c0.023,0.269,0.18,0.501,0.418,0.624
					c2.461,1.266,4.426,3.091,5.84,5.423c1.654,2.711,2.521,5.863,2.58,9.37v1.743c0,5.36-1.951,10-5.8,13.79
					C567.755,90.577,562.702,92.541,556.698,92.541z"/>
			</g>
		</g>
		<g>
			<g>
				<path fill="#01EEBC" d="M548.231,42.41h-7.502c-1.137,0-2.057,0.921-2.057,2.057l0,0c0,0.671,0.543,1.215,1.215,1.215h8.344
					c0.67,0,1.214-0.544,1.214-1.215v-0.842C549.445,42.954,548.901,42.41,548.231,42.41z"/>
			</g>
			<g>
				<path fill="#1D1D1D" d="M548.518,45.928h-8.917c-0.648,0-1.176-0.527-1.176-1.175v-0.772c0-1.002,0.816-1.818,1.818-1.818h8.274
					c0.647,0,1.175,0.527,1.175,1.175v1.415C549.692,45.401,549.165,45.928,548.518,45.928z M540.243,42.657
					c-0.729,0-1.323,0.594-1.323,1.324v0.772c0,0.375,0.305,0.681,0.681,0.681h8.917c0.375,0,0.681-0.306,0.681-0.681v-1.415
					c0-0.375-0.306-0.681-0.681-0.681H540.243z"/>
			</g>
		</g>
		<g>
			<g>
				<g>
					<g>
						<g>
							<g>
								<path fill="#01EEBC" d="M545.759,70.458h-8.712c-0.671,0-1.216,0.544-1.216,1.215l0,0c0,1.197,0.971,2.168,2.168,2.168h7.76
									c0.672,0,1.216-0.544,1.216-1.216v-0.952C546.975,71.002,546.431,70.458,545.759,70.458z"/>
							</g>
						</g>
					</g>
				</g>
			</g>
			<g>
				<g>
					<g>
						<g>
							<g>
								<path fill="#1D1D1D" d="M546.046,74.088h-8.561c-1.048,0-1.901-0.853-1.901-1.901v-0.8c0-0.648,0.528-1.175,1.175-1.175
									h9.287c0.648,0,1.176,0.527,1.176,1.175v1.527C547.222,73.561,546.694,74.088,546.046,74.088z M536.759,70.705
									c-0.375,0-0.68,0.306-0.68,0.682v0.8c0,0.776,0.631,1.408,1.406,1.408h8.561c0.377,0,0.682-0.306,0.682-0.681v-1.527
									c0-0.376-0.305-0.682-0.682-0.682H536.759z"/>
							</g>
						</g>
					</g>
				</g>
			</g>
		</g>
	</g>
	<g>
		<g>
			<g>
				<path fill="#1D1D1B" d="M531.321,60.042c0,2.954-0.403,5.059-1.21,6.316c-0.808,1.257-2.196,1.885-4.169,1.885
					c-1.6,0-2.809-0.409-3.626-1.227l-1.763-1.763c0.788,0.773,1.979,1.16,3.57,1.16c1.964,0,3.35-0.626,4.156-1.88
					c0.809-1.253,1.211-3.36,1.211-6.322c0-3.504-0.58-5.833-1.74-6.985l1.83,1.819C530.741,54.206,531.321,56.539,531.321,60.042z
					 M521.831,62.502c-0.301-0.814-0.452-2.296-0.452-4.446c0-2.15,0.179-3.614,0.536-4.392c0.356-0.777,1.094-1.166,2.209-1.166
					c0.699,0,1.242,0.142,1.629,0.424s0.666,0.766,0.838,1.451c-0.246-0.03-0.462-0.045-0.648-0.045
					c-1.115,0-1.85,0.389-2.203,1.166s-0.532,2.167-0.535,4.168c-0.004,2.001,0.102,3.407,0.317,4.218
					C522.696,63.777,522.132,63.317,521.831,62.502z"/>
			</g>
			<g>
				<path fill="#1D1D1B" d="M557.04,66.213v-2.51l1.831,1.83v2.511h-6.997l-1.83-1.831H557.04z M552.678,58.145v-5.412h4.587v-2.521
					l1.83,1.83v2.522h-4.587v3.582H552.678z M552.678,63.703v-3.047h3.337v-2.511l1.83,1.83v2.511h-3.337v1.217H552.678z"/>
			</g>
			<g>
				<path fill="#1D1D1B" d="M562.296,66.191c1.189,0,2.135-0.342,2.834-1.026c0.699-0.685,1.049-1.659,1.049-2.924V50.211l1.83,1.83
					V64.06c0,1.272-0.35,2.25-1.049,2.935c-0.699,0.684-1.645,1.026-2.834,1.026h-0.692l-1.83-1.83H562.296z"/>
			</g>
			<g>
				<path fill="#1D1D1B" d="M574.29,66.213v-4.709h4.341v1.83h-2.511v4.709h-2.634l-1.83-1.831H574.29z M574.29,58.993v-3.616
					c0-1.845,0.721-2.767,2.164-2.767c1.176,0,1.879,0.618,2.109,1.852c-0.059-0.015-0.152-0.022-0.279-0.022
					c-1.449,0-2.172,0.922-2.164,2.767v1.786H574.29z M583.083,57.163v10.88h-2.622l-1.83-1.831h2.622v-10.88
					c0-1.659-0.494-3.013-1.484-4.062l1.83,1.819C582.589,54.117,583.083,55.474,583.083,57.163z"/>
			</g>
			<g>
				<path fill="#1D1D1B" d="M592.88,68.244c-1.467,0-2.594-0.379-3.382-1.138l-1.829-1.83c0.758,0.759,1.865,1.138,3.319,1.138
					s2.602-0.411,3.442-1.232c0.841-0.822,1.262-1.815,1.262-2.979c0-1.165-0.32-2.096-0.961-2.796l1.83,1.831
					c0.641,0.64,0.961,1.473,0.961,2.5s-0.302,1.994-0.904,2.901c-0.313,0.476-0.793,0.863-1.439,1.161
					C594.531,68.095,593.765,68.244,592.88,68.244z M593.136,62.118v0.19c-0.104-0.03-0.297-0.095-0.58-0.196
					c-0.283-0.1-0.498-0.176-0.646-0.229c-0.967-0.327-1.778-0.804-2.434-1.428l-1.662-1.674c0.596,0.558,1.425,1.006,2.488,1.345
					c1.064,0.338,1.803,0.638,2.215,0.898C592.93,61.285,593.136,61.649,593.136,62.118z M588.862,54.787
					c0-1.525,0.684-2.288,2.053-2.288c1.176,0,1.846,0.61,2.01,1.83h-0.18c-1.369,0-2.053,0.763-2.053,2.288
					c0,0.319,0.037,0.617,0.111,0.893c-0.625-0.291-1.104-0.642-1.439-1.055C589.03,56.042,588.862,55.486,588.862,54.787z
					 M590.915,63.903l-0.457-0.022c-0.596-0.074-0.991-0.297-1.188-0.669c-0.196-0.372-0.251-0.949-0.161-1.729l1.83,1.83
					C590.923,63.446,590.915,63.643,590.915,63.903z M595.368,56.292c0.334-2.328-0.029-4.036-1.094-5.122l1.83,1.808
					c1.064,1.064,1.429,2.779,1.094,5.145h-2.511l-1.83-1.83H595.368z"/>
			</g>
		</g>
		<g>
			<g>
				<path fill="#01EEBC" d="M524.121,66.686c-2.061,0-3.54-0.678-4.397-2.014c-0.832-1.297-1.256-3.477-1.256-6.478
					c0-3.043,0.411-5.162,1.256-6.478c0.857-1.336,2.337-2.014,4.397-2.014c2.06,0,3.539,0.678,4.397,2.014
					c0.833,1.298,1.255,3.478,1.255,6.478c0,3.001-0.422,5.181-1.255,6.478C527.66,66.008,526.181,66.686,524.121,66.686z
					 M524.121,52.771c-1.003,0-1.641,0.328-1.95,1.003c-0.338,0.737-0.51,2.228-0.51,4.431c0,2.2,0.182,3.685,0.539,4.413
					c0.332,0.673,0.96,1,1.921,1c0.96,0,1.589-0.327,1.92-1c0.358-0.727,0.54-2.211,0.54-4.413c0-2.203-0.172-3.694-0.51-4.431
					C525.761,53.099,525.124,52.771,524.121,52.771z"/>
			</g>
			<g>
				<path fill="#1D1D1B" d="M524.12,49.981c1.969,0,3.355,0.629,4.163,1.886c0.808,1.257,1.211,3.367,1.211,6.327
					c0,2.961-0.403,5.07-1.211,6.327c-0.808,1.258-2.194,1.886-4.163,1.886c-1.967,0-3.354-0.628-4.161-1.886
					c-0.808-1.257-1.212-3.366-1.212-6.327c0-2.96,0.404-5.07,1.212-6.327C520.766,50.61,522.153,49.981,524.12,49.981
					 M524.12,63.896c1.068,0,1.792-0.385,2.172-1.154c0.379-0.771,0.568-2.282,0.568-4.537c0-2.254-0.178-3.77-0.535-4.547
					s-1.092-1.166-2.205-1.166c-1.111,0-1.846,0.389-2.203,1.166s-0.535,2.293-0.535,4.547c0,2.254,0.189,3.766,0.568,4.537
					C522.329,63.511,523.054,63.896,524.12,63.896 M524.12,49.423c-2.16,0-3.719,0.721-4.631,2.143c-0.875,1.362-1.3,3.53-1.3,6.628
					c0,3.099,0.425,5.268,1.3,6.629c0.912,1.422,2.471,2.143,4.631,2.143c2.162,0,3.721-0.721,4.633-2.143
					c0.875-1.361,1.299-3.529,1.299-6.629c0-3.099-0.424-5.267-1.299-6.629C527.841,50.144,526.282,49.423,524.12,49.423
					L524.12,49.423z M524.12,63.338c-1.123,0-1.49-0.481-1.668-0.843c-0.234-0.474-0.512-1.603-0.512-4.29
					c0-2.694,0.263-3.833,0.484-4.314c0.165-0.361,0.521-0.841,1.695-0.841c1.176,0,1.531,0.479,1.697,0.841
					c0.221,0.48,0.484,1.62,0.484,4.314c0,2.688-0.278,3.816-0.512,4.29C525.612,62.857,525.245,63.338,524.12,63.338L524.12,63.338
					z"/>
			</g>
		</g>
		<g>
			<g>
				<path fill="#01EEBC" d="M550.046,66.486c-0.154,0-0.278-0.125-0.278-0.279V50.204c0-0.154,0.124-0.279,0.278-0.279h7.221
					c0.154,0,0.279,0.125,0.279,0.279v2.522c0,0.154-0.125,0.279-0.279,0.279h-4.307v4.854h3.057c0.154,0,0.279,0.125,0.279,0.279
					v2.511c0,0.154-0.125,0.279-0.279,0.279h-3.057v2.488h4.084c0.154,0,0.279,0.125,0.279,0.279v2.511
					c0,0.154-0.125,0.279-0.279,0.279H550.046z"/>
			</g>
			<g>
				<path fill="#1D1D1B" d="M557.267,50.205v2.521h-4.586v5.412h3.336v2.511h-3.336v3.047h4.362v2.511h-6.997V50.205H557.267
					 M557.267,49.646h-7.221c-0.308,0-0.558,0.25-0.558,0.559v16.002c0,0.308,0.25,0.558,0.558,0.558h6.997
					c0.309,0,0.559-0.25,0.559-0.558v-2.511c0-0.309-0.25-0.559-0.559-0.559h-3.805v-1.93h2.778c0.309,0,0.559-0.25,0.559-0.559
					v-2.511c0-0.309-0.25-0.559-0.559-0.559h-2.778v-4.295h4.028c0.309,0,0.559-0.25,0.559-0.559v-2.521
					C557.825,49.896,557.575,49.646,557.267,49.646L557.267,49.646z"/>
			</g>
		</g>
		<g>
			<g>
				<path fill="#01EEBC" d="M561.606,66.463c-0.154,0-0.279-0.125-0.279-0.279v-2.511c0-0.154,0.125-0.279,0.279-0.279h0.691
					c0.336,0,0.574-0.096,0.728-0.294c0.169-0.217,0.249-0.47,0.243-0.771V50.204c0-0.154,0.125-0.279,0.279-0.279h2.633
					c0.155,0,0.279,0.125,0.279,0.279v12.03c0,1.336-0.381,2.387-1.133,3.123c-0.75,0.734-1.77,1.106-3.029,1.106H561.606z"/>
			</g>
			<g>
				<path fill="#1D1D1B" d="M566.181,50.205v12.029c0,1.265-0.35,2.239-1.049,2.923c-0.699,0.685-1.645,1.027-2.834,1.027h-0.692
					v-2.511h0.692c0.424,0,0.74-0.134,0.948-0.402c0.208-0.268,0.31-0.584,0.302-0.949V50.205H566.181 M566.181,49.646h-2.633
					c-0.309,0-0.559,0.25-0.559,0.559v12.118c0.005,0.25-0.054,0.438-0.184,0.606c-0.063,0.08-0.183,0.186-0.508,0.186h-0.692
					c-0.308,0-0.558,0.25-0.558,0.559v2.511c0,0.309,0.25,0.559,0.558,0.559h0.692c1.336,0,2.421-0.399,3.225-1.187
					c0.808-0.79,1.217-1.908,1.217-3.322V50.205C566.739,49.896,566.489,49.646,566.181,49.646L566.181,49.646z"/>
			</g>
		</g>
		<g>
			<g>
				<path fill="#01EEBC" d="M578.634,66.486c-0.154,0-0.279-0.125-0.279-0.279v-4.43h-3.783v4.43c0,0.154-0.125,0.279-0.279,0.279
					h-2.633c-0.154,0-0.279-0.125-0.279-0.279v-10.88c0-1.664,0.471-3.029,1.399-4.06c0.937-1.039,2.176-1.565,3.684-1.565
					c1.509,0,2.745,0.527,3.679,1.566c0.924,1.029,1.393,2.396,1.393,4.059v10.88c0,0.154-0.124,0.279-0.278,0.279H578.634z
					 M578.354,58.707v-3.336c0-2.23-1.08-2.488-1.892-2.488s-1.892,0.258-1.892,2.488v3.336H578.354z"/>
			</g>
			<g>
				<path fill="#1D1D1B" d="M576.463,49.981c1.432,0,2.589,0.491,3.47,1.473c0.882,0.982,1.322,2.273,1.322,3.873v10.88h-2.621
					v-4.709h-4.342v4.709h-2.633v-10.88c0-1.6,0.441-2.891,1.328-3.873C573.872,50.472,575.03,49.981,576.463,49.981
					 M574.292,58.986h4.342v-3.616c0-1.845-0.725-2.767-2.171-2.767c-1.447,0-2.171,0.922-2.171,2.767V58.986 M576.463,49.423
					c-1.591,0-2.899,0.557-3.892,1.657c-0.976,1.083-1.471,2.511-1.471,4.247v10.88c0,0.308,0.25,0.558,0.559,0.558h2.633
					c0.309,0,0.559-0.25,0.559-0.558v-4.151h3.225v4.151c0,0.308,0.25,0.558,0.559,0.558h2.621c0.309,0,0.559-0.25,0.559-0.558
					v-10.88c0-1.734-0.492-3.163-1.465-4.246C579.36,49.981,578.054,49.423,576.463,49.423L576.463,49.423z M574.851,58.428v-3.058
					c0-1.958,0.861-2.209,1.612-2.209s1.612,0.251,1.612,2.209v3.058H574.851L574.851,58.428z"/>
			</g>
		</g>
		<g>
			<g>
				<path fill="#01EEBC" d="M591.052,66.686c-1.756,0-3.031-0.488-3.79-1.451c-0.748-0.948-1.065-2.222-0.94-3.782
					c0.012-0.145,0.133-0.257,0.278-0.257h2.511c0.079,0,0.154,0.033,0.207,0.092s0.079,0.137,0.071,0.215
					c-0.103,1.028,0.054,1.489,0.204,1.693c0.2,0.275,0.705,0.421,1.459,0.421c1.611,0,1.804-0.861,1.809-1.508
					c0-0.231,0-0.942-1.561-1.346c-1.205-0.312-2.35-0.828-3.404-1.533c-0.555-0.37-1.016-0.947-1.371-1.717
					c-0.35-0.76-0.527-1.68-0.527-2.733c0-1.479,0.432-2.706,1.283-3.647c0.857-0.95,2.127-1.431,3.771-1.431
					c1.654,0,2.924,0.563,3.775,1.672c0.844,1.098,1.119,2.764,0.82,4.95c-0.02,0.138-0.138,0.241-0.277,0.241h-2.51
					c-0.082,0-0.158-0.035-0.211-0.096s-0.077-0.142-0.066-0.222c0.177-1.285,0.113-2.206-0.189-2.736
					c-0.283-0.498-0.766-0.74-1.475-0.74c-1.211,0-1.775,0.638-1.775,2.009c0,0.717,0.205,1.267,0.625,1.681
					c0.441,0.435,0.979,0.764,1.598,0.979c0.666,0.232,1.334,0.477,2.006,0.734c0.715,0.273,1.33,0.733,1.832,1.365
					c0.511,0.643,0.77,1.481,0.77,2.494c0,1.004-0.32,1.994-0.951,2.944c-0.34,0.518-0.864,0.939-1.559,1.25
					C592.784,66.532,591.973,66.686,591.052,66.686z"/>
			</g>
			<g>
				<path fill="#1D1D1B" d="M591.052,49.981c1.57,0,2.755,0.521,3.555,1.563c0.799,1.042,1.055,2.622,0.764,4.742h-2.51
					c0.186-1.354,0.111-2.325-0.224-2.912c-0.335-0.588-0.908-0.882-1.719-0.882c-1.368,0-2.054,0.763-2.054,2.288
					c0,0.789,0.236,1.416,0.709,1.88s1.039,0.813,1.701,1.043c0.662,0.231,1.328,0.475,1.998,0.731
					c0.67,0.256,1.24,0.683,1.713,1.277c0.473,0.596,0.709,1.369,0.709,2.321s-0.302,1.882-0.904,2.79
					c-0.313,0.476-0.792,0.859-1.439,1.149c-0.646,0.29-1.414,0.435-2.299,0.435c-1.674,0-2.864-0.447-3.57-1.345
					c-0.707-0.896-1.002-2.092-0.882-3.587h2.511c-0.09,0.9-0.004,1.528,0.257,1.886c0.261,0.357,0.821,0.535,1.685,0.535
					c1.384,0,2.08-0.595,2.087-1.785c0-0.773-0.59-1.313-1.769-1.618c-1.18-0.305-2.285-0.803-3.32-1.495
					c-0.514-0.342-0.938-0.876-1.271-1.602c-0.335-0.726-0.502-1.597-0.502-2.617c0-1.414,0.402-2.567,1.211-3.459
					C588.294,50.427,589.481,49.981,591.052,49.981 M589.11,61.475h0.003 M591.052,49.423c-1.727,0-3.065,0.512-3.979,1.523
					c-0.899,0.994-1.354,2.284-1.354,3.833c0,1.095,0.186,2.054,0.553,2.851c0.378,0.818,0.872,1.434,1.471,1.832
					c1.08,0.723,2.254,1.252,3.489,1.572c1.351,0.349,1.351,0.897,1.351,1.077c-0.005,0.636-0.192,1.227-1.529,1.227
					c-0.912,0-1.166-0.214-1.234-0.306c-0.097-0.134-0.246-0.501-0.155-1.461c0.005-0.031,0.009-0.063,0.009-0.095
					c0-0.309-0.249-0.559-0.558-0.559h-0.003H586.6c-0.291,0-0.533,0.224-0.557,0.514c-0.13,1.633,0.206,2.972,0.999,3.979
					c0.815,1.033,2.164,1.557,4.01,1.557c0.961,0,1.811-0.163,2.527-0.484c0.743-0.333,1.308-0.789,1.678-1.353
					c0.66-0.994,0.996-2.037,0.996-3.096c0-1.077-0.279-1.975-0.83-2.668c-0.533-0.672-1.189-1.161-1.951-1.452
					c-0.671-0.258-1.349-0.505-2.014-0.736c-0.58-0.203-1.082-0.51-1.493-0.914c-0.364-0.359-0.542-0.844-0.542-1.483
					c0-1.524,0.756-1.729,1.495-1.729c0.8,0,1.087,0.342,1.233,0.6c0.186,0.327,0.364,1.036,0.155,2.56
					c-0.022,0.16,0.026,0.321,0.132,0.443s0.26,0.191,0.422,0.191h2.51c0.279,0,0.516-0.206,0.554-0.482
					c0.31-2.264,0.015-3.999-0.875-5.159C594.142,50.021,592.797,49.423,591.052,49.423L591.052,49.423z"/>
			</g>
		</g>
		<g>
			<g>
				<g>
					<g>
						<path fill="#1D1D1B" d="M539.046,68.021l-4.406-16.222c-0.115-0.399,0.227-0.399,0.523-0.399h3.794l2.125,10.903
							c0.022,0.111,0.206,0.111,0.228,0l2.057-10.549c0.068-0.354,0.251-0.354,0.661-0.354h3.213l-4.517,16.621c0,0-0.063,0-0.564,0
							h-2.553C539.105,68.021,539.046,68.021,539.046,68.021z"/>
					</g>
				</g>
			</g>
			<g>
				<g>
					<g>
						<path fill="#01EEBC" d="M537.296,65.995l-4.285-15.779c-0.113-0.399,0.229-0.399,0.524-0.399h2.575c0.41,0,0.592,0,0.66,0.354
							l2.37,10.549c0.022,0.111,0.206,0.111,0.228,0l2.371-10.549c0.067-0.354,0.25-0.354,0.66-0.354h2.574
							c0.297,0,0.639,0,0.525,0.399l-4.285,15.779c-0.091,0.354-0.182,0.443-0.684,0.443h-2.551
							C537.478,66.438,537.386,66.349,537.296,65.995z"/>
					</g>
					<g>
						<path fill="#1D1D1B" d="M540.53,66.712h-2.551c-0.6,0-0.822-0.151-0.95-0.647l-4.284-15.777
							c-0.059-0.206-0.037-0.382,0.065-0.518c0.172-0.228,0.479-0.228,0.725-0.228h2.575c0.402,0,0.82,0,0.93,0.578l2.215,9.853
							l2.215-9.862c0.109-0.569,0.526-0.569,0.93-0.569h2.574c0.247,0,0.555,0,0.725,0.228c0.104,0.136,0.125,0.312,0.064,0.522
							l-4.282,15.774C541.353,66.561,541.13,66.712,540.53,66.712z M533.267,50.106c0.002,0.008,0.005,0.02,0.01,0.034l4.285,15.782
							c0,0.001,0,0.002,0,0.004c0.061,0.236,0.061,0.236,0.418,0.236h2.551c0.356,0,0.356,0,0.418-0.237l4.284-15.781
							c0.015-0.053,0.013-0.073,0.013-0.073c-0.014,0.021-0.182,0.021-0.271,0.021h-2.574c-0.142,0-0.318,0-0.356,0.025l0,0
							c0,0-0.019,0.021-0.034,0.106l-2.371,10.557c-0.036,0.173-0.193,0.298-0.383,0.298s-0.348-0.125-0.385-0.303l-2.367-10.544
							c-0.02-0.095-0.037-0.115-0.038-0.116c-0.036-0.023-0.213-0.023-0.354-0.023h-2.575
							C533.461,50.092,533.335,50.092,533.267,50.106z M539.101,60.659c0,0.001,0,0.003-0.001,0.005L539.101,60.659z
							 M539.408,60.655l0.001,0.005C539.409,60.658,539.408,60.657,539.408,60.655z"/>
					</g>
				</g>
			</g>
		</g>
	</g>
</g>
<line fill="none" stroke="#1E1E1E" stroke-width="3" stroke-linecap="round" stroke-linejoin="round" stroke-miterlimit="10" stroke-dasharray="4,8" x1="15.907" y1="299.004" x2="82.679" y2="299.004"/>
<line fill="none" stroke="#1E1E1E" stroke-width="3" stroke-linecap="round" stroke-linejoin="round" stroke-miterlimit="10" stroke-dasharray="4,8" x1="244.002" y1="299.004" x2="309.775" y2="299.004"/>
<g>
	
		<polyline fill="none" stroke="#1E1E1E" stroke-width="3" stroke-linecap="round" stroke-linejoin="round" stroke-miterlimit="10" points="
		128.972,181.623 128.972,151.783 106.819,151.783 106.819,181.623 	"/>
	<g>
		<g>
			
				<polyline fill="#FFFFFF" stroke="#1E1E1E" stroke-width="3" stroke-linecap="round" stroke-linejoin="round" stroke-miterlimit="10" points="
				229.001,231.763 229.001,300.409 98.047,300.409 98.047,231.763 			"/>
			
				<polyline fill="none" stroke="#1E1E1E" stroke-width="3" stroke-linecap="round" stroke-linejoin="round" stroke-miterlimit="10" points="
				147.254,183.387 89.179,183.387 89.179,239.816 163.524,167.578 237.869,239.816 237.869,182.91 179.446,183.068 			"/>
			<circle fill="#5724BA" cx="163.524" cy="205.763" r="9.624"/>
			
				<polyline fill="none" stroke="#1E1E1E" stroke-width="3" stroke-linecap="round" stroke-linejoin="round" stroke-miterlimit="10" points="
				150.322,300.409 150.322,247.811 176.726,247.811 176.726,300.409 			"/>
			<g>
				<g>
					<polyline fill="#01EEBC" points="112.663,269.896 112.663,247.811 134.749,247.811 134.749,269.896 					"/>
					
						<line fill="none" stroke="#1E1E1E" stroke-width="3" stroke-linecap="round" stroke-linejoin="round" stroke-miterlimit="10" x1="108.819" y1="269.896" x2="138.592" y2="269.896"/>
				</g>
				<g>
					<polyline fill="#01EEBC" points="192.299,269.896 192.299,247.811 214.386,247.811 214.386,269.896 					"/>
					
						<line fill="none" stroke="#1E1E1E" stroke-width="3" stroke-linecap="round" stroke-linejoin="round" stroke-miterlimit="10" x1="188.456" y1="269.896" x2="218.229" y2="269.896"/>
				</g>
			</g>
			
				<line fill="none" stroke="#1E1E1E" stroke-width="3" stroke-linecap="round" stroke-linejoin="round" stroke-miterlimit="10" x1="176.726" y1="275.859" x2="170.827" y2="275.859"/>
		</g>
	</g>
</g>
<line fill="none" stroke="#1E1E1E" stroke-width="3" stroke-linecap="round" stroke-linejoin="round" stroke-miterlimit="10" x1="106.819" y1="160.448" x2="128.972" y2="160.448"/>
</svg>
