<?xml version="1.0" encoding="utf-8"?>
<!-- Generator: Adobe Illustrator 16.0.0, SVG Export Plug-In . SVG Version: 6.00 Build 0)  -->
<!DOCTYPE svg PUBLIC "-//W3C//DTD SVG 1.1//EN" "http://www.w3.org/Graphics/SVG/1.1/DTD/svg11.dtd">
<svg version="1.1" id="Layer_1" xmlns="http://www.w3.org/2000/svg" xmlns:xlink="http://www.w3.org/1999/xlink" x="0px" y="0px"
	 width="114.984px" height="96.887px" viewBox="0 0 114.984 96.887" enable-background="new 0 0 114.984 96.887"
	 xml:space="preserve">
<g>
	<g>
		<g>
			<g>
				<path fill="#F7DF03" d="M36.056,24.603L36.056,24.603c0.537-5.214,2.228-9.24,5.129-12.253c3.341-3.433,7.849-5.1,13.78-5.1
					c5.482,0,9.976,1.752,13.703,5.322c3.686,3.594,5.492,7.837,5.523,12.942c0,8.944-3.393,11.847-5.943,13.252
					c-1.896,1.045-3.018,3.095-2.871,5.257c0.146,2.161,1.531,4.041,3.553,4.822c3.414,1.318,5.93,3.371,7.697,6.291
					c1.807,2.959,2.717,6.307,2.787,10.236v2.412c0,6.027-2.107,11.033-6.43,15.291c-4.523,4.426-10.123,6.576-17.118,6.576
					c-6.697,0-11.918-1.494-15.981-4.582c-4.429-3.338-7.008-8.547-7.876-15.969l0,0h8.62c1.278,0,1.368-0.459,1.368-1.736l0,0
					c0.48,4.563,2.221,7.906,5.224,10.027c2.162,1.641,4.763,2.441,7.806,2.4c3.643,0,6.583-1,8.826-3.002
					c2.602-2.281,3.902-5.604,3.902-9.967v-1.74c-0.08-4.084-1.301-7.236-3.662-9.457c-2.361-2.223-5.845-3.332-10.447-3.332
					c-1.802,0-2.702-0.762-2.702-2.283V39.985c0-1.72,0.8-2.582,2.401-2.582c6.605,0,9.927-3.542,9.966-10.627
					c0-2.802-0.82-5.143-2.46-7.025c-1.682-1.881-3.843-2.821-6.485-2.821c-2.522,0-4.544,0.79-6.064,2.371
					c-1.522,1.582-2.423,3.833-2.702,6.755"/>
			</g>
			<g>
				<path fill="#1D1D1D" d="M55.866,90.002c-6.776,0-12.073-1.521-16.193-4.654c-4.514-3.4-7.135-8.701-8.013-16.205l-0.045-0.391
					h9.013c0.962,0,1.019-0.156,1.019-1.387l0.697-0.037c0.468,4.438,2.175,7.729,5.078,9.779c2.098,1.592,4.643,2.361,7.6,2.336
					c3.542,0,6.431-0.98,8.597-2.912c2.514-2.205,3.785-5.471,3.785-9.707v-1.74c-0.078-3.959-1.273-7.059-3.551-9.203
					c-2.285-2.148-5.719-3.236-10.208-3.236c-2.523,0-3.053-1.432-3.053-2.632V39.985c0-1.917,0.952-2.931,2.752-2.931
					c6.433,0,9.58-3.363,9.617-10.28c0-2.699-0.799-4.985-2.375-6.793c-1.602-1.792-3.695-2.703-6.221-2.703
					c-2.412,0-4.368,0.762-5.813,2.265c-1.458,1.515-2.336,3.718-2.606,6.545l-0.696-0.066c0.287-2.989,1.228-5.332,2.799-6.964
					c1.582-1.646,3.707-2.479,6.316-2.479c2.733,0,5.003,0.989,6.744,2.939c1.693,1.942,2.553,4.383,2.553,7.258
					c-0.043,7.284-3.513,10.977-10.318,10.977c-1.4,0-2.052,0.709-2.052,2.232v10.027c0,0.83,0.243,1.933,2.353,1.933
					c4.673,0,8.269,1.152,10.687,3.428c2.42,2.277,3.689,5.541,3.773,9.703v1.748c0,4.447-1.355,7.889-4.023,10.23
					c-2.295,2.049-5.341,3.088-9.056,3.088c-3.087,0.049-5.803-0.789-8.018-2.473c-2.675-1.889-4.392-4.764-5.11-8.557
					c-0.255,0.221-0.652,0.338-1.271,0.338h-8.226c0.898,7.098,3.417,12.117,7.693,15.34c3.995,3.037,9.154,4.512,15.771,4.512
					c6.899,0,12.419-2.119,16.874-6.477c4.254-4.193,6.324-9.113,6.324-15.041v-2.412c-0.068-3.859-0.963-7.15-2.736-10.055
					c-1.725-2.846-4.186-4.857-7.525-6.146c-2.141-0.827-3.621-2.839-3.775-5.125c-0.154-2.288,1.043-4.48,3.051-5.586
					c2.475-1.362,5.762-4.188,5.762-12.946c-0.029-5.014-1.801-9.167-5.416-12.692C64.756,9.309,60.353,7.6,54.965,7.6
					c-5.832,0-10.258,1.633-13.53,4.993c-2.856,2.967-4.503,6.907-5.032,12.045l-0.695-0.072c0.545-5.3,2.254-9.375,5.225-12.459
					c3.412-3.504,8.001-5.207,14.032-5.207c5.577,0,10.138,1.772,13.943,5.418c3.76,3.666,5.602,7.98,5.633,13.193
					c0,9.13-3.496,12.112-6.123,13.56c-1.771,0.976-2.828,2.91-2.691,4.927c0.135,2.017,1.441,3.791,3.328,4.52
					c3.488,1.348,6.064,3.453,7.871,6.435c1.84,3.012,2.768,6.418,2.838,10.412v2.418c0,6.125-2.137,11.207-6.535,15.539
					C68.637,87.818,62.957,90.002,55.866,90.002z"/>
			</g>
		</g>
		<g>
			<g>
				<g>
					<path fill="#1D1D1D" d="M54.806,80.145c-3.011,0-5.634-0.832-7.797-2.475c-3.063-2.164-4.871-5.621-5.36-10.27l0.695-0.072
						c0.468,4.438,2.175,7.729,5.078,9.779c2.099,1.592,4.643,2.361,7.6,2.336c3.541,0,6.431-0.98,8.597-2.912
						c2.514-2.205,3.785-5.471,3.785-9.707v-1.74c-0.078-3.961-1.273-7.059-3.551-9.203c-2.285-2.148-5.719-3.236-10.208-3.236
						c-2.523,0-3.053-1.432-3.053-2.632V39.985c0-1.917,0.952-2.931,2.752-2.931c6.433,0,9.58-3.363,9.617-10.28
						c0-2.699-0.799-4.985-2.375-6.793c-1.602-1.792-3.695-2.703-6.221-2.703c-2.412,0-4.368,0.762-5.813,2.264
						c-1.458,1.516-2.336,3.719-2.606,6.546l-0.027,0.952l-0.698-0.017l0.028-0.979c0.288-3.011,1.229-5.354,2.8-6.986
						c1.582-1.646,3.707-2.479,6.316-2.479c2.733,0,5.003,0.989,6.744,2.939c1.693,1.942,2.553,4.383,2.553,7.258
						c-0.043,7.284-3.513,10.977-10.318,10.977c-1.4,0-2.052,0.709-2.052,2.232v10.027c0,0.83,0.243,1.933,2.353,1.933
						c4.673,0,8.269,1.152,10.687,3.428c2.42,2.277,3.689,5.541,3.773,9.703v1.748c0,4.447-1.355,7.889-4.023,10.23
						c-2.295,2.049-5.343,3.088-9.056,3.088C54.953,80.145,54.879,80.145,54.806,80.145z"/>
				</g>
			</g>
		</g>
		<g>
			<g>
				<path fill="#5724BA" d="M30.348,26.918L30.348,26.918v0.016v-0.7c0.36-7.484,2.642-13.409,6.845-17.772
					C41.596,3.94,47.52,1.677,54.966,1.677c6.925,0,12.788,2.303,17.593,6.905c4.762,4.644,7.164,10.288,7.205,16.932
					c0,7.739-2.252,13.333-6.754,16.783c-0.824,0.631-0.674,1.914,0.248,2.388c3.441,1.771,6.15,4.286,8.127,7.548
					c2.32,3.803,3.521,8.166,3.602,13.09v2.461c0,7.525-2.701,13.951-8.105,19.273c-5.564,5.445-12.568,8.166-21.015,8.166
					c-7.886,0-14.331-1.9-19.334-5.703c-5.845-4.404-9.227-11.268-10.147-20.596c-0.021-0.195-0.038-1.279-0.047-2.35v0.051v0.158
					c0,1.279,1.037,2.316,2.315,2.316h3.356l0,0c0.868,7.422,3.447,12.631,7.876,15.969c4.063,3.088,9.284,4.582,15.981,4.582
					c6.995,0,12.595-2.15,17.118-6.576c4.322-4.258,6.43-9.264,6.43-15.291v-2.412c-0.07-3.93-0.98-7.279-2.787-10.236
					c-1.768-2.92-4.283-4.972-7.697-6.291c-2.021-0.781-3.406-2.661-3.553-4.822c-0.146-2.162,0.975-4.212,2.871-5.257
					c2.551-1.405,5.943-4.309,5.943-13.252c-0.031-5.104-1.838-9.349-5.523-12.942c-3.727-3.57-8.22-5.323-13.703-5.323
					c-5.932,0-10.439,1.668-13.78,5.101c-2.901,3.013-4.592,7.039-5.129,12.253l0,0"/>
			</g>
			<g>
				<path fill="#1D1D1D" d="M55.866,95.574c-7.928,0-14.503-1.943-19.546-5.775c-5.897-4.441-9.357-11.453-10.284-20.838
					c-0.011-0.102-0.028-0.432-0.045-2.037c-0.002-0.047-0.003-0.092-0.003-0.139l0-0.158c0-0.016,0-0.031,0-0.047l0.7-0.008
					c0.001,0.115,0.002,0.225,0.002,0.328c0.06,1.029,0.917,1.85,1.963,1.85h3.666l0.037,0.311c0.854,7.303,3.386,12.449,7.74,15.73
					c3.995,3.037,9.154,4.512,15.771,4.512c6.899,0,12.419-2.119,16.874-6.477c4.254-4.193,6.324-9.113,6.324-15.041v-2.412
					c-0.068-3.859-0.963-7.15-2.736-10.055c-1.725-2.846-4.186-4.857-7.525-6.146c-2.139-0.827-3.621-2.839-3.775-5.125
					c-0.154-2.287,1.043-4.48,3.051-5.586c2.475-1.362,5.762-4.187,5.762-12.946c-0.029-5.014-1.801-9.167-5.416-12.692
					C64.756,9.309,60.353,7.6,54.965,7.6c-5.832,0-10.258,1.633-13.53,4.993c-2.856,2.967-4.503,6.907-5.032,12.045l-0.695-0.072
					c0.545-5.3,2.254-9.375,5.225-12.459c3.412-3.504,8.001-5.207,14.032-5.207c5.577,0,10.138,1.772,13.943,5.418
					c3.76,3.666,5.602,7.98,5.633,13.193c0,9.131-3.496,12.112-6.123,13.56c-1.771,0.976-2.828,2.91-2.691,4.927
					c0.135,2.017,1.441,3.791,3.328,4.52c3.488,1.348,6.064,3.453,7.871,6.435c1.84,3.012,2.768,6.418,2.838,10.412v2.418
					c0,6.125-2.137,11.207-6.535,15.539c-4.592,4.494-10.271,6.678-17.362,6.678c-6.776,0-12.073-1.521-16.193-4.654
					c-4.452-3.354-7.063-8.557-7.976-15.898h-3.045c-0.761,0-1.447-0.318-1.934-0.832c0.005,0.166,0.01,0.24,0.014,0.27
					c0.906,9.188,4.274,16.035,10.01,20.355c4.918,3.738,11.353,5.633,19.124,5.633c8.312,0,15.3-2.713,20.771-8.066
					c5.309-5.229,8-11.629,8-19.023v-2.461c-0.078-4.832-1.273-9.178-3.551-12.908c-1.934-3.191-4.621-5.686-7.988-7.419
					c-0.553-0.284-0.914-0.823-0.971-1.442c-0.053-0.6,0.197-1.173,0.67-1.534c4.391-3.365,6.615-8.918,6.615-16.506
					C79.373,19,76.984,13.387,72.314,8.833c-4.713-4.515-10.551-6.806-17.349-6.806c-7.312,0-13.207,2.247-17.522,6.68
					c-4.122,4.279-6.392,10.183-6.747,17.545l0.001,0.683h-0.7v-0.7c0.363-7.554,2.699-13.609,6.943-18.015
					c4.452-4.573,10.517-6.892,18.024-6.892c6.984,0,12.986,2.355,17.833,7.001c4.814,4.692,7.273,10.472,7.314,17.183
					c0,7.82-2.318,13.56-6.893,17.063c-0.285,0.218-0.43,0.552-0.396,0.917c0.035,0.379,0.256,0.709,0.592,0.883
					c3.486,1.792,6.266,4.375,8.268,7.677c2.342,3.838,3.572,8.301,3.654,13.266v2.467c0,7.588-2.764,14.156-8.213,19.523
					C71.52,92.793,64.367,95.574,55.866,95.574z"/>
			</g>
		</g>
		<g>
			<g>
				<path fill="#01EEBC" d="M44.622,24.603H32.002c-0.914,0-1.655,0.741-1.655,1.655v1.999c0,0.54,0.438,0.977,0.978,0.977h13.296
					c0.54,0,0.978-0.437,0.978-0.977V25.58C45.599,25.041,45.162,24.603,44.622,24.603z"/>
			</g>
			<g>
				<path fill="#1D1D1D" d="M44.286,29.583H31.661c-0.917,0-1.664-0.746-1.664-1.663v-1.093c0-1.419,1.155-2.574,2.575-2.574h11.713
					c0.917,0,1.663,0.746,1.663,1.663v2.003C45.948,28.837,45.202,29.583,44.286,29.583z M32.572,24.953
					c-1.034,0-1.875,0.841-1.875,1.875v1.093c0,0.531,0.432,0.964,0.964,0.964h12.625c0.531,0,0.962-0.434,0.962-0.964v-2.003
					c0-0.531-0.431-0.964-0.962-0.964H32.572z"/>
			</g>
		</g>
		<g>
			<g>
				<g>
					<g>
						<g>
							<g>
								<path fill="#01EEBC" d="M41.123,64.311h-13.82c-0.54,0-0.978,0.438-0.978,0.979v2.068c0,0.963,0.781,1.744,1.744,1.744
									h13.054c0.54,0,0.978-0.439,0.978-0.979v-2.834C42.101,64.748,41.663,64.311,41.123,64.311z"/>
							</g>
						</g>
					</g>
				</g>
			</g>
			<g>
				<g>
					<g>
						<g>
							<g>
								<path fill="#1D1D1D" d="M40.788,69.449h-12.12c-1.484,0-2.692-1.207-2.692-2.691v-1.133c0-0.918,0.747-1.664,1.664-1.664
									h13.149c0.917,0,1.664,0.746,1.664,1.664v2.162C42.451,68.703,41.704,69.449,40.788,69.449z M27.639,64.66
									c-0.532,0-0.963,0.434-0.963,0.965v1.133c0,1.1,0.894,1.992,1.992,1.992h12.12c0.532,0,0.964-0.432,0.964-0.963v-2.162
									c0-0.531-0.432-0.965-0.964-0.965H27.639z"/>
							</g>
						</g>
					</g>
				</g>
			</g>
		</g>
	</g>
	<g>
		<g>
			<g>
				<path fill="#1D1D1B" d="M19.941,49.565c0,4.181-0.572,7.162-1.714,8.943c-1.143,1.779-3.11,2.67-5.901,2.67
					c-2.264,0-3.976-0.58-5.134-1.738l-2.496-2.496c1.116,1.096,2.801,1.643,5.055,1.643c2.78,0,4.742-0.887,5.885-2.662
					c1.143-1.775,1.714-4.758,1.714-8.95c0-4.96-0.822-8.257-2.465-9.89l2.591,2.575C19.119,41.303,19.941,44.605,19.941,49.565z
					 M6.504,53.049c-0.427-1.154-0.64-3.251-0.64-6.296c0-3.043,0.252-5.116,0.758-6.217c0.506-1.1,1.549-1.651,3.128-1.651
					c0.99,0,1.759,0.201,2.307,0.601c0.547,0.4,0.942,1.085,1.185,2.054c-0.348-0.042-0.653-0.063-0.917-0.063
					c-1.58,0-2.62,0.551-3.12,1.651c-0.501,1.101-0.753,3.067-0.759,5.9C8.442,51.861,8.592,53.852,8.898,55
					C7.729,54.852,6.931,54.201,6.504,53.049z"/>
			</g>
			<g>
				<path fill="#1D1D1B" d="M56.352,58.301v-3.555l2.591,2.592v3.555h-9.905l-2.591-2.592H56.352z M50.175,46.879v-7.662h6.493
					v-3.57l2.591,2.591v3.57h-6.493v5.071H50.175z M50.175,54.746v-4.312h4.723v-3.555l2.591,2.591v3.555h-4.723v1.721H50.175z"/>
			</g>
			<g>
				<path fill="#1D1D1B" d="M63.791,58.27c1.686,0,3.023-0.484,4.012-1.453c0.99-0.969,1.486-2.35,1.486-4.139V35.647l2.59,2.591
					v17.014c0,1.801-0.494,3.186-1.484,4.156c-0.99,0.969-2.328,1.453-4.012,1.453h-0.98l-2.592-2.592H63.791z"/>
			</g>
			<g>
				<path fill="#1D1D1B" d="M80.771,58.301v-6.666h6.146v2.592h-3.555v6.666h-3.729l-2.592-2.592H80.771z M80.771,48.081v-5.119
					c0-2.611,1.021-3.918,3.064-3.918c1.664,0,2.66,0.874,2.986,2.622c-0.084-0.021-0.215-0.031-0.395-0.031
					c-2.055,0-3.076,1.306-3.064,3.918v2.528H80.771z M93.221,45.489v15.404h-3.713l-2.59-2.592h3.711V42.899
					c0-2.349-0.699-4.267-2.1-5.751l2.59,2.575C92.52,41.176,93.221,43.099,93.221,45.489z"/>
			</g>
			<g>
				<path fill="#1D1D1B" d="M107.09,61.178c-2.076,0-3.67-0.537-4.787-1.613l-2.59-2.59c1.072,1.074,2.641,1.611,4.699,1.611
					s3.684-0.582,4.873-1.746c1.191-1.164,1.785-2.568,1.785-4.217c0-1.649-0.453-2.968-1.357-3.958l2.59,2.591
					c0.906,0.906,1.359,2.086,1.359,3.539s-0.428,2.822-1.279,4.107c-0.443,0.674-1.123,1.221-2.039,1.643
					C109.428,60.965,108.344,61.178,107.09,61.178z M107.453,52.504v0.268c-0.148-0.041-0.422-0.133-0.822-0.275
					s-0.705-0.25-0.916-0.324c-1.369-0.463-2.518-1.137-3.443-2.022l-2.354-2.37c0.842,0.79,2.016,1.424,3.521,1.903
					c1.506,0.479,2.553,0.903,3.137,1.272C107.16,51.324,107.453,51.84,107.453,52.504z M101.402,42.124
					c0-2.159,0.969-3.239,2.906-3.239c1.664,0,2.613,0.864,2.844,2.591H106.9c-1.938,0-2.908,1.08-2.908,3.239
					c0,0.453,0.055,0.874,0.158,1.264c-0.883-0.411-1.563-0.908-2.037-1.493C101.639,43.901,101.402,43.114,101.402,42.124z
					 M104.309,55.031L103.662,55c-0.844-0.105-1.404-0.422-1.684-0.949c-0.279-0.525-0.355-1.342-0.229-2.447l2.592,2.59
					C104.32,54.383,104.309,54.662,104.309,55.031z M110.613,44.257c0.473-3.297-0.043-5.714-1.549-7.252l2.592,2.56
					c1.506,1.506,2.021,3.934,1.547,7.283h-3.555l-2.59-2.591H110.613z"/>
			</g>
		</g>
		<g>
			<g>
				<path fill="#01EEBC" d="M9.747,58.971c-2.917,0-5.011-0.959-6.226-2.852c-1.179-1.836-1.777-4.922-1.777-9.17
					c0-4.309,0.582-7.308,1.777-9.171c1.215-1.892,3.309-2.852,6.226-2.852c2.916,0,5.01,0.959,6.226,2.852
					c1.179,1.837,1.777,4.923,1.777,9.171c0,4.249-0.598,7.334-1.777,9.17C14.757,58.012,12.663,58.971,9.747,58.971z M9.747,39.271
					c-1.419,0-2.322,0.465-2.761,1.42c-0.479,1.043-0.722,3.154-0.722,6.273c0,3.114,0.258,5.217,0.765,6.247
					c0.47,0.953,1.358,1.416,2.719,1.416c1.36,0,2.249-0.463,2.718-1.416c0.507-1.029,0.765-3.13,0.765-6.247
					c0-3.119-0.243-5.229-0.722-6.273C12.069,39.736,11.166,39.271,9.747,39.271z"/>
			</g>
			<g>
				<path fill="#1D1D1B" d="M9.747,35.321c2.786,0,4.75,0.891,5.893,2.67c1.143,1.78,1.714,4.767,1.714,8.958
					c0,4.192-0.571,7.178-1.714,8.958s-3.107,2.67-5.893,2.67c-2.786,0-4.75-0.891-5.893-2.67c-1.143-1.779-1.715-4.766-1.715-8.958
					c0-4.191,0.572-7.178,1.715-8.958C4.996,36.211,6.96,35.321,9.747,35.321 M9.747,55.021c1.511,0,2.536-0.545,3.072-1.635
					c0.538-1.09,0.806-3.231,0.806-6.422c0-3.191-0.252-5.337-0.758-6.438c-0.506-1.101-1.546-1.651-3.12-1.651
					c-1.575,0-2.615,0.551-3.121,1.651c-0.505,1.101-0.758,3.247-0.758,6.438c0,3.191,0.269,5.333,0.806,6.422
					C7.21,54.477,8.235,55.021,9.747,55.021 M9.747,34.531c-3.06,0-5.266,1.021-6.558,3.033c-1.238,1.928-1.839,4.998-1.839,9.385
					c0,4.387,0.602,7.458,1.839,9.385c1.292,2.012,3.498,3.033,6.558,3.033c3.059,0,5.265-1.021,6.558-3.033
					c1.238-1.928,1.839-4.998,1.839-9.385c0-4.387-0.602-7.457-1.839-9.385C15.012,35.551,12.805,34.531,9.747,34.531L9.747,34.531z
					 M9.747,54.23c-1.592,0-2.111-0.682-2.364-1.193c-0.331-0.67-0.725-2.269-0.725-6.073c0-3.813,0.374-5.427,0.686-6.107
					c0.235-0.511,0.739-1.191,2.402-1.191c1.663,0,2.167,0.68,2.402,1.191c0.313,0.681,0.686,2.294,0.686,6.107
					c0,3.806-0.394,5.403-0.724,6.073C11.857,53.549,11.338,54.23,9.747,54.23L9.747,54.23z"/>
			</g>
		</g>
		<g>
			<g>
				<path fill="#01EEBC" d="M46.45,58.688c-0.219,0-0.396-0.178-0.396-0.396V35.637c0-0.218,0.177-0.396,0.396-0.396h10.221
					c0.219,0,0.396,0.177,0.396,0.396v3.57c0,0.218-0.177,0.395-0.396,0.395h-6.098v6.872h4.328c0.219,0,0.395,0.177,0.395,0.395
					v3.555c0,0.219-0.176,0.395-0.395,0.395h-4.328v3.523h5.782c0.219,0,0.396,0.178,0.396,0.396v3.553
					c0,0.219-0.177,0.396-0.396,0.396H46.45z"/>
			</g>
			<g>
				<path fill="#1D1D1B" d="M56.671,35.637v3.57h-6.493v7.662h4.724v3.555h-4.724v4.314h6.177v3.553H46.45V35.637H56.671
					 M56.671,34.847H46.45c-0.437,0-0.791,0.354-0.791,0.791v22.654c0,0.438,0.354,0.791,0.791,0.791h9.905
					c0.437,0,0.791-0.354,0.791-0.791v-3.553c0-0.438-0.354-0.791-0.791-0.791h-5.387v-2.732h3.933c0.437,0,0.791-0.354,0.791-0.791
					V46.87c0-0.437-0.354-0.79-0.791-0.79h-3.933v-6.081h5.703c0.437,0,0.791-0.354,0.791-0.791v-3.57
					C57.462,35.201,57.108,34.847,56.671,34.847L56.671,34.847z"/>
			</g>
		</g>
		<g>
			<g>
				<path fill="#01EEBC" d="M62.814,58.656c-0.219,0-0.395-0.178-0.395-0.396v-3.555c0-0.217,0.176-0.395,0.395-0.395h0.979
					c0.477,0,0.814-0.137,1.031-0.416c0.24-0.309,0.354-0.666,0.344-1.094V35.637c0-0.218,0.178-0.396,0.396-0.396h3.729
					c0.219,0,0.395,0.177,0.395,0.396v17.031c0,1.891-0.539,3.379-1.604,4.422c-1.063,1.039-2.506,1.566-4.291,1.566H62.814z"/>
			</g>
			<g>
				<path fill="#1D1D1B" d="M69.293,35.637v17.031c0,1.789-0.496,3.17-1.486,4.139s-2.328,1.453-4.012,1.453h-0.98v-3.555h0.98
					c0.6,0,1.047-0.189,1.342-0.568s0.438-0.826,0.428-1.342V35.637H69.293 M69.293,34.847h-3.729c-0.438,0-0.791,0.354-0.791,0.791
					v17.158c0.006,0.352-0.076,0.619-0.26,0.855c-0.088,0.115-0.26,0.264-0.719,0.264h-0.98c-0.436,0-0.791,0.355-0.791,0.791v3.555
					c0,0.438,0.355,0.791,0.791,0.791h0.98c1.891,0,3.428-0.564,4.564-1.68c1.145-1.119,1.723-2.701,1.723-4.703V35.637
					C70.082,35.201,69.729,34.847,69.293,34.847L69.293,34.847z"/>
			</g>
		</g>
		<g>
			<g>
				<path fill="#01EEBC" d="M86.92,58.688c-0.217,0-0.395-0.178-0.395-0.396V52.02H81.17v6.271c0,0.219-0.176,0.396-0.395,0.396
					h-3.729c-0.219,0-0.395-0.178-0.395-0.396V42.889c0-2.355,0.666-4.289,1.98-5.747c1.326-1.47,3.08-2.216,5.215-2.216
					c2.137,0,3.887,0.746,5.209,2.217c1.309,1.458,1.973,3.392,1.973,5.746v15.402c0,0.219-0.178,0.396-0.396,0.396H86.92z
					 M86.525,47.675v-4.724c0-3.158-1.527-3.522-2.678-3.522c-1.148,0-2.678,0.365-2.678,3.522v4.724H86.525z"/>
			</g>
			<g>
				<path fill="#1D1D1B" d="M83.848,35.321c2.027,0,3.666,0.695,4.914,2.086s1.871,3.218,1.871,5.482v15.402H86.92v-6.666h-6.145
					v6.666h-3.729V42.889c0-2.264,0.627-4.091,1.879-5.482C80.18,36.016,81.82,35.321,83.848,35.321 M80.775,48.071h6.145v-5.119
					c0-2.612-1.023-3.918-3.072-3.918s-3.072,1.306-3.072,3.918V48.071 M83.848,34.531c-2.252,0-4.104,0.79-5.508,2.347
					c-1.383,1.533-2.084,3.556-2.084,6.011v15.402c0,0.438,0.354,0.791,0.791,0.791h3.729c0.436,0,0.791-0.354,0.791-0.791v-5.875
					h4.564v5.875c0,0.438,0.354,0.791,0.789,0.791h3.713c0.438,0,0.791-0.354,0.791-0.791V42.889c0-2.455-0.697-4.477-2.074-6.01
					C87.951,35.321,86.1,34.531,83.848,34.531L83.848,34.531z M81.566,47.28v-4.328c0-2.771,1.219-3.127,2.281-3.127
					s2.283,0.356,2.283,3.127v4.328H81.566L81.566,47.28z"/>
			</g>
		</g>
		<g>
			<g>
				<path fill="#01EEBC" d="M104.502,58.971c-2.484,0-4.291-0.691-5.365-2.055c-1.061-1.342-1.508-3.145-1.332-5.354
					c0.018-0.205,0.189-0.365,0.395-0.365h3.555c0.111,0,0.217,0.049,0.293,0.131c0.074,0.082,0.111,0.193,0.1,0.305
					c-0.145,1.455,0.078,2.107,0.289,2.396c0.285,0.391,1,0.598,2.066,0.598c2.281,0,2.553-1.219,2.561-2.137
					c0-0.328,0-1.334-2.209-1.904c-1.705-0.442-3.328-1.172-4.82-2.171c-0.785-0.523-1.438-1.341-1.939-2.43
					c-0.496-1.075-0.748-2.378-0.748-3.87c0-2.093,0.611-3.831,1.816-5.163c1.215-1.344,3.012-2.025,5.34-2.025
					c2.342,0,4.141,0.796,5.346,2.366c1.193,1.555,1.584,3.913,1.16,7.009c-0.027,0.194-0.195,0.341-0.393,0.341h-3.553
					c-0.115,0-0.225-0.05-0.299-0.135c-0.074-0.087-0.109-0.201-0.094-0.314c0.25-1.819,0.16-3.123-0.268-3.874
					c-0.402-0.705-1.086-1.048-2.09-1.048c-1.713,0-2.512,0.903-2.512,2.844c0,1.015,0.289,1.794,0.885,2.38
					c0.625,0.614,1.387,1.08,2.262,1.385c0.941,0.328,1.889,0.674,2.84,1.039c1.012,0.387,1.883,1.038,2.594,1.933
					c0.723,0.91,1.09,2.098,1.09,3.531c0,1.422-0.455,2.824-1.348,4.168c-0.48,0.734-1.223,1.33-2.205,1.77
					C106.955,58.752,105.807,58.971,104.502,58.971z"/>
			</g>
			<g>
				<path fill="#1D1D1B" d="M104.502,35.321c2.223,0,3.9,0.738,5.031,2.212c1.133,1.475,1.494,3.713,1.084,6.714h-3.557
					c0.264-1.916,0.158-3.29-0.314-4.123c-0.475-0.832-1.285-1.248-2.434-1.248c-1.938,0-2.906,1.08-2.906,3.239
					c0,1.116,0.334,2.003,1.002,2.662c0.67,0.658,1.473,1.15,2.41,1.477s1.879,0.671,2.828,1.035
					c0.947,0.363,1.756,0.966,2.424,1.809c0.67,0.843,1.004,1.938,1.004,3.286s-0.426,2.666-1.279,3.949
					c-0.443,0.676-1.121,1.217-2.039,1.629c-0.916,0.41-2,0.615-3.254,0.615c-2.369,0-4.055-0.635-5.055-1.904
					c-1.002-1.27-1.418-2.961-1.248-5.078h3.555c-0.127,1.273-0.006,2.164,0.363,2.67c0.367,0.504,1.162,0.758,2.385,0.758
					c1.959,0,2.943-0.842,2.955-2.527c0-1.096-0.836-1.859-2.504-2.291c-1.67-0.432-3.236-1.138-4.701-2.117
					c-0.727-0.484-1.326-1.24-1.801-2.268c-0.473-1.026-0.711-2.262-0.711-3.704c0-2.001,0.572-3.634,1.715-4.897
					C100.598,35.953,102.279,35.321,104.502,35.321 M101.754,51.594h0.004 M104.502,34.531c-2.445,0-4.34,0.725-5.635,2.156
					c-1.271,1.408-1.918,3.234-1.918,5.428c0,1.55,0.264,2.908,0.785,4.035c0.533,1.157,1.234,2.03,2.08,2.594
					c1.529,1.024,3.193,1.772,4.939,2.225c1.912,0.495,1.912,1.27,1.912,1.526c-0.006,0.9-0.271,1.736-2.164,1.736
					c-1.291,0-1.652-0.303-1.746-0.434c-0.139-0.189-0.35-0.709-0.221-2.068c0.008-0.045,0.012-0.09,0.012-0.135
					c0-0.438-0.354-0.791-0.789-0.791h-0.004h-3.555c-0.412,0-0.756,0.316-0.789,0.728c-0.184,2.311,0.293,4.207,1.416,5.631
					c1.152,1.463,3.063,2.205,5.676,2.205c1.359,0,2.563-0.23,3.578-0.686c1.053-0.473,1.852-1.117,2.375-1.916
					c0.936-1.406,1.41-2.883,1.41-4.383c0-1.524-0.396-2.794-1.176-3.777c-0.756-0.952-1.684-1.644-2.76-2.056
					c-0.951-0.364-1.91-0.715-2.852-1.043c-0.822-0.286-1.533-0.721-2.115-1.293c-0.516-0.508-0.768-1.194-0.768-2.099
					c0-2.158,1.07-2.449,2.117-2.449c1.131,0,1.539,0.485,1.746,0.849c0.264,0.463,0.516,1.468,0.221,3.625
					c-0.031,0.226,0.037,0.455,0.186,0.626c0.15,0.172,0.369,0.271,0.596,0.271h3.557c0.395,0,0.729-0.292,0.783-0.684
					c0.438-3.204,0.021-5.661-1.24-7.303C108.877,35.378,106.973,34.531,104.502,34.531L104.502,34.531z"/>
			</g>
		</g>
		<g>
			<g>
				<g>
					<g>
						<path fill="#1D1D1B" d="M30.876,60.861l-6.239-22.966c-0.161-0.565,0.323-0.565,0.742-0.565h5.372l3.008,15.435
							c0.032,0.158,0.291,0.158,0.323,0l2.912-14.933c0.096-0.502,0.354-0.502,0.935-0.502h4.549l-6.395,23.531c0,0-0.09,0-0.8,0
							H31.67C30.96,60.861,30.876,60.861,30.876,60.861z"/>
					</g>
				</g>
			</g>
			<g>
				<g>
					<g>
						<path fill="#01EEBC" d="M28.397,57.992l-6.065-22.338c-0.162-0.564,0.322-0.564,0.742-0.564h3.646
							c0.581,0,0.839,0,0.936,0.502l3.355,14.934c0.033,0.157,0.291,0.157,0.323,0l3.355-14.934
							c0.097-0.502,0.355-0.502,0.936-0.502h3.646c0.42,0,0.903,0,0.742,0.564l-6.065,22.338c-0.129,0.502-0.258,0.627-0.968,0.627
							h-3.613C28.655,58.619,28.526,58.494,28.397,57.992z"/>
					</g>
					<g>
						<path fill="#1D1D1B" d="M32.979,59.01h-3.613c-0.849,0-1.164-0.215-1.344-0.918l-6.065-22.336
							c-0.083-0.292-0.053-0.542,0.092-0.734c0.244-0.322,0.678-0.322,1.026-0.322h3.645c0.571,0,1.161,0,1.318,0.818l3.134,13.949
							l3.137-13.961c0.154-0.806,0.744-0.806,1.315-0.806h3.645c0.349,0,0.783,0,1.026,0.322c0.146,0.193,0.176,0.442,0.09,0.739
							l-6.063,22.333C34.142,58.795,33.827,59.01,32.979,59.01z M22.694,35.499c0.003,0.012,0.007,0.028,0.013,0.048l6.067,22.344
							c0,0,0,0.002,0,0.004c0.086,0.336,0.086,0.336,0.591,0.336h3.613c0.503,0,0.503,0,0.59-0.336l6.065-22.343
							c0.021-0.074,0.019-0.103,0.019-0.103c-0.021,0.03-0.257,0.03-0.384,0.03h-3.645c-0.201,0-0.452,0-0.505,0.036l0,0
							c0,0-0.025,0.03-0.048,0.15l-3.357,14.946c-0.05,0.245-0.274,0.42-0.542,0.42c-0.267,0-0.491-0.175-0.543-0.427l-3.353-14.928
							c-0.026-0.134-0.052-0.163-0.053-0.164c-0.051-0.034-0.301-0.034-0.503-0.034h-3.645
							C22.969,35.479,22.79,35.479,22.694,35.499z M30.953,50.439c0,0.002,0,0.005-0.001,0.007L30.953,50.439z M31.389,50.432
							l0.001,0.008C31.39,50.437,31.389,50.435,31.389,50.432z"/>
					</g>
				</g>
			</g>
		</g>
	</g>
</g>
</svg>
