<?xml version="1.0" encoding="utf-8"?>
<!-- Generator: Adobe Illustrator 16.0.0, SVG Export Plug-In . SVG Version: 6.00 Build 0)  -->
<!DOCTYPE svg PUBLIC "-//W3C//DTD SVG 1.1//EN" "http://www.w3.org/Graphics/SVG/1.1/DTD/svg11.dtd">
<svg version="1.1" id="Layer_1" xmlns="http://www.w3.org/2000/svg" xmlns:xlink="http://www.w3.org/1999/xlink" x="0px" y="0px"
	 width="185px" height="155.474px" viewBox="0 0 185 155.474" enable-background="new 0 0 185 155.474" xml:space="preserve">
<g>
	<g>
		<g>
			<g>
				<path fill="#F7DF03" d="M57.497,38.888L57.497,38.888c0.873-8.487,3.626-15.042,8.35-19.946
					c5.438-5.586,12.775-8.302,22.431-8.302c8.924,0,16.239,2.852,22.305,8.664c6,5.85,8.94,12.759,8.991,21.068
					c0,14.558-5.521,19.284-9.674,21.571c-3.089,1.702-4.911,5.039-4.673,8.558c0.236,3.518,2.492,6.578,5.781,7.85
					c5.558,2.146,9.652,5.488,12.531,10.24c2.939,4.814,4.423,10.266,4.537,16.662v3.928c0,9.811-3.432,17.959-10.468,24.89
					c-7.362,7.204-16.477,10.705-27.864,10.705c-10.902,0-19.4-2.432-26.015-7.459c-7.211-5.433-11.409-13.913-12.822-25.995l0,0
					h14.032c2.081,0,2.227-0.744,2.227-2.826l0,0c0.782,7.429,3.616,12.87,8.503,16.323c3.519,2.673,7.753,3.976,12.706,3.909
					c5.929,0,10.718-1.627,14.367-4.887c4.234-3.714,6.354-9.122,6.354-16.225v-2.834c-0.132-6.646-2.119-11.777-5.962-15.395
					c-3.846-3.616-9.515-5.424-17.007-5.424c-2.932,0-4.398-1.237-4.398-3.715V63.927c0-2.801,1.303-4.203,3.91-4.203
					c10.751,0,16.159-5.767,16.224-17.299c0-4.561-1.336-8.372-4.007-11.436c-2.736-3.063-6.256-4.594-10.556-4.594
					c-4.105,0-7.396,1.287-9.872,3.86c-2.477,2.575-3.944,6.24-4.398,10.996"/>
			</g>
			<g>
				<path fill="#1D1D1D" d="M89.744,145.345c-11.031,0-19.653-2.478-26.359-7.575c-7.348-5.536-11.616-14.167-13.044-26.382
					l-0.074-0.635h14.671c1.566,0,1.658-0.255,1.658-2.258l1.135-0.06c0.762,7.225,3.542,12.58,8.267,15.918
					c3.415,2.593,7.558,3.845,12.372,3.805c5.765,0,10.47-1.596,13.995-4.742c4.091-3.588,6.162-8.903,6.162-15.8v-2.834
					c-0.128-6.445-2.073-11.488-5.782-14.979c-3.718-3.497-9.309-5.271-16.616-5.271c-4.106,0-4.969-2.329-4.969-4.283V63.927
					c0-3.122,1.549-4.772,4.48-4.772c10.47,0,15.592-5.473,15.655-16.734c0-4.393-1.301-8.114-3.867-11.058
					c-2.605-2.917-6.014-4.398-10.126-4.398c-3.925,0-7.109,1.24-9.461,3.686c-2.374,2.467-3.802,6.052-4.243,10.655l-1.134-0.108
					c0.467-4.865,2-8.68,4.556-11.336c2.575-2.678,6.033-4.035,10.281-4.035c4.45,0,8.145,1.609,10.979,4.784
					c2.757,3.162,4.153,7.135,4.153,11.815c-0.068,11.857-5.719,17.868-16.794,17.868c-2.279,0-3.34,1.154-3.34,3.634v16.322
					c0,1.35,0.396,3.146,3.83,3.146c7.606,0,13.459,1.877,17.397,5.579c3.939,3.709,6.006,9.023,6.141,15.797v2.846
					c0,7.239-2.203,12.842-6.548,16.652c-3.735,3.336-8.695,5.028-14.741,5.028c-5.025,0.078-9.446-1.286-13.051-4.026
					c-4.355-3.075-7.149-7.756-8.318-13.928c-0.414,0.357-1.062,0.549-2.069,0.549h-13.39c1.462,11.553,5.563,19.725,12.523,24.971
					c6.503,4.942,14.9,7.344,25.672,7.344c11.23,0,20.215-3.448,27.467-10.543c6.928-6.824,10.296-14.833,10.296-24.482v-3.928
					c-0.111-6.283-1.569-11.64-4.454-16.366c-2.807-4.634-6.814-7.905-12.251-10.005c-3.482-1.347-5.894-4.622-6.144-8.343
					c-0.252-3.724,1.698-7.293,4.967-9.094c4.026-2.219,9.378-6.817,9.378-21.074c-0.048-8.162-2.933-14.921-8.818-20.66
					c-5.97-5.72-13.137-8.502-21.907-8.502c-9.494,0-16.698,2.659-22.024,8.128c-4.65,4.829-7.33,11.243-8.192,19.608l-1.131-0.117
					c0.888-8.627,3.67-15.262,8.506-20.282c5.554-5.704,13.024-8.476,22.841-8.476c9.078,0,16.502,2.885,22.697,8.821
					c6.12,5.967,9.117,12.99,9.168,21.476c0,14.863-5.689,19.717-9.968,22.074c-2.884,1.588-4.603,4.736-4.38,8.021
					c0.22,3.282,2.347,6.17,5.418,7.358c5.679,2.192,9.871,5.618,12.813,10.475c2.993,4.903,4.504,10.447,4.621,16.947v3.938
					c0,9.97-3.479,18.244-10.639,25.295C110.531,141.79,101.287,145.345,89.744,145.345z"/>
			</g>
		</g>
		<g>
			<g>
				<g>
					<path fill="#1D1D1D" d="M88.018,129.3c-4.901,0-9.171-1.354-12.692-4.029c-4.987-3.523-7.929-9.151-8.725-16.715l1.131-0.12
						c0.762,7.224,3.542,12.579,8.267,15.918c3.416,2.593,7.558,3.845,12.372,3.805c5.764,0,10.47-1.596,13.995-4.742
						c4.091-3.588,6.162-8.903,6.162-15.8v-2.834c-0.128-6.445-2.073-11.489-5.782-14.979c-3.718-3.497-9.309-5.271-16.616-5.271
						c-4.106,0-4.969-2.329-4.969-4.283V63.927c0-3.122,1.549-4.772,4.48-4.772c10.47,0,15.592-5.473,15.655-16.734
						c0-4.393-1.301-8.114-3.867-11.058c-2.605-2.917-6.014-4.398-10.126-4.398c-3.925,0-7.109,1.24-9.461,3.686
						c-2.374,2.467-3.802,6.053-4.243,10.655l-0.044,1.55l-1.137-0.028l0.046-1.594c0.468-4.901,2.001-8.716,4.558-11.373
						c2.575-2.677,6.033-4.034,10.281-4.034c4.45,0,8.145,1.609,10.979,4.784c2.757,3.162,4.153,7.135,4.153,11.815
						c-0.068,11.857-5.719,17.868-16.794,17.868c-2.279,0-3.34,1.154-3.34,3.634v16.322c0,1.35,0.396,3.146,3.83,3.146
						c7.606,0,13.459,1.877,17.397,5.579c3.939,3.708,6.006,9.022,6.141,15.797v2.846c0,7.239-2.203,12.842-6.548,16.652
						c-3.735,3.336-8.697,5.028-14.741,5.028C88.257,129.299,88.138,129.3,88.018,129.3z"/>
				</g>
			</g>
		</g>
		<g>
			<g>
				<g>
					<path fill="#5D25B7" d="M48.205,42.656L48.205,42.656v0.026v-1.139c0.586-12.183,4.301-21.828,11.143-28.93
						C66.515,5.251,76.158,1.569,88.278,1.569c11.271,0,20.818,3.748,28.638,11.24c7.753,7.56,11.662,16.747,11.729,27.562
						c0,12.599-3.665,21.704-10.994,27.32c-1.34,1.026-1.098,3.115,0.403,3.888c5.602,2.882,10.012,6.977,13.229,12.286
						c3.778,6.191,5.732,13.293,5.864,21.308v4.008c0,12.25-4.398,22.709-13.194,31.374c-9.059,8.862-20.461,13.292-34.209,13.292
						c-12.838,0-23.327-3.094-31.473-9.285c-9.514-7.167-15.02-18.342-16.518-33.524c-0.036-0.319-0.062-2.084-0.077-3.825v0.082
						v0.259c0,2.081,1.687,3.769,3.769,3.769h5.462l0,0c1.413,12.082,5.611,20.563,12.822,25.995
						c6.614,5.027,15.113,7.459,26.015,7.459c11.388,0,20.502-3.501,27.864-10.706c7.036-6.93,10.468-15.079,10.468-24.889v-3.928
						c-0.114-6.396-1.598-11.848-4.537-16.663c-2.879-4.751-6.974-8.093-12.531-10.239c-3.289-1.271-5.545-4.332-5.781-7.85
						c-0.238-3.52,1.584-6.855,4.673-8.558c4.152-2.288,9.674-7.014,9.674-21.572c-0.051-8.309-2.991-15.218-8.991-21.067
						c-6.065-5.812-13.381-8.664-22.305-8.664c-9.655,0-16.993,2.715-22.431,8.301c-4.724,4.904-7.477,11.458-8.35,19.946l0,0"/>
				</g>
			</g>
			<g>
				<path fill="#1D1D1D" d="M89.744,154.416c-12.905,0-23.609-3.163-31.817-9.401c-9.599-7.231-15.232-18.646-16.74-33.922
					c-0.018-0.163-0.046-0.701-0.075-3.316c-0.002-0.074-0.005-0.148-0.005-0.224l0.001-0.259c0-0.026,0-0.051-0.001-0.076
					l1.14-0.012c0.001,0.188,0.002,0.364,0.004,0.533c0.097,1.678,1.492,3.013,3.194,3.013h5.968l0.06,0.503
					c1.391,11.891,5.512,20.267,12.599,25.607c6.503,4.942,14.9,7.344,25.672,7.344c11.23,0,20.215-3.448,27.467-10.543
					c6.928-6.824,10.296-14.833,10.296-24.482v-3.928c-0.111-6.283-1.569-11.64-4.454-16.366
					c-2.807-4.634-6.814-7.905-12.251-10.006c-3.481-1.346-5.894-4.62-6.144-8.342c-0.252-3.724,1.698-7.293,4.967-9.094
					c4.026-2.219,9.378-6.816,9.378-21.074c-0.048-8.162-2.933-14.921-8.818-20.66c-5.97-5.72-13.137-8.502-21.907-8.502
					c-9.494,0-16.698,2.659-22.024,8.128c-4.65,4.829-7.33,11.243-8.192,19.608l-1.131-0.117c0.888-8.627,3.67-15.262,8.506-20.282
					c5.554-5.704,13.024-8.476,22.841-8.476c9.078,0,16.502,2.885,22.697,8.821c6.12,5.967,9.117,12.99,9.168,21.476
					c0,14.864-5.689,19.717-9.968,22.074c-2.884,1.588-4.603,4.736-4.38,8.021c0.22,3.282,2.347,6.17,5.418,7.357
					c5.679,2.193,9.871,5.62,12.813,10.476c2.993,4.903,4.504,10.447,4.621,16.947v3.938c0,9.97-3.479,18.244-10.639,25.295
					c-7.477,7.314-16.721,10.869-28.264,10.869c-11.031,0-19.653-2.478-26.359-7.575c-7.247-5.46-11.498-13.93-12.983-25.88h-4.958
					c-1.238,0-2.355-0.521-3.147-1.354c0.01,0.27,0.017,0.389,0.022,0.438c1.476,14.955,6.958,26.1,16.294,33.134
					c8.007,6.086,18.48,9.171,31.131,9.171c13.53,0,24.905-4.418,33.811-13.131c8.642-8.512,13.023-18.932,13.023-30.968v-4.007
					c-0.13-7.865-2.075-14.938-5.781-21.011c-3.146-5.194-7.522-9.257-13.003-12.077c-0.899-0.461-1.488-1.339-1.579-2.347
					c-0.087-0.976,0.32-1.909,1.088-2.498c7.146-5.477,10.771-14.517,10.771-26.869c-0.064-10.604-3.952-19.741-11.557-27.154
					c-7.67-7.35-17.173-11.079-28.24-11.079c-11.903,0-21.5,3.658-28.523,10.873c-6.709,6.965-10.405,16.575-10.982,28.561
					l0.001,1.112h-1.139v-1.139c0.592-12.296,4.394-22.153,11.303-29.324C66.186,4.774,76.057,1,88.278,1
					c11.37,0,21.138,3.834,29.031,11.398c7.834,7.638,11.838,17.046,11.904,27.97c0,12.729-3.773,22.072-11.218,27.775
					c-0.464,0.355-0.699,0.899-0.646,1.492c0.056,0.618,0.416,1.155,0.965,1.438c5.672,2.917,10.199,7.122,13.456,12.497
					c3.813,6.247,5.814,13.513,5.947,21.594v4.016c0,12.353-4.496,23.045-13.366,31.78
					C115.226,149.89,103.582,154.416,89.744,154.416z"/>
			</g>
		</g>
		<g>
			<g>
				<path fill="#01EEBC" d="M70.893,38.888H51.825c-2,0-3.621,1.621-3.621,3.62v1.779c0,1.181,0.958,2.138,2.138,2.138h20.55
					c1.181,0,2.138-0.957,2.138-2.138v-3.261C73.031,39.845,72.073,38.888,70.893,38.888z"/>
			</g>
			<g>
				<path fill="#1D1D1D" d="M70.893,46.994h-20.55c-1.492,0-2.708-1.215-2.708-2.708v-1.779c0-2.31,1.88-4.189,4.19-4.189h19.068
					c1.493,0,2.707,1.215,2.707,2.708v3.261C73.6,45.779,72.386,46.994,70.893,46.994z M51.825,39.457
					c-1.683,0-3.051,1.369-3.051,3.051v1.779c0,0.865,0.703,1.569,1.569,1.569h20.55c0.864,0,1.567-0.705,1.567-1.569v-3.261
					c0-0.866-0.703-1.569-1.567-1.569H51.825z"/>
			</g>
		</g>
		<g>
			<g>
				<g>
					<g>
						<g>
							<g>
								<path fill="#01EEBC" d="M65.198,103.524H43.795c-1.181,0-2.139,0.957-2.139,2.139v1.846c0,2.105,1.708,3.813,3.813,3.813
									h19.729c1.181,0,2.139-0.957,2.139-2.138v-3.521C67.337,104.481,66.379,103.524,65.198,103.524z"/>
							</g>
						</g>
					</g>
				</g>
			</g>
			<g>
				<g>
					<g>
						<g>
							<g>
								<path fill="#1D1D1D" d="M65.198,111.89H45.47c-2.417,0-4.383-1.965-4.383-4.381v-1.846c0-1.493,1.216-2.708,2.708-2.708
									h21.403c1.493,0,2.709,1.215,2.709,2.708v3.521C67.907,110.676,66.691,111.89,65.198,111.89z M43.795,104.094
									c-0.865,0-1.568,0.704-1.568,1.569v1.846c0,1.787,1.455,3.243,3.243,3.243h19.729c0.866,0,1.569-0.704,1.569-1.568v-3.521
									c0-0.865-0.703-1.569-1.569-1.569H43.795z"/>
							</g>
						</g>
					</g>
				</g>
			</g>
		</g>
	</g>
	<g>
		<g>
			<g>
				<path fill="#1D1D1B" d="M31.265,79.521c0,6.807-0.931,11.659-2.791,14.557c-1.861,2.896-5.063,4.346-9.606,4.346
					c-3.686,0-6.472-0.943-8.357-2.829L6.448,91.53c1.816,1.783,4.56,2.675,8.229,2.675c4.526,0,7.719-1.444,9.58-4.333
					c1.86-2.889,2.79-7.744,2.79-14.568c0-8.075-1.337-13.441-4.012-16.099l4.218,4.191C29.927,66.071,31.265,71.446,31.265,79.521z
					 M9.392,85.192c-0.694-1.878-1.042-5.294-1.042-10.249c0-4.954,0.411-8.328,1.234-10.119c0.823-1.792,2.521-2.688,5.092-2.688
					c1.611,0,2.863,0.326,3.754,0.977c0.891,0.652,1.534,1.766,1.929,3.343c-0.566-0.068-1.063-0.103-1.492-0.103
					c-2.571,0-4.265,0.896-5.078,2.687c-0.814,1.792-1.227,4.994-1.234,9.605c-0.009,4.612,0.235,7.853,0.732,9.722
					C11.386,88.128,10.086,87.068,9.392,85.192z"/>
			</g>
			<g>
				<path fill="#1D1D1B" d="M90.535,93.742v-5.786l4.217,4.217v5.787H78.628l-4.218-4.218H90.535z M80.479,75.149V62.677h10.57
					v-5.812l4.217,4.217v5.813H84.697v8.255H80.479z M80.479,87.956v-7.021h7.689v-5.786l4.217,4.217v5.787h-7.689v2.803H80.479z"/>
			</g>
			<g>
				<path fill="#1D1D1B" d="M102.645,93.69c2.742,0,4.92-0.788,6.531-2.365s2.418-3.823,2.418-6.738V56.865l4.218,4.217v27.697
					c0,2.932-0.807,5.186-2.418,6.763c-1.611,1.578-3.789,2.366-6.532,2.366h-1.594l-4.218-4.218H102.645z"/>
			</g>
			<g>
				<path fill="#1D1D1B" d="M130.286,93.742V82.89h10.004v4.218h-5.786V97.96h-6.07l-4.217-4.218H130.286z M130.286,77.104v-8.332
					c0-4.251,1.662-6.378,4.988-6.378c2.709,0,4.329,1.424,4.861,4.269c-0.138-0.033-0.352-0.051-0.644-0.051
					c-3.343,0-5.006,2.126-4.988,6.378v4.114H130.286z M150.551,72.886V97.96h-6.043l-4.218-4.218h6.043V68.669
					c0-3.823-1.141-6.944-3.421-9.361l4.218,4.192C149.41,65.865,150.551,68.995,150.551,72.886z"/>
			</g>
			<g>
				<path fill="#1D1D1B" d="M173.127,98.423c-3.379,0-5.976-0.875-7.793-2.623l-4.217-4.218c1.748,1.749,4.299,2.623,7.65,2.623
					s5.996-0.947,7.934-2.841c1.938-1.895,2.906-4.184,2.906-6.867c0-2.683-0.737-4.83-2.212-6.442l4.218,4.218
					c1.475,1.475,2.211,3.395,2.211,5.761s-0.693,4.595-2.082,6.687c-0.721,1.097-1.827,1.988-3.318,2.674
					S175.166,98.423,173.127,98.423z M173.719,84.304v0.438c-0.241-0.068-0.687-0.219-1.338-0.449
					c-0.652-0.232-1.148-0.407-1.491-0.527c-2.229-0.755-4.099-1.852-5.606-3.292l-3.832-3.857c1.371,1.286,3.283,2.319,5.734,3.099
					c2.452,0.78,4.153,1.471,5.105,2.07C173.242,82.384,173.719,83.225,173.719,84.304z M163.869,67.409
					c0-3.514,1.576-5.272,4.731-5.272c2.708,0,4.252,1.406,4.629,4.218h-0.411c-3.155,0-4.732,1.757-4.732,5.271
					c0,0.737,0.086,1.423,0.258,2.058c-1.44-0.669-2.547-1.479-3.318-2.431C164.254,70.302,163.869,69.021,163.869,67.409z
					 M168.601,88.419l-1.055-0.051c-1.372-0.172-2.284-0.687-2.739-1.544c-0.454-0.856-0.578-2.186-0.372-3.985l4.218,4.217
					C168.617,87.364,168.601,87.819,168.601,88.419z M178.861,70.88c0.771-5.366-0.068-9.301-2.521-11.804l4.218,4.166
					c2.451,2.452,3.292,6.403,2.52,11.855h-5.785l-4.218-4.218H178.861z"/>
			</g>
		</g>
		<g>
			<g>
				<path fill="#F7F5FC" d="M14.67,94.833c-4.748,0-8.156-1.563-10.134-4.642c-1.919-2.99-2.894-8.013-2.894-14.929
					c0-7.013,0.947-11.896,2.894-14.929c1.978-3.08,5.386-4.642,10.134-4.642c4.747,0,8.156,1.562,10.134,4.642
					c1.919,2.991,2.892,8.013,2.892,14.929S26.724,87.2,24.804,90.191C22.826,93.271,19.417,94.833,14.67,94.833z M14.67,62.764
					c-2.311,0-3.781,0.757-4.495,2.312C9.396,66.774,9,70.21,9,75.288c0,5.069,0.419,8.491,1.245,10.17
					c0.765,1.549,2.211,2.302,4.426,2.302c2.214,0,3.66-0.753,4.425-2.302c0.825-1.677,1.245-5.098,1.245-10.17
					c0-5.078-0.396-8.514-1.176-10.212C18.45,63.521,16.979,62.764,14.67,62.764z"/>
			</g>
			<g>
				<path fill="#1D1D1B" d="M14.669,56.334c4.535,0,7.732,1.449,9.592,4.346s2.791,7.758,2.791,14.581
					c0,6.823-0.93,11.685-2.791,14.582s-5.058,4.346-9.592,4.346s-7.732-1.448-9.592-4.346c-1.861-2.897-2.791-7.759-2.791-14.582
					c0-6.823,0.93-11.684,2.791-14.581C6.937,57.783,10.135,56.334,14.669,56.334 M14.669,88.403c2.46,0,4.127-0.888,5.002-2.662
					s1.311-5.259,1.311-10.454c0-5.194-0.411-8.688-1.233-10.479c-0.823-1.792-2.517-2.688-5.08-2.688s-4.256,0.896-5.079,2.688
					C8.768,66.6,8.356,70.093,8.356,75.287c0,5.195,0.438,8.68,1.312,10.454S12.209,88.403,14.669,88.403 M14.669,55.048
					c-4.981,0-8.572,1.662-10.674,4.938C1.979,63.124,1,68.121,1,75.262C1,82.403,1.979,87.4,3.995,90.538
					c2.103,3.276,5.693,4.938,10.674,4.938c4.979,0,8.571-1.661,10.675-4.938c2.015-3.138,2.994-8.135,2.994-15.276
					c0-7.141-0.979-12.138-2.994-15.276C23.241,56.709,19.649,55.048,14.669,55.048L14.669,55.048z M14.669,87.116
					c-2.59,0-3.436-1.109-3.847-1.943c-0.538-1.092-1.179-3.693-1.179-9.886c0-6.208,0.607-8.833,1.117-9.941
					c0.382-0.832,1.203-1.938,3.91-1.938s3.528,1.106,3.91,1.938c0.51,1.108,1.117,3.733,1.117,9.941
					c0,6.194-0.641,8.794-1.179,9.886C18.106,86.007,17.26,87.116,14.669,87.116L14.669,87.116z"/>
			</g>
		</g>
		<g>
			<g>
				<path fill="#F7F5FC" d="M74.416,94.37c-0.355,0-0.644-0.288-0.644-0.644V56.849c0-0.355,0.288-0.644,0.644-0.644h16.639
					c0.355,0,0.643,0.289,0.643,0.644v5.812c0,0.354-0.288,0.643-0.643,0.643h-9.926V74.49h7.045c0.356,0,0.644,0.288,0.644,0.644
					v5.786c0,0.354-0.288,0.644-0.644,0.644h-7.045v5.733h9.412c0.356,0,0.643,0.288,0.643,0.644v5.786
					c0,0.355-0.287,0.644-0.643,0.644H74.416z"/>
			</g>
			<g>
				<path fill="#1D1D1B" d="M91.055,56.849v5.812H80.485v12.473h7.688v5.785h-7.688v7.021H90.54v5.786H74.416V56.849H91.055
					 M91.055,55.563H74.416c-0.711,0-1.287,0.576-1.287,1.287v36.877c0,0.71,0.576,1.286,1.287,1.286H90.54
					c0.711,0,1.287-0.576,1.287-1.286V87.94c0-0.711-0.576-1.287-1.287-1.287h-8.769v-4.447h6.402c0.711,0,1.287-0.576,1.287-1.287
					v-5.785c0-0.711-0.576-1.287-1.287-1.287h-6.402v-9.899h9.283c0.711,0,1.287-0.577,1.287-1.287v-5.812
					C92.341,56.139,91.766,55.563,91.055,55.563L91.055,55.563z"/>
			</g>
		</g>
		<g>
			<g>
				<path fill="#F7F5FC" d="M101.056,94.318c-0.356,0-0.644-0.288-0.644-0.644V87.89c0-0.355,0.287-0.644,0.644-0.644h1.594
					c0.775,0,1.323-0.222,1.677-0.678c0.391-0.501,0.574-1.083,0.561-1.778V56.849c0-0.355,0.287-0.644,0.643-0.644h6.07
					c0.355,0,0.644,0.289,0.644,0.644v27.722c0,3.079-0.879,5.502-2.611,7.198c-1.729,1.691-4.078,2.549-6.982,2.549H101.056z"/>
			</g>
			<g>
				<path fill="#1D1D1B" d="M111.599,56.849v27.722c0,2.915-0.806,5.16-2.417,6.738c-1.611,1.577-3.789,2.365-6.531,2.365h-1.596
					V87.89h1.596c0.977,0,1.705-0.31,2.185-0.927c0.48-0.617,0.712-1.346,0.694-2.186V56.849H111.599 M111.599,55.563h-6.069
					c-0.711,0-1.286,0.576-1.286,1.287v27.928c0.011,0.574-0.124,1.01-0.424,1.396c-0.143,0.185-0.42,0.43-1.169,0.43h-1.596
					c-0.711,0-1.286,0.576-1.286,1.287v5.785c0,0.711,0.575,1.287,1.286,1.287h1.596c3.078,0,5.578-0.92,7.431-2.733
					c1.861-1.821,2.805-4.397,2.805-7.657V56.849C112.886,56.139,112.31,55.563,111.599,55.563L111.599,55.563z"/>
			</g>
		</g>
		<g>
			<g>
				<path fill="#F7F5FC" d="M140.295,94.37c-0.355,0-0.643-0.288-0.643-0.644V83.518h-8.717v10.209c0,0.355-0.288,0.644-0.644,0.644
					h-6.069c-0.356,0-0.644-0.288-0.644-0.644V68.653c0-3.833,1.085-6.98,3.225-9.354c2.159-2.394,5.015-3.607,8.489-3.607
					c3.477,0,6.328,1.214,8.478,3.609c2.13,2.373,3.212,5.521,3.212,9.353v25.073c0,0.355-0.288,0.644-0.645,0.644H140.295z
					 M139.652,76.444v-7.689c0-5.14-2.488-5.734-4.359-5.734c-1.87,0-4.357,0.594-4.357,5.734v7.689H139.652z"/>
			</g>
			<g>
				<path fill="#1D1D1B" d="M135.293,56.334c3.301,0,5.967,1.132,7.998,3.395c2.031,2.263,3.047,5.237,3.047,8.924v25.073h-6.043
					V82.874h-10.004v10.853h-6.068V68.653c0-3.687,1.02-6.661,3.06-8.924C129.322,57.466,131.992,56.334,135.293,56.334
					 M130.291,77.088h10.004v-8.333c0-4.251-1.667-6.377-5.002-6.377c-3.334,0-5.002,2.126-5.002,6.377V77.088 M135.293,55.048
					c-3.665,0-6.682,1.285-8.967,3.82c-2.25,2.495-3.391,5.787-3.391,9.785v25.073c0,0.71,0.576,1.286,1.287,1.286h6.068
					c0.711,0,1.287-0.576,1.287-1.286V84.16h7.431v9.566c0,0.71,0.576,1.286,1.286,1.286h6.043c0.711,0,1.287-0.576,1.287-1.286
					V68.653c0-3.996-1.137-7.288-3.377-9.783C141.973,56.334,138.959,55.048,135.293,55.048L135.293,55.048z M131.578,75.801v-7.046
					c0-4.512,1.985-5.09,3.715-5.09c1.73,0,3.716,0.578,3.716,5.09v7.046H131.578L131.578,75.801z"/>
			</g>
		</g>
		<g>
			<g>
				<path fill="#F7F5FC" d="M168.915,94.833c-4.047,0-6.985-1.125-8.735-3.345c-1.725-2.187-2.454-5.119-2.168-8.717
					c0.028-0.335,0.308-0.592,0.643-0.592h5.786c0.183,0,0.354,0.077,0.477,0.212s0.183,0.314,0.164,0.495
					c-0.236,2.369,0.125,3.431,0.47,3.902c0.463,0.636,1.627,0.971,3.364,0.971c3.713,0,4.155-1.983,4.166-3.476
					c0-0.534,0-2.172-3.595-3.102c-2.776-0.719-5.417-1.907-7.848-3.534c-1.277-0.851-2.338-2.182-3.156-3.955
					c-0.808-1.751-1.218-3.871-1.218-6.3c0-3.407,0.995-6.235,2.957-8.404c1.978-2.188,4.902-3.298,8.693-3.298
					c3.812,0,6.737,1.296,8.7,3.852c1.942,2.531,2.578,6.369,1.89,11.408c-0.045,0.318-0.317,0.556-0.638,0.556h-5.786
					c-0.187,0-0.363-0.081-0.485-0.22c-0.122-0.14-0.178-0.326-0.152-0.511c0.406-2.962,0.26-5.083-0.436-6.306
					c-0.656-1.147-1.768-1.707-3.401-1.707c-2.79,0-4.09,1.471-4.09,4.629c0,1.653,0.472,2.92,1.441,3.875
					c1.016,1,2.255,1.759,3.683,2.255c1.532,0.534,3.072,1.098,4.621,1.692c1.646,0.63,3.065,1.689,4.222,3.146
					c1.177,1.481,1.773,3.415,1.773,5.748c0,2.313-0.738,4.596-2.191,6.785c-0.784,1.193-1.993,2.164-3.591,2.881
					C172.906,94.477,171.037,94.833,168.915,94.833z"/>
			</g>
			<g>
				<path fill="#1D1D1B" d="M168.914,56.334c3.618,0,6.349,1.201,8.191,3.601c1.842,2.4,2.43,6.043,1.762,10.929h-5.787
					c0.429-3.12,0.258-5.357-0.514-6.712c-0.772-1.354-2.093-2.032-3.961-2.032c-3.154,0-4.731,1.758-4.731,5.272
					c0,1.817,0.544,3.262,1.633,4.333s2.396,1.874,3.922,2.404c1.525,0.532,3.06,1.093,4.604,1.685
					c1.543,0.591,2.858,1.573,3.947,2.945c1.089,1.372,1.634,3.154,1.634,5.349s-0.695,4.338-2.084,6.43
					c-0.72,1.097-1.825,1.979-3.317,2.648c-1.491,0.668-3.258,1.003-5.298,1.003c-3.857,0-6.601-1.032-8.229-3.099
					c-1.63-2.066-2.307-4.822-2.031-8.268h5.786c-0.206,2.074-0.01,3.522,0.591,4.346c0.6,0.822,1.895,1.234,3.883,1.234
					c3.189,0,4.792-1.371,4.81-4.115c0-1.782-1.359-3.025-4.076-3.729c-2.718-0.703-5.268-1.852-7.65-3.446
					c-1.184-0.788-2.16-2.019-2.933-3.69c-0.771-1.672-1.156-3.682-1.156-6.031c0-3.257,0.93-5.915,2.79-7.972
					C162.558,57.363,165.297,56.334,168.914,56.334 M164.44,82.823h0.007 M168.914,55.048c-3.979,0-7.064,1.181-9.17,3.51
					c-2.072,2.291-3.123,5.264-3.123,8.835c0,2.524,0.429,4.734,1.275,6.569c0.87,1.884,2.01,3.305,3.387,4.223
					c2.491,1.666,5.197,2.885,8.043,3.621c3.11,0.805,3.11,2.068,3.11,2.482c-0.009,1.465-0.442,2.828-3.522,2.828
					c-2.102,0-2.688-0.493-2.843-0.706c-0.226-0.309-0.567-1.154-0.36-3.367c0.013-0.071,0.02-0.146,0.02-0.22
					c0-0.711-0.572-1.287-1.283-1.287h-0.007h-5.786c-0.671,0-1.229,0.516-1.283,1.185c-0.301,3.764,0.475,6.848,2.304,9.167
					c1.878,2.381,4.985,3.589,9.239,3.589c2.213,0,4.173-0.376,5.824-1.116c1.713-0.768,3.014-1.816,3.867-3.117
					c1.521-2.29,2.294-4.692,2.294-7.135c0-2.481-0.644-4.55-1.912-6.149c-1.23-1.549-2.742-2.674-4.495-3.346
					c-1.547-0.593-3.109-1.164-4.641-1.698c-1.337-0.465-2.495-1.174-3.442-2.106c-0.84-0.827-1.248-1.944-1.248-3.417
					c0-3.512,1.741-3.985,3.444-3.985c1.842,0,2.505,0.789,2.843,1.382c0.429,0.753,0.839,2.389,0.357,5.9
					c-0.051,0.368,0.061,0.74,0.306,1.021c0.243,0.28,0.598,0.441,0.969,0.441h5.787c0.644,0,1.188-0.476,1.275-1.113
					c0.712-5.215,0.034-9.215-2.017-11.887C176.035,56.429,172.936,55.048,168.914,55.048L168.914,55.048z"/>
			</g>
		</g>
		<g>
			<g>
				<g>
					<g>
						<path fill="#1D1D1B" d="M49.065,97.908L38.909,60.525c-0.262-0.919,0.525-0.919,1.208-0.919h8.744l4.896,25.127
							c0.053,0.255,0.474,0.255,0.525,0l4.74-24.31c0.157-0.817,0.578-0.817,1.522-0.817h7.405L57.541,97.908c0,0-0.147,0-1.303,0
							h-5.881C49.201,97.908,49.065,97.908,49.065,97.908z"/>
					</g>
				</g>
			</g>
			<g>
				<g>
					<g>
						<path fill="#F7F5FC" d="M45.03,93.238l-9.873-36.362c-0.263-0.919,0.525-0.919,1.208-0.919h5.934c0.946,0,1.365,0,1.523,0.817
							l5.461,24.309c0.053,0.256,0.473,0.256,0.525,0l5.461-24.309c0.158-0.817,0.578-0.817,1.522-0.817h5.934
							c0.684,0,1.471,0,1.208,0.919l-9.873,36.362c-0.21,0.817-0.42,1.021-1.575,1.021h-5.881
							C45.45,94.26,45.239,94.056,45.03,93.238z"/>
					</g>
					<g>
						<path fill="#1D1D1B" d="M52.487,94.894h-5.88c-1.382,0-1.895-0.349-2.189-1.493l-9.873-36.358
							c-0.136-0.476-0.086-0.881,0.15-1.194c0.397-0.525,1.103-0.525,1.67-0.525h5.934c0.93,0,1.89,0,2.146,1.332l5.102,22.707
							l5.105-22.727c0.251-1.313,1.211-1.313,2.141-1.313h5.934c0.568,0,1.275,0,1.67,0.525c0.238,0.314,0.287,0.719,0.147,1.203
							l-9.869,36.354C54.381,94.544,53.868,94.894,52.487,94.894z M35.747,56.624c0.005,0.02,0.011,0.045,0.021,0.077l9.876,36.371
							c0,0.003,0.001,0.005,0.001,0.008c0.141,0.545,0.141,0.545,0.962,0.545h5.88c0.82,0,0.82,0,0.961-0.546l9.873-36.369
							c0.034-0.121,0.03-0.167,0.03-0.167c-0.033,0.048-0.418,0.048-0.625,0.048h-5.934c-0.326,0-0.735,0-0.821,0.058l0,0
							c0,0-0.042,0.049-0.079,0.245l-5.465,24.329c-0.082,0.399-0.446,0.687-0.883,0.687c-0.435,0-0.799-0.287-0.884-0.697
							l-5.458-24.299c-0.043-0.219-0.085-0.267-0.086-0.267c-0.083-0.055-0.49-0.055-0.818-0.055h-5.934
							C36.194,56.591,35.902,56.591,35.747,56.624z M49.191,80.942c-0.001,0.004-0.001,0.009-0.003,0.013L49.191,80.942z
							 M49.899,80.933l0.001,0.012C49.901,80.94,49.899,80.937,49.899,80.933z"/>
					</g>
				</g>
			</g>
		</g>
	</g>
</g>
</svg>
